<?xml version="1.0" standalone="no"?>
 <!DOCTYPE svg PUBLIC "-//W3C//DTD SVG 1.1//EN" 
 "http://www.w3.org/Graphics/SVG/1.1/DTD/svg11.dtd"> 
<svg xmlns="http://www.w3.org/2000/svg" version="1.1" 
    width="29.7002cm" height="21.0007cm" viewBox="0 0 116930 82680 ">
<title>SVG Picture created as GCodeToAnalog-brd.svg date 2020/03/03 15:33:40 </title>
  <desc>Picture generated by PCBNEW </desc>
<g style="fill:#000000; fill-opacity:1;stroke:#000000; stroke-opacity:1;
stroke-linecap:round; stroke-linejoin:round; "
 transform="translate(0 0) scale(1 1)">
</g>
<g style="fill:#000000; fill-opacity:0.0; 
stroke:#000000; stroke-width:-0.000393701; stroke-opacity:1; 
stroke-linecap:round; stroke-linejoin:round;">
</g>
<g style="fill:#000000; fill-opacity:0.0; 
stroke:#000000; stroke-width:39.3701; stroke-opacity:1; 
stroke-linecap:round; stroke-linejoin:round;">
</g>
<g style="fill:#000000; fill-opacity:0.0; 
stroke:#000000; stroke-width:59.0551; stroke-opacity:1; 
stroke-linecap:round; stroke-linejoin:round;">
<rect x="69685.9" y="65357.2" width="42519.7" height="12598.4" rx="0" />
</g>
<g style="fill:#000000; fill-opacity:0.0; 
stroke:#000000; stroke-width:39.3701; stroke-opacity:1; 
stroke-linecap:round; stroke-linejoin:round;">
</g>
<g style="fill:#000000; fill-opacity:0.0; 
stroke:#000000; stroke-width:59.0551; stroke-opacity:1; 
stroke-linecap:round; stroke-linejoin:round;">
<rect x="3937.01" y="3937.01" width="109056" height="74806" rx="0" />
</g>
<g style="fill:#000000; fill-opacity:0.0; 
stroke:#000000; stroke-width:39.3701; stroke-opacity:1; 
stroke-linecap:round; stroke-linejoin:round;">
</g>
<g style="fill:#000000; fill-opacity:0.0; 
stroke:#000000; stroke-width:59.0551; stroke-opacity:1; 
stroke-linecap:round; stroke-linejoin:round;">
<rect x="4724.41" y="4724.41" width="107481" height="73231.2" rx="0" />
</g>
<g style="fill:#000000; fill-opacity:0.0; 
stroke:#000000; stroke-width:39.3701; stroke-opacity:1; 
stroke-linecap:round; stroke-linejoin:round;">
</g>
<g style="fill:#000000; fill-opacity:0.0; 
stroke:#000000; stroke-width:59.0551; stroke-opacity:1; 
stroke-linecap:round; stroke-linejoin:round;">
<path d="M23622 4724
L23622 3937
" />
</g>
<g style="fill:#000000; fill-opacity:0.0; 
stroke:#000000; stroke-width:39.3701; stroke-opacity:1; 
stroke-linecap:round; stroke-linejoin:round;">
</g>
<g style="fill:#000000; fill-opacity:0.0; 
stroke:#000000; stroke-width:59.0551; stroke-opacity:1; 
stroke-linecap:round; stroke-linejoin:round;">
<path d="M43307 4724
L43307 3937
" />
</g>
<g style="fill:#000000; fill-opacity:0.0; 
stroke:#000000; stroke-width:39.3701; stroke-opacity:1; 
stroke-linecap:round; stroke-linejoin:round;">
</g>
<g style="fill:#000000; fill-opacity:0.0; 
stroke:#000000; stroke-width:59.0551; stroke-opacity:1; 
stroke-linecap:round; stroke-linejoin:round;">
<path d="M62992 4724
L62992 3937
" />
</g>
<g style="fill:#000000; fill-opacity:0.0; 
stroke:#000000; stroke-width:39.3701; stroke-opacity:1; 
stroke-linecap:round; stroke-linejoin:round;">
</g>
<g style="fill:#000000; fill-opacity:0.0; 
stroke:#000000; stroke-width:59.0551; stroke-opacity:1; 
stroke-linecap:round; stroke-linejoin:round;">
<path d="M82677 4724
L82677 3937
" />
</g>
<g style="fill:#000000; fill-opacity:0.0; 
stroke:#000000; stroke-width:39.3701; stroke-opacity:1; 
stroke-linecap:round; stroke-linejoin:round;">
</g>
<g style="fill:#000000; fill-opacity:0.0; 
stroke:#000000; stroke-width:59.0551; stroke-opacity:1; 
stroke-linecap:round; stroke-linejoin:round;">
<path d="M102362 4724
L102362 3937
" />
</g>
<g style="fill:#000000; fill-opacity:0.0; 
stroke:#000000; stroke-width:39.3701; stroke-opacity:1; 
stroke-linecap:round; stroke-linejoin:round;">
</g>
<g style="fill:#000000; fill-opacity:0.0; 
stroke:#000000; stroke-width:59.0551; stroke-opacity:1; 
stroke-linecap:round; stroke-linejoin:round;">
<path d="M14199 4562
L13906 4562
" />
<path d="M14052 4562
L14052 4050
L14004 4123
L13955 4172
L13906 4196
" />
</g>
<g style="fill:#000000; fill-opacity:0.0; 
stroke:#000000; stroke-width:39.3701; stroke-opacity:1; 
stroke-linecap:round; stroke-linejoin:round;">
</g>
<g style="fill:#000000; fill-opacity:0.0; 
stroke:#000000; stroke-width:59.0551; stroke-opacity:1; 
stroke-linecap:round; stroke-linejoin:round;">
<path d="M33591 4099
L33615 4074
L33664 4050
L33786 4050
L33835 4074
L33859 4099
L33884 4147
L33884 4196
L33859 4269
L33567 4562
L33884 4562
" />
</g>
<g style="fill:#000000; fill-opacity:0.0; 
stroke:#000000; stroke-width:39.3701; stroke-opacity:1; 
stroke-linecap:round; stroke-linejoin:round;">
</g>
<g style="fill:#000000; fill-opacity:0.0; 
stroke:#000000; stroke-width:59.0551; stroke-opacity:1; 
stroke-linecap:round; stroke-linejoin:round;">
<path d="M53252 4050
L53569 4050
L53398 4245
L53471 4245
L53520 4269
L53544 4294
L53569 4342
L53569 4464
L53544 4513
L53520 4537
L53471 4562
L53325 4562
L53276 4537
L53252 4513
" />
</g>
<g style="fill:#000000; fill-opacity:0.0; 
stroke:#000000; stroke-width:39.3701; stroke-opacity:1; 
stroke-linecap:round; stroke-linejoin:round;">
</g>
<g style="fill:#000000; fill-opacity:0.0; 
stroke:#000000; stroke-width:59.0551; stroke-opacity:1; 
stroke-linecap:round; stroke-linejoin:round;">
<path d="M73205 4221
L73205 4562
" />
<path d="M73083 4026
L72961 4391
L73278 4391
" />
</g>
<g style="fill:#000000; fill-opacity:0.0; 
stroke:#000000; stroke-width:39.3701; stroke-opacity:1; 
stroke-linecap:round; stroke-linejoin:round;">
</g>
<g style="fill:#000000; fill-opacity:0.0; 
stroke:#000000; stroke-width:59.0551; stroke-opacity:1; 
stroke-linecap:round; stroke-linejoin:round;">
<path d="M92914 4050
L92671 4050
L92646 4294
L92671 4269
L92719 4245
L92841 4245
L92890 4269
L92914 4294
L92939 4342
L92939 4464
L92914 4513
L92890 4537
L92841 4562
L92719 4562
L92671 4537
L92646 4513
" />
</g>
<g style="fill:#000000; fill-opacity:0.0; 
stroke:#000000; stroke-width:39.3701; stroke-opacity:1; 
stroke-linecap:round; stroke-linejoin:round;">
</g>
<g style="fill:#000000; fill-opacity:0.0; 
stroke:#000000; stroke-width:59.0551; stroke-opacity:1; 
stroke-linecap:round; stroke-linejoin:round;">
<path d="M112575 4050
L112477 4050
L112429 4074
L112404 4099
L112356 4172
L112331 4269
L112331 4464
L112356 4513
L112380 4537
L112429 4562
L112526 4562
L112575 4537
L112599 4513
L112624 4464
L112624 4342
L112599 4294
L112575 4269
L112526 4245
L112429 4245
L112380 4269
L112356 4294
L112331 4342
" />
</g>
<g style="fill:#000000; fill-opacity:0.0; 
stroke:#000000; stroke-width:39.3701; stroke-opacity:1; 
stroke-linecap:round; stroke-linejoin:round;">
</g>
<g style="fill:#000000; fill-opacity:0.0; 
stroke:#000000; stroke-width:59.0551; stroke-opacity:1; 
stroke-linecap:round; stroke-linejoin:round;">
<path d="M23622 77955
L23622 78742
" />
</g>
<g style="fill:#000000; fill-opacity:0.0; 
stroke:#000000; stroke-width:39.3701; stroke-opacity:1; 
stroke-linecap:round; stroke-linejoin:round;">
</g>
<g style="fill:#000000; fill-opacity:0.0; 
stroke:#000000; stroke-width:59.0551; stroke-opacity:1; 
stroke-linecap:round; stroke-linejoin:round;">
<path d="M43307 77955
L43307 78742
" />
</g>
<g style="fill:#000000; fill-opacity:0.0; 
stroke:#000000; stroke-width:39.3701; stroke-opacity:1; 
stroke-linecap:round; stroke-linejoin:round;">
</g>
<g style="fill:#000000; fill-opacity:0.0; 
stroke:#000000; stroke-width:59.0551; stroke-opacity:1; 
stroke-linecap:round; stroke-linejoin:round;">
<path d="M62992 77955
L62992 78742
" />
</g>
<g style="fill:#000000; fill-opacity:0.0; 
stroke:#000000; stroke-width:39.3701; stroke-opacity:1; 
stroke-linecap:round; stroke-linejoin:round;">
</g>
<g style="fill:#000000; fill-opacity:0.0; 
stroke:#000000; stroke-width:59.0551; stroke-opacity:1; 
stroke-linecap:round; stroke-linejoin:round;">
<path d="M82677 77955
L82677 78742
" />
</g>
<g style="fill:#000000; fill-opacity:0.0; 
stroke:#000000; stroke-width:39.3701; stroke-opacity:1; 
stroke-linecap:round; stroke-linejoin:round;">
</g>
<g style="fill:#000000; fill-opacity:0.0; 
stroke:#000000; stroke-width:59.0551; stroke-opacity:1; 
stroke-linecap:round; stroke-linejoin:round;">
<path d="M102362 77955
L102362 78742
" />
</g>
<g style="fill:#000000; fill-opacity:0.0; 
stroke:#000000; stroke-width:39.3701; stroke-opacity:1; 
stroke-linecap:round; stroke-linejoin:round;">
</g>
<g style="fill:#000000; fill-opacity:0.0; 
stroke:#000000; stroke-width:59.0551; stroke-opacity:1; 
stroke-linecap:round; stroke-linejoin:round;">
<path d="M14199 78580
L13906 78580
" />
<path d="M14052 78580
L14052 78069
L14004 78142
L13955 78190
L13906 78215
" />
</g>
<g style="fill:#000000; fill-opacity:0.0; 
stroke:#000000; stroke-width:39.3701; stroke-opacity:1; 
stroke-linecap:round; stroke-linejoin:round;">
</g>
<g style="fill:#000000; fill-opacity:0.0; 
stroke:#000000; stroke-width:59.0551; stroke-opacity:1; 
stroke-linecap:round; stroke-linejoin:round;">
<path d="M33591 78117
L33615 78093
L33664 78069
L33786 78069
L33835 78093
L33859 78117
L33884 78166
L33884 78215
L33859 78288
L33567 78580
L33884 78580
" />
</g>
<g style="fill:#000000; fill-opacity:0.0; 
stroke:#000000; stroke-width:39.3701; stroke-opacity:1; 
stroke-linecap:round; stroke-linejoin:round;">
</g>
<g style="fill:#000000; fill-opacity:0.0; 
stroke:#000000; stroke-width:59.0551; stroke-opacity:1; 
stroke-linecap:round; stroke-linejoin:round;">
<path d="M53252 78069
L53569 78069
L53398 78263
L53471 78263
L53520 78288
L53544 78312
L53569 78361
L53569 78483
L53544 78532
L53520 78556
L53471 78580
L53325 78580
L53276 78556
L53252 78532
" />
</g>
<g style="fill:#000000; fill-opacity:0.0; 
stroke:#000000; stroke-width:39.3701; stroke-opacity:1; 
stroke-linecap:round; stroke-linejoin:round;">
</g>
<g style="fill:#000000; fill-opacity:0.0; 
stroke:#000000; stroke-width:59.0551; stroke-opacity:1; 
stroke-linecap:round; stroke-linejoin:round;">
<path d="M73205 78239
L73205 78580
" />
<path d="M73083 78044
L72961 78410
L73278 78410
" />
</g>
<g style="fill:#000000; fill-opacity:0.0; 
stroke:#000000; stroke-width:39.3701; stroke-opacity:1; 
stroke-linecap:round; stroke-linejoin:round;">
</g>
<g style="fill:#000000; fill-opacity:0.0; 
stroke:#000000; stroke-width:59.0551; stroke-opacity:1; 
stroke-linecap:round; stroke-linejoin:round;">
<path d="M92914 78069
L92671 78069
L92646 78312
L92671 78288
L92719 78263
L92841 78263
L92890 78288
L92914 78312
L92939 78361
L92939 78483
L92914 78532
L92890 78556
L92841 78580
L92719 78580
L92671 78556
L92646 78532
" />
</g>
<g style="fill:#000000; fill-opacity:0.0; 
stroke:#000000; stroke-width:39.3701; stroke-opacity:1; 
stroke-linecap:round; stroke-linejoin:round;">
</g>
<g style="fill:#000000; fill-opacity:0.0; 
stroke:#000000; stroke-width:59.0551; stroke-opacity:1; 
stroke-linecap:round; stroke-linejoin:round;">
<path d="M112575 78069
L112477 78069
L112429 78093
L112404 78117
L112356 78190
L112331 78288
L112331 78483
L112356 78532
L112380 78556
L112429 78580
L112526 78580
L112575 78556
L112599 78532
L112624 78483
L112624 78361
L112599 78312
L112575 78288
L112526 78263
L112429 78263
L112380 78288
L112356 78312
L112331 78361
" />
</g>
<g style="fill:#000000; fill-opacity:0.0; 
stroke:#000000; stroke-width:39.3701; stroke-opacity:1; 
stroke-linecap:round; stroke-linejoin:round;">
</g>
<g style="fill:#000000; fill-opacity:0.0; 
stroke:#000000; stroke-width:59.0551; stroke-opacity:1; 
stroke-linecap:round; stroke-linejoin:round;">
<path d="M3937 23622
L4724 23622
" />
</g>
<g style="fill:#000000; fill-opacity:0.0; 
stroke:#000000; stroke-width:39.3701; stroke-opacity:1; 
stroke-linecap:round; stroke-linejoin:round;">
</g>
<g style="fill:#000000; fill-opacity:0.0; 
stroke:#000000; stroke-width:59.0551; stroke-opacity:1; 
stroke-linecap:round; stroke-linejoin:round;">
<path d="M3937 43307
L4724 43307
" />
</g>
<g style="fill:#000000; fill-opacity:0.0; 
stroke:#000000; stroke-width:39.3701; stroke-opacity:1; 
stroke-linecap:round; stroke-linejoin:round;">
</g>
<g style="fill:#000000; fill-opacity:0.0; 
stroke:#000000; stroke-width:59.0551; stroke-opacity:1; 
stroke-linecap:round; stroke-linejoin:round;">
<path d="M3937 62992
L4724 62992
" />
</g>
<g style="fill:#000000; fill-opacity:0.0; 
stroke:#000000; stroke-width:39.3701; stroke-opacity:1; 
stroke-linecap:round; stroke-linejoin:round;">
</g>
<g style="fill:#000000; fill-opacity:0.0; 
stroke:#000000; stroke-width:59.0551; stroke-opacity:1; 
stroke-linecap:round; stroke-linejoin:round;">
<path d="M4208 13864
L4452 13864
" />
<path d="M4160 14011
L4330 13499
L4501 14011
" />
</g>
<g style="fill:#000000; fill-opacity:0.0; 
stroke:#000000; stroke-width:39.3701; stroke-opacity:1; 
stroke-linecap:round; stroke-linejoin:round;">
</g>
<g style="fill:#000000; fill-opacity:0.0; 
stroke:#000000; stroke-width:59.0551; stroke-opacity:1; 
stroke-linecap:round; stroke-linejoin:round;">
<path d="M4367 33428
L4440 33452
L4464 33476
L4489 33525
L4489 33598
L4464 33647
L4440 33671
L4391 33696
L4196 33696
L4196 33184
L4367 33184
L4416 33208
L4440 33233
L4464 33281
L4464 33330
L4440 33379
L4416 33403
L4367 33428
L4196 33428
" />
</g>
<g style="fill:#000000; fill-opacity:0.0; 
stroke:#000000; stroke-width:39.3701; stroke-opacity:1; 
stroke-linecap:round; stroke-linejoin:round;">
</g>
<g style="fill:#000000; fill-opacity:0.0; 
stroke:#000000; stroke-width:59.0551; stroke-opacity:1; 
stroke-linecap:round; stroke-linejoin:round;">
<path d="M4489 53332
L4464 53356
L4391 53381
L4342 53381
L4269 53356
L4221 53308
L4196 53259
L4172 53161
L4172 53088
L4196 52991
L4221 52942
L4269 52893
L4342 52869
L4391 52869
L4464 52893
L4489 52918
" />
</g>
<g style="fill:#000000; fill-opacity:0.0; 
stroke:#000000; stroke-width:39.3701; stroke-opacity:1; 
stroke-linecap:round; stroke-linejoin:round;">
</g>
<g style="fill:#000000; fill-opacity:0.0; 
stroke:#000000; stroke-width:59.0551; stroke-opacity:1; 
stroke-linecap:round; stroke-linejoin:round;">
<path d="M4196 73066
L4196 72554
L4318 72554
L4391 72578
L4440 72627
L4464 72676
L4489 72773
L4489 72846
L4464 72944
L4440 72993
L4391 73041
L4318 73066
L4196 73066
" />
</g>
<g style="fill:#000000; fill-opacity:0.0; 
stroke:#000000; stroke-width:39.3701; stroke-opacity:1; 
stroke-linecap:round; stroke-linejoin:round;">
</g>
<g style="fill:#000000; fill-opacity:0.0; 
stroke:#000000; stroke-width:59.0551; stroke-opacity:1; 
stroke-linecap:round; stroke-linejoin:round;">
<path d="M112992 23622
L112205 23622
" />
</g>
<g style="fill:#000000; fill-opacity:0.0; 
stroke:#000000; stroke-width:39.3701; stroke-opacity:1; 
stroke-linecap:round; stroke-linejoin:round;">
</g>
<g style="fill:#000000; fill-opacity:0.0; 
stroke:#000000; stroke-width:59.0551; stroke-opacity:1; 
stroke-linecap:round; stroke-linejoin:round;">
<path d="M112992 43307
L112205 43307
" />
</g>
<g style="fill:#000000; fill-opacity:0.0; 
stroke:#000000; stroke-width:39.3701; stroke-opacity:1; 
stroke-linecap:round; stroke-linejoin:round;">
</g>
<g style="fill:#000000; fill-opacity:0.0; 
stroke:#000000; stroke-width:59.0551; stroke-opacity:1; 
stroke-linecap:round; stroke-linejoin:round;">
<path d="M112992 62992
L112205 62992
" />
</g>
<g style="fill:#000000; fill-opacity:0.0; 
stroke:#000000; stroke-width:39.3701; stroke-opacity:1; 
stroke-linecap:round; stroke-linejoin:round;">
</g>
<g style="fill:#000000; fill-opacity:0.0; 
stroke:#000000; stroke-width:59.0551; stroke-opacity:1; 
stroke-linecap:round; stroke-linejoin:round;">
<path d="M112477 13864
L112721 13864
" />
<path d="M112428 14011
L112599 13499
L112769 14011
" />
</g>
<g style="fill:#000000; fill-opacity:0.0; 
stroke:#000000; stroke-width:39.3701; stroke-opacity:1; 
stroke-linecap:round; stroke-linejoin:round;">
</g>
<g style="fill:#000000; fill-opacity:0.0; 
stroke:#000000; stroke-width:59.0551; stroke-opacity:1; 
stroke-linecap:round; stroke-linejoin:round;">
<path d="M112635 33428
L112708 33452
L112733 33476
L112757 33525
L112757 33598
L112733 33647
L112708 33671
L112660 33696
L112465 33696
L112465 33184
L112635 33184
L112684 33208
L112708 33233
L112733 33281
L112733 33330
L112708 33379
L112684 33403
L112635 33428
L112465 33428
" />
</g>
<g style="fill:#000000; fill-opacity:0.0; 
stroke:#000000; stroke-width:39.3701; stroke-opacity:1; 
stroke-linecap:round; stroke-linejoin:round;">
</g>
<g style="fill:#000000; fill-opacity:0.0; 
stroke:#000000; stroke-width:59.0551; stroke-opacity:1; 
stroke-linecap:round; stroke-linejoin:round;">
<path d="M112757 53332
L112733 53356
L112660 53381
L112611 53381
L112538 53356
L112489 53308
L112465 53259
L112440 53161
L112440 53088
L112465 52991
L112489 52942
L112538 52893
L112611 52869
L112660 52869
L112733 52893
L112757 52918
" />
</g>
<g style="fill:#000000; fill-opacity:0.0; 
stroke:#000000; stroke-width:39.3701; stroke-opacity:1; 
stroke-linecap:round; stroke-linejoin:round;">
</g>
<g style="fill:#000000; fill-opacity:0.0; 
stroke:#000000; stroke-width:59.0551; stroke-opacity:1; 
stroke-linecap:round; stroke-linejoin:round;">
<path d="M112465 73066
L112465 72554
L112587 72554
L112660 72578
L112708 72627
L112733 72676
L112757 72773
L112757 72846
L112733 72944
L112708 72993
L112660 73041
L112587 73066
L112465 73066
" />
</g>
<g style="fill:#000000; fill-opacity:0.0; 
stroke:#000000; stroke-width:39.3701; stroke-opacity:1; 
stroke-linecap:round; stroke-linejoin:round;">
</g>
<g style="fill:#000000; fill-opacity:0.0; 
stroke:#000000; stroke-width:59.0551; stroke-opacity:1; 
stroke-linecap:round; stroke-linejoin:round;">
<path d="M78911 76293
L78911 75703
L79051 75703
L79136 75731
L79192 75787
L79220 75843
L79248 75956
L79248 76040
L79220 76153
L79192 76209
L79136 76265
L79051 76293
L78911 76293
" />
<path d="M79754 76293
L79754 75984
L79726 75928
L79670 75899
L79557 75899
L79501 75928
" />
<path d="M79754 76265
L79698 76293
L79557 76293
L79501 76265
L79473 76209
L79473 76153
L79501 76096
L79557 76068
L79698 76068
L79754 76040
" />
<path d="M79951 75899
L80176 75899
" />
<path d="M80036 75703
L80036 76209
L80064 76265
L80120 76293
L80176 76293
" />
<path d="M80598 76265
L80542 76293
L80429 76293
L80373 76265
L80345 76209
L80345 75984
L80373 75928
L80429 75899
L80542 75899
L80598 75928
L80626 75984
L80626 76040
L80345 76096
" />
<path d="M80879 76237
L80907 76265
L80879 76293
L80851 76265
L80879 76237
L80879 76293
" />
<path d="M80879 75928
L80907 75956
L80879 75984
L80851 75956
L80879 75928
L80879 75984
" />
</g>
<g style="fill:#000000; fill-opacity:0.0; 
stroke:#000000; stroke-width:39.3701; stroke-opacity:1; 
stroke-linecap:round; stroke-linejoin:round;">
</g>
<g style="fill:#000000; fill-opacity:0.0; 
stroke:#000000; stroke-width:59.0551; stroke-opacity:1; 
stroke-linecap:round; stroke-linejoin:round;">
<path d="M69685 76577
L112205 76577
" />
</g>
<g style="fill:#000000; fill-opacity:0.0; 
stroke:#000000; stroke-width:39.3701; stroke-opacity:1; 
stroke-linecap:round; stroke-linejoin:round;">
</g>
<g style="fill:#000000; fill-opacity:0.0; 
stroke:#000000; stroke-width:59.0551; stroke-opacity:1; 
stroke-linecap:round; stroke-linejoin:round;">
<path d="M70249 77395
L70249 76805
" />
<path d="M70587 77395
L70334 77058
" />
<path d="M70587 76805
L70249 77142
" />
<path d="M70840 77395
L70840 77002
" />
<path d="M70840 76805
L70812 76833
L70840 76861
L70868 76833
L70840 76805
L70840 76861
" />
<path d="M71458 77339
L71430 77367
L71346 77395
L71290 77395
L71205 77367
L71149 77311
L71121 77255
L71093 77142
L71093 77058
L71121 76946
L71149 76889
L71205 76833
L71290 76805
L71346 76805
L71430 76833
L71458 76861
" />
<path d="M71965 77395
L71965 77086
L71937 77030
L71880 77002
L71768 77002
L71712 77030
" />
<path d="M71965 77367
L71908 77395
L71768 77395
L71712 77367
L71683 77311
L71683 77255
L71712 77199
L71768 77171
L71908 77171
L71965 77142
" />
<path d="M72499 77395
L72499 76805
" />
<path d="M72499 77367
L72443 77395
L72330 77395
L72274 77367
L72246 77339
L72218 77283
L72218 77114
L72246 77058
L72274 77030
L72330 77002
L72443 77002
L72499 77030
" />
<path d="M73230 77086
L73427 77086
" />
<path d="M73511 77395
L73230 77395
L73230 76805
L73511 76805
" />
<path d="M73764 77339
L73793 77367
L73764 77395
L73736 77367
L73764 77339
L73764 77395
" />
<path d="M74046 77395
L74046 76805
L74186 76805
L74271 76833
L74327 76889
L74355 76946
L74383 77058
L74383 77142
L74355 77255
L74327 77311
L74271 77367
L74186 77395
L74046 77395
" />
<path d="M74636 77339
L74664 77367
L74636 77395
L74608 77367
L74636 77339
L74636 77395
" />
<path d="M74889 77227
L75171 77227
" />
<path d="M74833 77395
L75030 76805
L75227 77395
" />
<path d="M75424 77339
L75452 77367
L75424 77395
L75395 77367
L75424 77339
L75424 77395
" />
<path d="M76605 77002
L76605 77592
" />
<path d="M76605 77030
L76661 77002
L76773 77002
L76830 77030
L76858 77058
L76886 77114
L76886 77283
L76858 77339
L76830 77367
L76773 77395
L76661 77395
L76605 77367
" />
<path d="M77392 77367
L77336 77395
L77223 77395
L77167 77367
L77139 77339
L77111 77283
L77111 77114
L77139 77058
L77167 77030
L77223 77002
L77336 77002
L77392 77030
" />
<path d="M77645 77395
L77645 76805
" />
<path d="M77645 77030
L77701 77002
L77814 77002
L77870 77030
L77898 77058
L77926 77114
L77926 77283
L77898 77339
L77870 77367
L77814 77395
L77701 77395
L77645 77367
" />
<path d="M78180 77002
L78180 77395
" />
<path d="M78180 77058
L78208 77030
L78264 77002
L78348 77002
L78404 77030
L78433 77086
L78433 77395
" />
<path d="M78939 77367
L78883 77395
L78770 77395
L78714 77367
L78686 77311
L78686 77086
L78714 77030
L78770 77002
L78883 77002
L78939 77030
L78967 77086
L78967 77142
L78686 77199
" />
<path d="M79164 77002
L79276 77395
L79389 77114
L79501 77395
L79614 77002
" />
<path d="M80570 76805
L80289 76805
L80260 77086
L80289 77058
L80345 77030
L80485 77030
L80542 77058
L80570 77086
L80598 77142
L80598 77283
L80570 77339
L80542 77367
L80485 77395
L80345 77395
L80289 77367
L80260 77339
" />
<path d="M80851 77339
L80879 77367
L80851 77395
L80823 77367
L80851 77339
L80851 77395
" />
<path d="M81245 76805
L81301 76805
L81357 76833
L81385 76861
L81413 76917
L81442 77030
L81442 77171
L81413 77283
L81385 77339
L81357 77367
L81301 77395
L81245 77395
L81188 77367
L81160 77339
L81132 77283
L81104 77171
L81104 77030
L81132 76917
L81160 76861
L81188 76833
L81245 76805
" />
<path d="M81695 77339
L81723 77367
L81695 77395
L81667 77367
L81695 77339
L81695 77395
" />
<path d="M81948 76861
L81976 76833
L82032 76805
L82173 76805
L82229 76833
L82257 76861
L82285 76917
L82285 76974
L82257 77058
L81920 77395
L82285 77395
" />
<path d="M82538 77171
L82988 77171
" />
<path d="M83269 77395
L83269 76805
" />
<path d="M83269 77030
L83326 77002
L83438 77002
L83494 77030
L83523 77058
L83551 77114
L83551 77283
L83523 77339
L83494 77367
L83438 77395
L83326 77395
L83269 77367
" />
<path d="M84029 77367
L83973 77395
L83860 77395
L83804 77367
L83776 77311
L83776 77086
L83804 77030
L83860 77002
L83973 77002
L84029 77030
L84057 77086
L84057 77142
L83776 77199
" />
<path d="M84535 77367
L84479 77395
L84366 77395
L84310 77367
L84282 77311
L84282 77086
L84310 77030
L84366 77002
L84479 77002
L84535 77030
L84563 77086
L84563 77142
L84282 77199
" />
<path d="M84760 76805
L85154 76805
L84901 77395
" />
<path d="M85632 76805
L85519 76805
L85463 76833
L85435 76861
L85379 76946
L85350 77058
L85350 77283
L85379 77339
L85407 77367
L85463 77395
L85575 77395
L85632 77367
L85660 77339
L85688 77283
L85688 77142
L85660 77086
L85632 77058
L85575 77030
L85463 77030
L85407 77058
L85379 77086
L85350 77142
" />
<path d="M86194 77395
L86194 77086
L86166 77030
L86110 77002
L85997 77002
L85941 77030
" />
<path d="M86194 77367
L86138 77395
L85997 77395
L85941 77367
L85913 77311
L85913 77255
L85941 77199
L85997 77171
L86138 77171
L86194 77142
" />
<path d="M86588 76805
L86644 76805
L86700 76833
L86728 76861
L86757 76917
L86785 77030
L86785 77171
L86757 77283
L86728 77339
L86700 77367
L86644 77395
L86588 77395
L86532 77367
L86503 77339
L86475 77283
L86447 77171
L86447 77030
L86475 76917
L86503 76861
L86532 76833
L86588 76805
" />
<path d="M86897 76644
L87460 76644
" />
<path d="M86982 76805
L87375 76805
L87122 77395
" />
<path d="M87460 76644
L88022 76644
" />
<path d="M87713 76805
L87769 76805
L87825 76833
L87853 76861
L87881 76917
L87910 77030
L87910 77171
L87881 77283
L87853 77339
L87825 77367
L87769 77395
L87713 77395
L87656 77367
L87628 77339
L87600 77283
L87572 77171
L87572 77030
L87600 76917
L87628 76861
L87656 76833
L87713 76805
" />
<path d="M88416 77002
L88416 77395
" />
<path d="M88163 77002
L88163 77311
L88191 77367
L88247 77395
L88331 77395
L88388 77367
L88416 77339
" />
<path d="M88697 77395
L88697 76805
" />
<path d="M88697 77030
L88753 77002
L88866 77002
L88922 77030
L88950 77058
L88978 77114
L88978 77283
L88950 77339
L88922 77367
L88866 77395
L88753 77395
L88697 77367
" />
<path d="M89484 77002
L89484 77395
" />
<path d="M89231 77002
L89231 77311
L89259 77367
L89316 77395
L89400 77395
L89456 77367
L89484 77339
" />
<path d="M89766 77002
L89766 77395
" />
<path d="M89766 77058
L89794 77030
L89850 77002
L89934 77002
L89991 77030
L90019 77086
L90019 77395
" />
<path d="M90215 77002
L90440 77002
" />
<path d="M90300 76805
L90300 77311
L90328 77367
L90384 77395
L90440 77395
" />
<path d="M90890 77002
L90890 77395
" />
<path d="M90637 77002
L90637 77311
L90665 77367
L90722 77395
L90806 77395
L90862 77367
L90890 77339
" />
<path d="M91481 77395
L91144 77395
" />
<path d="M91312 77395
L91312 76805
L91256 76889
L91200 76946
L91144 76974
" />
<path d="M91818 77058
L91762 77030
L91734 77002
L91706 76946
L91706 76917
L91734 76861
L91762 76833
L91818 76805
L91931 76805
L91987 76833
L92015 76861
L92043 76917
L92043 76946
L92015 77002
L91987 77030
L91931 77058
L91818 77058
L91762 77086
L91734 77114
L91706 77171
L91706 77283
L91734 77339
L91762 77367
L91818 77395
L91931 77395
L91987 77367
L92015 77339
L92043 77283
L92043 77171
L92015 77114
L91987 77086
L91931 77058
" />
<path d="M92296 77339
L92325 77367
L92296 77395
L92268 77367
L92296 77339
L92296 77395
" />
<path d="M92690 76805
L92746 76805
L92803 76833
L92831 76861
L92859 76917
L92887 77030
L92887 77171
L92859 77283
L92831 77339
L92803 77367
L92746 77395
L92690 77395
L92634 77367
L92606 77339
L92578 77283
L92550 77171
L92550 77030
L92578 76917
L92606 76861
L92634 76833
L92690 76805
" />
<path d="M93393 77002
L93393 77395
" />
<path d="M93253 76777
L93112 77199
L93478 77199
" />
<path d="M93703 77339
L93731 77367
L93703 77395
L93674 77367
L93703 77339
L93703 77395
" />
<path d="M94293 77395
L93956 77395
" />
<path d="M94124 77395
L94124 76805
L94068 76889
L94012 76946
L93956 76974
" />
</g>
<g style="fill:#000000; fill-opacity:0.0; 
stroke:#000000; stroke-width:39.3701; stroke-opacity:1; 
stroke-linecap:round; stroke-linejoin:round;">
</g>
<g style="fill:#000000; fill-opacity:0.0; 
stroke:#000000; stroke-width:59.0551; stroke-opacity:1; 
stroke-linecap:round; stroke-linejoin:round;">
<path d="M69685 75396
L112205 75396
" />
</g>
<g style="fill:#000000; fill-opacity:0.0; 
stroke:#000000; stroke-width:39.3701; stroke-opacity:1; 
stroke-linecap:round; stroke-linejoin:round;">
</g>
<g style="fill:#000000; fill-opacity:0.0; 
stroke:#000000; stroke-width:118.11; stroke-opacity:1; 
stroke-linecap:round; stroke-linejoin:round;">
<path d="M104099 76293
L103902 76012
" />
<path d="M103761 76293
L103761 75703
L103986 75703
L104042 75731
L104070 75759
L104099 75815
L104099 75899
L104070 75956
L104042 75984
L103986 76012
L103761 76012
" />
<path d="M104577 76265
L104520 76293
L104408 76293
L104352 76265
L104323 76209
L104323 75984
L104352 75928
L104408 75899
L104520 75899
L104577 75928
L104605 75984
L104605 76040
L104323 76096
" />
<path d="M104802 75899
L104942 76293
L105083 75899
" />
<path d="M105308 76237
L105336 76265
L105308 76293
L105280 76265
L105308 76237
L105308 76293
" />
<path d="M105308 75928
L105336 75956
L105308 75984
L105280 75956
L105308 75928
L105308 75984
" />
</g>
<g style="fill:#000000; fill-opacity:0.0; 
stroke:#000000; stroke-width:39.3701; stroke-opacity:1; 
stroke-linecap:round; stroke-linejoin:round;">
</g>
<g style="fill:#000000; fill-opacity:0.0; 
stroke:#000000; stroke-width:59.0551; stroke-opacity:1; 
stroke-linecap:round; stroke-linejoin:round;">
<path d="M70221 76265
L70305 76293
L70446 76293
L70502 76265
L70530 76237
L70559 76181
L70559 76124
L70530 76068
L70502 76040
L70446 76012
L70334 75984
L70277 75956
L70249 75928
L70221 75871
L70221 75815
L70249 75759
L70277 75731
L70334 75703
L70474 75703
L70559 75731
" />
<path d="M70812 76293
L70812 75899
" />
<path d="M70812 75703
L70784 75731
L70812 75759
L70840 75731
L70812 75703
L70812 75759
" />
<path d="M71037 75899
L71346 75899
L71037 76293
L71346 76293
" />
<path d="M71796 76265
L71740 76293
L71627 76293
L71571 76265
L71543 76209
L71543 75984
L71571 75928
L71627 75899
L71740 75899
L71796 75928
L71824 75984
L71824 76040
L71543 76096
" />
<path d="M72077 76237
L72105 76265
L72077 76293
L72049 76265
L72077 76237
L72077 76293
" />
<path d="M72077 75928
L72105 75956
L72077 75984
L72049 75956
L72077 75928
L72077 75984
" />
<path d="M72780 76124
L73061 76124
" />
<path d="M72724 76293
L72921 75703
L73118 76293
" />
<path d="M73568 75899
L73568 76293
" />
<path d="M73427 75674
L73286 76096
L73652 76096
" />
</g>
<g style="fill:#000000; fill-opacity:0.0; 
stroke:#000000; stroke-width:39.3701; stroke-opacity:1; 
stroke-linecap:round; stroke-linejoin:round;">
</g>
<g style="fill:#000000; fill-opacity:0.0; 
stroke:#000000; stroke-width:59.0551; stroke-opacity:1; 
stroke-linecap:round; stroke-linejoin:round;">
<path d="M103714 77395
L103714 76805
" />
<path d="M104248 77395
L104248 76805
" />
<path d="M104248 77367
L104192 77395
L104079 77395
L104023 77367
L103995 77339
L103967 77283
L103967 77114
L103995 77058
L104023 77030
L104079 77002
L104192 77002
L104248 77030
" />
<path d="M104529 77339
L104557 77367
L104529 77395
L104501 77367
L104529 77339
L104529 77395
" />
<path d="M104529 77030
L104557 77058
L104529 77086
L104501 77058
L104529 77030
L104529 77086
" />
<path d="M105570 77395
L105232 77395
" />
<path d="M105401 77395
L105401 76805
L105345 76889
L105289 76946
L105232 76974
" />
<path d="M106245 76777
L105739 77536
" />
<path d="M106751 77395
L106413 77395
" />
<path d="M106582 77395
L106582 76805
L106526 76889
L106470 76946
L106413 76974
" />
</g>
<g style="fill:#000000; fill-opacity:0.0; 
stroke:#000000; stroke-width:39.3701; stroke-opacity:1; 
stroke-linecap:round; stroke-linejoin:round;">
</g>
<g style="fill:#000000; fill-opacity:0.0; 
stroke:#000000; stroke-width:59.0551; stroke-opacity:1; 
stroke-linecap:round; stroke-linejoin:round;">
<path d="M69685 73821
L112205 73821
" />
</g>
<g style="fill:#000000; fill-opacity:0.0; 
stroke:#000000; stroke-width:39.3701; stroke-opacity:1; 
stroke-linecap:round; stroke-linejoin:round;">
</g>
<g style="fill:#000000; fill-opacity:0.0; 
stroke:#000000; stroke-width:157.48; stroke-opacity:1; 
stroke-linecap:round; stroke-linejoin:round;">
<path d="M70360 74099
L70810 74099
" />
<path d="M70486 74886
L70585 74099
" />
<path d="M70974 74886
L71039 74361
" />
<path d="M71072 74099
L71030 74136
L71063 74174
L71105 74136
L71072 74099
L71063 74174
" />
<path d="M71302 74361
L71602 74361
" />
<path d="M71447 74099
L71363 74774
L71391 74849
L71461 74886
L71536 74886
" />
<path d="M71911 74886
L71841 74849
L71813 74774
L71897 74099
" />
<path d="M72516 74849
L72436 74886
L72286 74886
L72216 74849
L72187 74774
L72225 74474
L72272 74399
L72352 74361
L72501 74361
L72572 74399
L72600 74474
L72591 74549
L72206 74624
" />
<path d="M72895 74811
L72928 74849
L72886 74886
L72853 74849
L72895 74811
L72886 74886
" />
<path d="M72947 74399
L72980 74436
L72937 74474
L72905 74436
L72947 74399
L72937 74474
" />
</g>
<g style="fill:#000000; fill-opacity:0.0; 
stroke:#000000; stroke-width:39.3701; stroke-opacity:1; 
stroke-linecap:round; stroke-linejoin:round;">
</g>
<g style="fill:#000000; fill-opacity:0.0; 
stroke:#000000; stroke-width:59.0551; stroke-opacity:1; 
stroke-linecap:round; stroke-linejoin:round;">
<path d="M70446 73070
L70249 73070
" />
<path d="M70249 73380
L70249 72789
L70530 72789
" />
<path d="M70755 73380
L70755 72986
" />
<path d="M70755 72789
L70727 72817
L70755 72845
L70784 72817
L70755 72789
L70755 72845
" />
<path d="M71121 73380
L71065 73352
L71037 73295
L71037 72789
" />
<path d="M71571 73352
L71515 73380
L71402 73380
L71346 73352
L71318 73295
L71318 73070
L71346 73014
L71402 72986
L71515 72986
L71571 73014
L71599 73070
L71599 73127
L71318 73183
" />
<path d="M71852 73323
L71880 73352
L71852 73380
L71824 73352
L71852 73323
L71852 73380
" />
<path d="M71852 73014
L71880 73042
L71852 73070
L71824 73042
L71852 73014
L71852 73070
" />
<path d="M72893 72817
L72836 72789
L72752 72789
L72668 72817
L72611 72874
L72583 72930
L72555 73042
L72555 73127
L72583 73239
L72611 73295
L72668 73352
L72752 73380
L72808 73380
L72893 73352
L72921 73323
L72921 73127
L72808 73127
" />
<path d="M73511 73323
L73483 73352
L73399 73380
L73343 73380
L73258 73352
L73202 73295
L73174 73239
L73146 73127
L73146 73042
L73174 72930
L73202 72874
L73258 72817
L73343 72789
L73399 72789
L73483 72817
L73511 72845
" />
<path d="M73849 73380
L73793 73352
L73764 73323
L73736 73267
L73736 73099
L73764 73042
L73793 73014
L73849 72986
L73933 72986
L73989 73014
L74018 73042
L74046 73099
L74046 73267
L74018 73323
L73989 73352
L73933 73380
L73849 73380
" />
<path d="M74552 73380
L74552 72789
" />
<path d="M74552 73352
L74496 73380
L74383 73380
L74327 73352
L74299 73323
L74271 73267
L74271 73099
L74299 73042
L74327 73014
L74383 72986
L74496 72986
L74552 73014
" />
<path d="M75058 73352
L75002 73380
L74889 73380
L74833 73352
L74805 73295
L74805 73070
L74833 73014
L74889 72986
L75002 72986
L75058 73014
L75086 73070
L75086 73127
L74805 73183
" />
<path d="M75255 72789
L75592 72789
" />
<path d="M75424 73380
L75424 72789
" />
<path d="M75874 73380
L75817 73352
L75789 73323
L75761 73267
L75761 73099
L75789 73042
L75817 73014
L75874 72986
L75958 72986
L76014 73014
L76042 73042
L76070 73099
L76070 73267
L76042 73323
L76014 73352
L75958 73380
L75874 73380
" />
<path d="M76295 73211
L76577 73211
" />
<path d="M76239 73380
L76436 72789
L76633 73380
" />
<path d="M76830 72986
L76830 73380
" />
<path d="M76830 73042
L76858 73014
L76914 72986
L76998 72986
L77055 73014
L77083 73070
L77083 73380
" />
<path d="M77617 73380
L77617 73070
L77589 73014
L77533 72986
L77420 72986
L77364 73014
" />
<path d="M77617 73352
L77561 73380
L77420 73380
L77364 73352
L77336 73295
L77336 73239
L77364 73183
L77420 73155
L77561 73155
L77617 73127
" />
<path d="M77983 73380
L77926 73352
L77898 73295
L77898 72789
" />
<path d="M78292 73380
L78236 73352
L78208 73323
L78180 73267
L78180 73099
L78208 73042
L78236 73014
L78292 72986
L78376 72986
L78433 73014
L78461 73042
L78489 73099
L78489 73267
L78461 73323
L78433 73352
L78376 73380
L78292 73380
" />
<path d="M78995 72986
L78995 73464
L78967 73520
L78939 73548
L78883 73577
L78798 73577
L78742 73548
" />
<path d="M78995 73352
L78939 73380
L78826 73380
L78770 73352
L78742 73323
L78714 73267
L78714 73099
L78742 73042
L78770 73014
L78826 72986
L78939 72986
L78995 73014
" />
<path d="M79276 73323
L79304 73352
L79276 73380
L79248 73352
L79276 73323
L79276 73380
" />
<path d="M79557 73380
L79557 72789
" />
<path d="M79614 73155
L79782 73380
" />
<path d="M79782 72986
L79557 73211
" />
<path d="M80036 73380
L80036 72986
" />
<path d="M80036 72789
L80007 72817
L80036 72845
L80064 72817
L80036 72789
L80036 72845
" />
<path d="M80570 73352
L80514 73380
L80401 73380
L80345 73352
L80317 73323
L80289 73267
L80289 73099
L80317 73042
L80345 73014
L80401 72986
L80514 72986
L80570 73014
" />
<path d="M81076 73380
L81076 73070
L81048 73014
L80992 72986
L80879 72986
L80823 73014
" />
<path d="M81076 73352
L81020 73380
L80879 73380
L80823 73352
L80795 73295
L80795 73239
L80823 73183
L80879 73155
L81020 73155
L81076 73127
" />
<path d="M81610 73380
L81610 72789
" />
<path d="M81610 73352
L81554 73380
L81442 73380
L81385 73352
L81357 73323
L81329 73267
L81329 73099
L81357 73042
L81385 73014
L81442 72986
L81554 72986
L81610 73014
" />
<path d="M81751 73436
L82201 73436
" />
<path d="M82341 72986
L82341 73577
" />
<path d="M82341 73014
L82398 72986
L82510 72986
L82566 73014
L82595 73042
L82623 73099
L82623 73267
L82595 73323
L82566 73352
L82510 73380
L82398 73380
L82341 73352
" />
<path d="M83129 73352
L83073 73380
L82960 73380
L82904 73352
L82876 73323
L82848 73267
L82848 73099
L82876 73042
L82904 73014
L82960 72986
L83073 72986
L83129 73014
" />
<path d="M83382 73380
L83382 72789
" />
<path d="M83382 73014
L83438 72986
L83551 72986
L83607 73014
L83635 73042
L83663 73099
L83663 73267
L83635 73323
L83607 73352
L83551 73380
L83438 73380
L83382 73352
" />
</g>
<g style="fill:#000000; fill-opacity:0.0; 
stroke:#000000; stroke-width:39.3701; stroke-opacity:1; 
stroke-linecap:round; stroke-linejoin:round;">
</g>
<g style="fill:#000000; fill-opacity:0.0; 
stroke:#000000; stroke-width:59.0551; stroke-opacity:1; 
stroke-linecap:round; stroke-linejoin:round;">
<path d="M69685 71459
L112205 71459
" />
</g>
<g style="fill:#000000; fill-opacity:0.0; 
stroke:#000000; stroke-width:39.3701; stroke-opacity:1; 
stroke-linecap:round; stroke-linejoin:round;">
</g>
<g style="fill:#000000; fill-opacity:0.0; 
stroke:#000000; stroke-width:59.0551; stroke-opacity:1; 
stroke-linecap:round; stroke-linejoin:round;">
<path d="M70221 72289
L70305 72317
L70446 72317
L70502 72289
L70530 72260
L70559 72204
L70559 72148
L70530 72092
L70502 72064
L70446 72036
L70334 72007
L70277 71979
L70249 71951
L70221 71895
L70221 71839
L70249 71782
L70277 71754
L70334 71726
L70474 71726
L70559 71754
" />
<path d="M70812 72317
L70812 71726
" />
<path d="M71065 72317
L71065 72007
L71037 71951
L70980 71923
L70896 71923
L70840 71951
L70812 71979
" />
<path d="M71571 72289
L71515 72317
L71402 72317
L71346 72289
L71318 72232
L71318 72007
L71346 71951
L71402 71923
L71515 71923
L71571 71951
L71599 72007
L71599 72064
L71318 72120
" />
<path d="M72077 72289
L72021 72317
L71908 72317
L71852 72289
L71824 72232
L71824 72007
L71852 71951
L71908 71923
L72021 71923
L72077 71951
L72105 72007
L72105 72064
L71824 72120
" />
<path d="M72274 71923
L72499 71923
" />
<path d="M72358 71726
L72358 72232
L72386 72289
L72443 72317
L72499 72317
" />
<path d="M72696 72260
L72724 72289
L72696 72317
L72668 72289
L72696 72260
L72696 72317
" />
<path d="M72696 71951
L72724 71979
L72696 72007
L72668 71979
L72696 71951
L72696 72007
" />
</g>
<g style="fill:#000000; fill-opacity:0.0; 
stroke:#000000; stroke-width:39.3701; stroke-opacity:1; 
stroke-linecap:round; stroke-linejoin:round;">
</g>
<g style="fill:#000000; fill-opacity:0.0; 
stroke:#000000; stroke-width:59.0551; stroke-opacity:1; 
stroke-linecap:round; stroke-linejoin:round;">
<path d="M77559 75396
L77559 76577
" />
</g>
<g style="fill:#000000; fill-opacity:0.0; 
stroke:#000000; stroke-width:39.3701; stroke-opacity:1; 
stroke-linecap:round; stroke-linejoin:round;">
</g>
<g style="fill:#000000; fill-opacity:0.0; 
stroke:#000000; stroke-width:59.0551; stroke-opacity:1; 
stroke-linecap:round; stroke-linejoin:round;">
<path d="M102756 75396
L102756 77955
" />
</g>
<g style="fill:#840000; fill-opacity:0.0; 
stroke:#840000; stroke-width:59.0551; stroke-opacity:1; 
stroke-linecap:round; stroke-linejoin:round;">
</g>
<g style="fill:#840000; fill-opacity:0.0; 
stroke:#840000; stroke-width:0; stroke-opacity:1; 
stroke-linecap:round; stroke-linejoin:round;">
</g>
<g style="fill:#840000; fill-opacity:1.0; 
stroke:#840000; stroke-width:0; stroke-opacity:1; 
stroke-linecap:round; stroke-linejoin:round;">
<polyline style="fill-rule:evenodd;"
points="37456,29098
37456,29898
37196,29898
37196,29098
37456,29098
" /> 
<polyline style="fill-rule:evenodd;"
points="36956,29098
36956,29898
36696,29898
36696,29098
36956,29098
" /> 
<polyline style="fill-rule:evenodd;"
points="36456,29098
36456,29898
36196,29898
36196,29098
36456,29098
" /> 
<polyline style="fill-rule:evenodd;"
points="35956,29098
35956,29898
35696,29898
35696,29098
35956,29098
" /> 
<polyline style="fill-rule:evenodd;"
points="35456,29098
35456,29898
35196,29898
35196,29098
35456,29098
" /> 
<polyline style="fill-rule:evenodd;"
points="34956,29098
34956,29898
34696,29898
34696,29098
34956,29098
" /> 
<polyline style="fill-rule:evenodd;"
points="34456,29098
34456,29898
34196,29898
34196,29098
34456,29098
" /> 
<polyline style="fill-rule:evenodd;"
points="34456,31518
34456,32318
34196,32318
34196,31518
34456,31518
" /> 
<polyline style="fill-rule:evenodd;"
points="34956,31518
34956,32318
34696,32318
34696,31518
34956,31518
" /> 
<polyline style="fill-rule:evenodd;"
points="35956,31518
35956,32318
35696,32318
35696,31518
35956,31518
" /> 
<polyline style="fill-rule:evenodd;"
points="36456,31518
36456,32318
36196,32318
36196,31518
36456,31518
" /> 
<polyline style="fill-rule:evenodd;"
points="36956,31518
36956,32318
36696,32318
36696,31518
36956,31518
" /> 
<polyline style="fill-rule:evenodd;"
points="37456,31518
37456,32318
37196,32318
37196,31518
37456,31518
" /> 
<polyline style="fill-rule:evenodd;"
points="35456,31518
35456,32318
35196,32318
35196,31518
35456,31518
" /> 
<polyline style="fill-rule:evenodd;"
points="45330,29098
45330,29898
45070,29898
45070,29098
45330,29098
" /> 
<polyline style="fill-rule:evenodd;"
points="44830,29098
44830,29898
44570,29898
44570,29098
44830,29098
" /> 
<polyline style="fill-rule:evenodd;"
points="44330,29098
44330,29898
44070,29898
44070,29098
44330,29098
" /> 
<polyline style="fill-rule:evenodd;"
points="43830,29098
43830,29898
43570,29898
43570,29098
43830,29098
" /> 
<polyline style="fill-rule:evenodd;"
points="43330,29098
43330,29898
43070,29898
43070,29098
43330,29098
" /> 
<polyline style="fill-rule:evenodd;"
points="42830,29098
42830,29898
42570,29898
42570,29098
42830,29098
" /> 
<polyline style="fill-rule:evenodd;"
points="42330,29098
42330,29898
42070,29898
42070,29098
42330,29098
" /> 
<polyline style="fill-rule:evenodd;"
points="42330,31518
42330,32318
42070,32318
42070,31518
42330,31518
" /> 
<polyline style="fill-rule:evenodd;"
points="42830,31518
42830,32318
42570,32318
42570,31518
42830,31518
" /> 
<polyline style="fill-rule:evenodd;"
points="43830,31518
43830,32318
43570,32318
43570,31518
43830,31518
" /> 
<polyline style="fill-rule:evenodd;"
points="44330,31518
44330,32318
44070,32318
44070,31518
44330,31518
" /> 
<polyline style="fill-rule:evenodd;"
points="44830,31518
44830,32318
44570,32318
44570,31518
44830,31518
" /> 
<polyline style="fill-rule:evenodd;"
points="45330,31518
45330,32318
45070,32318
45070,31518
45330,31518
" /> 
<polyline style="fill-rule:evenodd;"
points="43330,31518
43330,32318
43070,32318
43070,31518
43330,31518
" /> 
<polyline style="fill-rule:evenodd;"
points="39074,30589
39074,30079
39665,30079
39665,30589
39074,30589
" /> 
<polyline style="fill-rule:evenodd;"
points="39074,31337
39074,30827
39665,30827
39665,31337
39074,31337
" /> 
<polyline style="fill-rule:evenodd;"
points="40846,30827
40846,31337
40255,31337
40255,30827
40846,30827
" /> 
<polyline style="fill-rule:evenodd;"
points="40846,30079
40846,30589
40255,30589
40255,30079
40846,30079
" /> 
</g>
<g style="fill:#000000; fill-opacity:1.0; 
stroke:#000000; stroke-width:0; stroke-opacity:1; 
stroke-linecap:round; stroke-linejoin:round;">
</g>
<g style="fill:#C2C200; fill-opacity:1.0; 
stroke:#C2C200; stroke-width:0; stroke-opacity:1; 
stroke-linecap:round; stroke-linejoin:round;">
</g>
<g style="fill:#C2C200; fill-opacity:1.0; 
stroke:#C2C200; stroke-width:39.3701; stroke-opacity:1; 
stroke-linecap:round; stroke-linejoin:round;">
</g>
<g style="fill:#C2C200; fill-opacity:0.0; 
stroke:#C2C200; stroke-width:39.3701; stroke-opacity:1; 
stroke-linecap:round; stroke-linejoin:round;">
<path d="M51564 31491
L51564 29925
" />
<path d="M50781 30708
L52347 30708
" />
<path d="M27942 31491
L27942 29925
" />
<path d="M27159 30708
L28725 30708
" />
<path d="M27944 37396
L27944 35831
" />
<path d="M27161 36613
L28726 36613
" />
<path d="M35816 37396
L35816 35831
" />
<path d="M35033 36613
L36599 36613
" />
<path d="M43690 37396
L43690 35831
" />
<path d="M42907 36613
L44473 36613
" />
<path d="M51564 37396
L51564 35831
" />
<path d="M50781 36613
L52347 36613
" />
<path d="M43690 25585
L43690 24020
" />
<path d="M42907 24802
L44473 24802
" />
<path d="M35816 25585
L35816 24020
" />
<path d="M35033 24802
L36599 24802
" />
<path d="M35826 22826
L35825 22826
" />
<path d="M35826 22826
L35826 22826
" />
<path d="M35826 22826
L35826 22826
" />
<path d="M35826 22826
L35826 22826
" />
<path d="M35826 22826
L35826 22826
" />
<path d="M35826 22826
L35826 22826
" />
<path d="M35826 22826
L35826 22826
" />
<path d="M35826 22826
L35826 22826
" />
<path d="M35826 22826
L35826 22826
" />
<path d="M35826 22826
L35826 22826
" />
<path d="M35826 22826
L35826 22826
" />
<path d="M35826 22826
L35826 22826
" />
<path d="M35826 22826
L35826 22826
" />
<path d="M35826 22826
L35826 22826
" />
<path d="M35826 22826
L35826 22826
" />
<path d="M35826 22826
L35826 22826
" />
<path d="M36027 22836
L35826 22826
" />
<path d="M36223 22866
L36027 22836
" />
<path d="M36411 22915
L36223 22866
" />
<path d="M36592 22981
L36411 22915
" />
<path d="M36764 23064
L36592 22981
" />
<path d="M36926 23162
L36764 23064
" />
<path d="M37077 23275
L36926 23162
" />
<path d="M37217 23402
L37077 23275
" />
<path d="M37344 23542
L37217 23402
" />
<path d="M37457 23693
L37344 23542
" />
<path d="M37555 23855
L37457 23693
" />
<path d="M37638 24027
L37555 23855
" />
<path d="M37704 24208
L37638 24027
" />
<path d="M37753 24396
L37704 24208
" />
<path d="M37783 24592
L37753 24396
" />
<path d="M37793 24793
L37783 24592
" />
<path d="M37793 24796
L37793 24793
" />
<path d="M37792 24799
L37793 24796
" />
<path d="M37792 24802
L37792 24799
" />
<path d="M37792 24805
L37792 24802
" />
<path d="M37792 24808
L37792 24805
" />
<path d="M37792 24811
L37792 24808
" />
<path d="M37792 24815
L37792 24811
" />
<path d="M37792 24818
L37792 24815
" />
<path d="M37791 24821
L37792 24818
" />
<path d="M37791 24824
L37791 24821
" />
<path d="M37791 24827
L37791 24824
" />
<path d="M37791 24830
L37791 24827
" />
<path d="M37791 24834
L37791 24830
" />
<path d="M37790 24837
L37791 24834
" />
<path d="M37790 24840
L37790 24837
" />
<path d="M37790 24843
L37790 24840
" />
<path d="M38037 24843
L37790 24843
" />
<path d="M38283 24843
L38037 24843
" />
<path d="M38530 24843
L38283 24843
" />
<path d="M38776 24843
L38530 24843
" />
<path d="M39023 24843
L38776 24843
" />
<path d="M39270 24843
L39023 24843
" />
<path d="M39516 24843
L39270 24843
" />
<path d="M39763 24843
L39516 24843
" />
<path d="M40009 24843
L39763 24843
" />
<path d="M40256 24843
L40009 24843
" />
<path d="M40502 24843
L40256 24843
" />
<path d="M40749 24843
L40502 24843
" />
<path d="M40996 24843
L40749 24843
" />
<path d="M41242 24843
L40996 24843
" />
<path d="M41489 24843
L41242 24843
" />
<path d="M41735 24843
L41489 24843
" />
<path d="M41735 24840
L41735 24843
" />
<path d="M41735 24837
L41735 24840
" />
<path d="M41735 24834
L41735 24837
" />
<path d="M41735 24830
L41735 24834
" />
<path d="M41735 24827
L41735 24830
" />
<path d="M41735 24824
L41735 24827
" />
<path d="M41734 24821
L41735 24824
" />
<path d="M41734 24818
L41734 24821
" />
<path d="M41734 24815
L41734 24818
" />
<path d="M41734 24811
L41734 24815
" />
<path d="M41734 24808
L41734 24811
" />
<path d="M41734 24805
L41734 24808
" />
<path d="M41734 24802
L41734 24805
" />
<path d="M41734 24799
L41734 24802
" />
<path d="M41733 24796
L41734 24799
" />
<path d="M41733 24793
L41733 24796
" />
<path d="M41744 24592
L41733 24793
" />
<path d="M41773 24396
L41744 24592
" />
<path d="M41822 24208
L41773 24396
" />
<path d="M41888 24027
L41822 24208
" />
<path d="M41971 23855
L41888 24027
" />
<path d="M42069 23693
L41971 23855
" />
<path d="M42183 23542
L42069 23693
" />
<path d="M42309 23402
L42183 23542
" />
<path d="M42449 23275
L42309 23402
" />
<path d="M42600 23162
L42449 23275
" />
<path d="M42763 23064
L42600 23162
" />
<path d="M42935 22981
L42763 23064
" />
<path d="M43115 22915
L42935 22981
" />
<path d="M43304 22866
L43115 22915
" />
<path d="M43499 22836
L43304 22866
" />
<path d="M43700 22826
L43499 22836
" />
<path d="M43901 22836
L43700 22826
" />
<path d="M44096 22866
L43901 22836
" />
<path d="M44285 22915
L44096 22866
" />
<path d="M44465 22981
L44285 22915
" />
<path d="M44637 23064
L44465 22981
" />
<path d="M44799 23162
L44637 23064
" />
<path d="M44951 23275
L44799 23162
" />
<path d="M45090 23402
L44951 23275
" />
<path d="M45217 23542
L45090 23402
" />
<path d="M45331 23693
L45217 23542
" />
<path d="M45429 23855
L45331 23693
" />
<path d="M45512 24027
L45429 23855
" />
<path d="M45578 24208
L45512 24027
" />
<path d="M45627 24396
L45578 24208
" />
<path d="M45656 24592
L45627 24396
" />
<path d="M45666 24793
L45656 24592
" />
<path d="M46134 24812
L45666 24793
" />
<path d="M46593 24867
L46134 24812
" />
<path d="M47043 24957
L46593 24867
" />
<path d="M47481 25080
L47043 24957
" />
<path d="M47906 25236
L47481 25080
" />
<path d="M48316 25424
L47906 25236
" />
<path d="M48709 25641
L48316 25424
" />
<path d="M49085 25888
L48709 25641
" />
<path d="M49440 26162
L49085 25888
" />
<path d="M49775 26463
L49440 26162
" />
<path d="M50086 26790
L49775 26463
" />
<path d="M50372 27140
L50086 26790
" />
<path d="M50632 27514
L50372 27140
" />
<path d="M50864 27909
L50632 27514
" />
<path d="M51066 28325
L50864 27909
" />
<path d="M51237 28761
L51066 28325
" />
<path d="M51258 28757
L51237 28761
" />
<path d="M51278 28754
L51258 28757
" />
<path d="M51299 28751
L51278 28754
" />
<path d="M51320 28748
L51299 28751
" />
<path d="M51341 28746
L51320 28748
" />
<path d="M51362 28743
L51341 28746
" />
<path d="M51384 28741
L51362 28743
" />
<path d="M51405 28739
L51384 28741
" />
<path d="M51426 28738
L51405 28739
" />
<path d="M51447 28736
L51426 28738
" />
<path d="M51468 28735
L51447 28736
" />
<path d="M51489 28734
L51468 28735
" />
<path d="M51510 28733
L51489 28734
" />
<path d="M51532 28732
L51510 28733
" />
<path d="M51553 28732
L51532 28732
" />
<path d="M51574 28732
L51553 28732
" />
<path d="M51775 28742
L51574 28732
" />
<path d="M51970 28772
L51775 28742
" />
<path d="M52159 28820
L51970 28772
" />
<path d="M52339 28886
L52159 28820
" />
<path d="M52511 28969
L52339 28886
" />
<path d="M52673 29068
L52511 28969
" />
<path d="M52825 29181
L52673 29068
" />
<path d="M52964 29308
L52825 29181
" />
<path d="M53091 29447
L52964 29308
" />
<path d="M53205 29599
L53091 29447
" />
<path d="M53303 29761
L53205 29599
" />
<path d="M53386 29933
L53303 29761
" />
<path d="M53452 30114
L53386 29933
" />
<path d="M53500 30302
L53452 30114
" />
<path d="M53530 30497
L53500 30302
" />
<path d="M53540 30698
L53530 30497
" />
<path d="M53530 30899
L53540 30698
" />
<path d="M53500 31095
L53530 30899
" />
<path d="M53452 31283
L53500 31095
" />
<path d="M53386 31464
L53452 31283
" />
<path d="M53303 31636
L53386 31464
" />
<path d="M53205 31798
L53303 31636
" />
<path d="M53091 31949
L53205 31798
" />
<path d="M52964 32089
L53091 31949
" />
<path d="M52825 32216
L52964 32089
" />
<path d="M52673 32329
L52825 32216
" />
<path d="M52511 32427
L52673 32329
" />
<path d="M52339 32510
L52511 32427
" />
<path d="M52159 32576
L52339 32510
" />
<path d="M51970 32625
L52159 32576
" />
<path d="M51775 32655
L51970 32625
" />
<path d="M51574 32665
L51775 32655
" />
<path d="M51574 32665
L51574 32665
" />
<path d="M51573 32665
L51574 32665
" />
<path d="M51572 32665
L51573 32665
" />
<path d="M51572 32665
L51572 32665
" />
<path d="M51572 32665
L51572 32665
" />
<path d="M51571 32665
L51572 32665
" />
<path d="M51570 32665
L51571 32665
" />
<path d="M51570 32665
L51570 32665
" />
<path d="M51570 32665
L51570 32665
" />
<path d="M51569 32665
L51570 32665
" />
<path d="M51568 32665
L51569 32665
" />
<path d="M51568 32665
L51568 32665
" />
<path d="M51568 32665
L51568 32665
" />
<path d="M51567 32664
L51568 32665
" />
<path d="M51567 32664
L51567 32664
" />
<path d="M51566 32664
L51567 32664
" />
<path d="M51566 32664
L51566 32664
" />
<path d="M51566 32664
L51566 32664
" />
<path d="M51566 32664
L51566 32664
" />
<path d="M51566 32664
L51566 32664
" />
<path d="M51566 32664
L51566 32664
" />
<path d="M51566 32664
L51566 32664
" />
<path d="M51566 32664
L51566 32664
" />
<path d="M51566 32664
L51566 32664
" />
<path d="M51566 32664
L51566 32664
" />
<path d="M51566 32664
L51566 32664
" />
<path d="M51566 32664
L51566 32664
" />
<path d="M51566 32664
L51566 32664
" />
<path d="M51566 32664
L51566 32664
" />
<path d="M51566 32664
L51566 32664
" />
<path d="M51566 32664
L51566 32664
" />
<path d="M51566 32664
L51566 32664
" />
<path d="M51466 32671
L51566 32664
" />
<path d="M51370 32686
L51466 32671
" />
<path d="M51276 32711
L51370 32686
" />
<path d="M51187 32745
L51276 32711
" />
<path d="M51102 32787
L51187 32745
" />
<path d="M51022 32837
L51102 32787
" />
<path d="M50947 32894
L51022 32837
" />
<path d="M50878 32958
L50947 32894
" />
<path d="M50815 33028
L50878 32958
" />
<path d="M50760 33104
L50815 33028
" />
<path d="M50711 33185
L50760 33104
" />
<path d="M50670 33271
L50711 33185
" />
<path d="M50637 33361
L50670 33271
" />
<path d="M50614 33454
L50637 33361
" />
<path d="M50599 33551
L50614 33454
" />
<path d="M50594 33651
L50599 33551
" />
<path d="M50599 33751
L50594 33651
" />
<path d="M50614 33848
L50599 33751
" />
<path d="M50638 33942
L50614 33848
" />
<path d="M50670 34032
L50638 33942
" />
<path d="M50711 34117
L50670 34032
" />
<path d="M50760 34198
L50711 34117
" />
<path d="M50816 34274
L50760 34198
" />
<path d="M50878 34344
L50816 34274
" />
<path d="M50947 34408
L50878 34344
" />
<path d="M51022 34465
L50947 34408
" />
<path d="M51102 34515
L51022 34465
" />
<path d="M51187 34557
L51102 34515
" />
<path d="M51277 34591
L51187 34557
" />
<path d="M51370 34616
L51277 34591
" />
<path d="M51467 34632
L51370 34616
" />
<path d="M51566 34638
L51467 34632
" />
<path d="M51566 34638
L51566 34638
" />
<path d="M51566 34638
L51566 34638
" />
<path d="M51566 34638
L51566 34638
" />
<path d="M51566 34638
L51566 34638
" />
<path d="M51566 34638
L51566 34638
" />
<path d="M51566 34638
L51566 34638
" />
<path d="M51566 34638
L51566 34638
" />
<path d="M51566 34638
L51566 34638
" />
<path d="M51566 34638
L51566 34638
" />
<path d="M51566 34638
L51566 34638
" />
<path d="M51566 34638
L51566 34638
" />
<path d="M51566 34638
L51566 34638
" />
<path d="M51566 34638
L51566 34638
" />
<path d="M51566 34638
L51566 34638
" />
<path d="M51566 34638
L51566 34638
" />
<path d="M51566 34638
L51566 34638
" />
<path d="M51567 34638
L51566 34638
" />
<path d="M51567 34638
L51567 34638
" />
<path d="M51567 34638
L51567 34638
" />
<path d="M51568 34638
L51567 34638
" />
<path d="M51569 34638
L51568 34638
" />
<path d="M51569 34638
L51569 34638
" />
<path d="M51569 34638
L51569 34638
" />
<path d="M51570 34638
L51569 34638
" />
<path d="M51570 34637
L51570 34638
" />
<path d="M51571 34637
L51570 34637
" />
<path d="M51571 34637
L51571 34637
" />
<path d="M51572 34637
L51571 34637
" />
<path d="M51572 34637
L51572 34637
" />
<path d="M51573 34637
L51572 34637
" />
<path d="M51573 34637
L51573 34637
" />
<path d="M51574 34637
L51573 34637
" />
<path d="M51775 34647
L51574 34637
" />
<path d="M51970 34677
L51775 34647
" />
<path d="M52158 34726
L51970 34677
" />
<path d="M52339 34792
L52158 34726
" />
<path d="M52511 34875
L52339 34792
" />
<path d="M52673 34973
L52511 34875
" />
<path d="M52824 35086
L52673 34973
" />
<path d="M52964 35213
L52824 35086
" />
<path d="M53091 35353
L52964 35213
" />
<path d="M53204 35504
L53091 35353
" />
<path d="M53303 35667
L53204 35504
" />
<path d="M53385 35838
L53303 35667
" />
<path d="M53452 36019
L53385 35838
" />
<path d="M53500 36208
L53452 36019
" />
<path d="M53530 36403
L53500 36208
" />
<path d="M53540 36604
L53530 36403
" />
<path d="M53530 36805
L53540 36604
" />
<path d="M53500 37000
L53530 36805
" />
<path d="M53452 37189
L53500 37000
" />
<path d="M53385 37369
L53452 37189
" />
<path d="M53303 37541
L53385 37369
" />
<path d="M53204 37703
L53303 37541
" />
<path d="M53091 37855
L53204 37703
" />
<path d="M52964 37994
L53091 37855
" />
<path d="M52824 38121
L52964 37994
" />
<path d="M52673 38234
L52824 38121
" />
<path d="M52511 38333
L52673 38234
" />
<path d="M52339 38416
L52511 38333
" />
<path d="M52158 38482
L52339 38416
" />
<path d="M51970 38530
L52158 38482
" />
<path d="M51775 38560
L51970 38530
" />
<path d="M51574 38570
L51775 38560
" />
<path d="M51373 38560
L51574 38570
" />
<path d="M51178 38531
L51373 38560
" />
<path d="M50990 38482
L51178 38531
" />
<path d="M50810 38417
L50990 38482
" />
<path d="M50638 38334
L50810 38417
" />
<path d="M50476 38236
L50638 38334
" />
<path d="M50324 38124
L50476 38236
" />
<path d="M50184 37998
L50324 38124
" />
<path d="M50057 37859
L50184 37998
" />
<path d="M49943 37708
L50057 37859
" />
<path d="M49844 37547
L49943 37708
" />
<path d="M49761 37376
L49844 37547
" />
<path d="M49694 37196
L49761 37376
" />
<path d="M49644 37008
L49694 37196
" />
<path d="M49614 36814
L49644 37008
" />
<path d="M49603 36614
L49614 36814
" />
<path d="M49603 36614
L49603 36614
" />
<path d="M49603 36614
L49603 36614
" />
<path d="M49603 36614
L49603 36614
" />
<path d="M49603 36614
L49603 36614
" />
<path d="M49603 36614
L49603 36614
" />
<path d="M49603 36614
L49603 36614
" />
<path d="M49603 36614
L49603 36614
" />
<path d="M49603 36614
L49603 36614
" />
<path d="M49603 36614
L49603 36614
" />
<path d="M49603 36614
L49603 36614
" />
<path d="M49603 36614
L49603 36614
" />
<path d="M49603 36614
L49603 36614
" />
<path d="M49603 36614
L49603 36614
" />
<path d="M49603 36614
L49603 36614
" />
<path d="M49603 36614
L49603 36614
" />
<path d="M49603 36614
L49603 36614
" />
<path d="M49603 36613
L49603 36614
" />
<path d="M49603 36612
L49603 36613
" />
<path d="M49603 36612
L49603 36612
" />
<path d="M49603 36612
L49603 36612
" />
<path d="M49603 36611
L49603 36612
" />
<path d="M49603 36610
L49603 36611
" />
<path d="M49603 36610
L49603 36610
" />
<path d="M49603 36610
L49603 36610
" />
<path d="M49603 36609
L49603 36610
" />
<path d="M49603 36608
L49603 36609
" />
<path d="M49603 36608
L49603 36608
" />
<path d="M49603 36608
L49603 36608
" />
<path d="M49603 36607
L49603 36608
" />
<path d="M49603 36606
L49603 36607
" />
<path d="M49603 36606
L49603 36606
" />
<path d="M49603 36606
L49603 36606
" />
<path d="M49593 36405
L49603 36606
" />
<path d="M49563 36209
L49593 36405
" />
<path d="M49515 36021
L49563 36209
" />
<path d="M49448 35840
L49515 36021
" />
<path d="M49366 35668
L49448 35840
" />
<path d="M49267 35506
L49366 35668
" />
<path d="M49154 35355
L49267 35506
" />
<path d="M49027 35215
L49154 35355
" />
<path d="M48887 35088
L49027 35215
" />
<path d="M48736 34975
L48887 35088
" />
<path d="M48574 34876
L48736 34975
" />
<path d="M48402 34794
L48574 34876
" />
<path d="M48221 34728
L48402 34794
" />
<path d="M48033 34679
L48221 34728
" />
<path d="M47837 34649
L48033 34679
" />
<path d="M47636 34639
L47837 34649
" />
<path d="M47435 34649
L47636 34639
" />
<path d="M47240 34679
L47435 34649
" />
<path d="M47052 34728
L47240 34679
" />
<path d="M46871 34794
L47052 34728
" />
<path d="M46699 34876
L46871 34794
" />
<path d="M46537 34975
L46699 34876
" />
<path d="M46385 35088
L46537 34975
" />
<path d="M46246 35215
L46385 35088
" />
<path d="M46119 35355
L46246 35215
" />
<path d="M46006 35506
L46119 35355
" />
<path d="M45907 35668
L46006 35506
" />
<path d="M45824 35840
L45907 35668
" />
<path d="M45758 36021
L45824 35840
" />
<path d="M45710 36209
L45758 36021
" />
<path d="M45680 36405
L45710 36209
" />
<path d="M45670 36606
L45680 36405
" />
<path d="M45670 36606
L45670 36606
" />
<path d="M45670 36606
L45670 36606
" />
<path d="M45670 36607
L45670 36606
" />
<path d="M45670 36608
L45670 36607
" />
<path d="M45670 36608
L45670 36608
" />
<path d="M45670 36608
L45670 36608
" />
<path d="M45670 36609
L45670 36608
" />
<path d="M45670 36610
L45670 36609
" />
<path d="M45670 36610
L45670 36610
" />
<path d="M45670 36610
L45670 36610
" />
<path d="M45670 36611
L45670 36610
" />
<path d="M45670 36612
L45670 36611
" />
<path d="M45670 36612
L45670 36612
" />
<path d="M45670 36612
L45670 36612
" />
<path d="M45670 36613
L45670 36612
" />
<path d="M45670 36614
L45670 36613
" />
<path d="M45670 36614
L45670 36614
" />
<path d="M45670 36614
L45670 36614
" />
<path d="M45670 36614
L45670 36614
" />
<path d="M45670 36614
L45670 36614
" />
<path d="M45670 36614
L45670 36614
" />
<path d="M45670 36614
L45670 36614
" />
<path d="M45670 36614
L45670 36614
" />
<path d="M45670 36614
L45670 36614
" />
<path d="M45670 36614
L45670 36614
" />
<path d="M45670 36614
L45670 36614
" />
<path d="M45670 36614
L45670 36614
" />
<path d="M45670 36614
L45670 36614
" />
<path d="M45670 36614
L45670 36614
" />
<path d="M45670 36614
L45670 36614
" />
<path d="M45670 36614
L45670 36614
" />
<path d="M45670 36614
L45670 36614
" />
<path d="M45659 36814
L45670 36614
" />
<path d="M45628 37008
L45659 36814
" />
<path d="M45579 37196
L45628 37008
" />
<path d="M45512 37376
L45579 37196
" />
<path d="M45429 37547
L45512 37376
" />
<path d="M45330 37708
L45429 37547
" />
<path d="M45216 37859
L45330 37708
" />
<path d="M45089 37998
L45216 37859
" />
<path d="M44949 38124
L45089 37998
" />
<path d="M44797 38236
L44949 38124
" />
<path d="M44635 38334
L44797 38236
" />
<path d="M44463 38417
L44635 38334
" />
<path d="M44283 38482
L44463 38417
" />
<path d="M44095 38531
L44283 38482
" />
<path d="M43900 38560
L44095 38531
" />
<path d="M43699 38570
L43900 38560
" />
<path d="M43499 38560
L43699 38570
" />
<path d="M43304 38531
L43499 38560
" />
<path d="M43116 38482
L43304 38531
" />
<path d="M42936 38417
L43116 38482
" />
<path d="M42764 38334
L42936 38417
" />
<path d="M42602 38236
L42764 38334
" />
<path d="M42450 38124
L42602 38236
" />
<path d="M42310 37998
L42450 38124
" />
<path d="M42183 37859
L42310 37998
" />
<path d="M42069 37708
L42183 37859
" />
<path d="M41970 37547
L42069 37708
" />
<path d="M41887 37376
L41970 37547
" />
<path d="M41820 37196
L41887 37376
" />
<path d="M41770 37008
L41820 37196
" />
<path d="M41740 36814
L41770 37008
" />
<path d="M41729 36614
L41740 36814
" />
<path d="M41729 36614
L41729 36614
" />
<path d="M41729 36614
L41729 36614
" />
<path d="M41729 36614
L41729 36614
" />
<path d="M41729 36614
L41729 36614
" />
<path d="M41729 36614
L41729 36614
" />
<path d="M41729 36614
L41729 36614
" />
<path d="M41729 36614
L41729 36614
" />
<path d="M41729 36614
L41729 36614
" />
<path d="M41729 36614
L41729 36614
" />
<path d="M41729 36614
L41729 36614
" />
<path d="M41729 36614
L41729 36614
" />
<path d="M41729 36614
L41729 36614
" />
<path d="M41729 36614
L41729 36614
" />
<path d="M41729 36614
L41729 36614
" />
<path d="M41729 36614
L41729 36614
" />
<path d="M41729 36614
L41729 36614
" />
<path d="M41729 36613
L41729 36614
" />
<path d="M41729 36612
L41729 36613
" />
<path d="M41729 36612
L41729 36612
" />
<path d="M41729 36612
L41729 36612
" />
<path d="M41729 36611
L41729 36612
" />
<path d="M41729 36610
L41729 36611
" />
<path d="M41729 36610
L41729 36610
" />
<path d="M41729 36610
L41729 36610
" />
<path d="M41729 36609
L41729 36610
" />
<path d="M41729 36608
L41729 36609
" />
<path d="M41729 36608
L41729 36608
" />
<path d="M41729 36608
L41729 36608
" />
<path d="M41729 36607
L41729 36608
" />
<path d="M41729 36606
L41729 36607
" />
<path d="M41729 36606
L41729 36606
" />
<path d="M41729 36606
L41729 36606
" />
<path d="M41719 36405
L41729 36606
" />
<path d="M41689 36209
L41719 36405
" />
<path d="M41641 36021
L41689 36209
" />
<path d="M41574 35840
L41641 36021
" />
<path d="M41492 35668
L41574 35840
" />
<path d="M41393 35506
L41492 35668
" />
<path d="M41280 35355
L41393 35506
" />
<path d="M41153 35215
L41280 35355
" />
<path d="M41013 35088
L41153 35215
" />
<path d="M40862 34975
L41013 35088
" />
<path d="M40700 34876
L40862 34975
" />
<path d="M40528 34794
L40700 34876
" />
<path d="M40347 34728
L40528 34794
" />
<path d="M40159 34679
L40347 34728
" />
<path d="M39963 34649
L40159 34679
" />
<path d="M39762 34639
L39963 34649
" />
<path d="M39561 34649
L39762 34639
" />
<path d="M39366 34679
L39561 34649
" />
<path d="M39178 34728
L39366 34679
" />
<path d="M38997 34794
L39178 34728
" />
<path d="M38825 34876
L38997 34794
" />
<path d="M38663 34975
L38825 34876
" />
<path d="M38511 35088
L38663 34975
" />
<path d="M38372 35215
L38511 35088
" />
<path d="M38245 35355
L38372 35215
" />
<path d="M38132 35506
L38245 35355
" />
<path d="M38033 35668
L38132 35506
" />
<path d="M37950 35840
L38033 35668
" />
<path d="M37884 36021
L37950 35840
" />
<path d="M37836 36209
L37884 36021
" />
<path d="M37806 36405
L37836 36209
" />
<path d="M37796 36606
L37806 36405
" />
<path d="M37796 36606
L37796 36606
" />
<path d="M37796 36606
L37796 36606
" />
<path d="M37796 36607
L37796 36606
" />
<path d="M37796 36608
L37796 36607
" />
<path d="M37796 36608
L37796 36608
" />
<path d="M37796 36608
L37796 36608
" />
<path d="M37796 36609
L37796 36608
" />
<path d="M37796 36610
L37796 36609
" />
<path d="M37796 36610
L37796 36610
" />
<path d="M37796 36610
L37796 36610
" />
<path d="M37796 36611
L37796 36610
" />
<path d="M37796 36612
L37796 36611
" />
<path d="M37796 36612
L37796 36612
" />
<path d="M37796 36612
L37796 36612
" />
<path d="M37796 36613
L37796 36612
" />
<path d="M37796 36614
L37796 36613
" />
<path d="M37796 36614
L37796 36614
" />
<path d="M37796 36614
L37796 36614
" />
<path d="M37796 36614
L37796 36614
" />
<path d="M37796 36614
L37796 36614
" />
<path d="M37796 36614
L37796 36614
" />
<path d="M37796 36614
L37796 36614
" />
<path d="M37796 36614
L37796 36614
" />
<path d="M37796 36614
L37796 36614
" />
<path d="M37796 36614
L37796 36614
" />
<path d="M37796 36614
L37796 36614
" />
<path d="M37796 36614
L37796 36614
" />
<path d="M37796 36614
L37796 36614
" />
<path d="M37796 36614
L37796 36614
" />
<path d="M37796 36614
L37796 36614
" />
<path d="M37796 36614
L37796 36614
" />
<path d="M37796 36614
L37796 36614
" />
<path d="M37785 36814
L37796 36614
" />
<path d="M37754 37008
L37785 36814
" />
<path d="M37705 37196
L37754 37008
" />
<path d="M37638 37376
L37705 37196
" />
<path d="M37555 37547
L37638 37376
" />
<path d="M37456 37708
L37555 37547
" />
<path d="M37342 37859
L37456 37708
" />
<path d="M37215 37998
L37342 37859
" />
<path d="M37075 38124
L37215 37998
" />
<path d="M36923 38236
L37075 38124
" />
<path d="M36761 38334
L36923 38236
" />
<path d="M36589 38417
L36761 38334
" />
<path d="M36409 38482
L36589 38417
" />
<path d="M36221 38531
L36409 38482
" />
<path d="M36026 38560
L36221 38531
" />
<path d="M35825 38570
L36026 38560
" />
<path d="M35625 38560
L35825 38570
" />
<path d="M35430 38531
L35625 38560
" />
<path d="M35242 38482
L35430 38531
" />
<path d="M35062 38417
L35242 38482
" />
<path d="M34890 38334
L35062 38417
" />
<path d="M34728 38236
L34890 38334
" />
<path d="M34576 38124
L34728 38236
" />
<path d="M34436 37998
L34576 38124
" />
<path d="M34309 37859
L34436 37998
" />
<path d="M34195 37708
L34309 37859
" />
<path d="M34096 37547
L34195 37708
" />
<path d="M34013 37376
L34096 37547
" />
<path d="M33946 37196
L34013 37376
" />
<path d="M33896 37008
L33946 37196
" />
<path d="M33866 36814
L33896 37008
" />
<path d="M33855 36614
L33866 36814
" />
<path d="M33855 36614
L33855 36614
" />
<path d="M33855 36614
L33855 36614
" />
<path d="M33855 36614
L33855 36614
" />
<path d="M33855 36614
L33855 36614
" />
<path d="M33855 36614
L33855 36614
" />
<path d="M33855 36614
L33855 36614
" />
<path d="M33855 36614
L33855 36614
" />
<path d="M33855 36614
L33855 36614
" />
<path d="M33855 36614
L33855 36614
" />
<path d="M33855 36614
L33855 36614
" />
<path d="M33855 36614
L33855 36614
" />
<path d="M33855 36614
L33855 36614
" />
<path d="M33855 36614
L33855 36614
" />
<path d="M33855 36614
L33855 36614
" />
<path d="M33855 36614
L33855 36614
" />
<path d="M33855 36614
L33855 36614
" />
<path d="M33855 36613
L33855 36614
" />
<path d="M33855 36612
L33855 36613
" />
<path d="M33855 36612
L33855 36612
" />
<path d="M33855 36612
L33855 36612
" />
<path d="M33855 36611
L33855 36612
" />
<path d="M33855 36610
L33855 36611
" />
<path d="M33855 36610
L33855 36610
" />
<path d="M33855 36610
L33855 36610
" />
<path d="M33855 36609
L33855 36610
" />
<path d="M33855 36608
L33855 36609
" />
<path d="M33855 36608
L33855 36608
" />
<path d="M33855 36608
L33855 36608
" />
<path d="M33855 36607
L33855 36608
" />
<path d="M33855 36606
L33855 36607
" />
<path d="M33855 36606
L33855 36606
" />
<path d="M33855 36606
L33855 36606
" />
<path d="M33845 36405
L33855 36606
" />
<path d="M33815 36209
L33845 36405
" />
<path d="M33767 36021
L33815 36209
" />
<path d="M33700 35840
L33767 36021
" />
<path d="M33618 35668
L33700 35840
" />
<path d="M33519 35506
L33618 35668
" />
<path d="M33406 35355
L33519 35506
" />
<path d="M33279 35215
L33406 35355
" />
<path d="M33139 35088
L33279 35215
" />
<path d="M32988 34975
L33139 35088
" />
<path d="M32826 34876
L32988 34975
" />
<path d="M32654 34794
L32826 34876
" />
<path d="M32473 34728
L32654 34794
" />
<path d="M32285 34679
L32473 34728
" />
<path d="M32090 34649
L32285 34679
" />
<path d="M31888 34639
L32090 34649
" />
<path d="M31687 34649
L31888 34639
" />
<path d="M31492 34679
L31687 34649
" />
<path d="M31304 34728
L31492 34679
" />
<path d="M31123 34794
L31304 34728
" />
<path d="M30951 34876
L31123 34794
" />
<path d="M30789 34975
L30951 34876
" />
<path d="M30638 35088
L30789 34975
" />
<path d="M30498 35215
L30638 35088
" />
<path d="M30371 35355
L30498 35215
" />
<path d="M30258 35506
L30371 35355
" />
<path d="M30159 35668
L30258 35506
" />
<path d="M30076 35840
L30159 35668
" />
<path d="M30010 36021
L30076 35840
" />
<path d="M29962 36209
L30010 36021
" />
<path d="M29932 36405
L29962 36209
" />
<path d="M29922 36606
L29932 36405
" />
<path d="M29922 36606
L29922 36606
" />
<path d="M29922 36606
L29922 36606
" />
<path d="M29922 36607
L29922 36606
" />
<path d="M29922 36608
L29922 36607
" />
<path d="M29922 36608
L29922 36608
" />
<path d="M29922 36608
L29922 36608
" />
<path d="M29922 36609
L29922 36608
" />
<path d="M29922 36610
L29922 36609
" />
<path d="M29922 36610
L29922 36610
" />
<path d="M29922 36610
L29922 36610
" />
<path d="M29922 36611
L29922 36610
" />
<path d="M29922 36612
L29922 36611
" />
<path d="M29922 36612
L29922 36612
" />
<path d="M29922 36612
L29922 36612
" />
<path d="M29922 36613
L29922 36612
" />
<path d="M29922 36614
L29922 36613
" />
<path d="M29922 36614
L29922 36614
" />
<path d="M29922 36614
L29922 36614
" />
<path d="M29922 36614
L29922 36614
" />
<path d="M29922 36614
L29922 36614
" />
<path d="M29922 36614
L29922 36614
" />
<path d="M29922 36614
L29922 36614
" />
<path d="M29922 36614
L29922 36614
" />
<path d="M29922 36614
L29922 36614
" />
<path d="M29922 36614
L29922 36614
" />
<path d="M29922 36614
L29922 36614
" />
<path d="M29922 36614
L29922 36614
" />
<path d="M29922 36614
L29922 36614
" />
<path d="M29922 36614
L29922 36614
" />
<path d="M29922 36614
L29922 36614
" />
<path d="M29922 36614
L29922 36614
" />
<path d="M29922 36614
L29922 36614
" />
<path d="M29911 36814
L29922 36614
" />
<path d="M29880 37008
L29911 36814
" />
<path d="M29831 37196
L29880 37008
" />
<path d="M29764 37376
L29831 37196
" />
<path d="M29681 37547
L29764 37376
" />
<path d="M29582 37708
L29681 37547
" />
<path d="M29468 37859
L29582 37708
" />
<path d="M29341 37998
L29468 37859
" />
<path d="M29201 38124
L29341 37998
" />
<path d="M29049 38236
L29201 38124
" />
<path d="M28887 38334
L29049 38236
" />
<path d="M28715 38417
L28887 38334
" />
<path d="M28535 38482
L28715 38417
" />
<path d="M28346 38531
L28535 38482
" />
<path d="M28152 38560
L28346 38531
" />
<path d="M27951 38570
L28152 38560
" />
<path d="M27750 38560
L27951 38570
" />
<path d="M27555 38530
L27750 38560
" />
<path d="M27367 38482
L27555 38530
" />
<path d="M27186 38416
L27367 38482
" />
<path d="M27014 38333
L27186 38416
" />
<path d="M26852 38234
L27014 38333
" />
<path d="M26701 38121
L26852 38234
" />
<path d="M26561 37994
L26701 38121
" />
<path d="M26434 37855
L26561 37994
" />
<path d="M26321 37703
L26434 37855
" />
<path d="M26222 37541
L26321 37703
" />
<path d="M26139 37369
L26222 37541
" />
<path d="M26073 37189
L26139 37369
" />
<path d="M26025 37000
L26073 37189
" />
<path d="M25995 36805
L26025 37000
" />
<path d="M25985 36604
L25995 36805
" />
<path d="M25995 36404
L25985 36604
" />
<path d="M26025 36209
L25995 36404
" />
<path d="M26073 36021
L26025 36209
" />
<path d="M26138 35841
L26073 36021
" />
<path d="M26221 35669
L26138 35841
" />
<path d="M26318 35507
L26221 35669
" />
<path d="M26431 35355
L26318 35507
" />
<path d="M26557 35215
L26431 35355
" />
<path d="M26696 35088
L26557 35215
" />
<path d="M26846 34974
L26696 35088
" />
<path d="M27007 34875
L26846 34974
" />
<path d="M27178 34792
L27007 34875
" />
<path d="M27358 34725
L27178 34792
" />
<path d="M27545 34675
L27358 34725
" />
<path d="M27740 34644
L27545 34675
" />
<path d="M27940 34633
L27740 34644
" />
<path d="M27940 34633
L27940 34633
" />
<path d="M27940 34633
L27940 34633
" />
<path d="M27940 34633
L27940 34633
" />
<path d="M27940 34633
L27940 34633
" />
<path d="M27940 34633
L27940 34633
" />
<path d="M27940 34633
L27940 34633
" />
<path d="M27940 34633
L27940 34633
" />
<path d="M27940 34633
L27940 34633
" />
<path d="M27940 34633
L27940 34633
" />
<path d="M27940 34633
L27940 34633
" />
<path d="M27940 34633
L27940 34633
" />
<path d="M27940 34633
L27940 34633
" />
<path d="M27940 34633
L27940 34633
" />
<path d="M27940 34633
L27940 34633
" />
<path d="M27940 34633
L27940 34633
" />
<path d="M27940 34633
L27940 34633
" />
<path d="M27940 34633
L27940 34633
" />
<path d="M27940 34633
L27940 34633
" />
<path d="M27940 34633
L27940 34633
" />
<path d="M27940 34633
L27940 34633
" />
<path d="M27940 34633
L27940 34633
" />
<path d="M27940 34633
L27940 34633
" />
<path d="M27941 34633
L27940 34633
" />
<path d="M27941 34633
L27941 34633
" />
<path d="M27941 34633
L27941 34633
" />
<path d="M27941 34633
L27941 34633
" />
<path d="M27941 34633
L27941 34633
" />
<path d="M27941 34633
L27941 34633
" />
<path d="M27941 34633
L27941 34633
" />
<path d="M27941 34633
L27941 34633
" />
<path d="M27942 34633
L27941 34633
" />
<path d="M27942 34633
L27942 34633
" />
<path d="M28042 34628
L27942 34633
" />
<path d="M28140 34613
L28042 34628
" />
<path d="M28234 34589
L28140 34613
" />
<path d="M28324 34556
L28234 34589
" />
<path d="M28410 34515
L28324 34556
" />
<path d="M28491 34465
L28410 34515
" />
<path d="M28566 34409
L28491 34465
" />
<path d="M28636 34345
L28566 34409
" />
<path d="M28699 34276
L28636 34345
" />
<path d="M28756 34200
L28699 34276
" />
<path d="M28805 34119
L28756 34200
" />
<path d="M28847 34033
L28805 34119
" />
<path d="M28880 33943
L28847 34033
" />
<path d="M28904 33849
L28880 33943
" />
<path d="M28919 33752
L28904 33849
" />
<path d="M28924 33651
L28919 33752
" />
<path d="M28919 33551
L28924 33651
" />
<path d="M28904 33453
L28919 33551
" />
<path d="M28880 33359
L28904 33453
" />
<path d="M28847 33269
L28880 33359
" />
<path d="M28805 33183
L28847 33269
" />
<path d="M28756 33102
L28805 33183
" />
<path d="M28700 33026
L28756 33102
" />
<path d="M28636 32957
L28700 33026
" />
<path d="M28566 32893
L28636 32957
" />
<path d="M28491 32837
L28566 32893
" />
<path d="M28410 32788
L28491 32837
" />
<path d="M28324 32746
L28410 32788
" />
<path d="M28234 32713
L28324 32746
" />
<path d="M28140 32689
L28234 32713
" />
<path d="M28042 32674
L28140 32689
" />
<path d="M27942 32669
L28042 32674
" />
<path d="M27942 32669
L27942 32669
" />
<path d="M27941 32669
L27942 32669
" />
<path d="M27941 32669
L27941 32669
" />
<path d="M27941 32669
L27941 32669
" />
<path d="M27941 32669
L27941 32669
" />
<path d="M27941 32669
L27941 32669
" />
<path d="M27941 32669
L27941 32669
" />
<path d="M27941 32669
L27941 32669
" />
<path d="M27941 32669
L27941 32669
" />
<path d="M27940 32669
L27941 32669
" />
<path d="M27940 32669
L27940 32669
" />
<path d="M27940 32669
L27940 32669
" />
<path d="M27940 32669
L27940 32669
" />
<path d="M27940 32669
L27940 32669
" />
<path d="M27940 32669
L27940 32669
" />
<path d="M27940 32669
L27940 32669
" />
<path d="M27940 32669
L27940 32669
" />
<path d="M27940 32669
L27940 32669
" />
<path d="M27940 32669
L27940 32669
" />
<path d="M27940 32669
L27940 32669
" />
<path d="M27940 32669
L27940 32669
" />
<path d="M27940 32669
L27940 32669
" />
<path d="M27940 32669
L27940 32669
" />
<path d="M27940 32669
L27940 32669
" />
<path d="M27940 32669
L27940 32669
" />
<path d="M27940 32669
L27940 32669
" />
<path d="M27940 32669
L27940 32669
" />
<path d="M27940 32669
L27940 32669
" />
<path d="M27940 32669
L27940 32669
" />
<path d="M27940 32669
L27940 32669
" />
<path d="M27940 32669
L27940 32669
" />
<path d="M27940 32669
L27940 32669
" />
<path d="M27740 32658
L27940 32669
" />
<path d="M27545 32627
L27740 32658
" />
<path d="M27358 32577
L27545 32627
" />
<path d="M27178 32510
L27358 32577
" />
<path d="M27007 32427
L27178 32510
" />
<path d="M26846 32328
L27007 32427
" />
<path d="M26696 32214
L26846 32328
" />
<path d="M26557 32087
L26696 32214
" />
<path d="M26431 31947
L26557 32087
" />
<path d="M26318 31795
L26431 31947
" />
<path d="M26221 31633
L26318 31795
" />
<path d="M26138 31461
L26221 31633
" />
<path d="M26073 31281
L26138 31461
" />
<path d="M26025 31093
L26073 31281
" />
<path d="M25995 30898
L26025 31093
" />
<path d="M25985 30698
L25995 30898
" />
<path d="M25995 30497
L25985 30698
" />
<path d="M26025 30302
L25995 30497
" />
<path d="M26073 30113
L26025 30302
" />
<path d="M26139 29933
L26073 30113
" />
<path d="M26222 29761
L26139 29933
" />
<path d="M26321 29599
L26222 29761
" />
<path d="M26434 29447
L26321 29599
" />
<path d="M26561 29308
L26434 29447
" />
<path d="M26701 29181
L26561 29308
" />
<path d="M26852 29068
L26701 29181
" />
<path d="M27014 28969
L26852 29068
" />
<path d="M27186 28886
L27014 28969
" />
<path d="M27367 28820
L27186 28886
" />
<path d="M27555 28772
L27367 28820
" />
<path d="M27750 28742
L27555 28772
" />
<path d="M27951 28732
L27750 28742
" />
<path d="M27972 28732
L27951 28732
" />
<path d="M27993 28732
L27972 28732
" />
<path d="M28015 28733
L27993 28732
" />
<path d="M28036 28734
L28015 28733
" />
<path d="M28057 28735
L28036 28734
" />
<path d="M28078 28736
L28057 28735
" />
<path d="M28099 28738
L28078 28736
" />
<path d="M28120 28740
L28099 28738
" />
<path d="M28141 28742
L28120 28740
" />
<path d="M28162 28745
L28141 28742
" />
<path d="M28183 28747
L28162 28745
" />
<path d="M28203 28750
L28183 28747
" />
<path d="M28224 28752
L28203 28750
" />
<path d="M28245 28756
L28224 28752
" />
<path d="M28266 28759
L28245 28756
" />
<path d="M28287 28763
L28266 28759
" />
<path d="M28457 28327
L28287 28763
" />
<path d="M28660 27911
L28457 28327
" />
<path d="M28891 27516
L28660 27911
" />
<path d="M29151 27142
L28891 27516
" />
<path d="M29438 26792
L29151 27142
" />
<path d="M29749 26465
L29438 26792
" />
<path d="M30083 26164
L29749 26465
" />
<path d="M30439 25890
L30083 26164
" />
<path d="M30814 25644
L30439 25890
" />
<path d="M31208 25426
L30814 25644
" />
<path d="M31618 25239
L31208 25426
" />
<path d="M32043 25082
L31618 25239
" />
<path d="M32481 24959
L32043 25082
" />
<path d="M32930 24869
L32481 24959
" />
<path d="M33389 24814
L32930 24869
" />
<path d="M33857 24795
L33389 24814
" />
<path d="M33857 24795
L33857 24795
" />
<path d="M33857 24795
L33857 24795
" />
<path d="M33857 24795
L33857 24795
" />
<path d="M33857 24795
L33857 24795
" />
<path d="M33858 24795
L33857 24795
" />
<path d="M33858 24795
L33858 24795
" />
<path d="M33858 24795
L33858 24795
" />
<path d="M33858 24795
L33858 24795
" />
<path d="M33858 24795
L33858 24795
" />
<path d="M33858 24795
L33858 24795
" />
<path d="M33858 24795
L33858 24795
" />
<path d="M33858 24795
L33858 24795
" />
<path d="M33859 24795
L33858 24795
" />
<path d="M33859 24795
L33859 24795
" />
<path d="M33859 24795
L33859 24795
" />
<path d="M33859 24795
L33859 24795
" />
<path d="M33859 24795
L33859 24795
" />
<path d="M33859 24795
L33859 24795
" />
<path d="M33859 24795
L33859 24795
" />
<path d="M33859 24794
L33859 24795
" />
<path d="M33859 24794
L33859 24794
" />
<path d="M33859 24794
L33859 24794
" />
<path d="M33859 24794
L33859 24794
" />
<path d="M33859 24794
L33859 24794
" />
<path d="M33859 24794
L33859 24794
" />
<path d="M33859 24793
L33859 24794
" />
<path d="M33859 24793
L33859 24793
" />
<path d="M33859 24793
L33859 24793
" />
<path d="M33859 24793
L33859 24793
" />
<path d="M33859 24793
L33859 24793
" />
<path d="M33859 24793
L33859 24793
" />
<path d="M33859 24793
L33859 24793
" />
<path d="M33869 24592
L33859 24793
" />
<path d="M33899 24396
L33869 24592
" />
<path d="M33947 24208
L33899 24396
" />
<path d="M34014 24027
L33947 24208
" />
<path d="M34096 23855
L34014 24027
" />
<path d="M34195 23693
L34096 23855
" />
<path d="M34308 23542
L34195 23693
" />
<path d="M34435 23402
L34308 23542
" />
<path d="M34575 23275
L34435 23402
" />
<path d="M34726 23162
L34575 23275
" />
<path d="M34888 23064
L34726 23162
" />
<path d="M35060 22981
L34888 23064
" />
<path d="M35241 22915
L35060 22981
" />
<path d="M35429 22866
L35241 22915
" />
<path d="M35624 22836
L35429 22866
" />
<path d="M35825 22826
L35624 22836
" />
</g> 
</svg>
