G04 #@! TF.FileFunction,Soldermask,Bot*
%FSLAX46Y46*%
G04 Gerber Fmt 4.6, Leading zero omitted, Abs format (unit mm)*
G04 Created by KiCad (PCBNEW 4.0.7-e2-6376~58~ubuntu16.04.1) date Fri Oct  5 04:37:02 2018*
%MOMM*%
%LPD*%
G01*
G04 APERTURE LIST*
%ADD10C,0.100000*%
%ADD11O,2.100000X2.100000*%
%ADD12R,2.100000X2.100000*%
%ADD13C,8.400000*%
%ADD14C,6.400000*%
G04 APERTURE END LIST*
D10*
D11*
X80680000Y-70380000D03*
X121320000Y-70380000D03*
X118780000Y-70380000D03*
X116240000Y-70380000D03*
X113700000Y-70380000D03*
X111160000Y-70380000D03*
X108620000Y-70380000D03*
X106080000Y-70380000D03*
X103540000Y-70380000D03*
X101000000Y-70380000D03*
X98460000Y-70380000D03*
X95920000Y-70380000D03*
X93380000Y-70380000D03*
X90840000Y-70380000D03*
X88300000Y-70380000D03*
X85760000Y-70380000D03*
X83220000Y-70380000D03*
D12*
X80680000Y-85620000D03*
D11*
X83220000Y-85620000D03*
X85760000Y-85620000D03*
X88300000Y-85620000D03*
X90840000Y-85620000D03*
X93380000Y-85620000D03*
X95920000Y-85620000D03*
X98460000Y-85620000D03*
X101000000Y-85620000D03*
X103540000Y-85620000D03*
X106080000Y-85620000D03*
X108620000Y-85620000D03*
X111160000Y-85620000D03*
X113700000Y-85620000D03*
X116240000Y-85620000D03*
X118780000Y-85620000D03*
X121320000Y-85620000D03*
D13*
X71000000Y-93000000D03*
X91000000Y-93000000D03*
X111000000Y-93000000D03*
X131000000Y-93000000D03*
X91000000Y-63000000D03*
X111000000Y-63000000D03*
D14*
X71000000Y-78000000D03*
X131000000Y-78000000D03*
M02*
