G04 #@! TF.FileFunction,Legend,Bot*
%FSLAX46Y46*%
G04 Gerber Fmt 4.6, Leading zero omitted, Abs format (unit mm)*
G04 Created by KiCad (PCBNEW 4.0.7-e2-6376~58~ubuntu16.04.1) date Fri Oct  5 04:37:02 2018*
%MOMM*%
%LPD*%
G01*
G04 APERTURE LIST*
%ADD10C,0.100000*%
%ADD11C,0.010000*%
%ADD12C,0.150000*%
G04 APERTURE END LIST*
D10*
D11*
G36*
X110466994Y-58330877D02*
X110030856Y-58389962D01*
X109636821Y-58485579D01*
X109251090Y-58627716D01*
X108904190Y-58792732D01*
X108350975Y-59123592D01*
X107858337Y-59513084D01*
X107427432Y-59960083D01*
X107059416Y-60463465D01*
X106890297Y-60752667D01*
X106713442Y-61110490D01*
X106576078Y-61461736D01*
X106471913Y-61828718D01*
X106394655Y-62233751D01*
X106338010Y-62699150D01*
X106336272Y-62717354D01*
X106309611Y-62942033D01*
X106277330Y-63124488D01*
X106242790Y-63247367D01*
X106227624Y-63278271D01*
X106162715Y-63377334D01*
X95794952Y-63377334D01*
X95735487Y-63282084D01*
X95705264Y-63195212D01*
X95677545Y-63046489D01*
X95656214Y-62858715D01*
X95650766Y-62784667D01*
X95577667Y-62140056D01*
X95441003Y-61547729D01*
X95237941Y-61000975D01*
X94965646Y-60493084D01*
X94621283Y-60017344D01*
X94356856Y-59721551D01*
X93906540Y-59310140D01*
X93412584Y-58961392D01*
X92885797Y-58681447D01*
X92336986Y-58476445D01*
X92025334Y-58396939D01*
X91744538Y-58353007D01*
X91411652Y-58326035D01*
X91050951Y-58315835D01*
X90686712Y-58322217D01*
X90343208Y-58344993D01*
X90044716Y-58383974D01*
X89903701Y-58413452D01*
X89487335Y-58541423D01*
X89061572Y-58714791D01*
X88663096Y-58917620D01*
X88465300Y-59038292D01*
X88249629Y-59197833D01*
X88005119Y-59407807D01*
X87750808Y-59649194D01*
X87505732Y-59902970D01*
X87288926Y-60150116D01*
X87119428Y-60371610D01*
X87095776Y-60406731D01*
X86804341Y-60924108D01*
X86577650Y-61483909D01*
X86422548Y-62066785D01*
X86359148Y-62488876D01*
X86326002Y-62738188D01*
X86275883Y-62925691D01*
X86197229Y-63061013D01*
X86078477Y-63153786D01*
X85908064Y-63213638D01*
X85674427Y-63250201D01*
X85421334Y-63269932D01*
X84710257Y-63330088D01*
X83977568Y-63424945D01*
X83250428Y-63549922D01*
X82555995Y-63700439D01*
X82012247Y-63844886D01*
X80944606Y-64196430D01*
X79930908Y-64611831D01*
X78966470Y-65093864D01*
X78046605Y-65645302D01*
X77166629Y-66268921D01*
X76321856Y-66967495D01*
X75620014Y-67630255D01*
X74867804Y-68439668D01*
X74187192Y-69291567D01*
X73575479Y-70189989D01*
X73029965Y-71138973D01*
X72547951Y-72142557D01*
X72449284Y-72373167D01*
X72325803Y-72660347D01*
X72224193Y-72877436D01*
X72138742Y-73034391D01*
X72063739Y-73141171D01*
X71993474Y-73207732D01*
X71958438Y-73228989D01*
X71858548Y-73255091D01*
X71682589Y-73273120D01*
X71438839Y-73282364D01*
X71324334Y-73283443D01*
X70836821Y-73294483D01*
X70412879Y-73327674D01*
X70033349Y-73387167D01*
X69679070Y-73477113D01*
X69330884Y-73601663D01*
X68969630Y-73764968D01*
X68869000Y-73815409D01*
X68329644Y-74136807D01*
X67846301Y-74520952D01*
X67421792Y-74964720D01*
X67058939Y-75464986D01*
X66760562Y-76018628D01*
X66654554Y-76267834D01*
X66466492Y-76855760D01*
X66359982Y-77450095D01*
X66332897Y-78044359D01*
X66383107Y-78632075D01*
X66508484Y-79206766D01*
X66706901Y-79761954D01*
X66976229Y-80291161D01*
X67314339Y-80787910D01*
X67719105Y-81245723D01*
X68188396Y-81658122D01*
X68498455Y-81880009D01*
X68862620Y-82096189D01*
X69244106Y-82271389D01*
X69657566Y-82410184D01*
X70117656Y-82517147D01*
X70639027Y-82596854D01*
X70879438Y-82623267D01*
X71331348Y-82679261D01*
X71714110Y-82753808D01*
X72042300Y-82852889D01*
X72330499Y-82982483D01*
X72593285Y-83148568D01*
X72845235Y-83357123D01*
X72975344Y-83482864D01*
X73229291Y-83768657D01*
X73424118Y-84061732D01*
X73577168Y-84391146D01*
X73659403Y-84628667D01*
X73704117Y-84787062D01*
X73733054Y-84936137D01*
X73749142Y-85101707D01*
X73755308Y-85309582D01*
X73755406Y-85475334D01*
X73751465Y-85718041D01*
X73740541Y-85902744D01*
X73719062Y-86056038D01*
X73683456Y-86204517D01*
X73637622Y-86352248D01*
X73460400Y-86767067D01*
X73217473Y-87149600D01*
X72919979Y-87486412D01*
X72579056Y-87764069D01*
X72356390Y-87897676D01*
X72179847Y-87983825D01*
X72004127Y-88053916D01*
X71813449Y-88111815D01*
X71592031Y-88161392D01*
X71324091Y-88206513D01*
X70993847Y-88251047D01*
X70837500Y-88269949D01*
X70423481Y-88323831D01*
X70076393Y-88381378D01*
X69778505Y-88446979D01*
X69512084Y-88525022D01*
X69259399Y-88619896D01*
X69054310Y-88711295D01*
X68647146Y-88923529D01*
X68291950Y-89155435D01*
X67956073Y-89429521D01*
X67796463Y-89578478D01*
X67390813Y-90014427D01*
X67058353Y-90471766D01*
X66787927Y-90968203D01*
X66568379Y-91521444D01*
X66564018Y-91534443D01*
X66431892Y-92047088D01*
X66361694Y-92594844D01*
X66353010Y-93157341D01*
X66405428Y-93714209D01*
X66518536Y-94245077D01*
X66625470Y-94569326D01*
X66888770Y-95143080D01*
X67217295Y-95668715D01*
X67605375Y-96141613D01*
X68047344Y-96557152D01*
X68537532Y-96910713D01*
X69070271Y-97197676D01*
X69639893Y-97413421D01*
X70240729Y-97553329D01*
X70297685Y-97562276D01*
X70844464Y-97616578D01*
X71364576Y-97606658D01*
X71885428Y-97530687D01*
X72293260Y-97429201D01*
X72852262Y-97225306D01*
X73387313Y-96945985D01*
X73888380Y-96599324D01*
X74345429Y-96193412D01*
X74748426Y-95736337D01*
X75087338Y-95236187D01*
X75148939Y-95127334D01*
X75243087Y-94945527D01*
X75324505Y-94763536D01*
X75395508Y-94571173D01*
X75458413Y-94358248D01*
X75515538Y-94114575D01*
X75569200Y-93829964D01*
X75621714Y-93494227D01*
X75675398Y-93097176D01*
X75732569Y-92628623D01*
X75748790Y-92489517D01*
X75834734Y-91911150D01*
X75954741Y-91395348D01*
X76115750Y-90924474D01*
X76324702Y-90480889D01*
X76588539Y-90046953D01*
X76853230Y-89682699D01*
X77236137Y-89248017D01*
X77677251Y-88850352D01*
X78162746Y-88498310D01*
X78678797Y-88200494D01*
X79211578Y-87965510D01*
X79747264Y-87801962D01*
X79939167Y-87762047D01*
X80199786Y-87726784D01*
X80517525Y-87702134D01*
X80865422Y-87688779D01*
X81216515Y-87687398D01*
X81543843Y-87698675D01*
X81759500Y-87716061D01*
X82322630Y-87817765D01*
X82885245Y-87998436D01*
X83436913Y-88252960D01*
X83967200Y-88576220D01*
X84465674Y-88963101D01*
X84655462Y-89136089D01*
X85068405Y-89573652D01*
X85414357Y-90038929D01*
X85710910Y-90555891D01*
X85739391Y-90613113D01*
X85837940Y-90818633D01*
X85921699Y-91007824D01*
X85993047Y-91191340D01*
X86054366Y-91379836D01*
X86108036Y-91583966D01*
X86156438Y-91814386D01*
X86201952Y-92081748D01*
X86246960Y-92396708D01*
X86293841Y-92769920D01*
X86344977Y-93212038D01*
X86369799Y-93434398D01*
X86466521Y-94029669D01*
X86621419Y-94572308D01*
X86839714Y-95075745D01*
X87126627Y-95553412D01*
X87270996Y-95752395D01*
X87667152Y-96204512D01*
X88121533Y-96603984D01*
X88623710Y-96945247D01*
X89163256Y-97222735D01*
X89729741Y-97430885D01*
X90312737Y-97564132D01*
X90755334Y-97611607D01*
X91379017Y-97603821D01*
X91989514Y-97514180D01*
X92579952Y-97345261D01*
X93143455Y-97099640D01*
X93673149Y-96779894D01*
X94162158Y-96388599D01*
X94257381Y-96299176D01*
X94553924Y-95981038D01*
X94820353Y-95624047D01*
X95069648Y-95209836D01*
X95190107Y-94979167D01*
X95306509Y-94738646D01*
X95401630Y-94519385D01*
X95478890Y-94306926D01*
X95541711Y-94086810D01*
X95593514Y-93844579D01*
X95637721Y-93565776D01*
X95677754Y-93235943D01*
X95717034Y-92840620D01*
X95730031Y-92697614D01*
X95764808Y-92340804D01*
X95800894Y-92048706D01*
X95842121Y-91801399D01*
X95892322Y-91578966D01*
X95955327Y-91361489D01*
X96028133Y-91148000D01*
X96282734Y-90562603D01*
X96610395Y-90011375D01*
X97004029Y-89501191D01*
X97456549Y-89038931D01*
X97960866Y-88631470D01*
X98509895Y-88285686D01*
X99096548Y-88008457D01*
X99365254Y-87909803D01*
X99804091Y-87793452D01*
X100294459Y-87716909D01*
X100812804Y-87680857D01*
X101335572Y-87685979D01*
X101839210Y-87732957D01*
X102300164Y-87822473D01*
X102308148Y-87824536D01*
X102957408Y-88034775D01*
X103560039Y-88315197D01*
X104113563Y-88663744D01*
X104615506Y-89078358D01*
X105063390Y-89556980D01*
X105454740Y-90097551D01*
X105787079Y-90698013D01*
X105801782Y-90728893D01*
X105953258Y-91082191D01*
X106075486Y-91444930D01*
X106171985Y-91832996D01*
X106246274Y-92262276D01*
X106301872Y-92748659D01*
X106330557Y-93116500D01*
X106362999Y-93496783D01*
X106408891Y-93820468D01*
X106474213Y-94115295D01*
X106564947Y-94409003D01*
X106668259Y-94682834D01*
X106937836Y-95243131D01*
X107276368Y-95756676D01*
X107680019Y-96219953D01*
X108144948Y-96629447D01*
X108667319Y-96981642D01*
X109243294Y-97273024D01*
X109678334Y-97439605D01*
X109795996Y-97478361D01*
X109897640Y-97507816D01*
X109997346Y-97529252D01*
X110109196Y-97543951D01*
X110247270Y-97553195D01*
X110425647Y-97558266D01*
X110658408Y-97560448D01*
X110959634Y-97561022D01*
X111011834Y-97561049D01*
X111985500Y-97561500D01*
X112375090Y-97425392D01*
X112962533Y-97181030D01*
X113507627Y-96875493D01*
X114003001Y-96514795D01*
X114441282Y-96104949D01*
X114815099Y-95651969D01*
X115092254Y-95208797D01*
X115259976Y-94876357D01*
X115392945Y-94560833D01*
X115496423Y-94242676D01*
X115575676Y-93902335D01*
X115635968Y-93520261D01*
X115682563Y-93076905D01*
X115689869Y-92989500D01*
X115756724Y-92364657D01*
X115852743Y-91808069D01*
X115982078Y-91307103D01*
X116148881Y-90849126D01*
X116357305Y-90421505D01*
X116611501Y-90011607D01*
X116717776Y-89862192D01*
X117155756Y-89333274D01*
X117639536Y-88873555D01*
X118165304Y-88485003D01*
X118729252Y-88169587D01*
X119327570Y-87929277D01*
X119956447Y-87766039D01*
X120612074Y-87681844D01*
X120960167Y-87669959D01*
X121644741Y-87707189D01*
X122297033Y-87822592D01*
X122916396Y-88015902D01*
X123502184Y-88286854D01*
X124053752Y-88635183D01*
X124570452Y-89060624D01*
X124731775Y-89216465D01*
X125167705Y-89700557D01*
X125525634Y-90203027D01*
X125809919Y-90733099D01*
X126024923Y-91299997D01*
X126175005Y-91912945D01*
X126249658Y-92427571D01*
X126277969Y-92691347D01*
X126307930Y-92969130D01*
X126336062Y-93228748D01*
X126358888Y-93438027D01*
X126359868Y-93446964D01*
X126428490Y-93907560D01*
X126531877Y-94320732D01*
X126679416Y-94719832D01*
X126779979Y-94939644D01*
X127081928Y-95471555D01*
X127447701Y-95959871D01*
X127869084Y-96397521D01*
X128337864Y-96777433D01*
X128845829Y-97092537D01*
X129384764Y-97335762D01*
X129674131Y-97431371D01*
X129880409Y-97480674D01*
X130139925Y-97527439D01*
X130425025Y-97568129D01*
X130708058Y-97599206D01*
X130961372Y-97617131D01*
X131141334Y-97619087D01*
X131255964Y-97612142D01*
X131421492Y-97599013D01*
X131604611Y-97582370D01*
X131628167Y-97580068D01*
X132113980Y-97493680D01*
X132610009Y-97333177D01*
X133102651Y-97105694D01*
X133578301Y-96818362D01*
X134023356Y-96478315D01*
X134385188Y-96134488D01*
X134781249Y-95662103D01*
X135107463Y-95153517D01*
X135371154Y-94596408D01*
X135486925Y-94280667D01*
X135525079Y-94164186D01*
X135554170Y-94063380D01*
X135575426Y-93964409D01*
X135590077Y-93853436D01*
X135599351Y-93716620D01*
X135604477Y-93540124D01*
X135606684Y-93310108D01*
X135607201Y-93012733D01*
X135607210Y-92926000D01*
X135606946Y-92609829D01*
X135605338Y-92364725D01*
X135601169Y-92177086D01*
X135593222Y-92033313D01*
X135580282Y-91919806D01*
X135561132Y-91822964D01*
X135534557Y-91729188D01*
X135499339Y-91624876D01*
X135487965Y-91592500D01*
X135227939Y-90972803D01*
X134904267Y-90408793D01*
X134517837Y-89901431D01*
X134069539Y-89451676D01*
X133560264Y-89060489D01*
X132990899Y-88728828D01*
X132713078Y-88598276D01*
X132322236Y-88455321D01*
X131887864Y-88351822D01*
X131395312Y-88284603D01*
X131188568Y-88267825D01*
X130841609Y-88238669D01*
X130556898Y-88200052D01*
X130312123Y-88146724D01*
X130084969Y-88073432D01*
X129853125Y-87974925D01*
X129765500Y-87932910D01*
X129367396Y-87691311D01*
X129021767Y-87384454D01*
X128731685Y-87015838D01*
X128500220Y-86588963D01*
X128426211Y-86406667D01*
X128362922Y-86223624D01*
X128320891Y-86062228D01*
X128294586Y-85891922D01*
X128278476Y-85682149D01*
X128272759Y-85558908D01*
X128269970Y-85221001D01*
X128296299Y-84933758D01*
X128358202Y-84666268D01*
X128462133Y-84387617D01*
X128562565Y-84170965D01*
X128682123Y-83951720D01*
X128818256Y-83758505D01*
X128994242Y-83559557D01*
X129059765Y-83492521D01*
X129302796Y-83268181D01*
X129547674Y-83088018D01*
X129809503Y-82945699D01*
X130103385Y-82834892D01*
X130444422Y-82749263D01*
X130847719Y-82682478D01*
X131052086Y-82657052D01*
X131538030Y-82593050D01*
X131956405Y-82518379D01*
X132324094Y-82428372D01*
X132657982Y-82318363D01*
X132974954Y-82183684D01*
X133225361Y-82056309D01*
X133747405Y-81725875D01*
X134217065Y-81332258D01*
X134629547Y-80882301D01*
X134980056Y-80382850D01*
X135263795Y-79840749D01*
X135475969Y-79262842D01*
X135611782Y-78655973D01*
X135612901Y-78648719D01*
X135664888Y-78047882D01*
X135662100Y-77982334D01*
X134930167Y-77982334D01*
X134924316Y-78340963D01*
X134903809Y-78638467D01*
X134864218Y-78897771D01*
X134801114Y-79141795D01*
X134710069Y-79393463D01*
X134614941Y-79613937D01*
X134371100Y-80058360D01*
X134057811Y-80480637D01*
X133688901Y-80867368D01*
X133278199Y-81205154D01*
X132839533Y-81480597D01*
X132543849Y-81620726D01*
X132266191Y-81728063D01*
X132019138Y-81804544D01*
X131777046Y-81854865D01*
X131514275Y-81883725D01*
X131205180Y-81895821D01*
X131035500Y-81897051D01*
X130774452Y-81895526D01*
X130571819Y-81888739D01*
X130401379Y-81873610D01*
X130236909Y-81847057D01*
X130052186Y-81805998D01*
X129870163Y-81760108D01*
X129381131Y-81658144D01*
X128940597Y-81620349D01*
X128539813Y-81648517D01*
X128170028Y-81744440D01*
X127822492Y-81909909D01*
X127488457Y-82146717D01*
X127338520Y-82278610D01*
X127161985Y-82451844D01*
X126993800Y-82637063D01*
X126825884Y-82845279D01*
X126650158Y-83087509D01*
X126458540Y-83374766D01*
X126242950Y-83718065D01*
X126055798Y-84027068D01*
X125743693Y-84539683D01*
X125461828Y-84982137D01*
X125204386Y-85360876D01*
X124965551Y-85682346D01*
X124739509Y-85952991D01*
X124520443Y-86179258D01*
X124302538Y-86367592D01*
X124079977Y-86524439D01*
X123846945Y-86656243D01*
X123597627Y-86769452D01*
X123571986Y-86779833D01*
X123288500Y-86893500D01*
X117192500Y-86915158D01*
X116315531Y-86918122D01*
X115396131Y-86920941D01*
X114437379Y-86923614D01*
X113442352Y-86926143D01*
X112414129Y-86928526D01*
X111355788Y-86930764D01*
X110270406Y-86932858D01*
X109161061Y-86934806D01*
X108030831Y-86936610D01*
X106882794Y-86938269D01*
X105720028Y-86939783D01*
X104545611Y-86941153D01*
X103362621Y-86942378D01*
X102174135Y-86943459D01*
X100983231Y-86944395D01*
X99792988Y-86945187D01*
X98606483Y-86945834D01*
X97426794Y-86946337D01*
X96256999Y-86946696D01*
X95100176Y-86946911D01*
X93959402Y-86946981D01*
X92837757Y-86946908D01*
X91738316Y-86946691D01*
X90664160Y-86946330D01*
X89618364Y-86945825D01*
X88604008Y-86945176D01*
X87624169Y-86944383D01*
X86681924Y-86943447D01*
X85780353Y-86942367D01*
X84922532Y-86941144D01*
X84111540Y-86939777D01*
X83350455Y-86938267D01*
X82642354Y-86936613D01*
X81990315Y-86934816D01*
X81397416Y-86932876D01*
X80866736Y-86930793D01*
X80401351Y-86928567D01*
X80004340Y-86926197D01*
X79678781Y-86923685D01*
X79427752Y-86921030D01*
X79254330Y-86918232D01*
X79161594Y-86915291D01*
X79150139Y-86914401D01*
X78694732Y-86835481D01*
X78293986Y-86704887D01*
X77929551Y-86513815D01*
X77583074Y-86253460D01*
X77381842Y-86065973D01*
X77217442Y-85895225D01*
X77060206Y-85714979D01*
X76902481Y-85514510D01*
X76736611Y-85283094D01*
X76554942Y-85010008D01*
X76349819Y-84684529D01*
X76113586Y-84295932D01*
X76088674Y-84254384D01*
X75864925Y-83883076D01*
X75675744Y-83575172D01*
X75513894Y-83320448D01*
X75372142Y-83108681D01*
X75243254Y-82929645D01*
X75119996Y-82773117D01*
X74995132Y-82628874D01*
X74861429Y-82486690D01*
X74778260Y-82402418D01*
X74448243Y-82104903D01*
X74124998Y-81884229D01*
X73795439Y-81734935D01*
X73446478Y-81651559D01*
X73065028Y-81628637D01*
X72935061Y-81633118D01*
X72732148Y-81653690D01*
X72486194Y-81692745D01*
X72235061Y-81743798D01*
X72107500Y-81774889D01*
X71909008Y-81824498D01*
X71741035Y-81858692D01*
X71578432Y-81880269D01*
X71396050Y-81892029D01*
X71168741Y-81896771D01*
X71006834Y-81897410D01*
X70734277Y-81895409D01*
X70523585Y-81887521D01*
X70352037Y-81871521D01*
X70196911Y-81845183D01*
X70035485Y-81806280D01*
X70012000Y-81799952D01*
X69471136Y-81610178D01*
X68969717Y-81348796D01*
X68513566Y-81021904D01*
X68108509Y-80635602D01*
X67760368Y-80195986D01*
X67474970Y-79709154D01*
X67258137Y-79181206D01*
X67154192Y-78807834D01*
X67116336Y-78577884D01*
X67091802Y-78295683D01*
X67082057Y-77992813D01*
X67088565Y-77700856D01*
X67097258Y-77580665D01*
X67189559Y-77028520D01*
X67359925Y-76500483D01*
X67603501Y-76003557D01*
X67915431Y-75544748D01*
X68290861Y-75131059D01*
X68724933Y-74769493D01*
X69212793Y-74467055D01*
X69279778Y-74432513D01*
X69760544Y-74236182D01*
X70282634Y-74108711D01*
X70836621Y-74051193D01*
X71413076Y-74064720D01*
X71895834Y-74129574D01*
X72470378Y-74215517D01*
X72988957Y-74248858D01*
X73463493Y-74227587D01*
X73905908Y-74149697D01*
X74328125Y-74013178D01*
X74742064Y-73816024D01*
X75113851Y-73587471D01*
X75292368Y-73462155D01*
X75449970Y-73338422D01*
X75593231Y-73207345D01*
X75728724Y-73059996D01*
X75863023Y-72887446D01*
X76002702Y-72680770D01*
X76154333Y-72431038D01*
X76324490Y-72129323D01*
X76519747Y-71766697D01*
X76682938Y-71456422D01*
X76945360Y-70968200D01*
X77185856Y-70552825D01*
X77410473Y-70203230D01*
X77625252Y-69912349D01*
X77836240Y-69673114D01*
X78049480Y-69478460D01*
X78271017Y-69321319D01*
X78506894Y-69194625D01*
X78679804Y-69121785D01*
X78923167Y-69028834D01*
X100746000Y-69016777D01*
X102600521Y-69015829D01*
X104370820Y-69015080D01*
X106057341Y-69014532D01*
X107660530Y-69014185D01*
X109180831Y-69014039D01*
X110618688Y-69014096D01*
X111974546Y-69014355D01*
X113248849Y-69014818D01*
X114442043Y-69015485D01*
X115554572Y-69016357D01*
X116586880Y-69017435D01*
X117539411Y-69018718D01*
X118412612Y-69020208D01*
X119206925Y-69021906D01*
X119922796Y-69023812D01*
X120560669Y-69025926D01*
X121120988Y-69028249D01*
X121604199Y-69030783D01*
X122010746Y-69033527D01*
X122341074Y-69036482D01*
X122595626Y-69039648D01*
X122774848Y-69043028D01*
X122879185Y-69046620D01*
X122903715Y-69048536D01*
X123309481Y-69141255D01*
X123682880Y-69309915D01*
X124026877Y-69556281D01*
X124344437Y-69882116D01*
X124382325Y-69928401D01*
X124499349Y-70078848D01*
X124610694Y-70233794D01*
X124723031Y-70404379D01*
X124843035Y-70601741D01*
X124977377Y-70837021D01*
X125132730Y-71121356D01*
X125315768Y-71465886D01*
X125403454Y-71633034D01*
X125615946Y-72033408D01*
X125800713Y-72366436D01*
X125964991Y-72641879D01*
X126116016Y-72869503D01*
X126261025Y-73059071D01*
X126407254Y-73220347D01*
X126561940Y-73363094D01*
X126732319Y-73497076D01*
X126843863Y-73576472D01*
X127337746Y-73873196D01*
X127844630Y-74090617D01*
X128132996Y-74176854D01*
X128290661Y-74213581D01*
X128433116Y-74237549D01*
X128583060Y-74250350D01*
X128763195Y-74253576D01*
X128996221Y-74248818D01*
X129106663Y-74245131D01*
X129516698Y-74220254D01*
X129898137Y-74177229D01*
X130167667Y-74130829D01*
X130533416Y-74076007D01*
X130932416Y-74052476D01*
X131336954Y-74059669D01*
X131719321Y-74097021D01*
X132051803Y-74163964D01*
X132072667Y-74169793D01*
X132605234Y-74364937D01*
X133101042Y-74632541D01*
X133553464Y-74965939D01*
X133955868Y-75358468D01*
X134301625Y-75803462D01*
X134584107Y-76294256D01*
X134796682Y-76824185D01*
X134833353Y-76945167D01*
X134871135Y-77088617D01*
X134897804Y-77224586D01*
X134915193Y-77372740D01*
X134925141Y-77552746D01*
X134929481Y-77784270D01*
X134930167Y-77982334D01*
X135662100Y-77982334D01*
X135639296Y-77446320D01*
X135538612Y-76855468D01*
X135365321Y-76286763D01*
X135121909Y-75751639D01*
X134905636Y-75395046D01*
X134744828Y-75182120D01*
X134535380Y-74939577D01*
X134296982Y-74687795D01*
X134049324Y-74447154D01*
X133812094Y-74238032D01*
X133706537Y-74153939D01*
X133258505Y-73856969D01*
X132774575Y-73623812D01*
X132248439Y-73452608D01*
X131673788Y-73341499D01*
X131044312Y-73288627D01*
X130751475Y-73283334D01*
X130074636Y-73283334D01*
X129956221Y-73156569D01*
X129892933Y-73067155D01*
X129810311Y-72919862D01*
X129719473Y-72735813D01*
X129638680Y-72553319D01*
X129394684Y-72003567D01*
X129114718Y-71431494D01*
X128810414Y-70858248D01*
X128493403Y-70304973D01*
X128175318Y-69792818D01*
X127888815Y-69372070D01*
X127543289Y-68918744D01*
X127144046Y-68442206D01*
X126707568Y-67959630D01*
X126250337Y-67488193D01*
X125788836Y-67045070D01*
X125339546Y-66647437D01*
X125044175Y-66407720D01*
X124129440Y-65749139D01*
X123178661Y-65167033D01*
X122192571Y-64661759D01*
X121171903Y-64233670D01*
X120117391Y-63883122D01*
X119488224Y-63714905D01*
X119001918Y-63602894D01*
X118534256Y-63510305D01*
X118061759Y-63433481D01*
X117560949Y-63368770D01*
X117008346Y-63312516D01*
X116769167Y-63291700D01*
X116451136Y-63261619D01*
X116207292Y-63229753D01*
X116027158Y-63193809D01*
X115900254Y-63151498D01*
X115816104Y-63100527D01*
X115793010Y-63078248D01*
X115744577Y-62978464D01*
X115705397Y-62798218D01*
X115684970Y-62636155D01*
X115591400Y-62064970D01*
X115430777Y-61502170D01*
X115209608Y-60960944D01*
X114934397Y-60454484D01*
X114611653Y-59995979D01*
X114247879Y-59598620D01*
X114137049Y-59497931D01*
X113628231Y-59101452D01*
X113105580Y-58786740D01*
X112563458Y-58552003D01*
X111996227Y-58395447D01*
X111398247Y-58315280D01*
X110763881Y-58309709D01*
X110466994Y-58330877D01*
X110466994Y-58330877D01*
G37*
X110466994Y-58330877D02*
X110030856Y-58389962D01*
X109636821Y-58485579D01*
X109251090Y-58627716D01*
X108904190Y-58792732D01*
X108350975Y-59123592D01*
X107858337Y-59513084D01*
X107427432Y-59960083D01*
X107059416Y-60463465D01*
X106890297Y-60752667D01*
X106713442Y-61110490D01*
X106576078Y-61461736D01*
X106471913Y-61828718D01*
X106394655Y-62233751D01*
X106338010Y-62699150D01*
X106336272Y-62717354D01*
X106309611Y-62942033D01*
X106277330Y-63124488D01*
X106242790Y-63247367D01*
X106227624Y-63278271D01*
X106162715Y-63377334D01*
X95794952Y-63377334D01*
X95735487Y-63282084D01*
X95705264Y-63195212D01*
X95677545Y-63046489D01*
X95656214Y-62858715D01*
X95650766Y-62784667D01*
X95577667Y-62140056D01*
X95441003Y-61547729D01*
X95237941Y-61000975D01*
X94965646Y-60493084D01*
X94621283Y-60017344D01*
X94356856Y-59721551D01*
X93906540Y-59310140D01*
X93412584Y-58961392D01*
X92885797Y-58681447D01*
X92336986Y-58476445D01*
X92025334Y-58396939D01*
X91744538Y-58353007D01*
X91411652Y-58326035D01*
X91050951Y-58315835D01*
X90686712Y-58322217D01*
X90343208Y-58344993D01*
X90044716Y-58383974D01*
X89903701Y-58413452D01*
X89487335Y-58541423D01*
X89061572Y-58714791D01*
X88663096Y-58917620D01*
X88465300Y-59038292D01*
X88249629Y-59197833D01*
X88005119Y-59407807D01*
X87750808Y-59649194D01*
X87505732Y-59902970D01*
X87288926Y-60150116D01*
X87119428Y-60371610D01*
X87095776Y-60406731D01*
X86804341Y-60924108D01*
X86577650Y-61483909D01*
X86422548Y-62066785D01*
X86359148Y-62488876D01*
X86326002Y-62738188D01*
X86275883Y-62925691D01*
X86197229Y-63061013D01*
X86078477Y-63153786D01*
X85908064Y-63213638D01*
X85674427Y-63250201D01*
X85421334Y-63269932D01*
X84710257Y-63330088D01*
X83977568Y-63424945D01*
X83250428Y-63549922D01*
X82555995Y-63700439D01*
X82012247Y-63844886D01*
X80944606Y-64196430D01*
X79930908Y-64611831D01*
X78966470Y-65093864D01*
X78046605Y-65645302D01*
X77166629Y-66268921D01*
X76321856Y-66967495D01*
X75620014Y-67630255D01*
X74867804Y-68439668D01*
X74187192Y-69291567D01*
X73575479Y-70189989D01*
X73029965Y-71138973D01*
X72547951Y-72142557D01*
X72449284Y-72373167D01*
X72325803Y-72660347D01*
X72224193Y-72877436D01*
X72138742Y-73034391D01*
X72063739Y-73141171D01*
X71993474Y-73207732D01*
X71958438Y-73228989D01*
X71858548Y-73255091D01*
X71682589Y-73273120D01*
X71438839Y-73282364D01*
X71324334Y-73283443D01*
X70836821Y-73294483D01*
X70412879Y-73327674D01*
X70033349Y-73387167D01*
X69679070Y-73477113D01*
X69330884Y-73601663D01*
X68969630Y-73764968D01*
X68869000Y-73815409D01*
X68329644Y-74136807D01*
X67846301Y-74520952D01*
X67421792Y-74964720D01*
X67058939Y-75464986D01*
X66760562Y-76018628D01*
X66654554Y-76267834D01*
X66466492Y-76855760D01*
X66359982Y-77450095D01*
X66332897Y-78044359D01*
X66383107Y-78632075D01*
X66508484Y-79206766D01*
X66706901Y-79761954D01*
X66976229Y-80291161D01*
X67314339Y-80787910D01*
X67719105Y-81245723D01*
X68188396Y-81658122D01*
X68498455Y-81880009D01*
X68862620Y-82096189D01*
X69244106Y-82271389D01*
X69657566Y-82410184D01*
X70117656Y-82517147D01*
X70639027Y-82596854D01*
X70879438Y-82623267D01*
X71331348Y-82679261D01*
X71714110Y-82753808D01*
X72042300Y-82852889D01*
X72330499Y-82982483D01*
X72593285Y-83148568D01*
X72845235Y-83357123D01*
X72975344Y-83482864D01*
X73229291Y-83768657D01*
X73424118Y-84061732D01*
X73577168Y-84391146D01*
X73659403Y-84628667D01*
X73704117Y-84787062D01*
X73733054Y-84936137D01*
X73749142Y-85101707D01*
X73755308Y-85309582D01*
X73755406Y-85475334D01*
X73751465Y-85718041D01*
X73740541Y-85902744D01*
X73719062Y-86056038D01*
X73683456Y-86204517D01*
X73637622Y-86352248D01*
X73460400Y-86767067D01*
X73217473Y-87149600D01*
X72919979Y-87486412D01*
X72579056Y-87764069D01*
X72356390Y-87897676D01*
X72179847Y-87983825D01*
X72004127Y-88053916D01*
X71813449Y-88111815D01*
X71592031Y-88161392D01*
X71324091Y-88206513D01*
X70993847Y-88251047D01*
X70837500Y-88269949D01*
X70423481Y-88323831D01*
X70076393Y-88381378D01*
X69778505Y-88446979D01*
X69512084Y-88525022D01*
X69259399Y-88619896D01*
X69054310Y-88711295D01*
X68647146Y-88923529D01*
X68291950Y-89155435D01*
X67956073Y-89429521D01*
X67796463Y-89578478D01*
X67390813Y-90014427D01*
X67058353Y-90471766D01*
X66787927Y-90968203D01*
X66568379Y-91521444D01*
X66564018Y-91534443D01*
X66431892Y-92047088D01*
X66361694Y-92594844D01*
X66353010Y-93157341D01*
X66405428Y-93714209D01*
X66518536Y-94245077D01*
X66625470Y-94569326D01*
X66888770Y-95143080D01*
X67217295Y-95668715D01*
X67605375Y-96141613D01*
X68047344Y-96557152D01*
X68537532Y-96910713D01*
X69070271Y-97197676D01*
X69639893Y-97413421D01*
X70240729Y-97553329D01*
X70297685Y-97562276D01*
X70844464Y-97616578D01*
X71364576Y-97606658D01*
X71885428Y-97530687D01*
X72293260Y-97429201D01*
X72852262Y-97225306D01*
X73387313Y-96945985D01*
X73888380Y-96599324D01*
X74345429Y-96193412D01*
X74748426Y-95736337D01*
X75087338Y-95236187D01*
X75148939Y-95127334D01*
X75243087Y-94945527D01*
X75324505Y-94763536D01*
X75395508Y-94571173D01*
X75458413Y-94358248D01*
X75515538Y-94114575D01*
X75569200Y-93829964D01*
X75621714Y-93494227D01*
X75675398Y-93097176D01*
X75732569Y-92628623D01*
X75748790Y-92489517D01*
X75834734Y-91911150D01*
X75954741Y-91395348D01*
X76115750Y-90924474D01*
X76324702Y-90480889D01*
X76588539Y-90046953D01*
X76853230Y-89682699D01*
X77236137Y-89248017D01*
X77677251Y-88850352D01*
X78162746Y-88498310D01*
X78678797Y-88200494D01*
X79211578Y-87965510D01*
X79747264Y-87801962D01*
X79939167Y-87762047D01*
X80199786Y-87726784D01*
X80517525Y-87702134D01*
X80865422Y-87688779D01*
X81216515Y-87687398D01*
X81543843Y-87698675D01*
X81759500Y-87716061D01*
X82322630Y-87817765D01*
X82885245Y-87998436D01*
X83436913Y-88252960D01*
X83967200Y-88576220D01*
X84465674Y-88963101D01*
X84655462Y-89136089D01*
X85068405Y-89573652D01*
X85414357Y-90038929D01*
X85710910Y-90555891D01*
X85739391Y-90613113D01*
X85837940Y-90818633D01*
X85921699Y-91007824D01*
X85993047Y-91191340D01*
X86054366Y-91379836D01*
X86108036Y-91583966D01*
X86156438Y-91814386D01*
X86201952Y-92081748D01*
X86246960Y-92396708D01*
X86293841Y-92769920D01*
X86344977Y-93212038D01*
X86369799Y-93434398D01*
X86466521Y-94029669D01*
X86621419Y-94572308D01*
X86839714Y-95075745D01*
X87126627Y-95553412D01*
X87270996Y-95752395D01*
X87667152Y-96204512D01*
X88121533Y-96603984D01*
X88623710Y-96945247D01*
X89163256Y-97222735D01*
X89729741Y-97430885D01*
X90312737Y-97564132D01*
X90755334Y-97611607D01*
X91379017Y-97603821D01*
X91989514Y-97514180D01*
X92579952Y-97345261D01*
X93143455Y-97099640D01*
X93673149Y-96779894D01*
X94162158Y-96388599D01*
X94257381Y-96299176D01*
X94553924Y-95981038D01*
X94820353Y-95624047D01*
X95069648Y-95209836D01*
X95190107Y-94979167D01*
X95306509Y-94738646D01*
X95401630Y-94519385D01*
X95478890Y-94306926D01*
X95541711Y-94086810D01*
X95593514Y-93844579D01*
X95637721Y-93565776D01*
X95677754Y-93235943D01*
X95717034Y-92840620D01*
X95730031Y-92697614D01*
X95764808Y-92340804D01*
X95800894Y-92048706D01*
X95842121Y-91801399D01*
X95892322Y-91578966D01*
X95955327Y-91361489D01*
X96028133Y-91148000D01*
X96282734Y-90562603D01*
X96610395Y-90011375D01*
X97004029Y-89501191D01*
X97456549Y-89038931D01*
X97960866Y-88631470D01*
X98509895Y-88285686D01*
X99096548Y-88008457D01*
X99365254Y-87909803D01*
X99804091Y-87793452D01*
X100294459Y-87716909D01*
X100812804Y-87680857D01*
X101335572Y-87685979D01*
X101839210Y-87732957D01*
X102300164Y-87822473D01*
X102308148Y-87824536D01*
X102957408Y-88034775D01*
X103560039Y-88315197D01*
X104113563Y-88663744D01*
X104615506Y-89078358D01*
X105063390Y-89556980D01*
X105454740Y-90097551D01*
X105787079Y-90698013D01*
X105801782Y-90728893D01*
X105953258Y-91082191D01*
X106075486Y-91444930D01*
X106171985Y-91832996D01*
X106246274Y-92262276D01*
X106301872Y-92748659D01*
X106330557Y-93116500D01*
X106362999Y-93496783D01*
X106408891Y-93820468D01*
X106474213Y-94115295D01*
X106564947Y-94409003D01*
X106668259Y-94682834D01*
X106937836Y-95243131D01*
X107276368Y-95756676D01*
X107680019Y-96219953D01*
X108144948Y-96629447D01*
X108667319Y-96981642D01*
X109243294Y-97273024D01*
X109678334Y-97439605D01*
X109795996Y-97478361D01*
X109897640Y-97507816D01*
X109997346Y-97529252D01*
X110109196Y-97543951D01*
X110247270Y-97553195D01*
X110425647Y-97558266D01*
X110658408Y-97560448D01*
X110959634Y-97561022D01*
X111011834Y-97561049D01*
X111985500Y-97561500D01*
X112375090Y-97425392D01*
X112962533Y-97181030D01*
X113507627Y-96875493D01*
X114003001Y-96514795D01*
X114441282Y-96104949D01*
X114815099Y-95651969D01*
X115092254Y-95208797D01*
X115259976Y-94876357D01*
X115392945Y-94560833D01*
X115496423Y-94242676D01*
X115575676Y-93902335D01*
X115635968Y-93520261D01*
X115682563Y-93076905D01*
X115689869Y-92989500D01*
X115756724Y-92364657D01*
X115852743Y-91808069D01*
X115982078Y-91307103D01*
X116148881Y-90849126D01*
X116357305Y-90421505D01*
X116611501Y-90011607D01*
X116717776Y-89862192D01*
X117155756Y-89333274D01*
X117639536Y-88873555D01*
X118165304Y-88485003D01*
X118729252Y-88169587D01*
X119327570Y-87929277D01*
X119956447Y-87766039D01*
X120612074Y-87681844D01*
X120960167Y-87669959D01*
X121644741Y-87707189D01*
X122297033Y-87822592D01*
X122916396Y-88015902D01*
X123502184Y-88286854D01*
X124053752Y-88635183D01*
X124570452Y-89060624D01*
X124731775Y-89216465D01*
X125167705Y-89700557D01*
X125525634Y-90203027D01*
X125809919Y-90733099D01*
X126024923Y-91299997D01*
X126175005Y-91912945D01*
X126249658Y-92427571D01*
X126277969Y-92691347D01*
X126307930Y-92969130D01*
X126336062Y-93228748D01*
X126358888Y-93438027D01*
X126359868Y-93446964D01*
X126428490Y-93907560D01*
X126531877Y-94320732D01*
X126679416Y-94719832D01*
X126779979Y-94939644D01*
X127081928Y-95471555D01*
X127447701Y-95959871D01*
X127869084Y-96397521D01*
X128337864Y-96777433D01*
X128845829Y-97092537D01*
X129384764Y-97335762D01*
X129674131Y-97431371D01*
X129880409Y-97480674D01*
X130139925Y-97527439D01*
X130425025Y-97568129D01*
X130708058Y-97599206D01*
X130961372Y-97617131D01*
X131141334Y-97619087D01*
X131255964Y-97612142D01*
X131421492Y-97599013D01*
X131604611Y-97582370D01*
X131628167Y-97580068D01*
X132113980Y-97493680D01*
X132610009Y-97333177D01*
X133102651Y-97105694D01*
X133578301Y-96818362D01*
X134023356Y-96478315D01*
X134385188Y-96134488D01*
X134781249Y-95662103D01*
X135107463Y-95153517D01*
X135371154Y-94596408D01*
X135486925Y-94280667D01*
X135525079Y-94164186D01*
X135554170Y-94063380D01*
X135575426Y-93964409D01*
X135590077Y-93853436D01*
X135599351Y-93716620D01*
X135604477Y-93540124D01*
X135606684Y-93310108D01*
X135607201Y-93012733D01*
X135607210Y-92926000D01*
X135606946Y-92609829D01*
X135605338Y-92364725D01*
X135601169Y-92177086D01*
X135593222Y-92033313D01*
X135580282Y-91919806D01*
X135561132Y-91822964D01*
X135534557Y-91729188D01*
X135499339Y-91624876D01*
X135487965Y-91592500D01*
X135227939Y-90972803D01*
X134904267Y-90408793D01*
X134517837Y-89901431D01*
X134069539Y-89451676D01*
X133560264Y-89060489D01*
X132990899Y-88728828D01*
X132713078Y-88598276D01*
X132322236Y-88455321D01*
X131887864Y-88351822D01*
X131395312Y-88284603D01*
X131188568Y-88267825D01*
X130841609Y-88238669D01*
X130556898Y-88200052D01*
X130312123Y-88146724D01*
X130084969Y-88073432D01*
X129853125Y-87974925D01*
X129765500Y-87932910D01*
X129367396Y-87691311D01*
X129021767Y-87384454D01*
X128731685Y-87015838D01*
X128500220Y-86588963D01*
X128426211Y-86406667D01*
X128362922Y-86223624D01*
X128320891Y-86062228D01*
X128294586Y-85891922D01*
X128278476Y-85682149D01*
X128272759Y-85558908D01*
X128269970Y-85221001D01*
X128296299Y-84933758D01*
X128358202Y-84666268D01*
X128462133Y-84387617D01*
X128562565Y-84170965D01*
X128682123Y-83951720D01*
X128818256Y-83758505D01*
X128994242Y-83559557D01*
X129059765Y-83492521D01*
X129302796Y-83268181D01*
X129547674Y-83088018D01*
X129809503Y-82945699D01*
X130103385Y-82834892D01*
X130444422Y-82749263D01*
X130847719Y-82682478D01*
X131052086Y-82657052D01*
X131538030Y-82593050D01*
X131956405Y-82518379D01*
X132324094Y-82428372D01*
X132657982Y-82318363D01*
X132974954Y-82183684D01*
X133225361Y-82056309D01*
X133747405Y-81725875D01*
X134217065Y-81332258D01*
X134629547Y-80882301D01*
X134980056Y-80382850D01*
X135263795Y-79840749D01*
X135475969Y-79262842D01*
X135611782Y-78655973D01*
X135612901Y-78648719D01*
X135664888Y-78047882D01*
X135662100Y-77982334D01*
X134930167Y-77982334D01*
X134924316Y-78340963D01*
X134903809Y-78638467D01*
X134864218Y-78897771D01*
X134801114Y-79141795D01*
X134710069Y-79393463D01*
X134614941Y-79613937D01*
X134371100Y-80058360D01*
X134057811Y-80480637D01*
X133688901Y-80867368D01*
X133278199Y-81205154D01*
X132839533Y-81480597D01*
X132543849Y-81620726D01*
X132266191Y-81728063D01*
X132019138Y-81804544D01*
X131777046Y-81854865D01*
X131514275Y-81883725D01*
X131205180Y-81895821D01*
X131035500Y-81897051D01*
X130774452Y-81895526D01*
X130571819Y-81888739D01*
X130401379Y-81873610D01*
X130236909Y-81847057D01*
X130052186Y-81805998D01*
X129870163Y-81760108D01*
X129381131Y-81658144D01*
X128940597Y-81620349D01*
X128539813Y-81648517D01*
X128170028Y-81744440D01*
X127822492Y-81909909D01*
X127488457Y-82146717D01*
X127338520Y-82278610D01*
X127161985Y-82451844D01*
X126993800Y-82637063D01*
X126825884Y-82845279D01*
X126650158Y-83087509D01*
X126458540Y-83374766D01*
X126242950Y-83718065D01*
X126055798Y-84027068D01*
X125743693Y-84539683D01*
X125461828Y-84982137D01*
X125204386Y-85360876D01*
X124965551Y-85682346D01*
X124739509Y-85952991D01*
X124520443Y-86179258D01*
X124302538Y-86367592D01*
X124079977Y-86524439D01*
X123846945Y-86656243D01*
X123597627Y-86769452D01*
X123571986Y-86779833D01*
X123288500Y-86893500D01*
X117192500Y-86915158D01*
X116315531Y-86918122D01*
X115396131Y-86920941D01*
X114437379Y-86923614D01*
X113442352Y-86926143D01*
X112414129Y-86928526D01*
X111355788Y-86930764D01*
X110270406Y-86932858D01*
X109161061Y-86934806D01*
X108030831Y-86936610D01*
X106882794Y-86938269D01*
X105720028Y-86939783D01*
X104545611Y-86941153D01*
X103362621Y-86942378D01*
X102174135Y-86943459D01*
X100983231Y-86944395D01*
X99792988Y-86945187D01*
X98606483Y-86945834D01*
X97426794Y-86946337D01*
X96256999Y-86946696D01*
X95100176Y-86946911D01*
X93959402Y-86946981D01*
X92837757Y-86946908D01*
X91738316Y-86946691D01*
X90664160Y-86946330D01*
X89618364Y-86945825D01*
X88604008Y-86945176D01*
X87624169Y-86944383D01*
X86681924Y-86943447D01*
X85780353Y-86942367D01*
X84922532Y-86941144D01*
X84111540Y-86939777D01*
X83350455Y-86938267D01*
X82642354Y-86936613D01*
X81990315Y-86934816D01*
X81397416Y-86932876D01*
X80866736Y-86930793D01*
X80401351Y-86928567D01*
X80004340Y-86926197D01*
X79678781Y-86923685D01*
X79427752Y-86921030D01*
X79254330Y-86918232D01*
X79161594Y-86915291D01*
X79150139Y-86914401D01*
X78694732Y-86835481D01*
X78293986Y-86704887D01*
X77929551Y-86513815D01*
X77583074Y-86253460D01*
X77381842Y-86065973D01*
X77217442Y-85895225D01*
X77060206Y-85714979D01*
X76902481Y-85514510D01*
X76736611Y-85283094D01*
X76554942Y-85010008D01*
X76349819Y-84684529D01*
X76113586Y-84295932D01*
X76088674Y-84254384D01*
X75864925Y-83883076D01*
X75675744Y-83575172D01*
X75513894Y-83320448D01*
X75372142Y-83108681D01*
X75243254Y-82929645D01*
X75119996Y-82773117D01*
X74995132Y-82628874D01*
X74861429Y-82486690D01*
X74778260Y-82402418D01*
X74448243Y-82104903D01*
X74124998Y-81884229D01*
X73795439Y-81734935D01*
X73446478Y-81651559D01*
X73065028Y-81628637D01*
X72935061Y-81633118D01*
X72732148Y-81653690D01*
X72486194Y-81692745D01*
X72235061Y-81743798D01*
X72107500Y-81774889D01*
X71909008Y-81824498D01*
X71741035Y-81858692D01*
X71578432Y-81880269D01*
X71396050Y-81892029D01*
X71168741Y-81896771D01*
X71006834Y-81897410D01*
X70734277Y-81895409D01*
X70523585Y-81887521D01*
X70352037Y-81871521D01*
X70196911Y-81845183D01*
X70035485Y-81806280D01*
X70012000Y-81799952D01*
X69471136Y-81610178D01*
X68969717Y-81348796D01*
X68513566Y-81021904D01*
X68108509Y-80635602D01*
X67760368Y-80195986D01*
X67474970Y-79709154D01*
X67258137Y-79181206D01*
X67154192Y-78807834D01*
X67116336Y-78577884D01*
X67091802Y-78295683D01*
X67082057Y-77992813D01*
X67088565Y-77700856D01*
X67097258Y-77580665D01*
X67189559Y-77028520D01*
X67359925Y-76500483D01*
X67603501Y-76003557D01*
X67915431Y-75544748D01*
X68290861Y-75131059D01*
X68724933Y-74769493D01*
X69212793Y-74467055D01*
X69279778Y-74432513D01*
X69760544Y-74236182D01*
X70282634Y-74108711D01*
X70836621Y-74051193D01*
X71413076Y-74064720D01*
X71895834Y-74129574D01*
X72470378Y-74215517D01*
X72988957Y-74248858D01*
X73463493Y-74227587D01*
X73905908Y-74149697D01*
X74328125Y-74013178D01*
X74742064Y-73816024D01*
X75113851Y-73587471D01*
X75292368Y-73462155D01*
X75449970Y-73338422D01*
X75593231Y-73207345D01*
X75728724Y-73059996D01*
X75863023Y-72887446D01*
X76002702Y-72680770D01*
X76154333Y-72431038D01*
X76324490Y-72129323D01*
X76519747Y-71766697D01*
X76682938Y-71456422D01*
X76945360Y-70968200D01*
X77185856Y-70552825D01*
X77410473Y-70203230D01*
X77625252Y-69912349D01*
X77836240Y-69673114D01*
X78049480Y-69478460D01*
X78271017Y-69321319D01*
X78506894Y-69194625D01*
X78679804Y-69121785D01*
X78923167Y-69028834D01*
X100746000Y-69016777D01*
X102600521Y-69015829D01*
X104370820Y-69015080D01*
X106057341Y-69014532D01*
X107660530Y-69014185D01*
X109180831Y-69014039D01*
X110618688Y-69014096D01*
X111974546Y-69014355D01*
X113248849Y-69014818D01*
X114442043Y-69015485D01*
X115554572Y-69016357D01*
X116586880Y-69017435D01*
X117539411Y-69018718D01*
X118412612Y-69020208D01*
X119206925Y-69021906D01*
X119922796Y-69023812D01*
X120560669Y-69025926D01*
X121120988Y-69028249D01*
X121604199Y-69030783D01*
X122010746Y-69033527D01*
X122341074Y-69036482D01*
X122595626Y-69039648D01*
X122774848Y-69043028D01*
X122879185Y-69046620D01*
X122903715Y-69048536D01*
X123309481Y-69141255D01*
X123682880Y-69309915D01*
X124026877Y-69556281D01*
X124344437Y-69882116D01*
X124382325Y-69928401D01*
X124499349Y-70078848D01*
X124610694Y-70233794D01*
X124723031Y-70404379D01*
X124843035Y-70601741D01*
X124977377Y-70837021D01*
X125132730Y-71121356D01*
X125315768Y-71465886D01*
X125403454Y-71633034D01*
X125615946Y-72033408D01*
X125800713Y-72366436D01*
X125964991Y-72641879D01*
X126116016Y-72869503D01*
X126261025Y-73059071D01*
X126407254Y-73220347D01*
X126561940Y-73363094D01*
X126732319Y-73497076D01*
X126843863Y-73576472D01*
X127337746Y-73873196D01*
X127844630Y-74090617D01*
X128132996Y-74176854D01*
X128290661Y-74213581D01*
X128433116Y-74237549D01*
X128583060Y-74250350D01*
X128763195Y-74253576D01*
X128996221Y-74248818D01*
X129106663Y-74245131D01*
X129516698Y-74220254D01*
X129898137Y-74177229D01*
X130167667Y-74130829D01*
X130533416Y-74076007D01*
X130932416Y-74052476D01*
X131336954Y-74059669D01*
X131719321Y-74097021D01*
X132051803Y-74163964D01*
X132072667Y-74169793D01*
X132605234Y-74364937D01*
X133101042Y-74632541D01*
X133553464Y-74965939D01*
X133955868Y-75358468D01*
X134301625Y-75803462D01*
X134584107Y-76294256D01*
X134796682Y-76824185D01*
X134833353Y-76945167D01*
X134871135Y-77088617D01*
X134897804Y-77224586D01*
X134915193Y-77372740D01*
X134925141Y-77552746D01*
X134929481Y-77784270D01*
X134930167Y-77982334D01*
X135662100Y-77982334D01*
X135639296Y-77446320D01*
X135538612Y-76855468D01*
X135365321Y-76286763D01*
X135121909Y-75751639D01*
X134905636Y-75395046D01*
X134744828Y-75182120D01*
X134535380Y-74939577D01*
X134296982Y-74687795D01*
X134049324Y-74447154D01*
X133812094Y-74238032D01*
X133706537Y-74153939D01*
X133258505Y-73856969D01*
X132774575Y-73623812D01*
X132248439Y-73452608D01*
X131673788Y-73341499D01*
X131044312Y-73288627D01*
X130751475Y-73283334D01*
X130074636Y-73283334D01*
X129956221Y-73156569D01*
X129892933Y-73067155D01*
X129810311Y-72919862D01*
X129719473Y-72735813D01*
X129638680Y-72553319D01*
X129394684Y-72003567D01*
X129114718Y-71431494D01*
X128810414Y-70858248D01*
X128493403Y-70304973D01*
X128175318Y-69792818D01*
X127888815Y-69372070D01*
X127543289Y-68918744D01*
X127144046Y-68442206D01*
X126707568Y-67959630D01*
X126250337Y-67488193D01*
X125788836Y-67045070D01*
X125339546Y-66647437D01*
X125044175Y-66407720D01*
X124129440Y-65749139D01*
X123178661Y-65167033D01*
X122192571Y-64661759D01*
X121171903Y-64233670D01*
X120117391Y-63883122D01*
X119488224Y-63714905D01*
X119001918Y-63602894D01*
X118534256Y-63510305D01*
X118061759Y-63433481D01*
X117560949Y-63368770D01*
X117008346Y-63312516D01*
X116769167Y-63291700D01*
X116451136Y-63261619D01*
X116207292Y-63229753D01*
X116027158Y-63193809D01*
X115900254Y-63151498D01*
X115816104Y-63100527D01*
X115793010Y-63078248D01*
X115744577Y-62978464D01*
X115705397Y-62798218D01*
X115684970Y-62636155D01*
X115591400Y-62064970D01*
X115430777Y-61502170D01*
X115209608Y-60960944D01*
X114934397Y-60454484D01*
X114611653Y-59995979D01*
X114247879Y-59598620D01*
X114137049Y-59497931D01*
X113628231Y-59101452D01*
X113105580Y-58786740D01*
X112563458Y-58552003D01*
X111996227Y-58395447D01*
X111398247Y-58315280D01*
X110763881Y-58309709D01*
X110466994Y-58330877D01*
G36*
X85892167Y-72244759D02*
X85336724Y-72298696D01*
X84847514Y-72404840D01*
X84423840Y-72563545D01*
X84065006Y-72775163D01*
X83770317Y-73040045D01*
X83539075Y-73358545D01*
X83481894Y-73464757D01*
X83386502Y-73671435D01*
X83312898Y-73873386D01*
X83258581Y-74085838D01*
X83221051Y-74324023D01*
X83197806Y-74603169D01*
X83186347Y-74938508D01*
X83184004Y-75279000D01*
X83193874Y-75786664D01*
X83224959Y-76231183D01*
X83281685Y-76632395D01*
X83368476Y-77010137D01*
X83489757Y-77384250D01*
X83649952Y-77774571D01*
X83821305Y-78136500D01*
X84068052Y-78595802D01*
X84337638Y-79018403D01*
X84645918Y-79426434D01*
X85008745Y-79842028D01*
X85151334Y-79993137D01*
X85816247Y-80624945D01*
X86538726Y-81196519D01*
X87314858Y-81705839D01*
X88140727Y-82150883D01*
X89012420Y-82529628D01*
X89926022Y-82840053D01*
X90877619Y-83080137D01*
X91278855Y-83157948D01*
X91477619Y-83186535D01*
X91729713Y-83212703D01*
X92018919Y-83235754D01*
X92329019Y-83254988D01*
X92643795Y-83269705D01*
X92947028Y-83279206D01*
X93222502Y-83282792D01*
X93453997Y-83279762D01*
X93625296Y-83269418D01*
X93681705Y-83261588D01*
X93844713Y-83200274D01*
X93969019Y-83094864D01*
X94035326Y-82964147D01*
X94041300Y-82911507D01*
X94012363Y-82762157D01*
X93929852Y-82564841D01*
X93800119Y-82331408D01*
X93629513Y-82073705D01*
X93495818Y-81893773D01*
X93314858Y-81671064D01*
X93090005Y-81413562D01*
X92817990Y-81117850D01*
X92495540Y-80780513D01*
X92119387Y-80398133D01*
X91686258Y-79967295D01*
X91192884Y-79484582D01*
X91141722Y-79434894D01*
X90742808Y-79044939D01*
X90406569Y-78710248D01*
X90132246Y-78430009D01*
X89919077Y-78203412D01*
X89766302Y-78029647D01*
X89673160Y-77907904D01*
X89638890Y-77837371D01*
X89638667Y-77833605D01*
X89668507Y-77783490D01*
X89750296Y-77786698D01*
X89872438Y-77840602D01*
X89981566Y-77911284D01*
X90070649Y-77978298D01*
X90212643Y-78088273D01*
X90394562Y-78231007D01*
X90603421Y-78396297D01*
X90826235Y-78573943D01*
X90887500Y-78623021D01*
X91373046Y-79009147D01*
X91809039Y-79348543D01*
X92208823Y-79651162D01*
X92585740Y-79926953D01*
X92953134Y-80185867D01*
X93292546Y-80416612D01*
X94278331Y-81038980D01*
X95254135Y-81579845D01*
X96224531Y-82041111D01*
X97194093Y-82424681D01*
X98167395Y-82732459D01*
X99149010Y-82966348D01*
X99629334Y-83053724D01*
X99741092Y-83070295D01*
X99862914Y-83084313D01*
X100002798Y-83096013D01*
X100168738Y-83105630D01*
X100368730Y-83113398D01*
X100610770Y-83119553D01*
X100902855Y-83124329D01*
X101252980Y-83127961D01*
X101669141Y-83130684D01*
X102159334Y-83132733D01*
X102338667Y-83133302D01*
X102789948Y-83135189D01*
X103232619Y-83138069D01*
X103656214Y-83141804D01*
X104050264Y-83146259D01*
X104404302Y-83151296D01*
X104707860Y-83156778D01*
X104950470Y-83162568D01*
X105121664Y-83168529D01*
X105153834Y-83170126D01*
X105746564Y-83203078D01*
X106301635Y-83235204D01*
X106831002Y-83267362D01*
X107346619Y-83300409D01*
X107860440Y-83335202D01*
X108384421Y-83372600D01*
X108930515Y-83413460D01*
X109510676Y-83458639D01*
X110136860Y-83508995D01*
X110821020Y-83565385D01*
X111575111Y-83628667D01*
X111736667Y-83642336D01*
X112422643Y-83700211D01*
X113035751Y-83751311D01*
X113587454Y-83796395D01*
X114089214Y-83836225D01*
X114552496Y-83871558D01*
X114988760Y-83903156D01*
X115409471Y-83931778D01*
X115826091Y-83958184D01*
X116250083Y-83983133D01*
X116692909Y-84007385D01*
X117166034Y-84031700D01*
X117680918Y-84056838D01*
X118249026Y-84083559D01*
X118721667Y-84105311D01*
X119154062Y-84124744D01*
X119510224Y-84139861D01*
X119798471Y-84150814D01*
X120027120Y-84157752D01*
X120204488Y-84160826D01*
X120338891Y-84160185D01*
X120438646Y-84155981D01*
X120512070Y-84148362D01*
X120563167Y-84138552D01*
X120685027Y-84080649D01*
X120770902Y-83988316D01*
X120796000Y-83906336D01*
X120759214Y-83765710D01*
X120657284Y-83604589D01*
X120502859Y-83435902D01*
X120308586Y-83272579D01*
X120087111Y-83127550D01*
X119977485Y-83069514D01*
X119844211Y-83014343D01*
X119650044Y-82946924D01*
X119416569Y-82874151D01*
X119165369Y-82802916D01*
X119039167Y-82769852D01*
X118715057Y-82691297D01*
X118315368Y-82600791D01*
X117848106Y-82499881D01*
X117321275Y-82390112D01*
X116742882Y-82273029D01*
X116120930Y-82150179D01*
X115463426Y-82023108D01*
X114778375Y-81893361D01*
X114073781Y-81762485D01*
X113357651Y-81632024D01*
X112637989Y-81503525D01*
X111922801Y-81378534D01*
X111220092Y-81258597D01*
X111165167Y-81249353D01*
X110712375Y-81173993D01*
X110336320Y-81113276D01*
X110030489Y-81066423D01*
X109788369Y-81032657D01*
X109603448Y-81011199D01*
X109469212Y-81001270D01*
X109379147Y-81002093D01*
X109326742Y-81012888D01*
X109308013Y-81027414D01*
X109306706Y-81076881D01*
X109360521Y-81136518D01*
X109472891Y-81207757D01*
X109647248Y-81292027D01*
X109887024Y-81390759D01*
X110195652Y-81505383D01*
X110576564Y-81637331D01*
X111033191Y-81788033D01*
X111461504Y-81925016D01*
X111755708Y-82018761D01*
X112026509Y-82106390D01*
X112262450Y-82184087D01*
X112452075Y-82248041D01*
X112583928Y-82294435D01*
X112646553Y-82319458D01*
X112646834Y-82319611D01*
X112700937Y-82360374D01*
X112674199Y-82378554D01*
X112567367Y-82374193D01*
X112381188Y-82347335D01*
X112116408Y-82298026D01*
X112048412Y-82284318D01*
X111857577Y-82244090D01*
X111595554Y-82186897D01*
X111272964Y-82115193D01*
X110900433Y-82031430D01*
X110488584Y-81938060D01*
X110048040Y-81837537D01*
X109589426Y-81732314D01*
X109123364Y-81624841D01*
X108660479Y-81517574D01*
X108211395Y-81412963D01*
X107786734Y-81313462D01*
X107397121Y-81221524D01*
X107053180Y-81139600D01*
X106765533Y-81070145D01*
X106544806Y-81015609D01*
X106466167Y-80995561D01*
X105577319Y-80744773D01*
X104633873Y-80439277D01*
X103643338Y-80081912D01*
X102613222Y-79675514D01*
X101551034Y-79222920D01*
X100476000Y-78732486D01*
X100172392Y-78588219D01*
X99867112Y-78440330D01*
X99554879Y-78285988D01*
X99230413Y-78122362D01*
X98888431Y-77946620D01*
X98523655Y-77755930D01*
X98130801Y-77547461D01*
X97704591Y-77318381D01*
X97239741Y-77065859D01*
X96730973Y-76787064D01*
X96173004Y-76479163D01*
X95560553Y-76139325D01*
X94888341Y-75764720D01*
X94151085Y-75352514D01*
X93681500Y-75089433D01*
X92784879Y-74595193D01*
X91949747Y-74152786D01*
X91171872Y-73760666D01*
X90447023Y-73417287D01*
X89770967Y-73121106D01*
X89139473Y-72870575D01*
X88548310Y-72664150D01*
X87993245Y-72500284D01*
X87470047Y-72377434D01*
X86974484Y-72294053D01*
X86502324Y-72248595D01*
X86049336Y-72239516D01*
X85892167Y-72244759D01*
X85892167Y-72244759D01*
G37*
X85892167Y-72244759D02*
X85336724Y-72298696D01*
X84847514Y-72404840D01*
X84423840Y-72563545D01*
X84065006Y-72775163D01*
X83770317Y-73040045D01*
X83539075Y-73358545D01*
X83481894Y-73464757D01*
X83386502Y-73671435D01*
X83312898Y-73873386D01*
X83258581Y-74085838D01*
X83221051Y-74324023D01*
X83197806Y-74603169D01*
X83186347Y-74938508D01*
X83184004Y-75279000D01*
X83193874Y-75786664D01*
X83224959Y-76231183D01*
X83281685Y-76632395D01*
X83368476Y-77010137D01*
X83489757Y-77384250D01*
X83649952Y-77774571D01*
X83821305Y-78136500D01*
X84068052Y-78595802D01*
X84337638Y-79018403D01*
X84645918Y-79426434D01*
X85008745Y-79842028D01*
X85151334Y-79993137D01*
X85816247Y-80624945D01*
X86538726Y-81196519D01*
X87314858Y-81705839D01*
X88140727Y-82150883D01*
X89012420Y-82529628D01*
X89926022Y-82840053D01*
X90877619Y-83080137D01*
X91278855Y-83157948D01*
X91477619Y-83186535D01*
X91729713Y-83212703D01*
X92018919Y-83235754D01*
X92329019Y-83254988D01*
X92643795Y-83269705D01*
X92947028Y-83279206D01*
X93222502Y-83282792D01*
X93453997Y-83279762D01*
X93625296Y-83269418D01*
X93681705Y-83261588D01*
X93844713Y-83200274D01*
X93969019Y-83094864D01*
X94035326Y-82964147D01*
X94041300Y-82911507D01*
X94012363Y-82762157D01*
X93929852Y-82564841D01*
X93800119Y-82331408D01*
X93629513Y-82073705D01*
X93495818Y-81893773D01*
X93314858Y-81671064D01*
X93090005Y-81413562D01*
X92817990Y-81117850D01*
X92495540Y-80780513D01*
X92119387Y-80398133D01*
X91686258Y-79967295D01*
X91192884Y-79484582D01*
X91141722Y-79434894D01*
X90742808Y-79044939D01*
X90406569Y-78710248D01*
X90132246Y-78430009D01*
X89919077Y-78203412D01*
X89766302Y-78029647D01*
X89673160Y-77907904D01*
X89638890Y-77837371D01*
X89638667Y-77833605D01*
X89668507Y-77783490D01*
X89750296Y-77786698D01*
X89872438Y-77840602D01*
X89981566Y-77911284D01*
X90070649Y-77978298D01*
X90212643Y-78088273D01*
X90394562Y-78231007D01*
X90603421Y-78396297D01*
X90826235Y-78573943D01*
X90887500Y-78623021D01*
X91373046Y-79009147D01*
X91809039Y-79348543D01*
X92208823Y-79651162D01*
X92585740Y-79926953D01*
X92953134Y-80185867D01*
X93292546Y-80416612D01*
X94278331Y-81038980D01*
X95254135Y-81579845D01*
X96224531Y-82041111D01*
X97194093Y-82424681D01*
X98167395Y-82732459D01*
X99149010Y-82966348D01*
X99629334Y-83053724D01*
X99741092Y-83070295D01*
X99862914Y-83084313D01*
X100002798Y-83096013D01*
X100168738Y-83105630D01*
X100368730Y-83113398D01*
X100610770Y-83119553D01*
X100902855Y-83124329D01*
X101252980Y-83127961D01*
X101669141Y-83130684D01*
X102159334Y-83132733D01*
X102338667Y-83133302D01*
X102789948Y-83135189D01*
X103232619Y-83138069D01*
X103656214Y-83141804D01*
X104050264Y-83146259D01*
X104404302Y-83151296D01*
X104707860Y-83156778D01*
X104950470Y-83162568D01*
X105121664Y-83168529D01*
X105153834Y-83170126D01*
X105746564Y-83203078D01*
X106301635Y-83235204D01*
X106831002Y-83267362D01*
X107346619Y-83300409D01*
X107860440Y-83335202D01*
X108384421Y-83372600D01*
X108930515Y-83413460D01*
X109510676Y-83458639D01*
X110136860Y-83508995D01*
X110821020Y-83565385D01*
X111575111Y-83628667D01*
X111736667Y-83642336D01*
X112422643Y-83700211D01*
X113035751Y-83751311D01*
X113587454Y-83796395D01*
X114089214Y-83836225D01*
X114552496Y-83871558D01*
X114988760Y-83903156D01*
X115409471Y-83931778D01*
X115826091Y-83958184D01*
X116250083Y-83983133D01*
X116692909Y-84007385D01*
X117166034Y-84031700D01*
X117680918Y-84056838D01*
X118249026Y-84083559D01*
X118721667Y-84105311D01*
X119154062Y-84124744D01*
X119510224Y-84139861D01*
X119798471Y-84150814D01*
X120027120Y-84157752D01*
X120204488Y-84160826D01*
X120338891Y-84160185D01*
X120438646Y-84155981D01*
X120512070Y-84148362D01*
X120563167Y-84138552D01*
X120685027Y-84080649D01*
X120770902Y-83988316D01*
X120796000Y-83906336D01*
X120759214Y-83765710D01*
X120657284Y-83604589D01*
X120502859Y-83435902D01*
X120308586Y-83272579D01*
X120087111Y-83127550D01*
X119977485Y-83069514D01*
X119844211Y-83014343D01*
X119650044Y-82946924D01*
X119416569Y-82874151D01*
X119165369Y-82802916D01*
X119039167Y-82769852D01*
X118715057Y-82691297D01*
X118315368Y-82600791D01*
X117848106Y-82499881D01*
X117321275Y-82390112D01*
X116742882Y-82273029D01*
X116120930Y-82150179D01*
X115463426Y-82023108D01*
X114778375Y-81893361D01*
X114073781Y-81762485D01*
X113357651Y-81632024D01*
X112637989Y-81503525D01*
X111922801Y-81378534D01*
X111220092Y-81258597D01*
X111165167Y-81249353D01*
X110712375Y-81173993D01*
X110336320Y-81113276D01*
X110030489Y-81066423D01*
X109788369Y-81032657D01*
X109603448Y-81011199D01*
X109469212Y-81001270D01*
X109379147Y-81002093D01*
X109326742Y-81012888D01*
X109308013Y-81027414D01*
X109306706Y-81076881D01*
X109360521Y-81136518D01*
X109472891Y-81207757D01*
X109647248Y-81292027D01*
X109887024Y-81390759D01*
X110195652Y-81505383D01*
X110576564Y-81637331D01*
X111033191Y-81788033D01*
X111461504Y-81925016D01*
X111755708Y-82018761D01*
X112026509Y-82106390D01*
X112262450Y-82184087D01*
X112452075Y-82248041D01*
X112583928Y-82294435D01*
X112646553Y-82319458D01*
X112646834Y-82319611D01*
X112700937Y-82360374D01*
X112674199Y-82378554D01*
X112567367Y-82374193D01*
X112381188Y-82347335D01*
X112116408Y-82298026D01*
X112048412Y-82284318D01*
X111857577Y-82244090D01*
X111595554Y-82186897D01*
X111272964Y-82115193D01*
X110900433Y-82031430D01*
X110488584Y-81938060D01*
X110048040Y-81837537D01*
X109589426Y-81732314D01*
X109123364Y-81624841D01*
X108660479Y-81517574D01*
X108211395Y-81412963D01*
X107786734Y-81313462D01*
X107397121Y-81221524D01*
X107053180Y-81139600D01*
X106765533Y-81070145D01*
X106544806Y-81015609D01*
X106466167Y-80995561D01*
X105577319Y-80744773D01*
X104633873Y-80439277D01*
X103643338Y-80081912D01*
X102613222Y-79675514D01*
X101551034Y-79222920D01*
X100476000Y-78732486D01*
X100172392Y-78588219D01*
X99867112Y-78440330D01*
X99554879Y-78285988D01*
X99230413Y-78122362D01*
X98888431Y-77946620D01*
X98523655Y-77755930D01*
X98130801Y-77547461D01*
X97704591Y-77318381D01*
X97239741Y-77065859D01*
X96730973Y-76787064D01*
X96173004Y-76479163D01*
X95560553Y-76139325D01*
X94888341Y-75764720D01*
X94151085Y-75352514D01*
X93681500Y-75089433D01*
X92784879Y-74595193D01*
X91949747Y-74152786D01*
X91171872Y-73760666D01*
X90447023Y-73417287D01*
X89770967Y-73121106D01*
X89139473Y-72870575D01*
X88548310Y-72664150D01*
X87993245Y-72500284D01*
X87470047Y-72377434D01*
X86974484Y-72294053D01*
X86502324Y-72248595D01*
X86049336Y-72239516D01*
X85892167Y-72244759D01*
D12*
X91809524Y-56452381D02*
X91142857Y-57452381D01*
X91142857Y-56452381D02*
X91809524Y-57452381D01*
X90285714Y-56452381D02*
X90761905Y-56452381D01*
X90809524Y-56928571D01*
X90761905Y-56880952D01*
X90666667Y-56833333D01*
X90428571Y-56833333D01*
X90333333Y-56880952D01*
X90285714Y-56928571D01*
X90238095Y-57023810D01*
X90238095Y-57261905D01*
X90285714Y-57357143D01*
X90333333Y-57404762D01*
X90428571Y-57452381D01*
X90666667Y-57452381D01*
X90761905Y-57404762D01*
X90809524Y-57357143D01*
X111809524Y-56452381D02*
X111142857Y-57452381D01*
X111142857Y-56452381D02*
X111809524Y-57452381D01*
X110333333Y-56452381D02*
X110523810Y-56452381D01*
X110619048Y-56500000D01*
X110666667Y-56547619D01*
X110761905Y-56690476D01*
X110809524Y-56880952D01*
X110809524Y-57261905D01*
X110761905Y-57357143D01*
X110714286Y-57404762D01*
X110619048Y-57452381D01*
X110428571Y-57452381D01*
X110333333Y-57404762D01*
X110285714Y-57357143D01*
X110238095Y-57261905D01*
X110238095Y-57023810D01*
X110285714Y-56928571D01*
X110333333Y-56880952D01*
X110428571Y-56833333D01*
X110619048Y-56833333D01*
X110714286Y-56880952D01*
X110761905Y-56928571D01*
X110809524Y-57023810D01*
X62809524Y-75452381D02*
X62142857Y-76452381D01*
X62142857Y-75452381D02*
X62809524Y-76452381D01*
X61857143Y-75452381D02*
X61190476Y-75452381D01*
X61619048Y-76452381D01*
M02*
