G04 #@! TF.FileFunction,Legend,Top*
%FSLAX46Y46*%
G04 Gerber Fmt 4.6, Leading zero omitted, Abs format (unit mm)*
G04 Created by KiCad (PCBNEW 4.0.7-e2-6376~58~ubuntu16.04.1) date Fri Oct  5 04:37:02 2018*
%MOMM*%
%LPD*%
G01*
G04 APERTURE LIST*
%ADD10C,0.100000*%
%ADD11C,0.250000*%
%ADD12C,0.200000*%
%ADD13C,0.150000*%
%ADD14C,0.300000*%
%ADD15C,0.050000*%
%ADD16C,0.120000*%
%ADD17C,0.010000*%
G04 APERTURE END LIST*
D10*
D11*
X117429010Y-72384482D02*
X117388604Y-72263263D01*
X117267385Y-72142045D01*
X117105761Y-72061233D01*
X116944136Y-72061233D01*
X116822918Y-72101639D01*
X116620887Y-72222857D01*
X116499670Y-72344075D01*
X116378451Y-72546106D01*
X116338045Y-72667325D01*
X116338045Y-72828949D01*
X116418857Y-72990573D01*
X116499670Y-73071385D01*
X116661294Y-73152198D01*
X116742107Y-73152198D01*
X117024949Y-72869355D01*
X116863325Y-72707730D01*
X118035102Y-72909761D02*
X118196726Y-73071385D01*
X118237132Y-73192604D01*
X118237132Y-73354229D01*
X118115913Y-73556258D01*
X117833071Y-73839101D01*
X117631040Y-73960320D01*
X117469416Y-73960320D01*
X117348198Y-73919913D01*
X117186574Y-73758289D01*
X117146167Y-73637071D01*
X117146167Y-73475447D01*
X117267385Y-73273416D01*
X117550228Y-72990573D01*
X117752258Y-72869355D01*
X117913883Y-72869355D01*
X118035102Y-72909761D01*
X117913883Y-74404786D02*
X117994696Y-74566411D01*
X118196726Y-74768442D01*
X118317944Y-74808848D01*
X118398757Y-74808848D01*
X118519975Y-74768442D01*
X118600787Y-74687630D01*
X118641193Y-74566411D01*
X118641193Y-74485599D01*
X118600786Y-74364381D01*
X118479569Y-74162351D01*
X118439162Y-74041132D01*
X118439162Y-73960320D01*
X118479569Y-73839101D01*
X118560380Y-73758289D01*
X118681599Y-73717883D01*
X118762411Y-73717883D01*
X118883630Y-73758289D01*
X119085660Y-73960320D01*
X119166473Y-74121944D01*
X118722005Y-75293721D02*
X119570533Y-74445193D01*
X119166472Y-74849254D02*
X119651346Y-75334128D01*
X119206879Y-75778595D02*
X120055407Y-74930066D01*
X120984747Y-76021031D02*
X121065559Y-76021031D01*
X121186778Y-76061437D01*
X121388808Y-76263468D01*
X121429214Y-76384686D01*
X121429214Y-76465499D01*
X121388808Y-76586717D01*
X121307996Y-76667529D01*
X121146372Y-76748341D01*
X120176626Y-76748341D01*
X120701905Y-77273620D01*
X122075712Y-76950372D02*
X122156524Y-77031183D01*
X122196930Y-77152402D01*
X122196930Y-77233214D01*
X122156524Y-77354433D01*
X122035306Y-77556463D01*
X121833276Y-77758493D01*
X121631245Y-77879712D01*
X121510027Y-77920118D01*
X121429214Y-77920118D01*
X121307996Y-77879711D01*
X121227184Y-77798900D01*
X121186778Y-77677681D01*
X121186778Y-77596869D01*
X121227183Y-77475651D01*
X121348402Y-77273620D01*
X121550432Y-77071589D01*
X121752462Y-76950372D01*
X121873681Y-76909965D01*
X121954493Y-76909965D01*
X122075712Y-76950372D01*
X122318149Y-78889864D02*
X121833275Y-78404991D01*
X122075712Y-78647428D02*
X122924240Y-77798900D01*
X122722209Y-77839306D01*
X122560585Y-77839305D01*
X122439367Y-77798899D01*
X123287895Y-78889864D02*
X123247488Y-78768646D01*
X123247488Y-78687833D01*
X123287895Y-78566615D01*
X123328300Y-78526209D01*
X123449519Y-78485803D01*
X123530331Y-78485803D01*
X123651550Y-78526209D01*
X123813174Y-78687833D01*
X123853580Y-78809052D01*
X123853580Y-78889864D01*
X123813174Y-79011083D01*
X123772768Y-79051488D01*
X123651550Y-79091895D01*
X123570737Y-79091895D01*
X123449519Y-79051488D01*
X123287895Y-78889864D01*
X123166676Y-78849458D01*
X123085864Y-78849458D01*
X122964646Y-78889864D01*
X122803021Y-79051488D01*
X122762615Y-79172706D01*
X122762615Y-79253519D01*
X122803022Y-79374737D01*
X122964646Y-79536361D01*
X123085864Y-79576768D01*
X123166677Y-79576768D01*
X123287895Y-79536362D01*
X123449519Y-79374737D01*
X123489925Y-79253519D01*
X123489925Y-79172707D01*
X123449519Y-79051488D01*
D12*
X125563381Y-79366905D02*
X126372905Y-79366905D01*
X126468143Y-79319286D01*
X126515762Y-79271667D01*
X126563381Y-79176429D01*
X126563381Y-78985952D01*
X126515762Y-78890714D01*
X126468143Y-78843095D01*
X126372905Y-78795476D01*
X125563381Y-78795476D01*
X126515762Y-78366905D02*
X126563381Y-78224048D01*
X126563381Y-77985952D01*
X126515762Y-77890714D01*
X126468143Y-77843095D01*
X126372905Y-77795476D01*
X126277667Y-77795476D01*
X126182429Y-77843095D01*
X126134810Y-77890714D01*
X126087190Y-77985952D01*
X126039571Y-78176429D01*
X125991952Y-78271667D01*
X125944333Y-78319286D01*
X125849095Y-78366905D01*
X125753857Y-78366905D01*
X125658619Y-78319286D01*
X125611000Y-78271667D01*
X125563381Y-78176429D01*
X125563381Y-77938333D01*
X125611000Y-77795476D01*
X126039571Y-77033571D02*
X126087190Y-76890714D01*
X126134810Y-76843095D01*
X126230048Y-76795476D01*
X126372905Y-76795476D01*
X126468143Y-76843095D01*
X126515762Y-76890714D01*
X126563381Y-76985952D01*
X126563381Y-77366905D01*
X125563381Y-77366905D01*
X125563381Y-77033571D01*
X125611000Y-76938333D01*
X125658619Y-76890714D01*
X125753857Y-76843095D01*
X125849095Y-76843095D01*
X125944333Y-76890714D01*
X125991952Y-76938333D01*
X126039571Y-77033571D01*
X126039571Y-77366905D01*
D10*
X100323714Y-65995571D02*
X100628476Y-65995571D01*
X100438000Y-65728905D02*
X100438000Y-66414619D01*
X100476095Y-66490810D01*
X100552286Y-66528905D01*
X100628476Y-66528905D01*
X101009429Y-66528905D02*
X100933238Y-66490810D01*
X100895143Y-66452714D01*
X100857048Y-66376524D01*
X100857048Y-66147952D01*
X100895143Y-66071762D01*
X100933238Y-66033667D01*
X101009429Y-65995571D01*
X101123715Y-65995571D01*
X101199905Y-66033667D01*
X101238000Y-66071762D01*
X101276096Y-66147952D01*
X101276096Y-66376524D01*
X101238000Y-66452714D01*
X101199905Y-66490810D01*
X101123715Y-66528905D01*
X101009429Y-66528905D01*
D13*
X92591952Y-73477381D02*
X92591952Y-72477381D01*
X92830047Y-72477381D01*
X92972905Y-72525000D01*
X93068143Y-72620238D01*
X93115762Y-72715476D01*
X93163381Y-72905952D01*
X93163381Y-73048810D01*
X93115762Y-73239286D01*
X93068143Y-73334524D01*
X92972905Y-73429762D01*
X92830047Y-73477381D01*
X92591952Y-73477381D01*
X93972905Y-73429762D02*
X93877667Y-73477381D01*
X93687190Y-73477381D01*
X93591952Y-73429762D01*
X93544333Y-73334524D01*
X93544333Y-72953571D01*
X93591952Y-72858333D01*
X93687190Y-72810714D01*
X93877667Y-72810714D01*
X93972905Y-72858333D01*
X94020524Y-72953571D01*
X94020524Y-73048810D01*
X93544333Y-73144048D01*
X94401476Y-73429762D02*
X94496714Y-73477381D01*
X94687190Y-73477381D01*
X94782429Y-73429762D01*
X94830048Y-73334524D01*
X94830048Y-73286905D01*
X94782429Y-73191667D01*
X94687190Y-73144048D01*
X94544333Y-73144048D01*
X94449095Y-73096429D01*
X94401476Y-73001190D01*
X94401476Y-72953571D01*
X94449095Y-72858333D01*
X94544333Y-72810714D01*
X94687190Y-72810714D01*
X94782429Y-72858333D01*
X95258619Y-73477381D02*
X95258619Y-72810714D01*
X95258619Y-72477381D02*
X95211000Y-72525000D01*
X95258619Y-72572619D01*
X95306238Y-72525000D01*
X95258619Y-72477381D01*
X95258619Y-72572619D01*
X96163381Y-72810714D02*
X96163381Y-73620238D01*
X96115762Y-73715476D01*
X96068143Y-73763095D01*
X95972904Y-73810714D01*
X95830047Y-73810714D01*
X95734809Y-73763095D01*
X96163381Y-73429762D02*
X96068143Y-73477381D01*
X95877666Y-73477381D01*
X95782428Y-73429762D01*
X95734809Y-73382143D01*
X95687190Y-73286905D01*
X95687190Y-73001190D01*
X95734809Y-72905952D01*
X95782428Y-72858333D01*
X95877666Y-72810714D01*
X96068143Y-72810714D01*
X96163381Y-72858333D01*
X96639571Y-72810714D02*
X96639571Y-73477381D01*
X96639571Y-72905952D02*
X96687190Y-72858333D01*
X96782428Y-72810714D01*
X96925286Y-72810714D01*
X97020524Y-72858333D01*
X97068143Y-72953571D01*
X97068143Y-73477381D01*
X97925286Y-73429762D02*
X97830048Y-73477381D01*
X97639571Y-73477381D01*
X97544333Y-73429762D01*
X97496714Y-73334524D01*
X97496714Y-72953571D01*
X97544333Y-72858333D01*
X97639571Y-72810714D01*
X97830048Y-72810714D01*
X97925286Y-72858333D01*
X97972905Y-72953571D01*
X97972905Y-73048810D01*
X97496714Y-73144048D01*
X98830048Y-73477381D02*
X98830048Y-72477381D01*
X98830048Y-73429762D02*
X98734810Y-73477381D01*
X98544333Y-73477381D01*
X98449095Y-73429762D01*
X98401476Y-73382143D01*
X98353857Y-73286905D01*
X98353857Y-73001190D01*
X98401476Y-72905952D01*
X98449095Y-72858333D01*
X98544333Y-72810714D01*
X98734810Y-72810714D01*
X98830048Y-72858333D01*
X100068143Y-73477381D02*
X100068143Y-72810714D01*
X100068143Y-72477381D02*
X100020524Y-72525000D01*
X100068143Y-72572619D01*
X100115762Y-72525000D01*
X100068143Y-72477381D01*
X100068143Y-72572619D01*
X100544333Y-72810714D02*
X100544333Y-73477381D01*
X100544333Y-72905952D02*
X100591952Y-72858333D01*
X100687190Y-72810714D01*
X100830048Y-72810714D01*
X100925286Y-72858333D01*
X100972905Y-72953571D01*
X100972905Y-73477381D01*
X102163381Y-73429762D02*
X102306238Y-73477381D01*
X102544334Y-73477381D01*
X102639572Y-73429762D01*
X102687191Y-73382143D01*
X102734810Y-73286905D01*
X102734810Y-73191667D01*
X102687191Y-73096429D01*
X102639572Y-73048810D01*
X102544334Y-73001190D01*
X102353857Y-72953571D01*
X102258619Y-72905952D01*
X102211000Y-72858333D01*
X102163381Y-72763095D01*
X102163381Y-72667857D01*
X102211000Y-72572619D01*
X102258619Y-72525000D01*
X102353857Y-72477381D01*
X102591953Y-72477381D01*
X102734810Y-72525000D01*
X103163381Y-73477381D02*
X103163381Y-72477381D01*
X103591953Y-73477381D02*
X103591953Y-72953571D01*
X103544334Y-72858333D01*
X103449096Y-72810714D01*
X103306238Y-72810714D01*
X103211000Y-72858333D01*
X103163381Y-72905952D01*
X104449096Y-73429762D02*
X104353858Y-73477381D01*
X104163381Y-73477381D01*
X104068143Y-73429762D01*
X104020524Y-73334524D01*
X104020524Y-72953571D01*
X104068143Y-72858333D01*
X104163381Y-72810714D01*
X104353858Y-72810714D01*
X104449096Y-72858333D01*
X104496715Y-72953571D01*
X104496715Y-73048810D01*
X104020524Y-73144048D01*
X104925286Y-72810714D02*
X104925286Y-73477381D01*
X104925286Y-72905952D02*
X104972905Y-72858333D01*
X105068143Y-72810714D01*
X105211001Y-72810714D01*
X105306239Y-72858333D01*
X105353858Y-72953571D01*
X105353858Y-73477381D01*
X105734810Y-72810714D02*
X106258620Y-72810714D01*
X105734810Y-73477381D01*
X106258620Y-73477381D01*
X106639572Y-73477381D02*
X106639572Y-72477381D01*
X107068144Y-73477381D02*
X107068144Y-72953571D01*
X107020525Y-72858333D01*
X106925287Y-72810714D01*
X106782429Y-72810714D01*
X106687191Y-72858333D01*
X106639572Y-72905952D01*
X107925287Y-73429762D02*
X107830049Y-73477381D01*
X107639572Y-73477381D01*
X107544334Y-73429762D01*
X107496715Y-73334524D01*
X107496715Y-72953571D01*
X107544334Y-72858333D01*
X107639572Y-72810714D01*
X107830049Y-72810714D01*
X107925287Y-72858333D01*
X107972906Y-72953571D01*
X107972906Y-73048810D01*
X107496715Y-73144048D01*
X108401477Y-72810714D02*
X108401477Y-73477381D01*
X108401477Y-72905952D02*
X108449096Y-72858333D01*
X108544334Y-72810714D01*
X108687192Y-72810714D01*
X108782430Y-72858333D01*
X108830049Y-72953571D01*
X108830049Y-73477381D01*
D14*
X98607857Y-64015000D02*
X98465000Y-63943571D01*
X98250714Y-63943571D01*
X98036429Y-64015000D01*
X97893571Y-64157857D01*
X97822143Y-64300714D01*
X97750714Y-64586429D01*
X97750714Y-64800714D01*
X97822143Y-65086429D01*
X97893571Y-65229286D01*
X98036429Y-65372143D01*
X98250714Y-65443571D01*
X98393571Y-65443571D01*
X98607857Y-65372143D01*
X98679286Y-65300714D01*
X98679286Y-64800714D01*
X98393571Y-64800714D01*
X100179286Y-65300714D02*
X100107857Y-65372143D01*
X99893571Y-65443571D01*
X99750714Y-65443571D01*
X99536429Y-65372143D01*
X99393571Y-65229286D01*
X99322143Y-65086429D01*
X99250714Y-64800714D01*
X99250714Y-64586429D01*
X99322143Y-64300714D01*
X99393571Y-64157857D01*
X99536429Y-64015000D01*
X99750714Y-63943571D01*
X99893571Y-63943571D01*
X100107857Y-64015000D01*
X100179286Y-64086429D01*
X101036429Y-65443571D02*
X100893571Y-65372143D01*
X100822143Y-65300714D01*
X100750714Y-65157857D01*
X100750714Y-64729286D01*
X100822143Y-64586429D01*
X100893571Y-64515000D01*
X101036429Y-64443571D01*
X101250714Y-64443571D01*
X101393571Y-64515000D01*
X101465000Y-64586429D01*
X101536429Y-64729286D01*
X101536429Y-65157857D01*
X101465000Y-65300714D01*
X101393571Y-65372143D01*
X101250714Y-65443571D01*
X101036429Y-65443571D01*
X102822143Y-65443571D02*
X102822143Y-63943571D01*
X102822143Y-65372143D02*
X102679286Y-65443571D01*
X102393572Y-65443571D01*
X102250714Y-65372143D01*
X102179286Y-65300714D01*
X102107857Y-65157857D01*
X102107857Y-64729286D01*
X102179286Y-64586429D01*
X102250714Y-64515000D01*
X102393572Y-64443571D01*
X102679286Y-64443571D01*
X102822143Y-64515000D01*
X104107857Y-65372143D02*
X103965000Y-65443571D01*
X103679286Y-65443571D01*
X103536429Y-65372143D01*
X103465000Y-65229286D01*
X103465000Y-64657857D01*
X103536429Y-64515000D01*
X103679286Y-64443571D01*
X103965000Y-64443571D01*
X104107857Y-64515000D01*
X104179286Y-64657857D01*
X104179286Y-64800714D01*
X103465000Y-64943571D01*
X97500714Y-67565000D02*
X98215000Y-67565000D01*
X97357857Y-67993571D02*
X97857857Y-66493571D01*
X98357857Y-67993571D01*
X98857857Y-66993571D02*
X98857857Y-67993571D01*
X98857857Y-67136429D02*
X98929285Y-67065000D01*
X99072143Y-66993571D01*
X99286428Y-66993571D01*
X99429285Y-67065000D01*
X99500714Y-67207857D01*
X99500714Y-67993571D01*
X100857857Y-67993571D02*
X100857857Y-67207857D01*
X100786428Y-67065000D01*
X100643571Y-66993571D01*
X100357857Y-66993571D01*
X100215000Y-67065000D01*
X100857857Y-67922143D02*
X100715000Y-67993571D01*
X100357857Y-67993571D01*
X100215000Y-67922143D01*
X100143571Y-67779286D01*
X100143571Y-67636429D01*
X100215000Y-67493571D01*
X100357857Y-67422143D01*
X100715000Y-67422143D01*
X100857857Y-67350714D01*
X101786429Y-67993571D02*
X101643571Y-67922143D01*
X101572143Y-67779286D01*
X101572143Y-66493571D01*
X102572143Y-67993571D02*
X102429285Y-67922143D01*
X102357857Y-67850714D01*
X102286428Y-67707857D01*
X102286428Y-67279286D01*
X102357857Y-67136429D01*
X102429285Y-67065000D01*
X102572143Y-66993571D01*
X102786428Y-66993571D01*
X102929285Y-67065000D01*
X103000714Y-67136429D01*
X103072143Y-67279286D01*
X103072143Y-67707857D01*
X103000714Y-67850714D01*
X102929285Y-67922143D01*
X102786428Y-67993571D01*
X102572143Y-67993571D01*
X104357857Y-66993571D02*
X104357857Y-68207857D01*
X104286428Y-68350714D01*
X104215000Y-68422143D01*
X104072143Y-68493571D01*
X103857857Y-68493571D01*
X103715000Y-68422143D01*
X104357857Y-67922143D02*
X104215000Y-67993571D01*
X103929286Y-67993571D01*
X103786428Y-67922143D01*
X103715000Y-67850714D01*
X103643571Y-67707857D01*
X103643571Y-67279286D01*
X103715000Y-67136429D01*
X103786428Y-67065000D01*
X103929286Y-66993571D01*
X104215000Y-66993571D01*
X104357857Y-67065000D01*
D13*
X95098591Y-76727000D02*
G75*
G03X95098591Y-76727000I-288591J0D01*
G01*
X86555000Y-79955800D02*
X86555000Y-76044200D01*
X86555000Y-76044200D02*
X95445000Y-76044200D01*
X95445000Y-79955800D02*
X95445000Y-76044200D01*
X95445000Y-79955800D02*
X86555000Y-79955800D01*
X95445000Y-78508000D02*
X95445000Y-77238000D01*
X115098591Y-76727000D02*
G75*
G03X115098591Y-76727000I-288591J0D01*
G01*
X106555000Y-79955800D02*
X106555000Y-76044200D01*
X106555000Y-76044200D02*
X115445000Y-76044200D01*
X115445000Y-79955800D02*
X115445000Y-76044200D01*
X115445000Y-79955800D02*
X106555000Y-79955800D01*
X115445000Y-78508000D02*
X115445000Y-77238000D01*
D15*
X99187600Y-77746000D02*
X99187600Y-78254000D01*
X100812400Y-77746000D02*
X100812400Y-78254000D01*
X103812400Y-78254000D02*
X103812400Y-77746000D01*
X102187600Y-78254000D02*
X102187600Y-77746000D01*
D16*
X125000000Y-82000000D02*
X127000000Y-82000000D01*
X127000000Y-82000000D02*
X127000000Y-74000000D01*
X127000000Y-74000000D02*
X125000000Y-74000000D01*
X77000000Y-87000000D02*
X125000000Y-87000000D01*
X125000000Y-87000000D02*
X125000000Y-69000000D01*
X125000000Y-69000000D02*
X77000000Y-69000000D01*
X77000000Y-69000000D02*
X77000000Y-87000000D01*
D17*
G36*
X85708525Y-81898526D02*
X77853572Y-81898526D01*
X77853572Y-74196501D01*
X78006500Y-74196501D01*
X78006500Y-81745597D01*
X85555597Y-81745597D01*
X85555597Y-74196501D01*
X78006500Y-74196501D01*
X77853572Y-74196501D01*
X77853572Y-74057475D01*
X85708525Y-74057475D01*
X85708525Y-81898526D01*
X85708525Y-81898526D01*
G37*
X85708525Y-81898526D02*
X77853572Y-81898526D01*
X77853572Y-74196501D01*
X78006500Y-74196501D01*
X78006500Y-81745597D01*
X85555597Y-81745597D01*
X85555597Y-74196501D01*
X78006500Y-74196501D01*
X77853572Y-74196501D01*
X77853572Y-74057475D01*
X85708525Y-74057475D01*
X85708525Y-81898526D01*
G36*
X79306299Y-80674993D02*
X79383807Y-80686389D01*
X79414135Y-80693936D01*
X79494075Y-80717584D01*
X79494075Y-80908772D01*
X79421087Y-80880510D01*
X79328564Y-80854616D01*
X79244723Y-80850344D01*
X79172338Y-80866363D01*
X79114185Y-80901340D01*
X79073036Y-80953943D01*
X79051668Y-81022840D01*
X79049245Y-81059021D01*
X79061162Y-81129930D01*
X79095320Y-81185899D01*
X79149160Y-81224560D01*
X79220122Y-81243543D01*
X79250334Y-81245105D01*
X79283221Y-81242834D01*
X79296790Y-81231263D01*
X79299439Y-81203397D01*
X79295994Y-81173856D01*
X79279745Y-81162967D01*
X79257731Y-81161689D01*
X79234645Y-81160597D01*
X79222184Y-81152951D01*
X79217072Y-81132198D01*
X79216032Y-81091783D01*
X79216024Y-81078274D01*
X79216024Y-80994858D01*
X79508721Y-80994858D01*
X79504874Y-81199367D01*
X79501026Y-81403876D01*
X79452367Y-81414047D01*
X79410188Y-81420373D01*
X79352085Y-81425918D01*
X79286312Y-81430265D01*
X79221122Y-81432994D01*
X79164766Y-81433689D01*
X79125498Y-81431931D01*
X79118706Y-81430946D01*
X79010647Y-81398732D01*
X78921961Y-81346921D01*
X78851728Y-81274925D01*
X78833703Y-81248644D01*
X78813489Y-81214268D01*
X78801109Y-81183832D01*
X78794669Y-81148643D01*
X78792277Y-81100004D01*
X78791995Y-81057102D01*
X78792687Y-80995659D01*
X78796124Y-80953202D01*
X78804353Y-80920921D01*
X78819417Y-80890006D01*
X78837604Y-80860587D01*
X78902715Y-80781313D01*
X78982908Y-80723938D01*
X79079609Y-80687762D01*
X79194244Y-80672084D01*
X79222975Y-80671306D01*
X79306299Y-80674993D01*
X79306299Y-80674993D01*
G37*
X79306299Y-80674993D02*
X79383807Y-80686389D01*
X79414135Y-80693936D01*
X79494075Y-80717584D01*
X79494075Y-80908772D01*
X79421087Y-80880510D01*
X79328564Y-80854616D01*
X79244723Y-80850344D01*
X79172338Y-80866363D01*
X79114185Y-80901340D01*
X79073036Y-80953943D01*
X79051668Y-81022840D01*
X79049245Y-81059021D01*
X79061162Y-81129930D01*
X79095320Y-81185899D01*
X79149160Y-81224560D01*
X79220122Y-81243543D01*
X79250334Y-81245105D01*
X79283221Y-81242834D01*
X79296790Y-81231263D01*
X79299439Y-81203397D01*
X79295994Y-81173856D01*
X79279745Y-81162967D01*
X79257731Y-81161689D01*
X79234645Y-81160597D01*
X79222184Y-81152951D01*
X79217072Y-81132198D01*
X79216032Y-81091783D01*
X79216024Y-81078274D01*
X79216024Y-80994858D01*
X79508721Y-80994858D01*
X79504874Y-81199367D01*
X79501026Y-81403876D01*
X79452367Y-81414047D01*
X79410188Y-81420373D01*
X79352085Y-81425918D01*
X79286312Y-81430265D01*
X79221122Y-81432994D01*
X79164766Y-81433689D01*
X79125498Y-81431931D01*
X79118706Y-81430946D01*
X79010647Y-81398732D01*
X78921961Y-81346921D01*
X78851728Y-81274925D01*
X78833703Y-81248644D01*
X78813489Y-81214268D01*
X78801109Y-81183832D01*
X78794669Y-81148643D01*
X78792277Y-81100004D01*
X78791995Y-81057102D01*
X78792687Y-80995659D01*
X78796124Y-80953202D01*
X78804353Y-80920921D01*
X78819417Y-80890006D01*
X78837604Y-80860587D01*
X78902715Y-80781313D01*
X78982908Y-80723938D01*
X79079609Y-80687762D01*
X79194244Y-80672084D01*
X79222975Y-80671306D01*
X79306299Y-80674993D01*
G36*
X79974746Y-80840414D02*
X80049076Y-80858372D01*
X80110109Y-80890504D01*
X80147971Y-80929870D01*
X80158858Y-80960944D01*
X80167787Y-81015828D01*
X80174151Y-81090562D01*
X80174990Y-81106079D01*
X80178704Y-81171732D01*
X80182890Y-81215010D01*
X80188852Y-81241334D01*
X80197897Y-81256121D01*
X80211328Y-81264790D01*
X80213437Y-81265738D01*
X80235889Y-81284173D01*
X80238594Y-81300495D01*
X80231521Y-81326465D01*
X80220961Y-81366501D01*
X80216812Y-81382470D01*
X80201057Y-81443371D01*
X80130810Y-81435051D01*
X80082495Y-81425827D01*
X80040825Y-81412026D01*
X80027535Y-81405090D01*
X80000761Y-81391454D01*
X79976526Y-81393899D01*
X79955003Y-81403876D01*
X79904559Y-81421334D01*
X79842043Y-81431413D01*
X79780611Y-81432765D01*
X79739029Y-81426031D01*
X79680564Y-81396222D01*
X79645000Y-81351673D01*
X79633410Y-81294816D01*
X79635644Y-81272240D01*
X79804957Y-81272240D01*
X79811492Y-81308078D01*
X79837514Y-81335876D01*
X79878726Y-81341894D01*
X79931352Y-81326289D01*
X79953971Y-81311673D01*
X79964303Y-81288898D01*
X79966763Y-81248317D01*
X79965647Y-81210491D01*
X79959546Y-81194009D01*
X79944327Y-81192424D01*
X79932619Y-81195050D01*
X79864147Y-81216944D01*
X79822044Y-81242254D01*
X79804957Y-81272240D01*
X79635644Y-81272240D01*
X79637892Y-81249537D01*
X79653383Y-81214143D01*
X79683792Y-81185149D01*
X79733030Y-81159073D01*
X79805005Y-81132433D01*
X79821847Y-81126932D01*
X79879129Y-81107292D01*
X79925569Y-81089108D01*
X79955328Y-81074799D01*
X79963116Y-81068361D01*
X79958121Y-81048315D01*
X79943910Y-81029602D01*
X79909731Y-81013447D01*
X79859524Y-81012054D01*
X79800153Y-81024407D01*
X79738481Y-81049485D01*
X79713057Y-81063869D01*
X79645741Y-81105715D01*
X79649848Y-81012448D01*
X79653955Y-80919180D01*
X79732612Y-80879010D01*
X79810449Y-80849991D01*
X79893181Y-80837373D01*
X79974746Y-80840414D01*
X79974746Y-80840414D01*
G37*
X79974746Y-80840414D02*
X80049076Y-80858372D01*
X80110109Y-80890504D01*
X80147971Y-80929870D01*
X80158858Y-80960944D01*
X80167787Y-81015828D01*
X80174151Y-81090562D01*
X80174990Y-81106079D01*
X80178704Y-81171732D01*
X80182890Y-81215010D01*
X80188852Y-81241334D01*
X80197897Y-81256121D01*
X80211328Y-81264790D01*
X80213437Y-81265738D01*
X80235889Y-81284173D01*
X80238594Y-81300495D01*
X80231521Y-81326465D01*
X80220961Y-81366501D01*
X80216812Y-81382470D01*
X80201057Y-81443371D01*
X80130810Y-81435051D01*
X80082495Y-81425827D01*
X80040825Y-81412026D01*
X80027535Y-81405090D01*
X80000761Y-81391454D01*
X79976526Y-81393899D01*
X79955003Y-81403876D01*
X79904559Y-81421334D01*
X79842043Y-81431413D01*
X79780611Y-81432765D01*
X79739029Y-81426031D01*
X79680564Y-81396222D01*
X79645000Y-81351673D01*
X79633410Y-81294816D01*
X79635644Y-81272240D01*
X79804957Y-81272240D01*
X79811492Y-81308078D01*
X79837514Y-81335876D01*
X79878726Y-81341894D01*
X79931352Y-81326289D01*
X79953971Y-81311673D01*
X79964303Y-81288898D01*
X79966763Y-81248317D01*
X79965647Y-81210491D01*
X79959546Y-81194009D01*
X79944327Y-81192424D01*
X79932619Y-81195050D01*
X79864147Y-81216944D01*
X79822044Y-81242254D01*
X79804957Y-81272240D01*
X79635644Y-81272240D01*
X79637892Y-81249537D01*
X79653383Y-81214143D01*
X79683792Y-81185149D01*
X79733030Y-81159073D01*
X79805005Y-81132433D01*
X79821847Y-81126932D01*
X79879129Y-81107292D01*
X79925569Y-81089108D01*
X79955328Y-81074799D01*
X79963116Y-81068361D01*
X79958121Y-81048315D01*
X79943910Y-81029602D01*
X79909731Y-81013447D01*
X79859524Y-81012054D01*
X79800153Y-81024407D01*
X79738481Y-81049485D01*
X79713057Y-81063869D01*
X79645741Y-81105715D01*
X79649848Y-81012448D01*
X79653955Y-80919180D01*
X79732612Y-80879010D01*
X79810449Y-80849991D01*
X79893181Y-80837373D01*
X79974746Y-80840414D01*
G36*
X80522866Y-81012619D02*
X80523741Y-81091233D01*
X80526711Y-81146889D01*
X80532291Y-81184391D01*
X80540997Y-81208542D01*
X80544508Y-81214206D01*
X80575274Y-81240673D01*
X80612586Y-81240511D01*
X80644895Y-81223463D01*
X80657574Y-81212983D01*
X80666213Y-81199142D01*
X80671584Y-81176914D01*
X80674457Y-81141270D01*
X80675603Y-81087185D01*
X80675794Y-81021875D01*
X80675794Y-80841930D01*
X80912138Y-80841930D01*
X80912138Y-81040737D01*
X80912839Y-81126801D01*
X80915559Y-81188867D01*
X80921225Y-81230719D01*
X80930761Y-81256144D01*
X80945095Y-81268926D01*
X80965151Y-81272851D01*
X80968926Y-81272910D01*
X80981220Y-81275251D01*
X80984174Y-81286320D01*
X80977436Y-81312187D01*
X80964531Y-81348425D01*
X80947150Y-81391632D01*
X80931085Y-81415530D01*
X80909365Y-81427352D01*
X80883020Y-81433011D01*
X80809109Y-81435727D01*
X80750697Y-81416754D01*
X80716867Y-81387117D01*
X80694611Y-81363429D01*
X80677123Y-81360460D01*
X80664563Y-81367628D01*
X80620521Y-81394530D01*
X80569533Y-81418446D01*
X80522354Y-81434819D01*
X80495060Y-81439425D01*
X80460995Y-81433464D01*
X80417795Y-81418196D01*
X80403681Y-81411691D01*
X80368854Y-81391617D01*
X80342743Y-81367863D01*
X80324135Y-81336338D01*
X80311815Y-81292951D01*
X80304568Y-81233608D01*
X80301180Y-81154220D01*
X80300424Y-81063900D01*
X80300424Y-80841930D01*
X80522866Y-80841930D01*
X80522866Y-81012619D01*
X80522866Y-81012619D01*
G37*
X80522866Y-81012619D02*
X80523741Y-81091233D01*
X80526711Y-81146889D01*
X80532291Y-81184391D01*
X80540997Y-81208542D01*
X80544508Y-81214206D01*
X80575274Y-81240673D01*
X80612586Y-81240511D01*
X80644895Y-81223463D01*
X80657574Y-81212983D01*
X80666213Y-81199142D01*
X80671584Y-81176914D01*
X80674457Y-81141270D01*
X80675603Y-81087185D01*
X80675794Y-81021875D01*
X80675794Y-80841930D01*
X80912138Y-80841930D01*
X80912138Y-81040737D01*
X80912839Y-81126801D01*
X80915559Y-81188867D01*
X80921225Y-81230719D01*
X80930761Y-81256144D01*
X80945095Y-81268926D01*
X80965151Y-81272851D01*
X80968926Y-81272910D01*
X80981220Y-81275251D01*
X80984174Y-81286320D01*
X80977436Y-81312187D01*
X80964531Y-81348425D01*
X80947150Y-81391632D01*
X80931085Y-81415530D01*
X80909365Y-81427352D01*
X80883020Y-81433011D01*
X80809109Y-81435727D01*
X80750697Y-81416754D01*
X80716867Y-81387117D01*
X80694611Y-81363429D01*
X80677123Y-81360460D01*
X80664563Y-81367628D01*
X80620521Y-81394530D01*
X80569533Y-81418446D01*
X80522354Y-81434819D01*
X80495060Y-81439425D01*
X80460995Y-81433464D01*
X80417795Y-81418196D01*
X80403681Y-81411691D01*
X80368854Y-81391617D01*
X80342743Y-81367863D01*
X80324135Y-81336338D01*
X80311815Y-81292951D01*
X80304568Y-81233608D01*
X80301180Y-81154220D01*
X80300424Y-81063900D01*
X80300424Y-80841930D01*
X80522866Y-80841930D01*
X80522866Y-81012619D01*
G36*
X83158435Y-80840414D02*
X83232766Y-80858372D01*
X83293798Y-80890504D01*
X83331660Y-80929870D01*
X83342547Y-80960944D01*
X83351476Y-81015828D01*
X83357840Y-81090562D01*
X83358679Y-81106079D01*
X83362393Y-81171732D01*
X83366579Y-81215010D01*
X83372541Y-81241334D01*
X83381586Y-81256121D01*
X83395017Y-81264790D01*
X83397126Y-81265738D01*
X83419578Y-81284173D01*
X83422283Y-81300495D01*
X83415210Y-81326465D01*
X83404651Y-81366501D01*
X83400501Y-81382470D01*
X83384746Y-81443371D01*
X83314500Y-81435051D01*
X83266184Y-81425827D01*
X83224514Y-81412026D01*
X83211224Y-81405090D01*
X83184450Y-81391454D01*
X83160215Y-81393899D01*
X83138692Y-81403876D01*
X83088248Y-81421334D01*
X83025732Y-81431413D01*
X82964300Y-81432765D01*
X82922718Y-81426031D01*
X82864253Y-81396222D01*
X82828689Y-81351673D01*
X82817099Y-81294816D01*
X82819333Y-81272240D01*
X82988646Y-81272240D01*
X82995181Y-81308078D01*
X83021203Y-81335876D01*
X83062415Y-81341894D01*
X83115041Y-81326289D01*
X83137660Y-81311673D01*
X83147992Y-81288898D01*
X83150452Y-81248317D01*
X83149336Y-81210491D01*
X83143235Y-81194009D01*
X83128016Y-81192424D01*
X83116309Y-81195050D01*
X83047836Y-81216944D01*
X83005733Y-81242254D01*
X82988646Y-81272240D01*
X82819333Y-81272240D01*
X82821581Y-81249537D01*
X82837072Y-81214143D01*
X82867481Y-81185149D01*
X82916719Y-81159073D01*
X82988694Y-81132433D01*
X83005536Y-81126932D01*
X83062818Y-81107292D01*
X83109258Y-81089108D01*
X83139017Y-81074799D01*
X83146805Y-81068361D01*
X83141810Y-81048315D01*
X83127599Y-81029602D01*
X83093420Y-81013447D01*
X83043213Y-81012054D01*
X82983842Y-81024407D01*
X82922170Y-81049485D01*
X82896746Y-81063869D01*
X82829430Y-81105715D01*
X82833537Y-81012448D01*
X82837644Y-80919180D01*
X82916301Y-80879010D01*
X82994138Y-80849991D01*
X83076871Y-80837373D01*
X83158435Y-80840414D01*
X83158435Y-80840414D01*
G37*
X83158435Y-80840414D02*
X83232766Y-80858372D01*
X83293798Y-80890504D01*
X83331660Y-80929870D01*
X83342547Y-80960944D01*
X83351476Y-81015828D01*
X83357840Y-81090562D01*
X83358679Y-81106079D01*
X83362393Y-81171732D01*
X83366579Y-81215010D01*
X83372541Y-81241334D01*
X83381586Y-81256121D01*
X83395017Y-81264790D01*
X83397126Y-81265738D01*
X83419578Y-81284173D01*
X83422283Y-81300495D01*
X83415210Y-81326465D01*
X83404651Y-81366501D01*
X83400501Y-81382470D01*
X83384746Y-81443371D01*
X83314500Y-81435051D01*
X83266184Y-81425827D01*
X83224514Y-81412026D01*
X83211224Y-81405090D01*
X83184450Y-81391454D01*
X83160215Y-81393899D01*
X83138692Y-81403876D01*
X83088248Y-81421334D01*
X83025732Y-81431413D01*
X82964300Y-81432765D01*
X82922718Y-81426031D01*
X82864253Y-81396222D01*
X82828689Y-81351673D01*
X82817099Y-81294816D01*
X82819333Y-81272240D01*
X82988646Y-81272240D01*
X82995181Y-81308078D01*
X83021203Y-81335876D01*
X83062415Y-81341894D01*
X83115041Y-81326289D01*
X83137660Y-81311673D01*
X83147992Y-81288898D01*
X83150452Y-81248317D01*
X83149336Y-81210491D01*
X83143235Y-81194009D01*
X83128016Y-81192424D01*
X83116309Y-81195050D01*
X83047836Y-81216944D01*
X83005733Y-81242254D01*
X82988646Y-81272240D01*
X82819333Y-81272240D01*
X82821581Y-81249537D01*
X82837072Y-81214143D01*
X82867481Y-81185149D01*
X82916719Y-81159073D01*
X82988694Y-81132433D01*
X83005536Y-81126932D01*
X83062818Y-81107292D01*
X83109258Y-81089108D01*
X83139017Y-81074799D01*
X83146805Y-81068361D01*
X83141810Y-81048315D01*
X83127599Y-81029602D01*
X83093420Y-81013447D01*
X83043213Y-81012054D01*
X82983842Y-81024407D01*
X82922170Y-81049485D01*
X82896746Y-81063869D01*
X82829430Y-81105715D01*
X82833537Y-81012448D01*
X82837644Y-80919180D01*
X82916301Y-80879010D01*
X82994138Y-80849991D01*
X83076871Y-80837373D01*
X83158435Y-80840414D01*
G36*
X84542946Y-80841795D02*
X84598963Y-80849840D01*
X84631076Y-80857866D01*
X84662404Y-80869609D01*
X84679406Y-80883161D01*
X84687084Y-80906787D01*
X84690442Y-80948752D01*
X84690855Y-80956628D01*
X84692227Y-80999544D01*
X84691494Y-81028559D01*
X84689516Y-81036566D01*
X84674700Y-81030969D01*
X84645160Y-81017154D01*
X84638038Y-81013634D01*
X84591109Y-80997085D01*
X84542419Y-80989315D01*
X84542060Y-80989305D01*
X84508088Y-80991135D01*
X84494032Y-81001819D01*
X84492050Y-81015506D01*
X84502320Y-81038435D01*
X84535211Y-81062406D01*
X84561563Y-81075841D01*
X84629198Y-81113051D01*
X84674388Y-81152111D01*
X84702317Y-81198018D01*
X84709567Y-81218585D01*
X84717660Y-81258222D01*
X84712262Y-81292494D01*
X84698907Y-81323300D01*
X84671116Y-81364154D01*
X84635879Y-81397182D01*
X84628859Y-81401666D01*
X84584284Y-81418338D01*
X84523793Y-81429706D01*
X84459010Y-81434289D01*
X84401683Y-81430625D01*
X84366625Y-81422190D01*
X84321575Y-81408180D01*
X84307841Y-81403345D01*
X84248755Y-81381831D01*
X84248755Y-81298407D01*
X84250313Y-81255476D01*
X84254366Y-81227349D01*
X84259182Y-81220326D01*
X84343827Y-81259760D01*
X84408075Y-81280755D01*
X84452292Y-81283363D01*
X84476847Y-81267637D01*
X84481992Y-81252056D01*
X84478372Y-81234105D01*
X84459516Y-81215091D01*
X84421159Y-81191384D01*
X84393455Y-81176697D01*
X84322903Y-81133990D01*
X84277733Y-81090286D01*
X84255604Y-81042463D01*
X84253798Y-80990304D01*
X84273758Y-80927341D01*
X84315777Y-80880762D01*
X84379093Y-80851068D01*
X84462940Y-80838761D01*
X84484886Y-80838441D01*
X84542946Y-80841795D01*
X84542946Y-80841795D01*
G37*
X84542946Y-80841795D02*
X84598963Y-80849840D01*
X84631076Y-80857866D01*
X84662404Y-80869609D01*
X84679406Y-80883161D01*
X84687084Y-80906787D01*
X84690442Y-80948752D01*
X84690855Y-80956628D01*
X84692227Y-80999544D01*
X84691494Y-81028559D01*
X84689516Y-81036566D01*
X84674700Y-81030969D01*
X84645160Y-81017154D01*
X84638038Y-81013634D01*
X84591109Y-80997085D01*
X84542419Y-80989315D01*
X84542060Y-80989305D01*
X84508088Y-80991135D01*
X84494032Y-81001819D01*
X84492050Y-81015506D01*
X84502320Y-81038435D01*
X84535211Y-81062406D01*
X84561563Y-81075841D01*
X84629198Y-81113051D01*
X84674388Y-81152111D01*
X84702317Y-81198018D01*
X84709567Y-81218585D01*
X84717660Y-81258222D01*
X84712262Y-81292494D01*
X84698907Y-81323300D01*
X84671116Y-81364154D01*
X84635879Y-81397182D01*
X84628859Y-81401666D01*
X84584284Y-81418338D01*
X84523793Y-81429706D01*
X84459010Y-81434289D01*
X84401683Y-81430625D01*
X84366625Y-81422190D01*
X84321575Y-81408180D01*
X84307841Y-81403345D01*
X84248755Y-81381831D01*
X84248755Y-81298407D01*
X84250313Y-81255476D01*
X84254366Y-81227349D01*
X84259182Y-81220326D01*
X84343827Y-81259760D01*
X84408075Y-81280755D01*
X84452292Y-81283363D01*
X84476847Y-81267637D01*
X84481992Y-81252056D01*
X84478372Y-81234105D01*
X84459516Y-81215091D01*
X84421159Y-81191384D01*
X84393455Y-81176697D01*
X84322903Y-81133990D01*
X84277733Y-81090286D01*
X84255604Y-81042463D01*
X84253798Y-80990304D01*
X84273758Y-80927341D01*
X84315777Y-80880762D01*
X84379093Y-80851068D01*
X84462940Y-80838761D01*
X84484886Y-80838441D01*
X84542946Y-80841795D01*
G36*
X81704584Y-81425838D02*
X81492570Y-81424584D01*
X81414692Y-81423286D01*
X81343242Y-81420560D01*
X81284458Y-81416755D01*
X81244576Y-81412220D01*
X81234836Y-81410145D01*
X81197834Y-81392322D01*
X81155910Y-81362086D01*
X81137184Y-81345028D01*
X81086772Y-81277382D01*
X81058622Y-81201547D01*
X81051707Y-81124939D01*
X81284043Y-81124939D01*
X81289569Y-81161628D01*
X81316334Y-81202041D01*
X81362403Y-81223504D01*
X81419582Y-81227127D01*
X81475192Y-81224251D01*
X81483338Y-81039885D01*
X81433889Y-81030608D01*
X81377302Y-81030295D01*
X81330240Y-81048840D01*
X81297541Y-81081852D01*
X81284043Y-81124939D01*
X81051707Y-81124939D01*
X81051466Y-81122279D01*
X81064034Y-81044335D01*
X81095056Y-80972471D01*
X81143263Y-80911441D01*
X81207385Y-80866002D01*
X81271013Y-80843698D01*
X81320480Y-80836063D01*
X81364718Y-80834064D01*
X81382234Y-80835808D01*
X81433954Y-80846854D01*
X81463964Y-80850078D01*
X81478105Y-80841381D01*
X81482221Y-80816664D01*
X81482155Y-80771830D01*
X81482143Y-80765731D01*
X81482143Y-80675099D01*
X81704584Y-80675099D01*
X81704584Y-81425838D01*
X81704584Y-81425838D01*
G37*
X81704584Y-81425838D02*
X81492570Y-81424584D01*
X81414692Y-81423286D01*
X81343242Y-81420560D01*
X81284458Y-81416755D01*
X81244576Y-81412220D01*
X81234836Y-81410145D01*
X81197834Y-81392322D01*
X81155910Y-81362086D01*
X81137184Y-81345028D01*
X81086772Y-81277382D01*
X81058622Y-81201547D01*
X81051707Y-81124939D01*
X81284043Y-81124939D01*
X81289569Y-81161628D01*
X81316334Y-81202041D01*
X81362403Y-81223504D01*
X81419582Y-81227127D01*
X81475192Y-81224251D01*
X81483338Y-81039885D01*
X81433889Y-81030608D01*
X81377302Y-81030295D01*
X81330240Y-81048840D01*
X81297541Y-81081852D01*
X81284043Y-81124939D01*
X81051707Y-81124939D01*
X81051466Y-81122279D01*
X81064034Y-81044335D01*
X81095056Y-80972471D01*
X81143263Y-80911441D01*
X81207385Y-80866002D01*
X81271013Y-80843698D01*
X81320480Y-80836063D01*
X81364718Y-80834064D01*
X81382234Y-80835808D01*
X81433954Y-80846854D01*
X81463964Y-80850078D01*
X81478105Y-80841381D01*
X81482221Y-80816664D01*
X81482155Y-80771830D01*
X81482143Y-80765731D01*
X81482143Y-80675099D01*
X81704584Y-80675099D01*
X81704584Y-81425838D01*
G36*
X82066051Y-81425838D02*
X81843610Y-81425838D01*
X81843610Y-80841930D01*
X82066051Y-80841930D01*
X82066051Y-81425838D01*
X82066051Y-81425838D01*
G37*
X82066051Y-81425838D02*
X81843610Y-81425838D01*
X81843610Y-80841930D01*
X82066051Y-80841930D01*
X82066051Y-81425838D01*
G36*
X82469226Y-81231202D02*
X82761180Y-81231202D01*
X82761180Y-81425838D01*
X82218979Y-81425838D01*
X82218979Y-80675099D01*
X82469226Y-80675099D01*
X82469226Y-81231202D01*
X82469226Y-81231202D01*
G37*
X82469226Y-81231202D02*
X82761180Y-81231202D01*
X82761180Y-81425838D01*
X82218979Y-81425838D01*
X82218979Y-80675099D01*
X82469226Y-80675099D01*
X82469226Y-81231202D01*
G36*
X83734360Y-80766403D02*
X83734876Y-80815049D01*
X83737844Y-80841423D01*
X83745396Y-80851059D01*
X83759660Y-80849487D01*
X83765641Y-80847633D01*
X83842773Y-80835352D01*
X83925529Y-80842954D01*
X84004864Y-80868220D01*
X84071734Y-80908930D01*
X84091688Y-80927658D01*
X84137806Y-80996187D01*
X84161870Y-81074810D01*
X84164531Y-81157572D01*
X84146439Y-81238519D01*
X84108246Y-81311697D01*
X84050604Y-81371151D01*
X84042537Y-81376993D01*
X83982295Y-81418887D01*
X83747107Y-81423534D01*
X83511919Y-81428182D01*
X83511919Y-81135372D01*
X83734360Y-81135372D01*
X83734360Y-81231202D01*
X83804505Y-81231202D01*
X83853431Y-81227864D01*
X83886662Y-81215323D01*
X83908774Y-81197078D01*
X83935363Y-81154896D01*
X83938068Y-81111038D01*
X83919885Y-81070950D01*
X83883806Y-81040078D01*
X83832828Y-81023868D01*
X83812875Y-81022664D01*
X83773959Y-81025126D01*
X83750512Y-81036190D01*
X83738693Y-81061370D01*
X83734659Y-81106183D01*
X83734360Y-81135372D01*
X83511919Y-81135372D01*
X83511919Y-80675099D01*
X83734360Y-80675099D01*
X83734360Y-80766403D01*
X83734360Y-80766403D01*
G37*
X83734360Y-80766403D02*
X83734876Y-80815049D01*
X83737844Y-80841423D01*
X83745396Y-80851059D01*
X83759660Y-80849487D01*
X83765641Y-80847633D01*
X83842773Y-80835352D01*
X83925529Y-80842954D01*
X84004864Y-80868220D01*
X84071734Y-80908930D01*
X84091688Y-80927658D01*
X84137806Y-80996187D01*
X84161870Y-81074810D01*
X84164531Y-81157572D01*
X84146439Y-81238519D01*
X84108246Y-81311697D01*
X84050604Y-81371151D01*
X84042537Y-81376993D01*
X83982295Y-81418887D01*
X83747107Y-81423534D01*
X83511919Y-81428182D01*
X83511919Y-81135372D01*
X83734360Y-81135372D01*
X83734360Y-81231202D01*
X83804505Y-81231202D01*
X83853431Y-81227864D01*
X83886662Y-81215323D01*
X83908774Y-81197078D01*
X83935363Y-81154896D01*
X83938068Y-81111038D01*
X83919885Y-81070950D01*
X83883806Y-81040078D01*
X83832828Y-81023868D01*
X83812875Y-81022664D01*
X83773959Y-81025126D01*
X83750512Y-81036190D01*
X83738693Y-81061370D01*
X83734659Y-81106183D01*
X83734360Y-81135372D01*
X83511919Y-81135372D01*
X83511919Y-80675099D01*
X83734360Y-80675099D01*
X83734360Y-80766403D01*
G36*
X81979581Y-80655439D02*
X82005538Y-80669664D01*
X82017958Y-80694666D01*
X82021881Y-80723457D01*
X82020552Y-80766916D01*
X82006113Y-80792730D01*
X82001846Y-80796192D01*
X81961156Y-80813012D01*
X81923703Y-80802374D01*
X81908326Y-80788701D01*
X81887962Y-80750737D01*
X81887690Y-80711321D01*
X81903845Y-80677309D01*
X81932760Y-80655556D01*
X81970770Y-80652917D01*
X81979581Y-80655439D01*
X81979581Y-80655439D01*
G37*
X81979581Y-80655439D02*
X82005538Y-80669664D01*
X82017958Y-80694666D01*
X82021881Y-80723457D01*
X82020552Y-80766916D01*
X82006113Y-80792730D01*
X82001846Y-80796192D01*
X81961156Y-80813012D01*
X81923703Y-80802374D01*
X81908326Y-80788701D01*
X81887962Y-80750737D01*
X81887690Y-80711321D01*
X81903845Y-80677309D01*
X81932760Y-80655556D01*
X81970770Y-80652917D01*
X81979581Y-80655439D01*
G36*
X83625191Y-74683952D02*
X83645776Y-74686737D01*
X83744877Y-74700448D01*
X83899909Y-75234006D01*
X84054940Y-75767563D01*
X84110137Y-76297970D01*
X84165333Y-76828377D01*
X84118247Y-76913123D01*
X84092208Y-76965961D01*
X84071523Y-77018736D01*
X84061764Y-77054902D01*
X84054226Y-77085393D01*
X84039780Y-77112106D01*
X84013673Y-77141153D01*
X83971153Y-77178650D01*
X83955368Y-77191735D01*
X83858367Y-77271534D01*
X83592178Y-77151898D01*
X83512594Y-77116794D01*
X83441653Y-77086769D01*
X83383202Y-77063346D01*
X83341087Y-77048049D01*
X83319155Y-77042403D01*
X83317039Y-77042870D01*
X83307158Y-77055215D01*
X83281351Y-77087632D01*
X83240978Y-77138412D01*
X83187394Y-77205847D01*
X83121958Y-77288227D01*
X83046028Y-77383842D01*
X82960959Y-77490984D01*
X82868111Y-77607943D01*
X82768841Y-77733011D01*
X82664505Y-77864477D01*
X82657161Y-77873731D01*
X82550324Y-78008110D01*
X82446686Y-78137988D01*
X82347815Y-78261430D01*
X82255276Y-78376501D01*
X82170638Y-78481266D01*
X82095467Y-78573791D01*
X82031330Y-78652139D01*
X81979796Y-78714376D01*
X81942430Y-78758568D01*
X81921446Y-78782113D01*
X81879390Y-78824984D01*
X81821347Y-78882894D01*
X81749325Y-78953919D01*
X81665334Y-79036132D01*
X81571382Y-79127608D01*
X81469477Y-79226421D01*
X81361629Y-79330646D01*
X81249846Y-79438357D01*
X81136137Y-79547628D01*
X81022511Y-79656535D01*
X80910975Y-79763151D01*
X80803540Y-79865550D01*
X80702214Y-79961808D01*
X80609005Y-80049998D01*
X80525923Y-80128195D01*
X80454975Y-80194474D01*
X80398171Y-80246909D01*
X80357520Y-80283573D01*
X80336702Y-80301265D01*
X80304872Y-80318089D01*
X80255419Y-80335941D01*
X80198267Y-80352044D01*
X80143335Y-80363619D01*
X80100547Y-80367890D01*
X80098837Y-80367860D01*
X80079889Y-80363123D01*
X80042410Y-80350918D01*
X79993845Y-80333696D01*
X79984193Y-80330139D01*
X79928835Y-80307808D01*
X79890579Y-80285953D01*
X79859742Y-80257586D01*
X79827789Y-80217279D01*
X79799306Y-80175653D01*
X79779079Y-80140394D01*
X79771672Y-80119961D01*
X79770115Y-80100383D01*
X80002600Y-80100383D01*
X80006268Y-80108452D01*
X80029898Y-80122954D01*
X80068500Y-80139219D01*
X80109963Y-80152706D01*
X80140545Y-80158784D01*
X80160379Y-80151358D01*
X80185728Y-80133684D01*
X80208158Y-80112474D01*
X80217009Y-80099390D01*
X80204191Y-80095624D01*
X80170071Y-80092770D01*
X80121146Y-80091296D01*
X80103008Y-80091191D01*
X80046771Y-80091989D01*
X80014552Y-80094830D01*
X80002600Y-80100383D01*
X79770115Y-80100383D01*
X79769731Y-80095570D01*
X79765098Y-80053047D01*
X79759104Y-80004198D01*
X79758221Y-79997349D01*
X79939009Y-79997349D01*
X79952055Y-80001099D01*
X79987885Y-80004190D01*
X80041484Y-80006357D01*
X80107834Y-80007338D01*
X80130118Y-80007361D01*
X80321278Y-80006946D01*
X80383840Y-79952166D01*
X80446401Y-79897385D01*
X79994159Y-79896555D01*
X79966610Y-79941739D01*
X79948708Y-79973593D01*
X79939386Y-79995046D01*
X79939009Y-79997349D01*
X79758221Y-79997349D01*
X79746992Y-79910253D01*
X79821749Y-79778855D01*
X80064081Y-79778855D01*
X80077258Y-79780909D01*
X80113888Y-79782695D01*
X80169621Y-79784102D01*
X80240105Y-79785018D01*
X80318457Y-79785335D01*
X80572833Y-79785335D01*
X80627135Y-79729724D01*
X80681437Y-79674114D01*
X80110938Y-79674114D01*
X80087509Y-79723245D01*
X80072553Y-79756111D01*
X80064518Y-79776691D01*
X80064081Y-79778855D01*
X79821749Y-79778855D01*
X79936708Y-79576796D01*
X80174736Y-79576796D01*
X80788091Y-79576796D01*
X80846639Y-79521533D01*
X80905186Y-79466271D01*
X80568331Y-79465923D01*
X80231477Y-79465576D01*
X80203106Y-79521186D01*
X80174736Y-79576796D01*
X79936708Y-79576796D01*
X80063264Y-79354355D01*
X80299859Y-79354355D01*
X81030309Y-79353215D01*
X81091183Y-79298174D01*
X81152057Y-79243134D01*
X80356600Y-79243134D01*
X80328230Y-79298745D01*
X80299859Y-79354355D01*
X80063264Y-79354355D01*
X80189179Y-79133040D01*
X80425548Y-79133040D01*
X80439002Y-79136538D01*
X80477574Y-79139596D01*
X80538580Y-79142131D01*
X80619336Y-79144062D01*
X80717157Y-79145304D01*
X80829359Y-79145777D01*
X80839149Y-79145779D01*
X81252751Y-79145741D01*
X81315312Y-79090761D01*
X81377874Y-79035781D01*
X80926040Y-79035276D01*
X80474207Y-79034772D01*
X80449877Y-79077518D01*
X80433523Y-79109590D01*
X80425669Y-79131553D01*
X80425548Y-79133040D01*
X80189179Y-79133040D01*
X80306548Y-78926749D01*
X80308467Y-78923375D01*
X80535938Y-78923375D01*
X81504305Y-78923375D01*
X81612909Y-78812155D01*
X81106119Y-78812262D01*
X80599330Y-78812369D01*
X80535938Y-78923375D01*
X80308467Y-78923375D01*
X80432111Y-78706051D01*
X80661891Y-78706051D01*
X80675293Y-78708008D01*
X80713491Y-78709813D01*
X80773479Y-78711417D01*
X80852249Y-78712770D01*
X80946794Y-78713823D01*
X81054105Y-78714525D01*
X81171176Y-78714828D01*
X81194319Y-78714837D01*
X81726746Y-78714837D01*
X81781048Y-78659226D01*
X81835350Y-78603616D01*
X80719769Y-78603616D01*
X80690830Y-78650440D01*
X80672393Y-78682300D01*
X80662451Y-78703425D01*
X80661891Y-78706051D01*
X80432111Y-78706051D01*
X80559600Y-78481969D01*
X80787066Y-78481969D01*
X80800471Y-78484222D01*
X80838766Y-78486309D01*
X80899035Y-78488174D01*
X80978362Y-78489764D01*
X81073833Y-78491027D01*
X81182533Y-78491907D01*
X81301545Y-78492351D01*
X81353544Y-78492395D01*
X81920074Y-78492395D01*
X81958306Y-78444479D01*
X81981525Y-78413787D01*
X81995092Y-78392774D01*
X81996538Y-78388869D01*
X81983117Y-78387221D01*
X81944780Y-78385693D01*
X81884415Y-78384326D01*
X81804911Y-78383156D01*
X81709158Y-78382222D01*
X81600043Y-78381563D01*
X81480455Y-78381218D01*
X81419377Y-78381175D01*
X80842216Y-78381175D01*
X80814667Y-78426358D01*
X80796765Y-78458213D01*
X80787443Y-78479665D01*
X80787066Y-78481969D01*
X80559600Y-78481969D01*
X80672314Y-78283857D01*
X80897670Y-78283857D01*
X82075107Y-78283857D01*
X82102520Y-78252576D01*
X82120105Y-78233314D01*
X82134549Y-78217400D01*
X82143701Y-78204517D01*
X82145411Y-78194347D01*
X82137528Y-78186573D01*
X82117903Y-78180879D01*
X82084384Y-78176946D01*
X82034822Y-78174458D01*
X81967067Y-78173098D01*
X81878967Y-78172548D01*
X81768373Y-78172491D01*
X81633134Y-78172610D01*
X81560592Y-78172636D01*
X80954410Y-78172636D01*
X80926040Y-78228247D01*
X80897670Y-78283857D01*
X80672314Y-78283857D01*
X80794915Y-78068367D01*
X81013271Y-78068367D01*
X81636417Y-78061416D01*
X82259562Y-78054464D01*
X82294881Y-78006580D01*
X82316516Y-77976351D01*
X82328992Y-77957183D01*
X82330200Y-77954445D01*
X82316766Y-77953559D01*
X82278336Y-77952735D01*
X82217721Y-77951994D01*
X82137731Y-77951354D01*
X82041174Y-77950835D01*
X81930862Y-77950458D01*
X81809604Y-77950241D01*
X81720162Y-77950195D01*
X81110123Y-77950195D01*
X81013271Y-78068367D01*
X80794915Y-78068367D01*
X80866104Y-77943244D01*
X80941238Y-77845183D01*
X81190189Y-77845183D01*
X81203623Y-77846787D01*
X81242054Y-77848278D01*
X81302673Y-77849620D01*
X81382670Y-77850778D01*
X81479238Y-77851716D01*
X81589568Y-77852400D01*
X81710850Y-77852793D01*
X81800734Y-77852877D01*
X82411279Y-77852877D01*
X82499367Y-77741657D01*
X81266653Y-77741657D01*
X81228421Y-77789573D01*
X81205202Y-77820265D01*
X81191635Y-77841278D01*
X81190189Y-77845183D01*
X80941238Y-77845183D01*
X81108441Y-77626960D01*
X81365599Y-77626960D01*
X81368256Y-77631271D01*
X81383082Y-77634851D01*
X81412079Y-77637758D01*
X81457247Y-77640051D01*
X81520588Y-77641788D01*
X81604101Y-77643027D01*
X81709788Y-77643825D01*
X81839649Y-77644242D01*
X81964568Y-77644339D01*
X82110679Y-77644297D01*
X82231474Y-77644100D01*
X82329445Y-77643641D01*
X82407083Y-77642814D01*
X82466876Y-77641511D01*
X82511317Y-77639625D01*
X82542894Y-77637050D01*
X82564099Y-77633678D01*
X82577422Y-77629403D01*
X82585354Y-77624118D01*
X82590383Y-77617716D01*
X82590539Y-77617468D01*
X82601860Y-77601773D01*
X82627734Y-77567176D01*
X82665766Y-77516814D01*
X82713561Y-77453828D01*
X82768721Y-77381355D01*
X82828852Y-77302535D01*
X82891557Y-77220506D01*
X82954440Y-77138408D01*
X83015107Y-77059380D01*
X83071160Y-76986560D01*
X83120205Y-76923087D01*
X83140674Y-76896706D01*
X83144142Y-76874846D01*
X83130738Y-76836923D01*
X83117550Y-76811126D01*
X83096180Y-76767522D01*
X83088774Y-76737086D01*
X83093251Y-76710274D01*
X83094687Y-76706321D01*
X83106426Y-76667019D01*
X83101989Y-76640375D01*
X83077872Y-76616050D01*
X83059709Y-76603137D01*
X83027650Y-76582861D01*
X83004686Y-76577306D01*
X82977155Y-76585283D01*
X82956912Y-76594200D01*
X82902960Y-76618529D01*
X82823614Y-76558622D01*
X82782597Y-76526967D01*
X82759491Y-76504772D01*
X82750004Y-76484757D01*
X82749844Y-76459645D01*
X82752567Y-76438158D01*
X82755710Y-76397557D01*
X82748230Y-76371384D01*
X82726147Y-76347068D01*
X82722792Y-76344086D01*
X82688214Y-76318977D01*
X82656719Y-76312747D01*
X82618201Y-76324765D01*
X82595530Y-76336147D01*
X82568720Y-76349311D01*
X82546936Y-76353906D01*
X82520896Y-76349399D01*
X82481315Y-76335254D01*
X82464192Y-76328573D01*
X82419939Y-76313219D01*
X82386363Y-76305257D01*
X82371371Y-76306175D01*
X82359517Y-76321214D01*
X82332858Y-76355755D01*
X82293202Y-76407425D01*
X82242357Y-76473848D01*
X82182133Y-76552648D01*
X82114337Y-76641452D01*
X82040778Y-76737884D01*
X81963265Y-76839568D01*
X81883607Y-76944130D01*
X81803611Y-77049195D01*
X81725087Y-77152388D01*
X81649844Y-77251333D01*
X81579689Y-77343656D01*
X81516432Y-77426981D01*
X81461881Y-77498933D01*
X81417845Y-77557138D01*
X81386132Y-77599220D01*
X81368550Y-77622804D01*
X81365599Y-77626960D01*
X81108441Y-77626960D01*
X81547845Y-77053479D01*
X82229587Y-76163715D01*
X82195778Y-76104434D01*
X82178214Y-76071637D01*
X82171638Y-76047019D01*
X82177757Y-76022932D01*
X82198275Y-75991730D01*
X82229742Y-75952134D01*
X82277228Y-75893483D01*
X82348897Y-75929570D01*
X82410904Y-75963786D01*
X82486337Y-76010301D01*
X82572723Y-76067198D01*
X82667585Y-76132556D01*
X82768449Y-76204458D01*
X82872840Y-76280984D01*
X82978282Y-76360215D01*
X83082301Y-76440234D01*
X83182421Y-76519120D01*
X83276168Y-76594955D01*
X83361065Y-76665820D01*
X83434639Y-76729796D01*
X83494414Y-76784965D01*
X83537915Y-76829407D01*
X83562666Y-76861204D01*
X83567529Y-76874334D01*
X83575069Y-76899111D01*
X83600393Y-76926288D01*
X83642680Y-76957116D01*
X83685553Y-76982441D01*
X83722556Y-76998826D01*
X83743474Y-77002679D01*
X83772992Y-77007135D01*
X83803490Y-77022436D01*
X83834114Y-77041694D01*
X83851907Y-77042151D01*
X83865976Y-77022091D01*
X83871865Y-77009556D01*
X83879424Y-76975628D01*
X83863721Y-76955968D01*
X83823908Y-76949423D01*
X83797296Y-76945906D01*
X83776757Y-76933207D01*
X83760401Y-76907424D01*
X83746338Y-76864656D01*
X83732679Y-76801001D01*
X83721794Y-76738593D01*
X83710823Y-76671685D01*
X83701740Y-76614943D01*
X83695409Y-76573869D01*
X83692694Y-76553966D01*
X83692652Y-76553197D01*
X83680301Y-76547238D01*
X83647905Y-76546791D01*
X83602447Y-76550847D01*
X83550909Y-76558394D01*
X83500276Y-76568424D01*
X83457532Y-76579925D01*
X83430973Y-76591059D01*
X83384783Y-76619060D01*
X83328655Y-76578401D01*
X83309924Y-76563980D01*
X83294102Y-76548356D01*
X83279409Y-76527824D01*
X83264064Y-76498679D01*
X83246285Y-76457216D01*
X83224292Y-76399731D01*
X83196304Y-76322519D01*
X83169782Y-76247957D01*
X83067036Y-75958173D01*
X83067036Y-75913468D01*
X83278518Y-75913468D01*
X83361547Y-76122007D01*
X83390165Y-76193006D01*
X83415703Y-76254719D01*
X83436221Y-76302586D01*
X83449780Y-76332050D01*
X83453918Y-76339149D01*
X83470558Y-76341043D01*
X83509216Y-76339984D01*
X83564294Y-76336266D01*
X83630195Y-76330186D01*
X83636672Y-76329511D01*
X83702831Y-76322981D01*
X83758207Y-76318327D01*
X83797372Y-76315948D01*
X83814894Y-76316240D01*
X83815253Y-76316437D01*
X83817950Y-76331373D01*
X83821986Y-76369162D01*
X83826914Y-76424909D01*
X83832285Y-76493718D01*
X83835215Y-76534614D01*
X83841547Y-76612690D01*
X83848636Y-76678266D01*
X83855879Y-76726856D01*
X83862676Y-76753977D01*
X83865173Y-76757837D01*
X83903589Y-76767708D01*
X83953876Y-76756323D01*
X83962371Y-76752674D01*
X83987733Y-76734162D01*
X83991521Y-76705858D01*
X83990695Y-76700539D01*
X83987391Y-76678067D01*
X83981055Y-76631687D01*
X83972173Y-76565070D01*
X83961229Y-76481890D01*
X83948708Y-76385819D01*
X83935094Y-76280530D01*
X83928727Y-76231016D01*
X83912511Y-76106128D01*
X83898377Y-76002396D01*
X83885150Y-75913766D01*
X83871656Y-75834185D01*
X83856719Y-75757599D01*
X83839164Y-75677956D01*
X83817816Y-75589202D01*
X83791500Y-75485284D01*
X83761537Y-75369721D01*
X83734257Y-75265336D01*
X83709206Y-75170019D01*
X83687241Y-75086986D01*
X83669217Y-75019453D01*
X83655991Y-74970635D01*
X83648419Y-74943748D01*
X83646975Y-74939474D01*
X83632776Y-74935688D01*
X83602429Y-74929435D01*
X83600368Y-74929042D01*
X83561780Y-74928265D01*
X83533358Y-74946640D01*
X83531394Y-74948763D01*
X83522710Y-74959671D01*
X83517890Y-74972210D01*
X83517745Y-74990392D01*
X83523085Y-75018233D01*
X83534721Y-75059746D01*
X83553463Y-75118944D01*
X83580122Y-75199843D01*
X83585178Y-75215073D01*
X83609778Y-75291602D01*
X83629837Y-75358816D01*
X83644196Y-75412400D01*
X83651691Y-75448040D01*
X83651482Y-75461302D01*
X83633697Y-75467270D01*
X83594383Y-75477849D01*
X83539149Y-75491601D01*
X83473605Y-75507088D01*
X83465994Y-75508839D01*
X83293335Y-75548447D01*
X83285927Y-75730958D01*
X83278518Y-75913468D01*
X83067036Y-75913468D01*
X83067036Y-75695074D01*
X83067142Y-75603374D01*
X83067788Y-75535131D01*
X83069468Y-75485996D01*
X83072676Y-75451620D01*
X83077904Y-75427656D01*
X83085646Y-75409753D01*
X83096397Y-75393564D01*
X83102113Y-75385987D01*
X83126978Y-75357226D01*
X83150540Y-75345467D01*
X83185461Y-75345534D01*
X83197878Y-75346840D01*
X83239215Y-75346745D01*
X83287626Y-75339901D01*
X83335348Y-75328372D01*
X83374618Y-75314222D01*
X83397672Y-75299518D01*
X83400698Y-75292892D01*
X83397519Y-75272099D01*
X83389494Y-75235387D01*
X83384998Y-75216962D01*
X83369299Y-75154613D01*
X83310116Y-75163488D01*
X83250934Y-75172363D01*
X83240809Y-75044435D01*
X83230684Y-74916506D01*
X83312215Y-74833427D01*
X83362063Y-74787707D01*
X83417165Y-74744922D01*
X83466315Y-74713709D01*
X83470211Y-74711687D01*
X83512139Y-74691642D01*
X83544570Y-74681386D01*
X83578567Y-74679346D01*
X83625191Y-74683952D01*
X83625191Y-74683952D01*
G37*
X83625191Y-74683952D02*
X83645776Y-74686737D01*
X83744877Y-74700448D01*
X83899909Y-75234006D01*
X84054940Y-75767563D01*
X84110137Y-76297970D01*
X84165333Y-76828377D01*
X84118247Y-76913123D01*
X84092208Y-76965961D01*
X84071523Y-77018736D01*
X84061764Y-77054902D01*
X84054226Y-77085393D01*
X84039780Y-77112106D01*
X84013673Y-77141153D01*
X83971153Y-77178650D01*
X83955368Y-77191735D01*
X83858367Y-77271534D01*
X83592178Y-77151898D01*
X83512594Y-77116794D01*
X83441653Y-77086769D01*
X83383202Y-77063346D01*
X83341087Y-77048049D01*
X83319155Y-77042403D01*
X83317039Y-77042870D01*
X83307158Y-77055215D01*
X83281351Y-77087632D01*
X83240978Y-77138412D01*
X83187394Y-77205847D01*
X83121958Y-77288227D01*
X83046028Y-77383842D01*
X82960959Y-77490984D01*
X82868111Y-77607943D01*
X82768841Y-77733011D01*
X82664505Y-77864477D01*
X82657161Y-77873731D01*
X82550324Y-78008110D01*
X82446686Y-78137988D01*
X82347815Y-78261430D01*
X82255276Y-78376501D01*
X82170638Y-78481266D01*
X82095467Y-78573791D01*
X82031330Y-78652139D01*
X81979796Y-78714376D01*
X81942430Y-78758568D01*
X81921446Y-78782113D01*
X81879390Y-78824984D01*
X81821347Y-78882894D01*
X81749325Y-78953919D01*
X81665334Y-79036132D01*
X81571382Y-79127608D01*
X81469477Y-79226421D01*
X81361629Y-79330646D01*
X81249846Y-79438357D01*
X81136137Y-79547628D01*
X81022511Y-79656535D01*
X80910975Y-79763151D01*
X80803540Y-79865550D01*
X80702214Y-79961808D01*
X80609005Y-80049998D01*
X80525923Y-80128195D01*
X80454975Y-80194474D01*
X80398171Y-80246909D01*
X80357520Y-80283573D01*
X80336702Y-80301265D01*
X80304872Y-80318089D01*
X80255419Y-80335941D01*
X80198267Y-80352044D01*
X80143335Y-80363619D01*
X80100547Y-80367890D01*
X80098837Y-80367860D01*
X80079889Y-80363123D01*
X80042410Y-80350918D01*
X79993845Y-80333696D01*
X79984193Y-80330139D01*
X79928835Y-80307808D01*
X79890579Y-80285953D01*
X79859742Y-80257586D01*
X79827789Y-80217279D01*
X79799306Y-80175653D01*
X79779079Y-80140394D01*
X79771672Y-80119961D01*
X79770115Y-80100383D01*
X80002600Y-80100383D01*
X80006268Y-80108452D01*
X80029898Y-80122954D01*
X80068500Y-80139219D01*
X80109963Y-80152706D01*
X80140545Y-80158784D01*
X80160379Y-80151358D01*
X80185728Y-80133684D01*
X80208158Y-80112474D01*
X80217009Y-80099390D01*
X80204191Y-80095624D01*
X80170071Y-80092770D01*
X80121146Y-80091296D01*
X80103008Y-80091191D01*
X80046771Y-80091989D01*
X80014552Y-80094830D01*
X80002600Y-80100383D01*
X79770115Y-80100383D01*
X79769731Y-80095570D01*
X79765098Y-80053047D01*
X79759104Y-80004198D01*
X79758221Y-79997349D01*
X79939009Y-79997349D01*
X79952055Y-80001099D01*
X79987885Y-80004190D01*
X80041484Y-80006357D01*
X80107834Y-80007338D01*
X80130118Y-80007361D01*
X80321278Y-80006946D01*
X80383840Y-79952166D01*
X80446401Y-79897385D01*
X79994159Y-79896555D01*
X79966610Y-79941739D01*
X79948708Y-79973593D01*
X79939386Y-79995046D01*
X79939009Y-79997349D01*
X79758221Y-79997349D01*
X79746992Y-79910253D01*
X79821749Y-79778855D01*
X80064081Y-79778855D01*
X80077258Y-79780909D01*
X80113888Y-79782695D01*
X80169621Y-79784102D01*
X80240105Y-79785018D01*
X80318457Y-79785335D01*
X80572833Y-79785335D01*
X80627135Y-79729724D01*
X80681437Y-79674114D01*
X80110938Y-79674114D01*
X80087509Y-79723245D01*
X80072553Y-79756111D01*
X80064518Y-79776691D01*
X80064081Y-79778855D01*
X79821749Y-79778855D01*
X79936708Y-79576796D01*
X80174736Y-79576796D01*
X80788091Y-79576796D01*
X80846639Y-79521533D01*
X80905186Y-79466271D01*
X80568331Y-79465923D01*
X80231477Y-79465576D01*
X80203106Y-79521186D01*
X80174736Y-79576796D01*
X79936708Y-79576796D01*
X80063264Y-79354355D01*
X80299859Y-79354355D01*
X81030309Y-79353215D01*
X81091183Y-79298174D01*
X81152057Y-79243134D01*
X80356600Y-79243134D01*
X80328230Y-79298745D01*
X80299859Y-79354355D01*
X80063264Y-79354355D01*
X80189179Y-79133040D01*
X80425548Y-79133040D01*
X80439002Y-79136538D01*
X80477574Y-79139596D01*
X80538580Y-79142131D01*
X80619336Y-79144062D01*
X80717157Y-79145304D01*
X80829359Y-79145777D01*
X80839149Y-79145779D01*
X81252751Y-79145741D01*
X81315312Y-79090761D01*
X81377874Y-79035781D01*
X80926040Y-79035276D01*
X80474207Y-79034772D01*
X80449877Y-79077518D01*
X80433523Y-79109590D01*
X80425669Y-79131553D01*
X80425548Y-79133040D01*
X80189179Y-79133040D01*
X80306548Y-78926749D01*
X80308467Y-78923375D01*
X80535938Y-78923375D01*
X81504305Y-78923375D01*
X81612909Y-78812155D01*
X81106119Y-78812262D01*
X80599330Y-78812369D01*
X80535938Y-78923375D01*
X80308467Y-78923375D01*
X80432111Y-78706051D01*
X80661891Y-78706051D01*
X80675293Y-78708008D01*
X80713491Y-78709813D01*
X80773479Y-78711417D01*
X80852249Y-78712770D01*
X80946794Y-78713823D01*
X81054105Y-78714525D01*
X81171176Y-78714828D01*
X81194319Y-78714837D01*
X81726746Y-78714837D01*
X81781048Y-78659226D01*
X81835350Y-78603616D01*
X80719769Y-78603616D01*
X80690830Y-78650440D01*
X80672393Y-78682300D01*
X80662451Y-78703425D01*
X80661891Y-78706051D01*
X80432111Y-78706051D01*
X80559600Y-78481969D01*
X80787066Y-78481969D01*
X80800471Y-78484222D01*
X80838766Y-78486309D01*
X80899035Y-78488174D01*
X80978362Y-78489764D01*
X81073833Y-78491027D01*
X81182533Y-78491907D01*
X81301545Y-78492351D01*
X81353544Y-78492395D01*
X81920074Y-78492395D01*
X81958306Y-78444479D01*
X81981525Y-78413787D01*
X81995092Y-78392774D01*
X81996538Y-78388869D01*
X81983117Y-78387221D01*
X81944780Y-78385693D01*
X81884415Y-78384326D01*
X81804911Y-78383156D01*
X81709158Y-78382222D01*
X81600043Y-78381563D01*
X81480455Y-78381218D01*
X81419377Y-78381175D01*
X80842216Y-78381175D01*
X80814667Y-78426358D01*
X80796765Y-78458213D01*
X80787443Y-78479665D01*
X80787066Y-78481969D01*
X80559600Y-78481969D01*
X80672314Y-78283857D01*
X80897670Y-78283857D01*
X82075107Y-78283857D01*
X82102520Y-78252576D01*
X82120105Y-78233314D01*
X82134549Y-78217400D01*
X82143701Y-78204517D01*
X82145411Y-78194347D01*
X82137528Y-78186573D01*
X82117903Y-78180879D01*
X82084384Y-78176946D01*
X82034822Y-78174458D01*
X81967067Y-78173098D01*
X81878967Y-78172548D01*
X81768373Y-78172491D01*
X81633134Y-78172610D01*
X81560592Y-78172636D01*
X80954410Y-78172636D01*
X80926040Y-78228247D01*
X80897670Y-78283857D01*
X80672314Y-78283857D01*
X80794915Y-78068367D01*
X81013271Y-78068367D01*
X81636417Y-78061416D01*
X82259562Y-78054464D01*
X82294881Y-78006580D01*
X82316516Y-77976351D01*
X82328992Y-77957183D01*
X82330200Y-77954445D01*
X82316766Y-77953559D01*
X82278336Y-77952735D01*
X82217721Y-77951994D01*
X82137731Y-77951354D01*
X82041174Y-77950835D01*
X81930862Y-77950458D01*
X81809604Y-77950241D01*
X81720162Y-77950195D01*
X81110123Y-77950195D01*
X81013271Y-78068367D01*
X80794915Y-78068367D01*
X80866104Y-77943244D01*
X80941238Y-77845183D01*
X81190189Y-77845183D01*
X81203623Y-77846787D01*
X81242054Y-77848278D01*
X81302673Y-77849620D01*
X81382670Y-77850778D01*
X81479238Y-77851716D01*
X81589568Y-77852400D01*
X81710850Y-77852793D01*
X81800734Y-77852877D01*
X82411279Y-77852877D01*
X82499367Y-77741657D01*
X81266653Y-77741657D01*
X81228421Y-77789573D01*
X81205202Y-77820265D01*
X81191635Y-77841278D01*
X81190189Y-77845183D01*
X80941238Y-77845183D01*
X81108441Y-77626960D01*
X81365599Y-77626960D01*
X81368256Y-77631271D01*
X81383082Y-77634851D01*
X81412079Y-77637758D01*
X81457247Y-77640051D01*
X81520588Y-77641788D01*
X81604101Y-77643027D01*
X81709788Y-77643825D01*
X81839649Y-77644242D01*
X81964568Y-77644339D01*
X82110679Y-77644297D01*
X82231474Y-77644100D01*
X82329445Y-77643641D01*
X82407083Y-77642814D01*
X82466876Y-77641511D01*
X82511317Y-77639625D01*
X82542894Y-77637050D01*
X82564099Y-77633678D01*
X82577422Y-77629403D01*
X82585354Y-77624118D01*
X82590383Y-77617716D01*
X82590539Y-77617468D01*
X82601860Y-77601773D01*
X82627734Y-77567176D01*
X82665766Y-77516814D01*
X82713561Y-77453828D01*
X82768721Y-77381355D01*
X82828852Y-77302535D01*
X82891557Y-77220506D01*
X82954440Y-77138408D01*
X83015107Y-77059380D01*
X83071160Y-76986560D01*
X83120205Y-76923087D01*
X83140674Y-76896706D01*
X83144142Y-76874846D01*
X83130738Y-76836923D01*
X83117550Y-76811126D01*
X83096180Y-76767522D01*
X83088774Y-76737086D01*
X83093251Y-76710274D01*
X83094687Y-76706321D01*
X83106426Y-76667019D01*
X83101989Y-76640375D01*
X83077872Y-76616050D01*
X83059709Y-76603137D01*
X83027650Y-76582861D01*
X83004686Y-76577306D01*
X82977155Y-76585283D01*
X82956912Y-76594200D01*
X82902960Y-76618529D01*
X82823614Y-76558622D01*
X82782597Y-76526967D01*
X82759491Y-76504772D01*
X82750004Y-76484757D01*
X82749844Y-76459645D01*
X82752567Y-76438158D01*
X82755710Y-76397557D01*
X82748230Y-76371384D01*
X82726147Y-76347068D01*
X82722792Y-76344086D01*
X82688214Y-76318977D01*
X82656719Y-76312747D01*
X82618201Y-76324765D01*
X82595530Y-76336147D01*
X82568720Y-76349311D01*
X82546936Y-76353906D01*
X82520896Y-76349399D01*
X82481315Y-76335254D01*
X82464192Y-76328573D01*
X82419939Y-76313219D01*
X82386363Y-76305257D01*
X82371371Y-76306175D01*
X82359517Y-76321214D01*
X82332858Y-76355755D01*
X82293202Y-76407425D01*
X82242357Y-76473848D01*
X82182133Y-76552648D01*
X82114337Y-76641452D01*
X82040778Y-76737884D01*
X81963265Y-76839568D01*
X81883607Y-76944130D01*
X81803611Y-77049195D01*
X81725087Y-77152388D01*
X81649844Y-77251333D01*
X81579689Y-77343656D01*
X81516432Y-77426981D01*
X81461881Y-77498933D01*
X81417845Y-77557138D01*
X81386132Y-77599220D01*
X81368550Y-77622804D01*
X81365599Y-77626960D01*
X81108441Y-77626960D01*
X81547845Y-77053479D01*
X82229587Y-76163715D01*
X82195778Y-76104434D01*
X82178214Y-76071637D01*
X82171638Y-76047019D01*
X82177757Y-76022932D01*
X82198275Y-75991730D01*
X82229742Y-75952134D01*
X82277228Y-75893483D01*
X82348897Y-75929570D01*
X82410904Y-75963786D01*
X82486337Y-76010301D01*
X82572723Y-76067198D01*
X82667585Y-76132556D01*
X82768449Y-76204458D01*
X82872840Y-76280984D01*
X82978282Y-76360215D01*
X83082301Y-76440234D01*
X83182421Y-76519120D01*
X83276168Y-76594955D01*
X83361065Y-76665820D01*
X83434639Y-76729796D01*
X83494414Y-76784965D01*
X83537915Y-76829407D01*
X83562666Y-76861204D01*
X83567529Y-76874334D01*
X83575069Y-76899111D01*
X83600393Y-76926288D01*
X83642680Y-76957116D01*
X83685553Y-76982441D01*
X83722556Y-76998826D01*
X83743474Y-77002679D01*
X83772992Y-77007135D01*
X83803490Y-77022436D01*
X83834114Y-77041694D01*
X83851907Y-77042151D01*
X83865976Y-77022091D01*
X83871865Y-77009556D01*
X83879424Y-76975628D01*
X83863721Y-76955968D01*
X83823908Y-76949423D01*
X83797296Y-76945906D01*
X83776757Y-76933207D01*
X83760401Y-76907424D01*
X83746338Y-76864656D01*
X83732679Y-76801001D01*
X83721794Y-76738593D01*
X83710823Y-76671685D01*
X83701740Y-76614943D01*
X83695409Y-76573869D01*
X83692694Y-76553966D01*
X83692652Y-76553197D01*
X83680301Y-76547238D01*
X83647905Y-76546791D01*
X83602447Y-76550847D01*
X83550909Y-76558394D01*
X83500276Y-76568424D01*
X83457532Y-76579925D01*
X83430973Y-76591059D01*
X83384783Y-76619060D01*
X83328655Y-76578401D01*
X83309924Y-76563980D01*
X83294102Y-76548356D01*
X83279409Y-76527824D01*
X83264064Y-76498679D01*
X83246285Y-76457216D01*
X83224292Y-76399731D01*
X83196304Y-76322519D01*
X83169782Y-76247957D01*
X83067036Y-75958173D01*
X83067036Y-75913468D01*
X83278518Y-75913468D01*
X83361547Y-76122007D01*
X83390165Y-76193006D01*
X83415703Y-76254719D01*
X83436221Y-76302586D01*
X83449780Y-76332050D01*
X83453918Y-76339149D01*
X83470558Y-76341043D01*
X83509216Y-76339984D01*
X83564294Y-76336266D01*
X83630195Y-76330186D01*
X83636672Y-76329511D01*
X83702831Y-76322981D01*
X83758207Y-76318327D01*
X83797372Y-76315948D01*
X83814894Y-76316240D01*
X83815253Y-76316437D01*
X83817950Y-76331373D01*
X83821986Y-76369162D01*
X83826914Y-76424909D01*
X83832285Y-76493718D01*
X83835215Y-76534614D01*
X83841547Y-76612690D01*
X83848636Y-76678266D01*
X83855879Y-76726856D01*
X83862676Y-76753977D01*
X83865173Y-76757837D01*
X83903589Y-76767708D01*
X83953876Y-76756323D01*
X83962371Y-76752674D01*
X83987733Y-76734162D01*
X83991521Y-76705858D01*
X83990695Y-76700539D01*
X83987391Y-76678067D01*
X83981055Y-76631687D01*
X83972173Y-76565070D01*
X83961229Y-76481890D01*
X83948708Y-76385819D01*
X83935094Y-76280530D01*
X83928727Y-76231016D01*
X83912511Y-76106128D01*
X83898377Y-76002396D01*
X83885150Y-75913766D01*
X83871656Y-75834185D01*
X83856719Y-75757599D01*
X83839164Y-75677956D01*
X83817816Y-75589202D01*
X83791500Y-75485284D01*
X83761537Y-75369721D01*
X83734257Y-75265336D01*
X83709206Y-75170019D01*
X83687241Y-75086986D01*
X83669217Y-75019453D01*
X83655991Y-74970635D01*
X83648419Y-74943748D01*
X83646975Y-74939474D01*
X83632776Y-74935688D01*
X83602429Y-74929435D01*
X83600368Y-74929042D01*
X83561780Y-74928265D01*
X83533358Y-74946640D01*
X83531394Y-74948763D01*
X83522710Y-74959671D01*
X83517890Y-74972210D01*
X83517745Y-74990392D01*
X83523085Y-75018233D01*
X83534721Y-75059746D01*
X83553463Y-75118944D01*
X83580122Y-75199843D01*
X83585178Y-75215073D01*
X83609778Y-75291602D01*
X83629837Y-75358816D01*
X83644196Y-75412400D01*
X83651691Y-75448040D01*
X83651482Y-75461302D01*
X83633697Y-75467270D01*
X83594383Y-75477849D01*
X83539149Y-75491601D01*
X83473605Y-75507088D01*
X83465994Y-75508839D01*
X83293335Y-75548447D01*
X83285927Y-75730958D01*
X83278518Y-75913468D01*
X83067036Y-75913468D01*
X83067036Y-75695074D01*
X83067142Y-75603374D01*
X83067788Y-75535131D01*
X83069468Y-75485996D01*
X83072676Y-75451620D01*
X83077904Y-75427656D01*
X83085646Y-75409753D01*
X83096397Y-75393564D01*
X83102113Y-75385987D01*
X83126978Y-75357226D01*
X83150540Y-75345467D01*
X83185461Y-75345534D01*
X83197878Y-75346840D01*
X83239215Y-75346745D01*
X83287626Y-75339901D01*
X83335348Y-75328372D01*
X83374618Y-75314222D01*
X83397672Y-75299518D01*
X83400698Y-75292892D01*
X83397519Y-75272099D01*
X83389494Y-75235387D01*
X83384998Y-75216962D01*
X83369299Y-75154613D01*
X83310116Y-75163488D01*
X83250934Y-75172363D01*
X83240809Y-75044435D01*
X83230684Y-74916506D01*
X83312215Y-74833427D01*
X83362063Y-74787707D01*
X83417165Y-74744922D01*
X83466315Y-74713709D01*
X83470211Y-74711687D01*
X83512139Y-74691642D01*
X83544570Y-74681386D01*
X83578567Y-74679346D01*
X83625191Y-74683952D01*
G36*
X81521479Y-75501656D02*
X81589576Y-75535511D01*
X81642081Y-75586816D01*
X81676344Y-75651383D01*
X81689718Y-75725024D01*
X81679555Y-75803548D01*
X81664535Y-75843955D01*
X81630867Y-75901450D01*
X81587185Y-75941330D01*
X81534215Y-75968548D01*
X81454693Y-75987869D01*
X81375679Y-75979446D01*
X81343531Y-75967918D01*
X81283765Y-75934307D01*
X81240785Y-75889089D01*
X81216515Y-75847985D01*
X81203436Y-75806776D01*
X81301410Y-75806776D01*
X81311521Y-75824583D01*
X81335650Y-75849042D01*
X81364487Y-75871667D01*
X81384825Y-75882796D01*
X81444978Y-75890583D01*
X81505874Y-75872303D01*
X81524199Y-75861334D01*
X81559724Y-75835128D01*
X81574979Y-75816768D01*
X81568317Y-75804938D01*
X81538094Y-75798322D01*
X81482664Y-75795605D01*
X81441594Y-75795296D01*
X81382972Y-75796355D01*
X81336389Y-75799210D01*
X81307703Y-75803381D01*
X81301410Y-75806776D01*
X81203436Y-75806776D01*
X81192327Y-75771775D01*
X81193663Y-75697978D01*
X81288103Y-75697978D01*
X81441223Y-75697978D01*
X81507864Y-75697729D01*
X81551045Y-75696425D01*
X81575111Y-75693228D01*
X81584405Y-75687303D01*
X81583273Y-75677813D01*
X81580038Y-75671251D01*
X81543009Y-75626509D01*
X81493372Y-75598835D01*
X81437887Y-75588452D01*
X81383311Y-75595582D01*
X81336404Y-75620448D01*
X81304414Y-75662179D01*
X81288103Y-75697978D01*
X81193663Y-75697978D01*
X81193745Y-75693473D01*
X81219861Y-75619353D01*
X81257111Y-75568138D01*
X81314273Y-75520147D01*
X81376794Y-75495353D01*
X81440435Y-75489440D01*
X81521479Y-75501656D01*
X81521479Y-75501656D01*
G37*
X81521479Y-75501656D02*
X81589576Y-75535511D01*
X81642081Y-75586816D01*
X81676344Y-75651383D01*
X81689718Y-75725024D01*
X81679555Y-75803548D01*
X81664535Y-75843955D01*
X81630867Y-75901450D01*
X81587185Y-75941330D01*
X81534215Y-75968548D01*
X81454693Y-75987869D01*
X81375679Y-75979446D01*
X81343531Y-75967918D01*
X81283765Y-75934307D01*
X81240785Y-75889089D01*
X81216515Y-75847985D01*
X81203436Y-75806776D01*
X81301410Y-75806776D01*
X81311521Y-75824583D01*
X81335650Y-75849042D01*
X81364487Y-75871667D01*
X81384825Y-75882796D01*
X81444978Y-75890583D01*
X81505874Y-75872303D01*
X81524199Y-75861334D01*
X81559724Y-75835128D01*
X81574979Y-75816768D01*
X81568317Y-75804938D01*
X81538094Y-75798322D01*
X81482664Y-75795605D01*
X81441594Y-75795296D01*
X81382972Y-75796355D01*
X81336389Y-75799210D01*
X81307703Y-75803381D01*
X81301410Y-75806776D01*
X81203436Y-75806776D01*
X81192327Y-75771775D01*
X81193663Y-75697978D01*
X81288103Y-75697978D01*
X81441223Y-75697978D01*
X81507864Y-75697729D01*
X81551045Y-75696425D01*
X81575111Y-75693228D01*
X81584405Y-75687303D01*
X81583273Y-75677813D01*
X81580038Y-75671251D01*
X81543009Y-75626509D01*
X81493372Y-75598835D01*
X81437887Y-75588452D01*
X81383311Y-75595582D01*
X81336404Y-75620448D01*
X81304414Y-75662179D01*
X81288103Y-75697978D01*
X81193663Y-75697978D01*
X81193745Y-75693473D01*
X81219861Y-75619353D01*
X81257111Y-75568138D01*
X81314273Y-75520147D01*
X81376794Y-75495353D01*
X81440435Y-75489440D01*
X81521479Y-75501656D01*
G36*
X82363978Y-75047374D02*
X82450936Y-75066469D01*
X82523137Y-75105397D01*
X82579754Y-75160024D01*
X82619962Y-75226218D01*
X82642933Y-75299845D01*
X82647842Y-75376771D01*
X82633862Y-75452862D01*
X82600167Y-75523987D01*
X82545930Y-75586010D01*
X82480429Y-75629843D01*
X82421669Y-75651483D01*
X82355192Y-75663453D01*
X82293027Y-75664214D01*
X82260597Y-75657958D01*
X82170316Y-75616074D01*
X82101399Y-75556472D01*
X82054098Y-75479444D01*
X82029905Y-75393513D01*
X82030109Y-75364317D01*
X82137505Y-75364317D01*
X82149337Y-75405572D01*
X82158662Y-75434888D01*
X82170140Y-75454603D01*
X82188927Y-75466621D01*
X82220176Y-75472846D01*
X82269042Y-75475183D01*
X82338681Y-75475537D01*
X82498450Y-75475537D01*
X82518594Y-75427325D01*
X82531697Y-75394174D01*
X82538479Y-75373519D01*
X82538739Y-75371714D01*
X82525653Y-75369093D01*
X82489663Y-75366880D01*
X82435668Y-75365256D01*
X82368567Y-75364402D01*
X82338122Y-75364317D01*
X82137505Y-75364317D01*
X82030109Y-75364317D01*
X82030476Y-75312178D01*
X82044779Y-75266999D01*
X82159978Y-75266999D01*
X82335456Y-75266999D01*
X82401631Y-75266146D01*
X82456391Y-75263818D01*
X82494495Y-75260356D01*
X82510707Y-75256104D01*
X82510933Y-75255519D01*
X82499992Y-75235344D01*
X82472794Y-75209433D01*
X82437773Y-75184829D01*
X82409235Y-75170607D01*
X82343348Y-75158503D01*
X82276934Y-75168202D01*
X82218345Y-75197289D01*
X82179983Y-75236868D01*
X82159978Y-75266999D01*
X82044779Y-75266999D01*
X82056271Y-75230700D01*
X82105364Y-75154945D01*
X82109860Y-75149739D01*
X82178746Y-75089444D01*
X82257035Y-75055183D01*
X82346348Y-75046306D01*
X82363978Y-75047374D01*
X82363978Y-75047374D01*
G37*
X82363978Y-75047374D02*
X82450936Y-75066469D01*
X82523137Y-75105397D01*
X82579754Y-75160024D01*
X82619962Y-75226218D01*
X82642933Y-75299845D01*
X82647842Y-75376771D01*
X82633862Y-75452862D01*
X82600167Y-75523987D01*
X82545930Y-75586010D01*
X82480429Y-75629843D01*
X82421669Y-75651483D01*
X82355192Y-75663453D01*
X82293027Y-75664214D01*
X82260597Y-75657958D01*
X82170316Y-75616074D01*
X82101399Y-75556472D01*
X82054098Y-75479444D01*
X82029905Y-75393513D01*
X82030109Y-75364317D01*
X82137505Y-75364317D01*
X82149337Y-75405572D01*
X82158662Y-75434888D01*
X82170140Y-75454603D01*
X82188927Y-75466621D01*
X82220176Y-75472846D01*
X82269042Y-75475183D01*
X82338681Y-75475537D01*
X82498450Y-75475537D01*
X82518594Y-75427325D01*
X82531697Y-75394174D01*
X82538479Y-75373519D01*
X82538739Y-75371714D01*
X82525653Y-75369093D01*
X82489663Y-75366880D01*
X82435668Y-75365256D01*
X82368567Y-75364402D01*
X82338122Y-75364317D01*
X82137505Y-75364317D01*
X82030109Y-75364317D01*
X82030476Y-75312178D01*
X82044779Y-75266999D01*
X82159978Y-75266999D01*
X82335456Y-75266999D01*
X82401631Y-75266146D01*
X82456391Y-75263818D01*
X82494495Y-75260356D01*
X82510707Y-75256104D01*
X82510933Y-75255519D01*
X82499992Y-75235344D01*
X82472794Y-75209433D01*
X82437773Y-75184829D01*
X82409235Y-75170607D01*
X82343348Y-75158503D01*
X82276934Y-75168202D01*
X82218345Y-75197289D01*
X82179983Y-75236868D01*
X82159978Y-75266999D01*
X82044779Y-75266999D01*
X82056271Y-75230700D01*
X82105364Y-75154945D01*
X82109860Y-75149739D01*
X82178746Y-75089444D01*
X82257035Y-75055183D01*
X82346348Y-75046306D01*
X82363978Y-75047374D01*
G36*
X81095750Y-75092728D02*
X81133722Y-75128171D01*
X81147838Y-75154226D01*
X81159168Y-75210620D01*
X81147988Y-75260297D01*
X81119391Y-75299874D01*
X81078471Y-75325970D01*
X81030322Y-75335202D01*
X80980038Y-75324187D01*
X80937133Y-75294133D01*
X80910118Y-75263087D01*
X80900167Y-75234791D01*
X80902374Y-75194952D01*
X80902570Y-75193481D01*
X80905506Y-75184903D01*
X80958796Y-75184903D01*
X80959097Y-75219260D01*
X80967467Y-75238668D01*
X80992462Y-75261030D01*
X81028327Y-75268831D01*
X81064085Y-75262288D01*
X81088761Y-75241617D01*
X81091244Y-75236236D01*
X81099820Y-75193967D01*
X81086748Y-75168101D01*
X81050551Y-75156712D01*
X81029625Y-75155778D01*
X80982647Y-75163287D01*
X80958796Y-75184903D01*
X80905506Y-75184903D01*
X80921024Y-75139569D01*
X80955757Y-75101547D01*
X81000580Y-75080406D01*
X81049307Y-75077136D01*
X81095750Y-75092728D01*
X81095750Y-75092728D01*
G37*
X81095750Y-75092728D02*
X81133722Y-75128171D01*
X81147838Y-75154226D01*
X81159168Y-75210620D01*
X81147988Y-75260297D01*
X81119391Y-75299874D01*
X81078471Y-75325970D01*
X81030322Y-75335202D01*
X80980038Y-75324187D01*
X80937133Y-75294133D01*
X80910118Y-75263087D01*
X80900167Y-75234791D01*
X80902374Y-75194952D01*
X80902570Y-75193481D01*
X80905506Y-75184903D01*
X80958796Y-75184903D01*
X80959097Y-75219260D01*
X80967467Y-75238668D01*
X80992462Y-75261030D01*
X81028327Y-75268831D01*
X81064085Y-75262288D01*
X81088761Y-75241617D01*
X81091244Y-75236236D01*
X81099820Y-75193967D01*
X81086748Y-75168101D01*
X81050551Y-75156712D01*
X81029625Y-75155778D01*
X80982647Y-75163287D01*
X80958796Y-75184903D01*
X80905506Y-75184903D01*
X80921024Y-75139569D01*
X80955757Y-75101547D01*
X81000580Y-75080406D01*
X81049307Y-75077136D01*
X81095750Y-75092728D01*
D13*
X96139095Y-76160381D02*
X96139095Y-76969905D01*
X96186714Y-77065143D01*
X96234333Y-77112762D01*
X96329571Y-77160381D01*
X96520048Y-77160381D01*
X96615286Y-77112762D01*
X96662905Y-77065143D01*
X96710524Y-76969905D01*
X96710524Y-76160381D01*
X97710524Y-77160381D02*
X97139095Y-77160381D01*
X97424809Y-77160381D02*
X97424809Y-76160381D01*
X97329571Y-76303238D01*
X97234333Y-76398476D01*
X97139095Y-76446095D01*
X85090714Y-83764381D02*
X85090714Y-82764381D01*
X85424048Y-83478667D01*
X85757381Y-82764381D01*
X85757381Y-83764381D01*
X86805000Y-83669143D02*
X86757381Y-83716762D01*
X86614524Y-83764381D01*
X86519286Y-83764381D01*
X86376428Y-83716762D01*
X86281190Y-83621524D01*
X86233571Y-83526286D01*
X86185952Y-83335810D01*
X86185952Y-83192952D01*
X86233571Y-83002476D01*
X86281190Y-82907238D01*
X86376428Y-82812000D01*
X86519286Y-82764381D01*
X86614524Y-82764381D01*
X86757381Y-82812000D01*
X86805000Y-82859619D01*
X87233571Y-83764381D02*
X87233571Y-82764381D01*
X87614524Y-82764381D01*
X87709762Y-82812000D01*
X87757381Y-82859619D01*
X87805000Y-82954857D01*
X87805000Y-83097714D01*
X87757381Y-83192952D01*
X87709762Y-83240571D01*
X87614524Y-83288190D01*
X87233571Y-83288190D01*
X88662143Y-83097714D02*
X88662143Y-83764381D01*
X88424047Y-82716762D02*
X88185952Y-83431048D01*
X88805000Y-83431048D01*
X89233571Y-83764381D02*
X89424047Y-83764381D01*
X89519286Y-83716762D01*
X89566905Y-83669143D01*
X89662143Y-83526286D01*
X89709762Y-83335810D01*
X89709762Y-82954857D01*
X89662143Y-82859619D01*
X89614524Y-82812000D01*
X89519286Y-82764381D01*
X89328809Y-82764381D01*
X89233571Y-82812000D01*
X89185952Y-82859619D01*
X89138333Y-82954857D01*
X89138333Y-83192952D01*
X89185952Y-83288190D01*
X89233571Y-83335810D01*
X89328809Y-83383429D01*
X89519286Y-83383429D01*
X89614524Y-83335810D01*
X89662143Y-83288190D01*
X89709762Y-83192952D01*
X90090714Y-82859619D02*
X90138333Y-82812000D01*
X90233571Y-82764381D01*
X90471667Y-82764381D01*
X90566905Y-82812000D01*
X90614524Y-82859619D01*
X90662143Y-82954857D01*
X90662143Y-83050095D01*
X90614524Y-83192952D01*
X90043095Y-83764381D01*
X90662143Y-83764381D01*
X91043095Y-82859619D02*
X91090714Y-82812000D01*
X91185952Y-82764381D01*
X91424048Y-82764381D01*
X91519286Y-82812000D01*
X91566905Y-82859619D01*
X91614524Y-82954857D01*
X91614524Y-83050095D01*
X91566905Y-83192952D01*
X90995476Y-83764381D01*
X91614524Y-83764381D01*
X92043095Y-83383429D02*
X92805000Y-83383429D01*
X93281190Y-83240571D02*
X93614524Y-83240571D01*
X93757381Y-83764381D02*
X93281190Y-83764381D01*
X93281190Y-82764381D01*
X93757381Y-82764381D01*
X94900238Y-82716762D02*
X94043095Y-84002476D01*
X95185952Y-83716762D02*
X95328809Y-83764381D01*
X95566905Y-83764381D01*
X95662143Y-83716762D01*
X95709762Y-83669143D01*
X95757381Y-83573905D01*
X95757381Y-83478667D01*
X95709762Y-83383429D01*
X95662143Y-83335810D01*
X95566905Y-83288190D01*
X95376428Y-83240571D01*
X95281190Y-83192952D01*
X95233571Y-83145333D01*
X95185952Y-83050095D01*
X95185952Y-82954857D01*
X95233571Y-82859619D01*
X95281190Y-82812000D01*
X95376428Y-82764381D01*
X95614524Y-82764381D01*
X95757381Y-82812000D01*
X96662143Y-83764381D02*
X96185952Y-83764381D01*
X96185952Y-82764381D01*
X116078095Y-76160381D02*
X116078095Y-76969905D01*
X116125714Y-77065143D01*
X116173333Y-77112762D01*
X116268571Y-77160381D01*
X116459048Y-77160381D01*
X116554286Y-77112762D01*
X116601905Y-77065143D01*
X116649524Y-76969905D01*
X116649524Y-76160381D01*
X117078095Y-76255619D02*
X117125714Y-76208000D01*
X117220952Y-76160381D01*
X117459048Y-76160381D01*
X117554286Y-76208000D01*
X117601905Y-76255619D01*
X117649524Y-76350857D01*
X117649524Y-76446095D01*
X117601905Y-76588952D01*
X117030476Y-77160381D01*
X117649524Y-77160381D01*
X105410714Y-83764381D02*
X105410714Y-82764381D01*
X105744048Y-83478667D01*
X106077381Y-82764381D01*
X106077381Y-83764381D01*
X107125000Y-83669143D02*
X107077381Y-83716762D01*
X106934524Y-83764381D01*
X106839286Y-83764381D01*
X106696428Y-83716762D01*
X106601190Y-83621524D01*
X106553571Y-83526286D01*
X106505952Y-83335810D01*
X106505952Y-83192952D01*
X106553571Y-83002476D01*
X106601190Y-82907238D01*
X106696428Y-82812000D01*
X106839286Y-82764381D01*
X106934524Y-82764381D01*
X107077381Y-82812000D01*
X107125000Y-82859619D01*
X107553571Y-83764381D02*
X107553571Y-82764381D01*
X107934524Y-82764381D01*
X108029762Y-82812000D01*
X108077381Y-82859619D01*
X108125000Y-82954857D01*
X108125000Y-83097714D01*
X108077381Y-83192952D01*
X108029762Y-83240571D01*
X107934524Y-83288190D01*
X107553571Y-83288190D01*
X108982143Y-83097714D02*
X108982143Y-83764381D01*
X108744047Y-82716762D02*
X108505952Y-83431048D01*
X109125000Y-83431048D01*
X109553571Y-83764381D02*
X109744047Y-83764381D01*
X109839286Y-83716762D01*
X109886905Y-83669143D01*
X109982143Y-83526286D01*
X110029762Y-83335810D01*
X110029762Y-82954857D01*
X109982143Y-82859619D01*
X109934524Y-82812000D01*
X109839286Y-82764381D01*
X109648809Y-82764381D01*
X109553571Y-82812000D01*
X109505952Y-82859619D01*
X109458333Y-82954857D01*
X109458333Y-83192952D01*
X109505952Y-83288190D01*
X109553571Y-83335810D01*
X109648809Y-83383429D01*
X109839286Y-83383429D01*
X109934524Y-83335810D01*
X109982143Y-83288190D01*
X110029762Y-83192952D01*
X110410714Y-82859619D02*
X110458333Y-82812000D01*
X110553571Y-82764381D01*
X110791667Y-82764381D01*
X110886905Y-82812000D01*
X110934524Y-82859619D01*
X110982143Y-82954857D01*
X110982143Y-83050095D01*
X110934524Y-83192952D01*
X110363095Y-83764381D01*
X110982143Y-83764381D01*
X111363095Y-82859619D02*
X111410714Y-82812000D01*
X111505952Y-82764381D01*
X111744048Y-82764381D01*
X111839286Y-82812000D01*
X111886905Y-82859619D01*
X111934524Y-82954857D01*
X111934524Y-83050095D01*
X111886905Y-83192952D01*
X111315476Y-83764381D01*
X111934524Y-83764381D01*
X112363095Y-83383429D02*
X113125000Y-83383429D01*
X113601190Y-83240571D02*
X113934524Y-83240571D01*
X114077381Y-83764381D02*
X113601190Y-83764381D01*
X113601190Y-82764381D01*
X114077381Y-82764381D01*
X115220238Y-82716762D02*
X114363095Y-84002476D01*
X115505952Y-83716762D02*
X115648809Y-83764381D01*
X115886905Y-83764381D01*
X115982143Y-83716762D01*
X116029762Y-83669143D01*
X116077381Y-83573905D01*
X116077381Y-83478667D01*
X116029762Y-83383429D01*
X115982143Y-83335810D01*
X115886905Y-83288190D01*
X115696428Y-83240571D01*
X115601190Y-83192952D01*
X115553571Y-83145333D01*
X115505952Y-83050095D01*
X115505952Y-82954857D01*
X115553571Y-82859619D01*
X115601190Y-82812000D01*
X115696428Y-82764381D01*
X115934524Y-82764381D01*
X116077381Y-82812000D01*
X116982143Y-83764381D02*
X116505952Y-83764381D01*
X116505952Y-82764381D01*
X99909334Y-75541143D02*
X99861715Y-75588762D01*
X99718858Y-75636381D01*
X99623620Y-75636381D01*
X99480762Y-75588762D01*
X99385524Y-75493524D01*
X99337905Y-75398286D01*
X99290286Y-75207810D01*
X99290286Y-75064952D01*
X99337905Y-74874476D01*
X99385524Y-74779238D01*
X99480762Y-74684000D01*
X99623620Y-74636381D01*
X99718858Y-74636381D01*
X99861715Y-74684000D01*
X99909334Y-74731619D01*
X100242667Y-74636381D02*
X100861715Y-74636381D01*
X100528381Y-75017333D01*
X100671239Y-75017333D01*
X100766477Y-75064952D01*
X100814096Y-75112571D01*
X100861715Y-75207810D01*
X100861715Y-75445905D01*
X100814096Y-75541143D01*
X100766477Y-75588762D01*
X100671239Y-75636381D01*
X100385524Y-75636381D01*
X100290286Y-75588762D01*
X100242667Y-75541143D01*
X97893381Y-81986381D02*
X97321952Y-81986381D01*
X97607666Y-81986381D02*
X97607666Y-80986381D01*
X97512428Y-81129238D01*
X97417190Y-81224476D01*
X97321952Y-81272095D01*
X98512428Y-80986381D02*
X98607667Y-80986381D01*
X98702905Y-81034000D01*
X98750524Y-81081619D01*
X98798143Y-81176857D01*
X98845762Y-81367333D01*
X98845762Y-81605429D01*
X98798143Y-81795905D01*
X98750524Y-81891143D01*
X98702905Y-81938762D01*
X98607667Y-81986381D01*
X98512428Y-81986381D01*
X98417190Y-81938762D01*
X98369571Y-81891143D01*
X98321952Y-81795905D01*
X98274333Y-81605429D01*
X98274333Y-81367333D01*
X98321952Y-81176857D01*
X98369571Y-81081619D01*
X98417190Y-81034000D01*
X98512428Y-80986381D01*
X99464809Y-80986381D02*
X99560048Y-80986381D01*
X99655286Y-81034000D01*
X99702905Y-81081619D01*
X99750524Y-81176857D01*
X99798143Y-81367333D01*
X99798143Y-81605429D01*
X99750524Y-81795905D01*
X99702905Y-81891143D01*
X99655286Y-81938762D01*
X99560048Y-81986381D01*
X99464809Y-81986381D01*
X99369571Y-81938762D01*
X99321952Y-81891143D01*
X99274333Y-81795905D01*
X99226714Y-81605429D01*
X99226714Y-81367333D01*
X99274333Y-81176857D01*
X99321952Y-81081619D01*
X99369571Y-81034000D01*
X99464809Y-80986381D01*
X100226714Y-81319714D02*
X100226714Y-81986381D01*
X100226714Y-81414952D02*
X100274333Y-81367333D01*
X100369571Y-81319714D01*
X100512429Y-81319714D01*
X100607667Y-81367333D01*
X100655286Y-81462571D01*
X100655286Y-81986381D01*
X101464810Y-81462571D02*
X101131476Y-81462571D01*
X101131476Y-81986381D02*
X101131476Y-80986381D01*
X101607667Y-80986381D01*
X102354143Y-75636381D02*
X102020809Y-75160190D01*
X101782714Y-75636381D02*
X101782714Y-74636381D01*
X102163667Y-74636381D01*
X102258905Y-74684000D01*
X102306524Y-74731619D01*
X102354143Y-74826857D01*
X102354143Y-74969714D01*
X102306524Y-75064952D01*
X102258905Y-75112571D01*
X102163667Y-75160190D01*
X101782714Y-75160190D01*
X103306524Y-75636381D02*
X102735095Y-75636381D01*
X103020809Y-75636381D02*
X103020809Y-74636381D01*
X102925571Y-74779238D01*
X102830333Y-74874476D01*
X102735095Y-74922095D01*
X104258905Y-75636381D02*
X103687476Y-75636381D01*
X103973190Y-75636381D02*
X103973190Y-74636381D01*
X103877952Y-74779238D01*
X103782714Y-74874476D01*
X103687476Y-74922095D01*
X102560572Y-81986381D02*
X101989143Y-81986381D01*
X102274857Y-81986381D02*
X102274857Y-80986381D01*
X102179619Y-81129238D01*
X102084381Y-81224476D01*
X101989143Y-81272095D01*
X103179619Y-80986381D02*
X103274858Y-80986381D01*
X103370096Y-81034000D01*
X103417715Y-81081619D01*
X103465334Y-81176857D01*
X103512953Y-81367333D01*
X103512953Y-81605429D01*
X103465334Y-81795905D01*
X103417715Y-81891143D01*
X103370096Y-81938762D01*
X103274858Y-81986381D01*
X103179619Y-81986381D01*
X103084381Y-81938762D01*
X103036762Y-81891143D01*
X102989143Y-81795905D01*
X102941524Y-81605429D01*
X102941524Y-81367333D01*
X102989143Y-81176857D01*
X103036762Y-81081619D01*
X103084381Y-81034000D01*
X103179619Y-80986381D01*
X104132000Y-80986381D02*
X104227239Y-80986381D01*
X104322477Y-81034000D01*
X104370096Y-81081619D01*
X104417715Y-81176857D01*
X104465334Y-81367333D01*
X104465334Y-81605429D01*
X104417715Y-81795905D01*
X104370096Y-81891143D01*
X104322477Y-81938762D01*
X104227239Y-81986381D01*
X104132000Y-81986381D01*
X104036762Y-81938762D01*
X103989143Y-81891143D01*
X103941524Y-81795905D01*
X103893905Y-81605429D01*
X103893905Y-81367333D01*
X103941524Y-81176857D01*
X103989143Y-81081619D01*
X104036762Y-81034000D01*
X104132000Y-80986381D01*
X104893905Y-81986381D02*
X104893905Y-80986381D01*
X104989143Y-81605429D02*
X105274858Y-81986381D01*
X105274858Y-81319714D02*
X104893905Y-81700667D01*
X75452381Y-70761905D02*
X76261905Y-70761905D01*
X76357143Y-70714286D01*
X76404762Y-70666667D01*
X76452381Y-70571429D01*
X76452381Y-70380952D01*
X76404762Y-70285714D01*
X76357143Y-70238095D01*
X76261905Y-70190476D01*
X75452381Y-70190476D01*
X75452381Y-69809524D02*
X75452381Y-69190476D01*
X75833333Y-69523810D01*
X75833333Y-69380952D01*
X75880952Y-69285714D01*
X75928571Y-69238095D01*
X76023810Y-69190476D01*
X76261905Y-69190476D01*
X76357143Y-69238095D01*
X76404762Y-69285714D01*
X76452381Y-69380952D01*
X76452381Y-69666667D01*
X76404762Y-69761905D01*
X76357143Y-69809524D01*
X76166667Y-83761904D02*
X76166667Y-83285713D01*
X76452381Y-83857142D02*
X75452381Y-83523809D01*
X76452381Y-83190475D01*
X76452381Y-82285713D02*
X75976190Y-82619047D01*
X76452381Y-82857142D02*
X75452381Y-82857142D01*
X75452381Y-82476189D01*
X75500000Y-82380951D01*
X75547619Y-82333332D01*
X75642857Y-82285713D01*
X75785714Y-82285713D01*
X75880952Y-82333332D01*
X75928571Y-82380951D01*
X75976190Y-82476189D01*
X75976190Y-82857142D01*
X76452381Y-81857142D02*
X75452381Y-81857142D01*
X75452381Y-81619047D01*
X75500000Y-81476189D01*
X75595238Y-81380951D01*
X75690476Y-81333332D01*
X75880952Y-81285713D01*
X76023810Y-81285713D01*
X76214286Y-81333332D01*
X76309524Y-81380951D01*
X76404762Y-81476189D01*
X76452381Y-81619047D01*
X76452381Y-81857142D01*
X75452381Y-80857142D02*
X76261905Y-80857142D01*
X76357143Y-80809523D01*
X76404762Y-80761904D01*
X76452381Y-80666666D01*
X76452381Y-80476189D01*
X76404762Y-80380951D01*
X76357143Y-80333332D01*
X76261905Y-80285713D01*
X75452381Y-80285713D01*
X76452381Y-79809523D02*
X75452381Y-79809523D01*
X76452381Y-79333333D02*
X75452381Y-79333333D01*
X76452381Y-78761904D01*
X75452381Y-78761904D01*
X75452381Y-78095238D02*
X75452381Y-77904761D01*
X75500000Y-77809523D01*
X75595238Y-77714285D01*
X75785714Y-77666666D01*
X76119048Y-77666666D01*
X76309524Y-77714285D01*
X76404762Y-77809523D01*
X76452381Y-77904761D01*
X76452381Y-78095238D01*
X76404762Y-78190476D01*
X76309524Y-78285714D01*
X76119048Y-78333333D01*
X75785714Y-78333333D01*
X75595238Y-78285714D01*
X75500000Y-78190476D01*
X75452381Y-78095238D01*
X76547619Y-77476190D02*
X76547619Y-76714285D01*
X76452381Y-76476190D02*
X75452381Y-76476190D01*
X76166667Y-76142856D01*
X75452381Y-75809523D01*
X76452381Y-75809523D01*
X76452381Y-75333333D02*
X75452381Y-75333333D01*
X76357143Y-74285714D02*
X76404762Y-74333333D01*
X76452381Y-74476190D01*
X76452381Y-74571428D01*
X76404762Y-74714286D01*
X76309524Y-74809524D01*
X76214286Y-74857143D01*
X76023810Y-74904762D01*
X75880952Y-74904762D01*
X75690476Y-74857143D01*
X75595238Y-74809524D01*
X75500000Y-74714286D01*
X75452381Y-74571428D01*
X75452381Y-74476190D01*
X75500000Y-74333333D01*
X75547619Y-74285714D01*
X76452381Y-73285714D02*
X75976190Y-73619048D01*
X76452381Y-73857143D02*
X75452381Y-73857143D01*
X75452381Y-73476190D01*
X75500000Y-73380952D01*
X75547619Y-73333333D01*
X75642857Y-73285714D01*
X75785714Y-73285714D01*
X75880952Y-73333333D01*
X75928571Y-73380952D01*
X75976190Y-73476190D01*
X75976190Y-73857143D01*
X75452381Y-72666667D02*
X75452381Y-72476190D01*
X75500000Y-72380952D01*
X75595238Y-72285714D01*
X75785714Y-72238095D01*
X76119048Y-72238095D01*
X76309524Y-72285714D01*
X76404762Y-72380952D01*
X76452381Y-72476190D01*
X76452381Y-72666667D01*
X76404762Y-72761905D01*
X76309524Y-72857143D01*
X76119048Y-72904762D01*
X75785714Y-72904762D01*
X75595238Y-72857143D01*
X75500000Y-72761905D01*
X75452381Y-72666667D01*
X70190476Y-99452381D02*
X70857143Y-100452381D01*
X70857143Y-99452381D02*
X70190476Y-100452381D01*
X71761905Y-100452381D02*
X71190476Y-100452381D01*
X71476190Y-100452381D02*
X71476190Y-99452381D01*
X71380952Y-99595238D01*
X71285714Y-99690476D01*
X71190476Y-99738095D01*
X74666667Y-87452381D02*
X75333334Y-88452381D01*
X75333334Y-87452381D02*
X74666667Y-88452381D01*
X90190476Y-99452381D02*
X90857143Y-100452381D01*
X90857143Y-99452381D02*
X90190476Y-100452381D01*
X91190476Y-99547619D02*
X91238095Y-99500000D01*
X91333333Y-99452381D01*
X91571429Y-99452381D01*
X91666667Y-99500000D01*
X91714286Y-99547619D01*
X91761905Y-99642857D01*
X91761905Y-99738095D01*
X91714286Y-99880952D01*
X91142857Y-100452381D01*
X91761905Y-100452381D01*
X91000000Y-87896190D02*
X91000000Y-88372381D01*
X90666667Y-87372381D02*
X91000000Y-87896190D01*
X91333334Y-87372381D01*
X110190476Y-99452381D02*
X110857143Y-100452381D01*
X110857143Y-99452381D02*
X110190476Y-100452381D01*
X111142857Y-99452381D02*
X111761905Y-99452381D01*
X111428571Y-99833333D01*
X111571429Y-99833333D01*
X111666667Y-99880952D01*
X111714286Y-99928571D01*
X111761905Y-100023810D01*
X111761905Y-100261905D01*
X111714286Y-100357143D01*
X111666667Y-100404762D01*
X111571429Y-100452381D01*
X111285714Y-100452381D01*
X111190476Y-100404762D01*
X111142857Y-100357143D01*
X110666667Y-87372381D02*
X111333334Y-87372381D01*
X110666667Y-88372381D01*
X111333334Y-88372381D01*
X130190476Y-99452381D02*
X130857143Y-100452381D01*
X130857143Y-99452381D02*
X130190476Y-100452381D01*
X131666667Y-99785714D02*
X131666667Y-100452381D01*
X131428571Y-99404762D02*
X131190476Y-100119048D01*
X131809524Y-100119048D01*
X127380953Y-88547619D02*
X127285715Y-88500000D01*
X127190477Y-88404762D01*
X127047620Y-88261905D01*
X126952381Y-88214286D01*
X126857143Y-88214286D01*
X126904762Y-88452381D02*
X126809524Y-88404762D01*
X126714286Y-88309524D01*
X126666667Y-88119048D01*
X126666667Y-87785714D01*
X126714286Y-87595238D01*
X126809524Y-87500000D01*
X126904762Y-87452381D01*
X127095239Y-87452381D01*
X127190477Y-87500000D01*
X127285715Y-87595238D01*
X127333334Y-87785714D01*
X127333334Y-88119048D01*
X127285715Y-88309524D01*
X127190477Y-88404762D01*
X127095239Y-88452381D01*
X126904762Y-88452381D01*
X90238096Y-67580000D02*
X90142858Y-67532381D01*
X90000001Y-67532381D01*
X89857143Y-67580000D01*
X89761905Y-67675238D01*
X89714286Y-67770476D01*
X89666667Y-67960952D01*
X89666667Y-68103810D01*
X89714286Y-68294286D01*
X89761905Y-68389524D01*
X89857143Y-68484762D01*
X90000001Y-68532381D01*
X90095239Y-68532381D01*
X90238096Y-68484762D01*
X90285715Y-68437143D01*
X90285715Y-68103810D01*
X90095239Y-68103810D01*
X90714286Y-68532381D02*
X90714286Y-67532381D01*
X91285715Y-68532381D01*
X91285715Y-67532381D01*
X91761905Y-68532381D02*
X91761905Y-67532381D01*
X92000000Y-67532381D01*
X92142858Y-67580000D01*
X92238096Y-67675238D01*
X92285715Y-67770476D01*
X92333334Y-67960952D01*
X92333334Y-68103810D01*
X92285715Y-68294286D01*
X92238096Y-68389524D01*
X92142858Y-68484762D01*
X92000000Y-68532381D01*
X91761905Y-68532381D01*
X110238096Y-67580000D02*
X110142858Y-67532381D01*
X110000001Y-67532381D01*
X109857143Y-67580000D01*
X109761905Y-67675238D01*
X109714286Y-67770476D01*
X109666667Y-67960952D01*
X109666667Y-68103810D01*
X109714286Y-68294286D01*
X109761905Y-68389524D01*
X109857143Y-68484762D01*
X110000001Y-68532381D01*
X110095239Y-68532381D01*
X110238096Y-68484762D01*
X110285715Y-68437143D01*
X110285715Y-68103810D01*
X110095239Y-68103810D01*
X110714286Y-68532381D02*
X110714286Y-67532381D01*
X111285715Y-68532381D01*
X111285715Y-67532381D01*
X111761905Y-68532381D02*
X111761905Y-67532381D01*
X112000000Y-67532381D01*
X112142858Y-67580000D01*
X112238096Y-67675238D01*
X112285715Y-67770476D01*
X112333334Y-67960952D01*
X112333334Y-68103810D01*
X112285715Y-68294286D01*
X112238096Y-68389524D01*
X112142858Y-68484762D01*
X112000000Y-68532381D01*
X111761905Y-68532381D01*
X137190476Y-79452381D02*
X137857143Y-80452381D01*
X137857143Y-79452381D02*
X137190476Y-80452381D01*
X138380952Y-79880952D02*
X138285714Y-79833333D01*
X138238095Y-79785714D01*
X138190476Y-79690476D01*
X138190476Y-79642857D01*
X138238095Y-79547619D01*
X138285714Y-79500000D01*
X138380952Y-79452381D01*
X138571429Y-79452381D01*
X138666667Y-79500000D01*
X138714286Y-79547619D01*
X138761905Y-79642857D01*
X138761905Y-79690476D01*
X138714286Y-79785714D01*
X138666667Y-79833333D01*
X138571429Y-79880952D01*
X138380952Y-79880952D01*
X138285714Y-79928571D01*
X138238095Y-79976190D01*
X138190476Y-80071429D01*
X138190476Y-80261905D01*
X138238095Y-80357143D01*
X138285714Y-80404762D01*
X138380952Y-80452381D01*
X138571429Y-80452381D01*
X138666667Y-80404762D01*
X138714286Y-80357143D01*
X138761905Y-80261905D01*
X138761905Y-80071429D01*
X138714286Y-79976190D01*
X138666667Y-79928571D01*
X138571429Y-79880952D01*
M02*
