G04 #@! TF.FileFunction,Copper,L2,Bot,Signal*
%FSLAX46Y46*%
G04 Gerber Fmt 4.6, Leading zero omitted, Abs format (unit mm)*
G04 Created by KiCad (PCBNEW 4.0.7-e2-6376~58~ubuntu16.04.1) date Fri Oct  5 04:37:02 2018*
%MOMM*%
%LPD*%
G01*
G04 APERTURE LIST*
%ADD10C,0.100000*%
%ADD11O,1.700000X1.700000*%
%ADD12R,1.700000X1.700000*%
%ADD13C,8.000000*%
%ADD14C,6.000000*%
%ADD15C,0.800000*%
%ADD16C,0.250000*%
%ADD17C,0.254000*%
G04 APERTURE END LIST*
D10*
D11*
X80680000Y-70380000D03*
X121320000Y-70380000D03*
X118780000Y-70380000D03*
X116240000Y-70380000D03*
X113700000Y-70380000D03*
X111160000Y-70380000D03*
X108620000Y-70380000D03*
X106080000Y-70380000D03*
X103540000Y-70380000D03*
X101000000Y-70380000D03*
X98460000Y-70380000D03*
X95920000Y-70380000D03*
X93380000Y-70380000D03*
X90840000Y-70380000D03*
X88300000Y-70380000D03*
X85760000Y-70380000D03*
X83220000Y-70380000D03*
D12*
X80680000Y-85620000D03*
D11*
X83220000Y-85620000D03*
X85760000Y-85620000D03*
X88300000Y-85620000D03*
X90840000Y-85620000D03*
X93380000Y-85620000D03*
X95920000Y-85620000D03*
X98460000Y-85620000D03*
X101000000Y-85620000D03*
X103540000Y-85620000D03*
X106080000Y-85620000D03*
X108620000Y-85620000D03*
X111160000Y-85620000D03*
X113700000Y-85620000D03*
X116240000Y-85620000D03*
X118780000Y-85620000D03*
X121320000Y-85620000D03*
D13*
X71000000Y-93000000D03*
X91000000Y-93000000D03*
X111000000Y-93000000D03*
X131000000Y-93000000D03*
X91000000Y-63000000D03*
X111000000Y-63000000D03*
D14*
X71000000Y-78000000D03*
X131000000Y-78000000D03*
D15*
X112268000Y-82931000D03*
X113919000Y-67310000D03*
X99949000Y-80391000D03*
X92329000Y-79248000D03*
X110998000Y-72898000D03*
X90932000Y-72898000D03*
X109728000Y-73660000D03*
X89662000Y-73152000D03*
X92329000Y-76454000D03*
X111633000Y-76962000D03*
X105283000Y-78994000D03*
X105283000Y-74930000D03*
X96012000Y-81026000D03*
X89916000Y-79375000D03*
X77978000Y-83185000D03*
X120650000Y-83185000D03*
D16*
X111000000Y-63000000D02*
X111000000Y-64391000D01*
X111000000Y-64391000D02*
X113919000Y-67310000D01*
X91000000Y-63000000D02*
X91000000Y-64702000D01*
X91000000Y-64702000D02*
X88300000Y-67402000D01*
X88300000Y-67402000D02*
X88300000Y-70380000D01*
X90932000Y-72898000D02*
X110998000Y-72898000D01*
X109474000Y-73914000D02*
X109728000Y-73660000D01*
X90424000Y-73914000D02*
X109474000Y-73914000D01*
X89662000Y-73152000D02*
X90424000Y-73914000D01*
X96139000Y-76835000D02*
X96774000Y-76835000D01*
X101000000Y-84109000D02*
X101000000Y-85620000D01*
X98298000Y-81407000D02*
X101000000Y-84109000D01*
X98298000Y-78359000D02*
X98298000Y-81407000D01*
X96774000Y-76835000D02*
X98298000Y-78359000D01*
X92710000Y-76835000D02*
X96139000Y-76835000D01*
X92329000Y-76454000D02*
X92710000Y-76835000D01*
X111633000Y-76962000D02*
X103540000Y-85055000D01*
X103540000Y-85055000D02*
X103540000Y-85620000D01*
X105283000Y-74930000D02*
X105283000Y-78994000D01*
X79629000Y-82931000D02*
X71000000Y-91560000D01*
X94107000Y-82931000D02*
X79629000Y-82931000D01*
X96012000Y-81026000D02*
X94107000Y-82931000D01*
X71000000Y-91560000D02*
X71000000Y-93000000D01*
X80772000Y-79248000D02*
X80772000Y-79375000D01*
X89916000Y-79375000D02*
X89789000Y-79248000D01*
X89789000Y-79248000D02*
X80772000Y-79248000D01*
X77978000Y-82169000D02*
X77978000Y-83185000D01*
X80772000Y-79375000D02*
X77978000Y-82169000D01*
X126365000Y-88365000D02*
X131000000Y-93000000D01*
X126365000Y-84201000D02*
X126365000Y-88365000D01*
X125349000Y-83185000D02*
X126365000Y-84201000D01*
X120650000Y-83185000D02*
X125349000Y-83185000D01*
D17*
G36*
X115535232Y-63068076D02*
X115546363Y-63138955D01*
X115557811Y-63157692D01*
X115563176Y-63178983D01*
X115605995Y-63236550D01*
X115643402Y-63297772D01*
X115661149Y-63310701D01*
X115674253Y-63328319D01*
X115735843Y-63365118D01*
X115793830Y-63407364D01*
X115815173Y-63412517D01*
X115834023Y-63423780D01*
X115905009Y-63434209D01*
X115974747Y-63451047D01*
X117143326Y-63498485D01*
X118272793Y-63633859D01*
X119378061Y-63854989D01*
X120455086Y-64158973D01*
X121499843Y-64542914D01*
X122508240Y-65003895D01*
X123476202Y-65539035D01*
X124399617Y-66145405D01*
X125274362Y-66820079D01*
X126096340Y-67560136D01*
X126861437Y-68362633D01*
X127565576Y-69224649D01*
X128204686Y-70143299D01*
X128774702Y-71115680D01*
X129271584Y-72138982D01*
X129698155Y-73227958D01*
X129722334Y-73265706D01*
X129738305Y-73307596D01*
X129772041Y-73343309D01*
X129798541Y-73384680D01*
X129835329Y-73410304D01*
X129866112Y-73442891D01*
X129910945Y-73462975D01*
X129951261Y-73491056D01*
X129995054Y-73500651D01*
X130035965Y-73518978D01*
X130085073Y-73520376D01*
X130133064Y-73530891D01*
X130177194Y-73522998D01*
X130222006Y-73524273D01*
X130270711Y-73516018D01*
X130319527Y-73508677D01*
X130368334Y-73501338D01*
X130417093Y-73494934D01*
X130466107Y-73488509D01*
X130510780Y-73483499D01*
X130559797Y-73478918D01*
X130559799Y-73478918D01*
X130609013Y-73474327D01*
X130658127Y-73470662D01*
X130658128Y-73470662D01*
X130707428Y-73466990D01*
X130756651Y-73464240D01*
X130756652Y-73464240D01*
X130810453Y-73461240D01*
X130855399Y-73458734D01*
X130899230Y-73457919D01*
X130949679Y-73457253D01*
X130988441Y-73457045D01*
X131461719Y-73480956D01*
X131910157Y-73549406D01*
X132342705Y-73660656D01*
X132757377Y-73812463D01*
X133152031Y-74002612D01*
X133524438Y-74228887D01*
X133872269Y-74489021D01*
X134193211Y-74780745D01*
X134484902Y-75101717D01*
X134745016Y-75449595D01*
X134971247Y-75822016D01*
X135161351Y-76216686D01*
X135313102Y-76631374D01*
X135424326Y-77063970D01*
X135492779Y-77512427D01*
X135516147Y-77974960D01*
X135492779Y-78437493D01*
X135424325Y-78885957D01*
X135313114Y-79318537D01*
X135161353Y-79733229D01*
X134971247Y-80127904D01*
X134745016Y-80500325D01*
X134484901Y-80848195D01*
X134193212Y-81169175D01*
X133872269Y-81460899D01*
X133524429Y-81721039D01*
X133152038Y-81947314D01*
X132757380Y-82137456D01*
X132342705Y-82289264D01*
X131910159Y-82400513D01*
X131461726Y-82468965D01*
X130998541Y-82492365D01*
X130997880Y-82492342D01*
X130997377Y-82492424D01*
X130984818Y-82493058D01*
X130979195Y-82491940D01*
X130964782Y-82494807D01*
X130950224Y-82492821D01*
X130697134Y-82508221D01*
X130673587Y-82514412D01*
X130649254Y-82513572D01*
X130403613Y-82553672D01*
X130380952Y-82562154D01*
X130356810Y-82563747D01*
X130119860Y-82627347D01*
X130098373Y-82637955D01*
X130074733Y-82641899D01*
X129847674Y-82727799D01*
X129827678Y-82740280D01*
X129804918Y-82746411D01*
X129588988Y-82853251D01*
X129570531Y-82867452D01*
X129548734Y-82875650D01*
X129345164Y-83002170D01*
X129328343Y-83017917D01*
X129307648Y-83028050D01*
X129117648Y-83172991D01*
X129102524Y-83190139D01*
X129083030Y-83202095D01*
X128907830Y-83364174D01*
X128894453Y-83382601D01*
X128876255Y-83396281D01*
X128717066Y-83574220D01*
X128705470Y-83593853D01*
X128688618Y-83609216D01*
X128546679Y-83801756D01*
X128536940Y-83822502D01*
X128521543Y-83839482D01*
X128398093Y-84045342D01*
X128390324Y-84067040D01*
X128376544Y-84085512D01*
X128272734Y-84303422D01*
X128267000Y-84326043D01*
X128254920Y-84346009D01*
X128172020Y-84574699D01*
X128168449Y-84598102D01*
X128158239Y-84619462D01*
X128097539Y-84857642D01*
X128096272Y-84881448D01*
X128088166Y-84903864D01*
X128050766Y-85150284D01*
X128051869Y-85174392D01*
X128045973Y-85197793D01*
X128033173Y-85451163D01*
X128036722Y-85475323D01*
X128033182Y-85499488D01*
X128046082Y-85752818D01*
X128051965Y-85776129D01*
X128050867Y-85800148D01*
X128088267Y-86046527D01*
X128096407Y-86069036D01*
X128097690Y-86092939D01*
X128158490Y-86331079D01*
X128168672Y-86352356D01*
X128172231Y-86375672D01*
X128255131Y-86604313D01*
X128267213Y-86624279D01*
X128272948Y-86646899D01*
X128376759Y-86864769D01*
X128390561Y-86883268D01*
X128398346Y-86904996D01*
X128521826Y-87110806D01*
X128537212Y-87127767D01*
X128546946Y-87148495D01*
X128688896Y-87340995D01*
X128705740Y-87356346D01*
X128717331Y-87375968D01*
X128876511Y-87553868D01*
X128894724Y-87567557D01*
X128908113Y-87585995D01*
X129083324Y-87748035D01*
X129102807Y-87759981D01*
X129117928Y-87777121D01*
X129307919Y-87922021D01*
X129328618Y-87932153D01*
X129345443Y-87947900D01*
X129549003Y-88074380D01*
X129570782Y-88082568D01*
X129589224Y-88096757D01*
X129805134Y-88203577D01*
X129827875Y-88209702D01*
X129847854Y-88222174D01*
X130074884Y-88308074D01*
X130098527Y-88312020D01*
X130120020Y-88322631D01*
X130356950Y-88386231D01*
X130381187Y-88387831D01*
X130403938Y-88396337D01*
X130649538Y-88436337D01*
X130673686Y-88435494D01*
X130697053Y-88441648D01*
X130950113Y-88457148D01*
X130964769Y-88455155D01*
X130979275Y-88458040D01*
X130984695Y-88456962D01*
X130995619Y-88457514D01*
X130996579Y-88457675D01*
X130997979Y-88457633D01*
X130998268Y-88457648D01*
X130998340Y-88457659D01*
X130998426Y-88457656D01*
X131460799Y-88481016D01*
X131909237Y-88549466D01*
X132341785Y-88660716D01*
X132756457Y-88812523D01*
X133151111Y-89002672D01*
X133523518Y-89228947D01*
X133871349Y-89489081D01*
X134192291Y-89780805D01*
X134483982Y-90101777D01*
X134744096Y-90449655D01*
X134970327Y-90822076D01*
X135160431Y-91216746D01*
X135312182Y-91631434D01*
X135423406Y-92064030D01*
X135491859Y-92512487D01*
X135515227Y-92975020D01*
X135491859Y-93437553D01*
X135426245Y-93867411D01*
X135427767Y-92123279D01*
X134755216Y-90495582D01*
X133510968Y-89249160D01*
X131884448Y-88573770D01*
X130123279Y-88572233D01*
X128495582Y-89244784D01*
X128260301Y-89479655D01*
X126917000Y-88136354D01*
X126917000Y-84201000D01*
X126884685Y-84038539D01*
X126874982Y-83989758D01*
X126755323Y-83810677D01*
X125739323Y-82794677D01*
X125560242Y-82675018D01*
X125349000Y-82633000D01*
X121267498Y-82633000D01*
X121119070Y-82484312D01*
X120815222Y-82358144D01*
X120486221Y-82357857D01*
X120182154Y-82483495D01*
X119949312Y-82715930D01*
X119823144Y-83019778D01*
X119822857Y-83348779D01*
X119948495Y-83652846D01*
X120180930Y-83885688D01*
X120484778Y-84011856D01*
X120813779Y-84012143D01*
X121117846Y-83886505D01*
X121267613Y-83737000D01*
X125120354Y-83737000D01*
X125813000Y-84429646D01*
X125813000Y-88365000D01*
X125855018Y-88576242D01*
X125974677Y-88755323D01*
X127478973Y-90259619D01*
X127249160Y-90489032D01*
X126573770Y-92115552D01*
X126572233Y-93876721D01*
X127238971Y-95490349D01*
X127023936Y-95140344D01*
X126832228Y-94747601D01*
X126678686Y-94334903D01*
X126565585Y-93904427D01*
X126495165Y-93457928D01*
X126468104Y-92973145D01*
X126467191Y-92969599D01*
X126469238Y-92955664D01*
X126443438Y-92444944D01*
X126437492Y-92421346D01*
X126438584Y-92397038D01*
X126362884Y-91901077D01*
X126354653Y-91878373D01*
X126353317Y-91854261D01*
X126230227Y-91375561D01*
X126219875Y-91354023D01*
X126216198Y-91330411D01*
X126048238Y-90871481D01*
X126035939Y-90851294D01*
X126030032Y-90828405D01*
X125819692Y-90391765D01*
X125805630Y-90373084D01*
X125797621Y-90351116D01*
X125547421Y-89939276D01*
X125531754Y-89922196D01*
X125521762Y-89901283D01*
X125234212Y-89516744D01*
X125217075Y-89501334D01*
X125205198Y-89481581D01*
X124882807Y-89126860D01*
X124864312Y-89113183D01*
X124850635Y-89094688D01*
X124495915Y-88772298D01*
X124476164Y-88760423D01*
X124460755Y-88743286D01*
X124076226Y-88455736D01*
X124055307Y-88445741D01*
X124038225Y-88430072D01*
X123626375Y-88179871D01*
X123604404Y-88171862D01*
X123585722Y-88157799D01*
X123149082Y-87947469D01*
X123126191Y-87941562D01*
X123106005Y-87929264D01*
X122647075Y-87761314D01*
X122623474Y-87757639D01*
X122601943Y-87747290D01*
X122123243Y-87624190D01*
X122099125Y-87622854D01*
X122076418Y-87614621D01*
X121580458Y-87538921D01*
X121556149Y-87540013D01*
X121532551Y-87534067D01*
X121021831Y-87508267D01*
X120997765Y-87511803D01*
X120973699Y-87508267D01*
X120462979Y-87534067D01*
X120439381Y-87540013D01*
X120415073Y-87538921D01*
X119919112Y-87614621D01*
X119896414Y-87622850D01*
X119872306Y-87624185D01*
X119393605Y-87747266D01*
X119372060Y-87757621D01*
X119348437Y-87761300D01*
X118889507Y-87929270D01*
X118869328Y-87941565D01*
X118846448Y-87947469D01*
X118409808Y-88157799D01*
X118391123Y-88171864D01*
X118369151Y-88179874D01*
X117957311Y-88430074D01*
X117940231Y-88445741D01*
X117919318Y-88455733D01*
X117534779Y-88743283D01*
X117519369Y-88760420D01*
X117499616Y-88772297D01*
X117144895Y-89094688D01*
X117131218Y-89113183D01*
X117112723Y-89126860D01*
X116790333Y-89481580D01*
X116778457Y-89501331D01*
X116761317Y-89516744D01*
X116473768Y-89901284D01*
X116463777Y-89922195D01*
X116448109Y-89939276D01*
X116197909Y-90351116D01*
X116189899Y-90373088D01*
X116175834Y-90391773D01*
X115965504Y-90828413D01*
X115959597Y-90851304D01*
X115947299Y-90871490D01*
X115779349Y-91330420D01*
X115775674Y-91354021D01*
X115765325Y-91375552D01*
X115642225Y-91854252D01*
X115640889Y-91878370D01*
X115632656Y-91901077D01*
X115556956Y-92397037D01*
X115558048Y-92421346D01*
X115552102Y-92444944D01*
X115526302Y-92955664D01*
X115528356Y-92969645D01*
X115527431Y-92973239D01*
X115526244Y-92994582D01*
X115526000Y-92996034D01*
X115526057Y-92997938D01*
X115500471Y-93457925D01*
X115429967Y-93904374D01*
X115316856Y-94334929D01*
X115163357Y-94747634D01*
X114971677Y-95140366D01*
X114765042Y-95476765D01*
X115426230Y-93884448D01*
X115427767Y-92123279D01*
X114755216Y-90495582D01*
X113510968Y-89249160D01*
X111884448Y-88573770D01*
X110123279Y-88572233D01*
X108495582Y-89244784D01*
X107249160Y-90489032D01*
X106573770Y-92115552D01*
X106572233Y-93876721D01*
X107239236Y-95490991D01*
X107023865Y-95140368D01*
X106832196Y-94747629D01*
X106678703Y-94334919D01*
X106565583Y-93904409D01*
X106495165Y-93457918D01*
X106468104Y-92973135D01*
X106467191Y-92969589D01*
X106469238Y-92955654D01*
X106443438Y-92444934D01*
X106437492Y-92421336D01*
X106438584Y-92397028D01*
X106362884Y-91901067D01*
X106354655Y-91878369D01*
X106353320Y-91854261D01*
X106230239Y-91375560D01*
X106219884Y-91354015D01*
X106216205Y-91330392D01*
X106048235Y-90871462D01*
X106035940Y-90851283D01*
X106030036Y-90828403D01*
X105819706Y-90391763D01*
X105805641Y-90373078D01*
X105797631Y-90351106D01*
X105547431Y-89939266D01*
X105531764Y-89922186D01*
X105521772Y-89901273D01*
X105234222Y-89516734D01*
X105217085Y-89501324D01*
X105205208Y-89481571D01*
X104882817Y-89126850D01*
X104864322Y-89113173D01*
X104850645Y-89094678D01*
X104495925Y-88772288D01*
X104476174Y-88760412D01*
X104460761Y-88743272D01*
X104076221Y-88455723D01*
X104055307Y-88445730D01*
X104038225Y-88430062D01*
X103626375Y-88179861D01*
X103604404Y-88171852D01*
X103585722Y-88157789D01*
X103149082Y-87947459D01*
X103126191Y-87941552D01*
X103106005Y-87929254D01*
X102647075Y-87761304D01*
X102623474Y-87757629D01*
X102601943Y-87747280D01*
X102123243Y-87624180D01*
X102099125Y-87622844D01*
X102076418Y-87614611D01*
X101580458Y-87538911D01*
X101556149Y-87540003D01*
X101532551Y-87534057D01*
X101021831Y-87508257D01*
X100997765Y-87511793D01*
X100973699Y-87508257D01*
X100462979Y-87534057D01*
X100439381Y-87540003D01*
X100415073Y-87538911D01*
X99919112Y-87614611D01*
X99896414Y-87622840D01*
X99872306Y-87624175D01*
X99393605Y-87747256D01*
X99372060Y-87757611D01*
X99348437Y-87761290D01*
X98889507Y-87929260D01*
X98869328Y-87941555D01*
X98846448Y-87947459D01*
X98409808Y-88157789D01*
X98391123Y-88171854D01*
X98369151Y-88179864D01*
X97957311Y-88430064D01*
X97940227Y-88445734D01*
X97919314Y-88455727D01*
X97534784Y-88743276D01*
X97519375Y-88760413D01*
X97499626Y-88772287D01*
X97144905Y-89094678D01*
X97131228Y-89113173D01*
X97112733Y-89126850D01*
X96790343Y-89481570D01*
X96778467Y-89501321D01*
X96761327Y-89516734D01*
X96473778Y-89901274D01*
X96463787Y-89922185D01*
X96448119Y-89939266D01*
X96197919Y-90351106D01*
X96189910Y-90373074D01*
X96175848Y-90391755D01*
X95965508Y-90828395D01*
X95959599Y-90851290D01*
X95947299Y-90871480D01*
X95779349Y-91330410D01*
X95775674Y-91354011D01*
X95765325Y-91375542D01*
X95642225Y-91854242D01*
X95640889Y-91878360D01*
X95632656Y-91901067D01*
X95556956Y-92397027D01*
X95558048Y-92421336D01*
X95552102Y-92444934D01*
X95526302Y-92955654D01*
X95528356Y-92969635D01*
X95527431Y-92973229D01*
X95526244Y-92994572D01*
X95526000Y-92996024D01*
X95526057Y-92997928D01*
X95500471Y-93457915D01*
X95429967Y-93904364D01*
X95316856Y-94334919D01*
X95163357Y-94747624D01*
X94971677Y-95140356D01*
X94765055Y-95476734D01*
X95426230Y-93884448D01*
X95427767Y-92123279D01*
X94755216Y-90495582D01*
X93510968Y-89249160D01*
X91884448Y-88573770D01*
X90123279Y-88572233D01*
X88495582Y-89244784D01*
X87249160Y-90489032D01*
X86573770Y-92115552D01*
X86572233Y-93876721D01*
X87239232Y-95490980D01*
X87023856Y-95140355D01*
X86832188Y-94747617D01*
X86678682Y-94334907D01*
X86565567Y-93904356D01*
X86495068Y-93457927D01*
X86469564Y-92998760D01*
X86469571Y-92998728D01*
X86469634Y-92996728D01*
X86469359Y-92995075D01*
X86468147Y-92973255D01*
X86467282Y-92969895D01*
X86469374Y-92955662D01*
X86443594Y-92444943D01*
X86437648Y-92421342D01*
X86438741Y-92397026D01*
X86363051Y-91901067D01*
X86354820Y-91878363D01*
X86353485Y-91854249D01*
X86230403Y-91375549D01*
X86220049Y-91354004D01*
X86216370Y-91330386D01*
X86048404Y-90871456D01*
X86036108Y-90851273D01*
X86030201Y-90828387D01*
X85819863Y-90391747D01*
X85805801Y-90373066D01*
X85797792Y-90351097D01*
X85547592Y-89939257D01*
X85531926Y-89922178D01*
X85521933Y-89901263D01*
X85234383Y-89516724D01*
X85217246Y-89501314D01*
X85205369Y-89481561D01*
X84882978Y-89126840D01*
X84864483Y-89113163D01*
X84850806Y-89094668D01*
X84496087Y-88772278D01*
X84476336Y-88760402D01*
X84460924Y-88743263D01*
X84076386Y-88455713D01*
X84055471Y-88445720D01*
X84038391Y-88430053D01*
X83626547Y-88179853D01*
X83604577Y-88171844D01*
X83585892Y-88157779D01*
X83149250Y-87947449D01*
X83126361Y-87941542D01*
X83106174Y-87929244D01*
X82647243Y-87761294D01*
X82623641Y-87757619D01*
X82602112Y-87747271D01*
X82123417Y-87624171D01*
X82099300Y-87622835D01*
X82076590Y-87614601D01*
X81580625Y-87538901D01*
X81556317Y-87539993D01*
X81532719Y-87534047D01*
X81022002Y-87508247D01*
X80997936Y-87511783D01*
X80973870Y-87508247D01*
X80463151Y-87534047D01*
X80439553Y-87539993D01*
X80415245Y-87538901D01*
X79919282Y-87614601D01*
X79896584Y-87622830D01*
X79872475Y-87624165D01*
X79393774Y-87747246D01*
X79372227Y-87757602D01*
X79348605Y-87761281D01*
X78889679Y-87929251D01*
X78869501Y-87941545D01*
X78846622Y-87947449D01*
X78409981Y-88157779D01*
X78391297Y-88171843D01*
X78369324Y-88179853D01*
X77957481Y-88430053D01*
X77940401Y-88445720D01*
X77919486Y-88455713D01*
X77534948Y-88743263D01*
X77519536Y-88760402D01*
X77499785Y-88772278D01*
X77145066Y-89094668D01*
X77131389Y-89113163D01*
X77112894Y-89126840D01*
X76790504Y-89481560D01*
X76778628Y-89501311D01*
X76761488Y-89516724D01*
X76473939Y-89901264D01*
X76463948Y-89922175D01*
X76448280Y-89939256D01*
X76198081Y-90351097D01*
X76190073Y-90373064D01*
X76176009Y-90391747D01*
X75965671Y-90828387D01*
X75959765Y-90851271D01*
X75947468Y-90871454D01*
X75779500Y-91330384D01*
X75775821Y-91354006D01*
X75765467Y-91375550D01*
X75642387Y-91854250D01*
X75641052Y-91878363D01*
X75632821Y-91901067D01*
X75557131Y-92397027D01*
X75558223Y-92421342D01*
X75552278Y-92444943D01*
X75526498Y-92955663D01*
X75528589Y-92969892D01*
X75527726Y-92973246D01*
X75526364Y-92997760D01*
X75526299Y-92998157D01*
X75526315Y-92998632D01*
X75500796Y-93457905D01*
X75430278Y-93904327D01*
X75317140Y-94334882D01*
X75163610Y-94747583D01*
X74971905Y-95140312D01*
X74764712Y-95477560D01*
X75426230Y-93884448D01*
X75427767Y-92123279D01*
X74755216Y-90495582D01*
X73800974Y-89539672D01*
X78570646Y-84770000D01*
X79394635Y-84770000D01*
X79394635Y-86470000D01*
X79424409Y-86628237D01*
X79517927Y-86773567D01*
X79660619Y-86871064D01*
X79830000Y-86905365D01*
X81530000Y-86905365D01*
X81688237Y-86875591D01*
X81833567Y-86782073D01*
X81931064Y-86639381D01*
X81965365Y-86470000D01*
X81965365Y-85757454D01*
X82040206Y-86133705D01*
X82317025Y-86547993D01*
X82731313Y-86824812D01*
X83220000Y-86922018D01*
X83708687Y-86824812D01*
X84122975Y-86547993D01*
X84399794Y-86133705D01*
X84490000Y-85680209D01*
X84580206Y-86133705D01*
X84857025Y-86547993D01*
X85271313Y-86824812D01*
X85760000Y-86922018D01*
X86248687Y-86824812D01*
X86662975Y-86547993D01*
X86939794Y-86133705D01*
X87030000Y-85680209D01*
X87120206Y-86133705D01*
X87397025Y-86547993D01*
X87811313Y-86824812D01*
X88300000Y-86922018D01*
X88788687Y-86824812D01*
X89202975Y-86547993D01*
X89479794Y-86133705D01*
X89570000Y-85680209D01*
X89660206Y-86133705D01*
X89937025Y-86547993D01*
X90351313Y-86824812D01*
X90840000Y-86922018D01*
X91328687Y-86824812D01*
X91742975Y-86547993D01*
X92019794Y-86133705D01*
X92051787Y-85972863D01*
X92277267Y-86444704D01*
X92676808Y-86803925D01*
X93040071Y-86954383D01*
X93253000Y-86858757D01*
X93253000Y-85747000D01*
X93233000Y-85747000D01*
X93233000Y-85493000D01*
X93253000Y-85493000D01*
X93253000Y-84381243D01*
X93040071Y-84285617D01*
X92676808Y-84436075D01*
X92277267Y-84795296D01*
X92051787Y-85267137D01*
X92019794Y-85106295D01*
X91742975Y-84692007D01*
X91328687Y-84415188D01*
X90840000Y-84317982D01*
X90351313Y-84415188D01*
X89937025Y-84692007D01*
X89660206Y-85106295D01*
X89570000Y-85559791D01*
X89479794Y-85106295D01*
X89202975Y-84692007D01*
X88788687Y-84415188D01*
X88300000Y-84317982D01*
X87811313Y-84415188D01*
X87397025Y-84692007D01*
X87120206Y-85106295D01*
X87030000Y-85559791D01*
X86939794Y-85106295D01*
X86662975Y-84692007D01*
X86248687Y-84415188D01*
X85760000Y-84317982D01*
X85271313Y-84415188D01*
X84857025Y-84692007D01*
X84580206Y-85106295D01*
X84490000Y-85559791D01*
X84399794Y-85106295D01*
X84122975Y-84692007D01*
X83708687Y-84415188D01*
X83220000Y-84317982D01*
X82731313Y-84415188D01*
X82317025Y-84692007D01*
X82040206Y-85106295D01*
X81965365Y-85482546D01*
X81965365Y-84770000D01*
X81935591Y-84611763D01*
X81842073Y-84466433D01*
X81699381Y-84368936D01*
X81530000Y-84334635D01*
X79830000Y-84334635D01*
X79671763Y-84364409D01*
X79526433Y-84457927D01*
X79428936Y-84600619D01*
X79394635Y-84770000D01*
X78570646Y-84770000D01*
X79857646Y-83483000D01*
X94107000Y-83483000D01*
X94318242Y-83440982D01*
X94497323Y-83321323D01*
X95965686Y-81852960D01*
X96175779Y-81853143D01*
X96479846Y-81727505D01*
X96712688Y-81495070D01*
X96838856Y-81191222D01*
X96839143Y-80862221D01*
X96713505Y-80558154D01*
X96481070Y-80325312D01*
X96177222Y-80199144D01*
X95848221Y-80198857D01*
X95544154Y-80324495D01*
X95311312Y-80556930D01*
X95185144Y-80860778D01*
X95184959Y-81072395D01*
X93878354Y-82379000D01*
X79629000Y-82379000D01*
X79417758Y-82421018D01*
X79238677Y-82540677D01*
X78791398Y-82987956D01*
X78679505Y-82717154D01*
X78530000Y-82567387D01*
X78530000Y-82397646D01*
X81127646Y-79800000D01*
X89196791Y-79800000D01*
X89214495Y-79842846D01*
X89446930Y-80075688D01*
X89750778Y-80201856D01*
X90079779Y-80202143D01*
X90383846Y-80076505D01*
X90616688Y-79844070D01*
X90742856Y-79540222D01*
X90743143Y-79211221D01*
X90617505Y-78907154D01*
X90385070Y-78674312D01*
X90081222Y-78548144D01*
X89752221Y-78547857D01*
X89448154Y-78673495D01*
X89425610Y-78696000D01*
X80772000Y-78696000D01*
X80560759Y-78738018D01*
X80381677Y-78857677D01*
X80262018Y-79036759D01*
X80245239Y-79121115D01*
X77587677Y-81778677D01*
X77468018Y-81957758D01*
X77442676Y-82085163D01*
X77426000Y-82169000D01*
X77426000Y-82567502D01*
X77277312Y-82715930D01*
X77151144Y-83019778D01*
X77150857Y-83348779D01*
X77276495Y-83652846D01*
X77508930Y-83885688D01*
X77780783Y-83998571D01*
X72817957Y-88961397D01*
X71884448Y-88573770D01*
X70123279Y-88572233D01*
X68495582Y-89244784D01*
X67249160Y-90489032D01*
X66573770Y-92115552D01*
X66572233Y-93876721D01*
X67224710Y-95455834D01*
X67025522Y-95127927D01*
X66835415Y-94733255D01*
X66683653Y-94318568D01*
X66572438Y-93885992D01*
X66504003Y-93437541D01*
X66480653Y-92974983D01*
X66503892Y-92514305D01*
X66571871Y-92067194D01*
X66682332Y-91635551D01*
X66833076Y-91221382D01*
X67021925Y-90826885D01*
X67246679Y-90454333D01*
X67505131Y-90106022D01*
X67794990Y-89784340D01*
X68113943Y-89491649D01*
X68459676Y-89230284D01*
X68829854Y-89002557D01*
X69222197Y-88810725D01*
X69634508Y-88656999D01*
X70064681Y-88543590D01*
X70510726Y-88472731D01*
X70994996Y-88445392D01*
X70995415Y-88445284D01*
X70997224Y-88445550D01*
X71252231Y-88432750D01*
X71275906Y-88426793D01*
X71300294Y-88427888D01*
X71547934Y-88390088D01*
X71570669Y-88381845D01*
X71594819Y-88380504D01*
X71833841Y-88319004D01*
X71855372Y-88308651D01*
X71878979Y-88304972D01*
X72108133Y-88221072D01*
X72128275Y-88208797D01*
X72151116Y-88202904D01*
X72369149Y-88097894D01*
X72387832Y-88083833D01*
X72409800Y-88075826D01*
X72615445Y-87950916D01*
X72632526Y-87935251D01*
X72653438Y-87925261D01*
X72845454Y-87781701D01*
X72860863Y-87764567D01*
X72880617Y-87752693D01*
X73057752Y-87591732D01*
X73071430Y-87573240D01*
X73089922Y-87559568D01*
X73250917Y-87382468D01*
X73262793Y-87362720D01*
X73279932Y-87347313D01*
X73423533Y-87155323D01*
X73433529Y-87134409D01*
X73449200Y-87117328D01*
X73574154Y-86911698D01*
X73582161Y-86889741D01*
X73596220Y-86871071D01*
X73701277Y-86653070D01*
X73707186Y-86630191D01*
X73719484Y-86610013D01*
X73803394Y-86380873D01*
X73807077Y-86357257D01*
X73817434Y-86335716D01*
X73878934Y-86096705D01*
X73880274Y-86072593D01*
X73888509Y-86049890D01*
X73926349Y-85802251D01*
X73925261Y-85777937D01*
X73931211Y-85754337D01*
X73944131Y-85499337D01*
X73940594Y-85475239D01*
X73944135Y-85451141D01*
X73931255Y-85196101D01*
X73925312Y-85172514D01*
X73926405Y-85148214D01*
X73888615Y-84900534D01*
X73880383Y-84877825D01*
X73879048Y-84853705D01*
X73817588Y-84614656D01*
X73807231Y-84593106D01*
X73803552Y-84569484D01*
X73719672Y-84340304D01*
X73707377Y-84320124D01*
X73701472Y-84297242D01*
X73596436Y-84079192D01*
X73582374Y-84060510D01*
X73574364Y-84038539D01*
X73449418Y-83832869D01*
X73433750Y-83815788D01*
X73423757Y-83794873D01*
X73280161Y-83602843D01*
X73263022Y-83587431D01*
X73251146Y-83567680D01*
X73090151Y-83390540D01*
X73071655Y-83376862D01*
X73057976Y-83358365D01*
X72880828Y-83197365D01*
X72861078Y-83185490D01*
X72845668Y-83168353D01*
X72653646Y-83024763D01*
X72632718Y-83014763D01*
X72615625Y-82999087D01*
X72409951Y-82874157D01*
X72388010Y-82866160D01*
X72369351Y-82852113D01*
X72151307Y-82747063D01*
X72128426Y-82741157D01*
X72108248Y-82728861D01*
X71879061Y-82644961D01*
X71855462Y-82641284D01*
X71833933Y-82630933D01*
X71594888Y-82569433D01*
X71570740Y-82568092D01*
X71548005Y-82559850D01*
X71300330Y-82522050D01*
X71276038Y-82523141D01*
X71252460Y-82517199D01*
X70997418Y-82504299D01*
X70995558Y-82504572D01*
X70995101Y-82504454D01*
X70510793Y-82477017D01*
X70064697Y-82406151D01*
X69634531Y-82292741D01*
X69222219Y-82139007D01*
X68829877Y-81947174D01*
X68459695Y-81719442D01*
X68113965Y-81458078D01*
X67795014Y-81165397D01*
X67505162Y-80843720D01*
X67246716Y-80495415D01*
X67021952Y-80122847D01*
X66833109Y-79728372D01*
X66682358Y-79314201D01*
X66571895Y-78882552D01*
X66540895Y-78678682D01*
X67572406Y-78678682D01*
X68093037Y-79938704D01*
X69056226Y-80903575D01*
X70315337Y-81426404D01*
X71678682Y-81427594D01*
X72938704Y-80906963D01*
X73903575Y-79943774D01*
X74426404Y-78684663D01*
X74427594Y-77321318D01*
X74136898Y-76617779D01*
X91501857Y-76617779D01*
X91627495Y-76921846D01*
X91859930Y-77154688D01*
X92163778Y-77280856D01*
X92403100Y-77281065D01*
X92498759Y-77344982D01*
X92710000Y-77387000D01*
X96545354Y-77387000D01*
X97746000Y-78587646D01*
X97746000Y-81407000D01*
X97788018Y-81618242D01*
X97907677Y-81797323D01*
X100448000Y-84337646D01*
X100448000Y-84457492D01*
X100097025Y-84692007D01*
X99820206Y-85106295D01*
X99730000Y-85559791D01*
X99639794Y-85106295D01*
X99362975Y-84692007D01*
X98948687Y-84415188D01*
X98460000Y-84317982D01*
X97971313Y-84415188D01*
X97557025Y-84692007D01*
X97280206Y-85106295D01*
X97190000Y-85559791D01*
X97099794Y-85106295D01*
X96822975Y-84692007D01*
X96408687Y-84415188D01*
X95920000Y-84317982D01*
X95431313Y-84415188D01*
X95017025Y-84692007D01*
X94740206Y-85106295D01*
X94708213Y-85267137D01*
X94482733Y-84795296D01*
X94083192Y-84436075D01*
X93719929Y-84285617D01*
X93507000Y-84381243D01*
X93507000Y-85493000D01*
X93527000Y-85493000D01*
X93527000Y-85747000D01*
X93507000Y-85747000D01*
X93507000Y-86858757D01*
X93719929Y-86954383D01*
X94083192Y-86803925D01*
X94482733Y-86444704D01*
X94708213Y-85972863D01*
X94740206Y-86133705D01*
X95017025Y-86547993D01*
X95431313Y-86824812D01*
X95920000Y-86922018D01*
X96408687Y-86824812D01*
X96822975Y-86547993D01*
X97099794Y-86133705D01*
X97190000Y-85680209D01*
X97280206Y-86133705D01*
X97557025Y-86547993D01*
X97971313Y-86824812D01*
X98460000Y-86922018D01*
X98948687Y-86824812D01*
X99362975Y-86547993D01*
X99639794Y-86133705D01*
X99730000Y-85680209D01*
X99820206Y-86133705D01*
X100097025Y-86547993D01*
X100511313Y-86824812D01*
X101000000Y-86922018D01*
X101488687Y-86824812D01*
X101902975Y-86547993D01*
X102179794Y-86133705D01*
X102270000Y-85680209D01*
X102360206Y-86133705D01*
X102637025Y-86547993D01*
X103051313Y-86824812D01*
X103540000Y-86922018D01*
X104028687Y-86824812D01*
X104442975Y-86547993D01*
X104719794Y-86133705D01*
X104810000Y-85680209D01*
X104900206Y-86133705D01*
X105177025Y-86547993D01*
X105591313Y-86824812D01*
X106080000Y-86922018D01*
X106568687Y-86824812D01*
X106982975Y-86547993D01*
X107259794Y-86133705D01*
X107350000Y-85680209D01*
X107440206Y-86133705D01*
X107717025Y-86547993D01*
X108131313Y-86824812D01*
X108620000Y-86922018D01*
X109108687Y-86824812D01*
X109522975Y-86547993D01*
X109799794Y-86133705D01*
X109890000Y-85680209D01*
X109980206Y-86133705D01*
X110257025Y-86547993D01*
X110671313Y-86824812D01*
X111160000Y-86922018D01*
X111648687Y-86824812D01*
X112062975Y-86547993D01*
X112339794Y-86133705D01*
X112430000Y-85680209D01*
X112520206Y-86133705D01*
X112797025Y-86547993D01*
X113211313Y-86824812D01*
X113700000Y-86922018D01*
X114188687Y-86824812D01*
X114602975Y-86547993D01*
X114879794Y-86133705D01*
X114970000Y-85680209D01*
X115060206Y-86133705D01*
X115337025Y-86547993D01*
X115751313Y-86824812D01*
X116240000Y-86922018D01*
X116728687Y-86824812D01*
X117142975Y-86547993D01*
X117419794Y-86133705D01*
X117510000Y-85680209D01*
X117600206Y-86133705D01*
X117877025Y-86547993D01*
X118291313Y-86824812D01*
X118780000Y-86922018D01*
X119268687Y-86824812D01*
X119682975Y-86547993D01*
X119959794Y-86133705D01*
X120050000Y-85680209D01*
X120140206Y-86133705D01*
X120417025Y-86547993D01*
X120831313Y-86824812D01*
X121320000Y-86922018D01*
X121808687Y-86824812D01*
X122222975Y-86547993D01*
X122499794Y-86133705D01*
X122597000Y-85645018D01*
X122597000Y-85594982D01*
X122499794Y-85106295D01*
X122222975Y-84692007D01*
X121808687Y-84415188D01*
X121320000Y-84317982D01*
X120831313Y-84415188D01*
X120417025Y-84692007D01*
X120140206Y-85106295D01*
X120050000Y-85559791D01*
X119959794Y-85106295D01*
X119682975Y-84692007D01*
X119268687Y-84415188D01*
X118780000Y-84317982D01*
X118291313Y-84415188D01*
X117877025Y-84692007D01*
X117600206Y-85106295D01*
X117510000Y-85559791D01*
X117419794Y-85106295D01*
X117142975Y-84692007D01*
X116728687Y-84415188D01*
X116240000Y-84317982D01*
X115751313Y-84415188D01*
X115337025Y-84692007D01*
X115060206Y-85106295D01*
X114970000Y-85559791D01*
X114879794Y-85106295D01*
X114602975Y-84692007D01*
X114188687Y-84415188D01*
X113700000Y-84317982D01*
X113211313Y-84415188D01*
X112797025Y-84692007D01*
X112520206Y-85106295D01*
X112430000Y-85559791D01*
X112339794Y-85106295D01*
X112062975Y-84692007D01*
X111648687Y-84415188D01*
X111160000Y-84317982D01*
X110671313Y-84415188D01*
X110257025Y-84692007D01*
X109980206Y-85106295D01*
X109890000Y-85559791D01*
X109799794Y-85106295D01*
X109522975Y-84692007D01*
X109108687Y-84415188D01*
X108620000Y-84317982D01*
X108131313Y-84415188D01*
X107717025Y-84692007D01*
X107440206Y-85106295D01*
X107350000Y-85559791D01*
X107259794Y-85106295D01*
X106982975Y-84692007D01*
X106568687Y-84415188D01*
X106080000Y-84317982D01*
X105591313Y-84415188D01*
X105177025Y-84692007D01*
X104900206Y-85106295D01*
X104810000Y-85559791D01*
X104719794Y-85106295D01*
X104539372Y-84836274D01*
X110696964Y-78678682D01*
X127572406Y-78678682D01*
X128093037Y-79938704D01*
X129056226Y-80903575D01*
X130315337Y-81426404D01*
X131678682Y-81427594D01*
X132938704Y-80906963D01*
X133903575Y-79943774D01*
X134426404Y-78684663D01*
X134427594Y-77321318D01*
X133906963Y-76061296D01*
X132943774Y-75096425D01*
X131684663Y-74573596D01*
X130321318Y-74572406D01*
X129061296Y-75093037D01*
X128096425Y-76056226D01*
X127573596Y-77315337D01*
X127572406Y-78678682D01*
X110696964Y-78678682D01*
X111586686Y-77788960D01*
X111796779Y-77789143D01*
X112100846Y-77663505D01*
X112333688Y-77431070D01*
X112459856Y-77127222D01*
X112460143Y-76798221D01*
X112334505Y-76494154D01*
X112102070Y-76261312D01*
X111798222Y-76135144D01*
X111469221Y-76134857D01*
X111165154Y-76260495D01*
X110932312Y-76492930D01*
X110806144Y-76796778D01*
X110805959Y-77008395D01*
X103485539Y-84328815D01*
X103051313Y-84415188D01*
X102637025Y-84692007D01*
X102360206Y-85106295D01*
X102270000Y-85559791D01*
X102179794Y-85106295D01*
X101902975Y-84692007D01*
X101552000Y-84457492D01*
X101552000Y-84109000D01*
X101524613Y-83971315D01*
X101509982Y-83897758D01*
X101390323Y-83718677D01*
X98850000Y-81178354D01*
X98850000Y-78359000D01*
X98807982Y-78147759D01*
X98688323Y-77968677D01*
X97164323Y-76444677D01*
X96985242Y-76325018D01*
X96774000Y-76283000D01*
X93153159Y-76283000D01*
X93030505Y-75986154D01*
X92798070Y-75753312D01*
X92494222Y-75627144D01*
X92165221Y-75626857D01*
X91861154Y-75752495D01*
X91628312Y-75984930D01*
X91502144Y-76288778D01*
X91501857Y-76617779D01*
X74136898Y-76617779D01*
X73906963Y-76061296D01*
X72943774Y-75096425D01*
X71684663Y-74573596D01*
X70321318Y-74572406D01*
X69061296Y-75093037D01*
X68096425Y-76056226D01*
X67573596Y-77315337D01*
X67572406Y-78678682D01*
X66540895Y-78678682D01*
X66503906Y-78435437D01*
X66480658Y-77974758D01*
X66504008Y-77512209D01*
X66572442Y-77063761D01*
X66683661Y-76631176D01*
X66835422Y-76216490D01*
X67025530Y-75821816D01*
X67251763Y-75449389D01*
X67511865Y-75101531D01*
X67803562Y-74780554D01*
X68124501Y-74488831D01*
X68472342Y-74228686D01*
X68844742Y-74002425D01*
X69239395Y-73812274D01*
X69654073Y-73660466D01*
X70086626Y-73549205D01*
X70535053Y-73480755D01*
X71006861Y-73456919D01*
X71043911Y-73457348D01*
X71091359Y-73458234D01*
X71140398Y-73460067D01*
X71140401Y-73460067D01*
X71193897Y-73462066D01*
X71193901Y-73462067D01*
X71238472Y-73463734D01*
X71278584Y-73466737D01*
X71327519Y-73471321D01*
X71327520Y-73471321D01*
X71380781Y-73476314D01*
X71380783Y-73476315D01*
X71429639Y-73480898D01*
X71478396Y-73486396D01*
X71478397Y-73486396D01*
X71527052Y-73491888D01*
X71575634Y-73498292D01*
X71575635Y-73498292D01*
X71624272Y-73504717D01*
X71668434Y-73511385D01*
X71716897Y-73519636D01*
X71716899Y-73519636D01*
X71769544Y-73528613D01*
X71814566Y-73527377D01*
X71858901Y-73535312D01*
X71906688Y-73524847D01*
X71955590Y-73523504D01*
X71996713Y-73505132D01*
X72040709Y-73495497D01*
X72080852Y-73467542D01*
X72125519Y-73447587D01*
X72156482Y-73414875D01*
X72193441Y-73389138D01*
X72219830Y-73347951D01*
X72250281Y-73315779D01*
X88834857Y-73315779D01*
X88960495Y-73619846D01*
X89192930Y-73852688D01*
X89496778Y-73978856D01*
X89708395Y-73979041D01*
X90033677Y-74304323D01*
X90212758Y-74423982D01*
X90424000Y-74466000D01*
X104580207Y-74466000D01*
X104456144Y-74764778D01*
X104455857Y-75093779D01*
X104581495Y-75397846D01*
X104731000Y-75547613D01*
X104731000Y-78376502D01*
X104582312Y-78524930D01*
X104456144Y-78828778D01*
X104455857Y-79157779D01*
X104581495Y-79461846D01*
X104813930Y-79694688D01*
X105117778Y-79820856D01*
X105446779Y-79821143D01*
X105750846Y-79695505D01*
X105983688Y-79463070D01*
X106109856Y-79159222D01*
X106110143Y-78830221D01*
X105984505Y-78526154D01*
X105835000Y-78376387D01*
X105835000Y-75547498D01*
X105983688Y-75399070D01*
X106109856Y-75095222D01*
X106110143Y-74766221D01*
X105986094Y-74466000D01*
X109474000Y-74466000D01*
X109500065Y-74460815D01*
X109562778Y-74486856D01*
X109891779Y-74487143D01*
X110195846Y-74361505D01*
X110428688Y-74129070D01*
X110554856Y-73825222D01*
X110555044Y-73609531D01*
X110832778Y-73724856D01*
X111161779Y-73725143D01*
X111465846Y-73599505D01*
X111698688Y-73367070D01*
X111824856Y-73063222D01*
X111825143Y-72734221D01*
X111699505Y-72430154D01*
X111467070Y-72197312D01*
X111163222Y-72071144D01*
X110834221Y-72070857D01*
X110530154Y-72196495D01*
X110380387Y-72346000D01*
X91549498Y-72346000D01*
X91401070Y-72197312D01*
X91097222Y-72071144D01*
X90768221Y-72070857D01*
X90464154Y-72196495D01*
X90231312Y-72428930D01*
X90195301Y-72515655D01*
X90131070Y-72451312D01*
X89827222Y-72325144D01*
X89498221Y-72324857D01*
X89194154Y-72450495D01*
X88961312Y-72682930D01*
X88835144Y-72986778D01*
X88834857Y-73315779D01*
X72250281Y-73315779D01*
X72253461Y-73312420D01*
X72269549Y-73270348D01*
X72293845Y-73232427D01*
X72720512Y-72143568D01*
X73217467Y-71120397D01*
X73666260Y-70354982D01*
X79403000Y-70354982D01*
X79403000Y-70405018D01*
X79500206Y-70893705D01*
X79777025Y-71307993D01*
X80191313Y-71584812D01*
X80680000Y-71682018D01*
X81168687Y-71584812D01*
X81582975Y-71307993D01*
X81859794Y-70893705D01*
X81950000Y-70440209D01*
X82040206Y-70893705D01*
X82317025Y-71307993D01*
X82731313Y-71584812D01*
X83220000Y-71682018D01*
X83708687Y-71584812D01*
X84122975Y-71307993D01*
X84399794Y-70893705D01*
X84490000Y-70440209D01*
X84580206Y-70893705D01*
X84857025Y-71307993D01*
X85271313Y-71584812D01*
X85760000Y-71682018D01*
X86248687Y-71584812D01*
X86662975Y-71307993D01*
X86939794Y-70893705D01*
X86971787Y-70732863D01*
X87197267Y-71204704D01*
X87596808Y-71563925D01*
X87960071Y-71714383D01*
X88173000Y-71618757D01*
X88173000Y-70507000D01*
X88153000Y-70507000D01*
X88153000Y-70253000D01*
X88173000Y-70253000D01*
X88173000Y-69141243D01*
X88427000Y-69141243D01*
X88427000Y-70253000D01*
X88447000Y-70253000D01*
X88447000Y-70507000D01*
X88427000Y-70507000D01*
X88427000Y-71618757D01*
X88639929Y-71714383D01*
X89003192Y-71563925D01*
X89402733Y-71204704D01*
X89628213Y-70732863D01*
X89660206Y-70893705D01*
X89937025Y-71307993D01*
X90351313Y-71584812D01*
X90840000Y-71682018D01*
X91328687Y-71584812D01*
X91742975Y-71307993D01*
X92019794Y-70893705D01*
X92110000Y-70440209D01*
X92200206Y-70893705D01*
X92477025Y-71307993D01*
X92891313Y-71584812D01*
X93380000Y-71682018D01*
X93868687Y-71584812D01*
X94282975Y-71307993D01*
X94559794Y-70893705D01*
X94650000Y-70440209D01*
X94740206Y-70893705D01*
X95017025Y-71307993D01*
X95431313Y-71584812D01*
X95920000Y-71682018D01*
X96408687Y-71584812D01*
X96822975Y-71307993D01*
X97099794Y-70893705D01*
X97190000Y-70440209D01*
X97280206Y-70893705D01*
X97557025Y-71307993D01*
X97971313Y-71584812D01*
X98460000Y-71682018D01*
X98948687Y-71584812D01*
X99362975Y-71307993D01*
X99639794Y-70893705D01*
X99730000Y-70440209D01*
X99820206Y-70893705D01*
X100097025Y-71307993D01*
X100511313Y-71584812D01*
X101000000Y-71682018D01*
X101488687Y-71584812D01*
X101902975Y-71307993D01*
X102179794Y-70893705D01*
X102270000Y-70440209D01*
X102360206Y-70893705D01*
X102637025Y-71307993D01*
X103051313Y-71584812D01*
X103540000Y-71682018D01*
X104028687Y-71584812D01*
X104442975Y-71307993D01*
X104719794Y-70893705D01*
X104810000Y-70440209D01*
X104900206Y-70893705D01*
X105177025Y-71307993D01*
X105591313Y-71584812D01*
X106080000Y-71682018D01*
X106568687Y-71584812D01*
X106982975Y-71307993D01*
X107259794Y-70893705D01*
X107350000Y-70440209D01*
X107440206Y-70893705D01*
X107717025Y-71307993D01*
X108131313Y-71584812D01*
X108620000Y-71682018D01*
X109108687Y-71584812D01*
X109522975Y-71307993D01*
X109799794Y-70893705D01*
X109890000Y-70440209D01*
X109980206Y-70893705D01*
X110257025Y-71307993D01*
X110671313Y-71584812D01*
X111160000Y-71682018D01*
X111648687Y-71584812D01*
X112062975Y-71307993D01*
X112339794Y-70893705D01*
X112430000Y-70440209D01*
X112520206Y-70893705D01*
X112797025Y-71307993D01*
X113211313Y-71584812D01*
X113700000Y-71682018D01*
X114188687Y-71584812D01*
X114602975Y-71307993D01*
X114879794Y-70893705D01*
X114970000Y-70440209D01*
X115060206Y-70893705D01*
X115337025Y-71307993D01*
X115751313Y-71584812D01*
X116240000Y-71682018D01*
X116728687Y-71584812D01*
X117142975Y-71307993D01*
X117419794Y-70893705D01*
X117510000Y-70440209D01*
X117600206Y-70893705D01*
X117877025Y-71307993D01*
X118291313Y-71584812D01*
X118780000Y-71682018D01*
X119268687Y-71584812D01*
X119682975Y-71307993D01*
X119959794Y-70893705D01*
X120050000Y-70440209D01*
X120140206Y-70893705D01*
X120417025Y-71307993D01*
X120831313Y-71584812D01*
X121320000Y-71682018D01*
X121808687Y-71584812D01*
X122222975Y-71307993D01*
X122499794Y-70893705D01*
X122597000Y-70405018D01*
X122597000Y-70354982D01*
X122499794Y-69866295D01*
X122222975Y-69452007D01*
X121808687Y-69175188D01*
X121320000Y-69077982D01*
X120831313Y-69175188D01*
X120417025Y-69452007D01*
X120140206Y-69866295D01*
X120050000Y-70319791D01*
X119959794Y-69866295D01*
X119682975Y-69452007D01*
X119268687Y-69175188D01*
X118780000Y-69077982D01*
X118291313Y-69175188D01*
X117877025Y-69452007D01*
X117600206Y-69866295D01*
X117510000Y-70319791D01*
X117419794Y-69866295D01*
X117142975Y-69452007D01*
X116728687Y-69175188D01*
X116240000Y-69077982D01*
X115751313Y-69175188D01*
X115337025Y-69452007D01*
X115060206Y-69866295D01*
X114970000Y-70319791D01*
X114879794Y-69866295D01*
X114602975Y-69452007D01*
X114188687Y-69175188D01*
X113700000Y-69077982D01*
X113211313Y-69175188D01*
X112797025Y-69452007D01*
X112520206Y-69866295D01*
X112430000Y-70319791D01*
X112339794Y-69866295D01*
X112062975Y-69452007D01*
X111648687Y-69175188D01*
X111160000Y-69077982D01*
X110671313Y-69175188D01*
X110257025Y-69452007D01*
X109980206Y-69866295D01*
X109890000Y-70319791D01*
X109799794Y-69866295D01*
X109522975Y-69452007D01*
X109108687Y-69175188D01*
X108620000Y-69077982D01*
X108131313Y-69175188D01*
X107717025Y-69452007D01*
X107440206Y-69866295D01*
X107350000Y-70319791D01*
X107259794Y-69866295D01*
X106982975Y-69452007D01*
X106568687Y-69175188D01*
X106080000Y-69077982D01*
X105591313Y-69175188D01*
X105177025Y-69452007D01*
X104900206Y-69866295D01*
X104810000Y-70319791D01*
X104719794Y-69866295D01*
X104442975Y-69452007D01*
X104028687Y-69175188D01*
X103540000Y-69077982D01*
X103051313Y-69175188D01*
X102637025Y-69452007D01*
X102360206Y-69866295D01*
X102270000Y-70319791D01*
X102179794Y-69866295D01*
X101902975Y-69452007D01*
X101488687Y-69175188D01*
X101000000Y-69077982D01*
X100511313Y-69175188D01*
X100097025Y-69452007D01*
X99820206Y-69866295D01*
X99730000Y-70319791D01*
X99639794Y-69866295D01*
X99362975Y-69452007D01*
X98948687Y-69175188D01*
X98460000Y-69077982D01*
X97971313Y-69175188D01*
X97557025Y-69452007D01*
X97280206Y-69866295D01*
X97190000Y-70319791D01*
X97099794Y-69866295D01*
X96822975Y-69452007D01*
X96408687Y-69175188D01*
X95920000Y-69077982D01*
X95431313Y-69175188D01*
X95017025Y-69452007D01*
X94740206Y-69866295D01*
X94650000Y-70319791D01*
X94559794Y-69866295D01*
X94282975Y-69452007D01*
X93868687Y-69175188D01*
X93380000Y-69077982D01*
X92891313Y-69175188D01*
X92477025Y-69452007D01*
X92200206Y-69866295D01*
X92110000Y-70319791D01*
X92019794Y-69866295D01*
X91742975Y-69452007D01*
X91328687Y-69175188D01*
X90840000Y-69077982D01*
X90351313Y-69175188D01*
X89937025Y-69452007D01*
X89660206Y-69866295D01*
X89628213Y-70027137D01*
X89402733Y-69555296D01*
X89003192Y-69196075D01*
X88639929Y-69045617D01*
X88427000Y-69141243D01*
X88173000Y-69141243D01*
X87960071Y-69045617D01*
X87596808Y-69196075D01*
X87197267Y-69555296D01*
X86971787Y-70027137D01*
X86939794Y-69866295D01*
X86662975Y-69452007D01*
X86248687Y-69175188D01*
X85760000Y-69077982D01*
X85271313Y-69175188D01*
X84857025Y-69452007D01*
X84580206Y-69866295D01*
X84490000Y-70319791D01*
X84399794Y-69866295D01*
X84122975Y-69452007D01*
X83708687Y-69175188D01*
X83220000Y-69077982D01*
X82731313Y-69175188D01*
X82317025Y-69452007D01*
X82040206Y-69866295D01*
X81950000Y-70319791D01*
X81859794Y-69866295D01*
X81582975Y-69452007D01*
X81168687Y-69175188D01*
X80680000Y-69077982D01*
X80191313Y-69175188D01*
X79777025Y-69452007D01*
X79500206Y-69866295D01*
X79403000Y-70354982D01*
X73666260Y-70354982D01*
X73787539Y-70148142D01*
X74426695Y-69229613D01*
X75130856Y-68367713D01*
X75895961Y-67565324D01*
X76717938Y-66825370D01*
X77592655Y-66150791D01*
X78516051Y-65544501D01*
X79483960Y-65009435D01*
X80492328Y-64548492D01*
X81537021Y-64164592D01*
X82613996Y-63860644D01*
X83719182Y-63639486D01*
X84848571Y-63504063D01*
X86001449Y-63457162D01*
X86002896Y-63457450D01*
X86005088Y-63457014D01*
X86017085Y-63456526D01*
X86061608Y-63445772D01*
X86066466Y-63444805D01*
X86129911Y-63440109D01*
X86136337Y-63436873D01*
X86144156Y-63436054D01*
X86163666Y-63425471D01*
X86185436Y-63421141D01*
X86197811Y-63412872D01*
X86197998Y-63412827D01*
X86199315Y-63411867D01*
X86240141Y-63384588D01*
X86296133Y-63356386D01*
X86300614Y-63351188D01*
X86307755Y-63347315D01*
X86321730Y-63330072D01*
X86340186Y-63317740D01*
X86377160Y-63262404D01*
X86417663Y-63215426D01*
X86419734Y-63209151D01*
X86424943Y-63202724D01*
X86430763Y-63183104D01*
X86433803Y-63179018D01*
X86434364Y-63176794D01*
X86443587Y-63162990D01*
X86456655Y-63097291D01*
X86472094Y-63050516D01*
X86462731Y-63847216D01*
X87132326Y-65519063D01*
X87192594Y-65609261D01*
X87740846Y-66079549D01*
X90344200Y-63476195D01*
X90496275Y-63476195D01*
X90496275Y-63683330D01*
X87920451Y-66259154D01*
X88390739Y-66807406D01*
X90046388Y-67516105D01*
X91847216Y-67537269D01*
X93519063Y-66867674D01*
X93609261Y-66807406D01*
X94079549Y-66259154D01*
X91450275Y-63629880D01*
X91450275Y-63476195D01*
X91655800Y-63476195D01*
X94259154Y-66079549D01*
X94807406Y-65609261D01*
X95516105Y-63953612D01*
X95525265Y-63174182D01*
X95526072Y-63178240D01*
X95536011Y-63254886D01*
X95544127Y-63269006D01*
X95547304Y-63284980D01*
X95590241Y-63349240D01*
X95628755Y-63416249D01*
X95641657Y-63426189D01*
X95650705Y-63439730D01*
X95714962Y-63482666D01*
X95776190Y-63529837D01*
X95791914Y-63534083D01*
X95805455Y-63543131D01*
X95881258Y-63558209D01*
X95955871Y-63578357D01*
X95972022Y-63576263D01*
X95987995Y-63579440D01*
X106009125Y-63579440D01*
X106020394Y-63577199D01*
X106031757Y-63578903D01*
X106111290Y-63559118D01*
X106191665Y-63543131D01*
X106201218Y-63536748D01*
X106212369Y-63533974D01*
X106278276Y-63485259D01*
X106346415Y-63439730D01*
X106352799Y-63430176D01*
X106362038Y-63423347D01*
X106404284Y-63353123D01*
X106449816Y-63284980D01*
X106452057Y-63273712D01*
X106457981Y-63263865D01*
X106470138Y-63182811D01*
X106470565Y-63180669D01*
X106462731Y-63847216D01*
X107132326Y-65519063D01*
X107192594Y-65609261D01*
X107740846Y-66079549D01*
X110344200Y-63476195D01*
X110496275Y-63476195D01*
X110496275Y-63683330D01*
X107920451Y-66259154D01*
X108390739Y-66807406D01*
X110046388Y-67516105D01*
X111847216Y-67537269D01*
X113519063Y-66867674D01*
X113609261Y-66807406D01*
X114079549Y-66259154D01*
X111450275Y-63629880D01*
X111450275Y-63476195D01*
X111655800Y-63476195D01*
X114259154Y-66079549D01*
X114807406Y-65609261D01*
X115516105Y-63953612D01*
X115526901Y-63035012D01*
X115535232Y-63068076D01*
X115535232Y-63068076D01*
G37*
X115535232Y-63068076D02*
X115546363Y-63138955D01*
X115557811Y-63157692D01*
X115563176Y-63178983D01*
X115605995Y-63236550D01*
X115643402Y-63297772D01*
X115661149Y-63310701D01*
X115674253Y-63328319D01*
X115735843Y-63365118D01*
X115793830Y-63407364D01*
X115815173Y-63412517D01*
X115834023Y-63423780D01*
X115905009Y-63434209D01*
X115974747Y-63451047D01*
X117143326Y-63498485D01*
X118272793Y-63633859D01*
X119378061Y-63854989D01*
X120455086Y-64158973D01*
X121499843Y-64542914D01*
X122508240Y-65003895D01*
X123476202Y-65539035D01*
X124399617Y-66145405D01*
X125274362Y-66820079D01*
X126096340Y-67560136D01*
X126861437Y-68362633D01*
X127565576Y-69224649D01*
X128204686Y-70143299D01*
X128774702Y-71115680D01*
X129271584Y-72138982D01*
X129698155Y-73227958D01*
X129722334Y-73265706D01*
X129738305Y-73307596D01*
X129772041Y-73343309D01*
X129798541Y-73384680D01*
X129835329Y-73410304D01*
X129866112Y-73442891D01*
X129910945Y-73462975D01*
X129951261Y-73491056D01*
X129995054Y-73500651D01*
X130035965Y-73518978D01*
X130085073Y-73520376D01*
X130133064Y-73530891D01*
X130177194Y-73522998D01*
X130222006Y-73524273D01*
X130270711Y-73516018D01*
X130319527Y-73508677D01*
X130368334Y-73501338D01*
X130417093Y-73494934D01*
X130466107Y-73488509D01*
X130510780Y-73483499D01*
X130559797Y-73478918D01*
X130559799Y-73478918D01*
X130609013Y-73474327D01*
X130658127Y-73470662D01*
X130658128Y-73470662D01*
X130707428Y-73466990D01*
X130756651Y-73464240D01*
X130756652Y-73464240D01*
X130810453Y-73461240D01*
X130855399Y-73458734D01*
X130899230Y-73457919D01*
X130949679Y-73457253D01*
X130988441Y-73457045D01*
X131461719Y-73480956D01*
X131910157Y-73549406D01*
X132342705Y-73660656D01*
X132757377Y-73812463D01*
X133152031Y-74002612D01*
X133524438Y-74228887D01*
X133872269Y-74489021D01*
X134193211Y-74780745D01*
X134484902Y-75101717D01*
X134745016Y-75449595D01*
X134971247Y-75822016D01*
X135161351Y-76216686D01*
X135313102Y-76631374D01*
X135424326Y-77063970D01*
X135492779Y-77512427D01*
X135516147Y-77974960D01*
X135492779Y-78437493D01*
X135424325Y-78885957D01*
X135313114Y-79318537D01*
X135161353Y-79733229D01*
X134971247Y-80127904D01*
X134745016Y-80500325D01*
X134484901Y-80848195D01*
X134193212Y-81169175D01*
X133872269Y-81460899D01*
X133524429Y-81721039D01*
X133152038Y-81947314D01*
X132757380Y-82137456D01*
X132342705Y-82289264D01*
X131910159Y-82400513D01*
X131461726Y-82468965D01*
X130998541Y-82492365D01*
X130997880Y-82492342D01*
X130997377Y-82492424D01*
X130984818Y-82493058D01*
X130979195Y-82491940D01*
X130964782Y-82494807D01*
X130950224Y-82492821D01*
X130697134Y-82508221D01*
X130673587Y-82514412D01*
X130649254Y-82513572D01*
X130403613Y-82553672D01*
X130380952Y-82562154D01*
X130356810Y-82563747D01*
X130119860Y-82627347D01*
X130098373Y-82637955D01*
X130074733Y-82641899D01*
X129847674Y-82727799D01*
X129827678Y-82740280D01*
X129804918Y-82746411D01*
X129588988Y-82853251D01*
X129570531Y-82867452D01*
X129548734Y-82875650D01*
X129345164Y-83002170D01*
X129328343Y-83017917D01*
X129307648Y-83028050D01*
X129117648Y-83172991D01*
X129102524Y-83190139D01*
X129083030Y-83202095D01*
X128907830Y-83364174D01*
X128894453Y-83382601D01*
X128876255Y-83396281D01*
X128717066Y-83574220D01*
X128705470Y-83593853D01*
X128688618Y-83609216D01*
X128546679Y-83801756D01*
X128536940Y-83822502D01*
X128521543Y-83839482D01*
X128398093Y-84045342D01*
X128390324Y-84067040D01*
X128376544Y-84085512D01*
X128272734Y-84303422D01*
X128267000Y-84326043D01*
X128254920Y-84346009D01*
X128172020Y-84574699D01*
X128168449Y-84598102D01*
X128158239Y-84619462D01*
X128097539Y-84857642D01*
X128096272Y-84881448D01*
X128088166Y-84903864D01*
X128050766Y-85150284D01*
X128051869Y-85174392D01*
X128045973Y-85197793D01*
X128033173Y-85451163D01*
X128036722Y-85475323D01*
X128033182Y-85499488D01*
X128046082Y-85752818D01*
X128051965Y-85776129D01*
X128050867Y-85800148D01*
X128088267Y-86046527D01*
X128096407Y-86069036D01*
X128097690Y-86092939D01*
X128158490Y-86331079D01*
X128168672Y-86352356D01*
X128172231Y-86375672D01*
X128255131Y-86604313D01*
X128267213Y-86624279D01*
X128272948Y-86646899D01*
X128376759Y-86864769D01*
X128390561Y-86883268D01*
X128398346Y-86904996D01*
X128521826Y-87110806D01*
X128537212Y-87127767D01*
X128546946Y-87148495D01*
X128688896Y-87340995D01*
X128705740Y-87356346D01*
X128717331Y-87375968D01*
X128876511Y-87553868D01*
X128894724Y-87567557D01*
X128908113Y-87585995D01*
X129083324Y-87748035D01*
X129102807Y-87759981D01*
X129117928Y-87777121D01*
X129307919Y-87922021D01*
X129328618Y-87932153D01*
X129345443Y-87947900D01*
X129549003Y-88074380D01*
X129570782Y-88082568D01*
X129589224Y-88096757D01*
X129805134Y-88203577D01*
X129827875Y-88209702D01*
X129847854Y-88222174D01*
X130074884Y-88308074D01*
X130098527Y-88312020D01*
X130120020Y-88322631D01*
X130356950Y-88386231D01*
X130381187Y-88387831D01*
X130403938Y-88396337D01*
X130649538Y-88436337D01*
X130673686Y-88435494D01*
X130697053Y-88441648D01*
X130950113Y-88457148D01*
X130964769Y-88455155D01*
X130979275Y-88458040D01*
X130984695Y-88456962D01*
X130995619Y-88457514D01*
X130996579Y-88457675D01*
X130997979Y-88457633D01*
X130998268Y-88457648D01*
X130998340Y-88457659D01*
X130998426Y-88457656D01*
X131460799Y-88481016D01*
X131909237Y-88549466D01*
X132341785Y-88660716D01*
X132756457Y-88812523D01*
X133151111Y-89002672D01*
X133523518Y-89228947D01*
X133871349Y-89489081D01*
X134192291Y-89780805D01*
X134483982Y-90101777D01*
X134744096Y-90449655D01*
X134970327Y-90822076D01*
X135160431Y-91216746D01*
X135312182Y-91631434D01*
X135423406Y-92064030D01*
X135491859Y-92512487D01*
X135515227Y-92975020D01*
X135491859Y-93437553D01*
X135426245Y-93867411D01*
X135427767Y-92123279D01*
X134755216Y-90495582D01*
X133510968Y-89249160D01*
X131884448Y-88573770D01*
X130123279Y-88572233D01*
X128495582Y-89244784D01*
X128260301Y-89479655D01*
X126917000Y-88136354D01*
X126917000Y-84201000D01*
X126884685Y-84038539D01*
X126874982Y-83989758D01*
X126755323Y-83810677D01*
X125739323Y-82794677D01*
X125560242Y-82675018D01*
X125349000Y-82633000D01*
X121267498Y-82633000D01*
X121119070Y-82484312D01*
X120815222Y-82358144D01*
X120486221Y-82357857D01*
X120182154Y-82483495D01*
X119949312Y-82715930D01*
X119823144Y-83019778D01*
X119822857Y-83348779D01*
X119948495Y-83652846D01*
X120180930Y-83885688D01*
X120484778Y-84011856D01*
X120813779Y-84012143D01*
X121117846Y-83886505D01*
X121267613Y-83737000D01*
X125120354Y-83737000D01*
X125813000Y-84429646D01*
X125813000Y-88365000D01*
X125855018Y-88576242D01*
X125974677Y-88755323D01*
X127478973Y-90259619D01*
X127249160Y-90489032D01*
X126573770Y-92115552D01*
X126572233Y-93876721D01*
X127238971Y-95490349D01*
X127023936Y-95140344D01*
X126832228Y-94747601D01*
X126678686Y-94334903D01*
X126565585Y-93904427D01*
X126495165Y-93457928D01*
X126468104Y-92973145D01*
X126467191Y-92969599D01*
X126469238Y-92955664D01*
X126443438Y-92444944D01*
X126437492Y-92421346D01*
X126438584Y-92397038D01*
X126362884Y-91901077D01*
X126354653Y-91878373D01*
X126353317Y-91854261D01*
X126230227Y-91375561D01*
X126219875Y-91354023D01*
X126216198Y-91330411D01*
X126048238Y-90871481D01*
X126035939Y-90851294D01*
X126030032Y-90828405D01*
X125819692Y-90391765D01*
X125805630Y-90373084D01*
X125797621Y-90351116D01*
X125547421Y-89939276D01*
X125531754Y-89922196D01*
X125521762Y-89901283D01*
X125234212Y-89516744D01*
X125217075Y-89501334D01*
X125205198Y-89481581D01*
X124882807Y-89126860D01*
X124864312Y-89113183D01*
X124850635Y-89094688D01*
X124495915Y-88772298D01*
X124476164Y-88760423D01*
X124460755Y-88743286D01*
X124076226Y-88455736D01*
X124055307Y-88445741D01*
X124038225Y-88430072D01*
X123626375Y-88179871D01*
X123604404Y-88171862D01*
X123585722Y-88157799D01*
X123149082Y-87947469D01*
X123126191Y-87941562D01*
X123106005Y-87929264D01*
X122647075Y-87761314D01*
X122623474Y-87757639D01*
X122601943Y-87747290D01*
X122123243Y-87624190D01*
X122099125Y-87622854D01*
X122076418Y-87614621D01*
X121580458Y-87538921D01*
X121556149Y-87540013D01*
X121532551Y-87534067D01*
X121021831Y-87508267D01*
X120997765Y-87511803D01*
X120973699Y-87508267D01*
X120462979Y-87534067D01*
X120439381Y-87540013D01*
X120415073Y-87538921D01*
X119919112Y-87614621D01*
X119896414Y-87622850D01*
X119872306Y-87624185D01*
X119393605Y-87747266D01*
X119372060Y-87757621D01*
X119348437Y-87761300D01*
X118889507Y-87929270D01*
X118869328Y-87941565D01*
X118846448Y-87947469D01*
X118409808Y-88157799D01*
X118391123Y-88171864D01*
X118369151Y-88179874D01*
X117957311Y-88430074D01*
X117940231Y-88445741D01*
X117919318Y-88455733D01*
X117534779Y-88743283D01*
X117519369Y-88760420D01*
X117499616Y-88772297D01*
X117144895Y-89094688D01*
X117131218Y-89113183D01*
X117112723Y-89126860D01*
X116790333Y-89481580D01*
X116778457Y-89501331D01*
X116761317Y-89516744D01*
X116473768Y-89901284D01*
X116463777Y-89922195D01*
X116448109Y-89939276D01*
X116197909Y-90351116D01*
X116189899Y-90373088D01*
X116175834Y-90391773D01*
X115965504Y-90828413D01*
X115959597Y-90851304D01*
X115947299Y-90871490D01*
X115779349Y-91330420D01*
X115775674Y-91354021D01*
X115765325Y-91375552D01*
X115642225Y-91854252D01*
X115640889Y-91878370D01*
X115632656Y-91901077D01*
X115556956Y-92397037D01*
X115558048Y-92421346D01*
X115552102Y-92444944D01*
X115526302Y-92955664D01*
X115528356Y-92969645D01*
X115527431Y-92973239D01*
X115526244Y-92994582D01*
X115526000Y-92996034D01*
X115526057Y-92997938D01*
X115500471Y-93457925D01*
X115429967Y-93904374D01*
X115316856Y-94334929D01*
X115163357Y-94747634D01*
X114971677Y-95140366D01*
X114765042Y-95476765D01*
X115426230Y-93884448D01*
X115427767Y-92123279D01*
X114755216Y-90495582D01*
X113510968Y-89249160D01*
X111884448Y-88573770D01*
X110123279Y-88572233D01*
X108495582Y-89244784D01*
X107249160Y-90489032D01*
X106573770Y-92115552D01*
X106572233Y-93876721D01*
X107239236Y-95490991D01*
X107023865Y-95140368D01*
X106832196Y-94747629D01*
X106678703Y-94334919D01*
X106565583Y-93904409D01*
X106495165Y-93457918D01*
X106468104Y-92973135D01*
X106467191Y-92969589D01*
X106469238Y-92955654D01*
X106443438Y-92444934D01*
X106437492Y-92421336D01*
X106438584Y-92397028D01*
X106362884Y-91901067D01*
X106354655Y-91878369D01*
X106353320Y-91854261D01*
X106230239Y-91375560D01*
X106219884Y-91354015D01*
X106216205Y-91330392D01*
X106048235Y-90871462D01*
X106035940Y-90851283D01*
X106030036Y-90828403D01*
X105819706Y-90391763D01*
X105805641Y-90373078D01*
X105797631Y-90351106D01*
X105547431Y-89939266D01*
X105531764Y-89922186D01*
X105521772Y-89901273D01*
X105234222Y-89516734D01*
X105217085Y-89501324D01*
X105205208Y-89481571D01*
X104882817Y-89126850D01*
X104864322Y-89113173D01*
X104850645Y-89094678D01*
X104495925Y-88772288D01*
X104476174Y-88760412D01*
X104460761Y-88743272D01*
X104076221Y-88455723D01*
X104055307Y-88445730D01*
X104038225Y-88430062D01*
X103626375Y-88179861D01*
X103604404Y-88171852D01*
X103585722Y-88157789D01*
X103149082Y-87947459D01*
X103126191Y-87941552D01*
X103106005Y-87929254D01*
X102647075Y-87761304D01*
X102623474Y-87757629D01*
X102601943Y-87747280D01*
X102123243Y-87624180D01*
X102099125Y-87622844D01*
X102076418Y-87614611D01*
X101580458Y-87538911D01*
X101556149Y-87540003D01*
X101532551Y-87534057D01*
X101021831Y-87508257D01*
X100997765Y-87511793D01*
X100973699Y-87508257D01*
X100462979Y-87534057D01*
X100439381Y-87540003D01*
X100415073Y-87538911D01*
X99919112Y-87614611D01*
X99896414Y-87622840D01*
X99872306Y-87624175D01*
X99393605Y-87747256D01*
X99372060Y-87757611D01*
X99348437Y-87761290D01*
X98889507Y-87929260D01*
X98869328Y-87941555D01*
X98846448Y-87947459D01*
X98409808Y-88157789D01*
X98391123Y-88171854D01*
X98369151Y-88179864D01*
X97957311Y-88430064D01*
X97940227Y-88445734D01*
X97919314Y-88455727D01*
X97534784Y-88743276D01*
X97519375Y-88760413D01*
X97499626Y-88772287D01*
X97144905Y-89094678D01*
X97131228Y-89113173D01*
X97112733Y-89126850D01*
X96790343Y-89481570D01*
X96778467Y-89501321D01*
X96761327Y-89516734D01*
X96473778Y-89901274D01*
X96463787Y-89922185D01*
X96448119Y-89939266D01*
X96197919Y-90351106D01*
X96189910Y-90373074D01*
X96175848Y-90391755D01*
X95965508Y-90828395D01*
X95959599Y-90851290D01*
X95947299Y-90871480D01*
X95779349Y-91330410D01*
X95775674Y-91354011D01*
X95765325Y-91375542D01*
X95642225Y-91854242D01*
X95640889Y-91878360D01*
X95632656Y-91901067D01*
X95556956Y-92397027D01*
X95558048Y-92421336D01*
X95552102Y-92444934D01*
X95526302Y-92955654D01*
X95528356Y-92969635D01*
X95527431Y-92973229D01*
X95526244Y-92994572D01*
X95526000Y-92996024D01*
X95526057Y-92997928D01*
X95500471Y-93457915D01*
X95429967Y-93904364D01*
X95316856Y-94334919D01*
X95163357Y-94747624D01*
X94971677Y-95140356D01*
X94765055Y-95476734D01*
X95426230Y-93884448D01*
X95427767Y-92123279D01*
X94755216Y-90495582D01*
X93510968Y-89249160D01*
X91884448Y-88573770D01*
X90123279Y-88572233D01*
X88495582Y-89244784D01*
X87249160Y-90489032D01*
X86573770Y-92115552D01*
X86572233Y-93876721D01*
X87239232Y-95490980D01*
X87023856Y-95140355D01*
X86832188Y-94747617D01*
X86678682Y-94334907D01*
X86565567Y-93904356D01*
X86495068Y-93457927D01*
X86469564Y-92998760D01*
X86469571Y-92998728D01*
X86469634Y-92996728D01*
X86469359Y-92995075D01*
X86468147Y-92973255D01*
X86467282Y-92969895D01*
X86469374Y-92955662D01*
X86443594Y-92444943D01*
X86437648Y-92421342D01*
X86438741Y-92397026D01*
X86363051Y-91901067D01*
X86354820Y-91878363D01*
X86353485Y-91854249D01*
X86230403Y-91375549D01*
X86220049Y-91354004D01*
X86216370Y-91330386D01*
X86048404Y-90871456D01*
X86036108Y-90851273D01*
X86030201Y-90828387D01*
X85819863Y-90391747D01*
X85805801Y-90373066D01*
X85797792Y-90351097D01*
X85547592Y-89939257D01*
X85531926Y-89922178D01*
X85521933Y-89901263D01*
X85234383Y-89516724D01*
X85217246Y-89501314D01*
X85205369Y-89481561D01*
X84882978Y-89126840D01*
X84864483Y-89113163D01*
X84850806Y-89094668D01*
X84496087Y-88772278D01*
X84476336Y-88760402D01*
X84460924Y-88743263D01*
X84076386Y-88455713D01*
X84055471Y-88445720D01*
X84038391Y-88430053D01*
X83626547Y-88179853D01*
X83604577Y-88171844D01*
X83585892Y-88157779D01*
X83149250Y-87947449D01*
X83126361Y-87941542D01*
X83106174Y-87929244D01*
X82647243Y-87761294D01*
X82623641Y-87757619D01*
X82602112Y-87747271D01*
X82123417Y-87624171D01*
X82099300Y-87622835D01*
X82076590Y-87614601D01*
X81580625Y-87538901D01*
X81556317Y-87539993D01*
X81532719Y-87534047D01*
X81022002Y-87508247D01*
X80997936Y-87511783D01*
X80973870Y-87508247D01*
X80463151Y-87534047D01*
X80439553Y-87539993D01*
X80415245Y-87538901D01*
X79919282Y-87614601D01*
X79896584Y-87622830D01*
X79872475Y-87624165D01*
X79393774Y-87747246D01*
X79372227Y-87757602D01*
X79348605Y-87761281D01*
X78889679Y-87929251D01*
X78869501Y-87941545D01*
X78846622Y-87947449D01*
X78409981Y-88157779D01*
X78391297Y-88171843D01*
X78369324Y-88179853D01*
X77957481Y-88430053D01*
X77940401Y-88445720D01*
X77919486Y-88455713D01*
X77534948Y-88743263D01*
X77519536Y-88760402D01*
X77499785Y-88772278D01*
X77145066Y-89094668D01*
X77131389Y-89113163D01*
X77112894Y-89126840D01*
X76790504Y-89481560D01*
X76778628Y-89501311D01*
X76761488Y-89516724D01*
X76473939Y-89901264D01*
X76463948Y-89922175D01*
X76448280Y-89939256D01*
X76198081Y-90351097D01*
X76190073Y-90373064D01*
X76176009Y-90391747D01*
X75965671Y-90828387D01*
X75959765Y-90851271D01*
X75947468Y-90871454D01*
X75779500Y-91330384D01*
X75775821Y-91354006D01*
X75765467Y-91375550D01*
X75642387Y-91854250D01*
X75641052Y-91878363D01*
X75632821Y-91901067D01*
X75557131Y-92397027D01*
X75558223Y-92421342D01*
X75552278Y-92444943D01*
X75526498Y-92955663D01*
X75528589Y-92969892D01*
X75527726Y-92973246D01*
X75526364Y-92997760D01*
X75526299Y-92998157D01*
X75526315Y-92998632D01*
X75500796Y-93457905D01*
X75430278Y-93904327D01*
X75317140Y-94334882D01*
X75163610Y-94747583D01*
X74971905Y-95140312D01*
X74764712Y-95477560D01*
X75426230Y-93884448D01*
X75427767Y-92123279D01*
X74755216Y-90495582D01*
X73800974Y-89539672D01*
X78570646Y-84770000D01*
X79394635Y-84770000D01*
X79394635Y-86470000D01*
X79424409Y-86628237D01*
X79517927Y-86773567D01*
X79660619Y-86871064D01*
X79830000Y-86905365D01*
X81530000Y-86905365D01*
X81688237Y-86875591D01*
X81833567Y-86782073D01*
X81931064Y-86639381D01*
X81965365Y-86470000D01*
X81965365Y-85757454D01*
X82040206Y-86133705D01*
X82317025Y-86547993D01*
X82731313Y-86824812D01*
X83220000Y-86922018D01*
X83708687Y-86824812D01*
X84122975Y-86547993D01*
X84399794Y-86133705D01*
X84490000Y-85680209D01*
X84580206Y-86133705D01*
X84857025Y-86547993D01*
X85271313Y-86824812D01*
X85760000Y-86922018D01*
X86248687Y-86824812D01*
X86662975Y-86547993D01*
X86939794Y-86133705D01*
X87030000Y-85680209D01*
X87120206Y-86133705D01*
X87397025Y-86547993D01*
X87811313Y-86824812D01*
X88300000Y-86922018D01*
X88788687Y-86824812D01*
X89202975Y-86547993D01*
X89479794Y-86133705D01*
X89570000Y-85680209D01*
X89660206Y-86133705D01*
X89937025Y-86547993D01*
X90351313Y-86824812D01*
X90840000Y-86922018D01*
X91328687Y-86824812D01*
X91742975Y-86547993D01*
X92019794Y-86133705D01*
X92051787Y-85972863D01*
X92277267Y-86444704D01*
X92676808Y-86803925D01*
X93040071Y-86954383D01*
X93253000Y-86858757D01*
X93253000Y-85747000D01*
X93233000Y-85747000D01*
X93233000Y-85493000D01*
X93253000Y-85493000D01*
X93253000Y-84381243D01*
X93040071Y-84285617D01*
X92676808Y-84436075D01*
X92277267Y-84795296D01*
X92051787Y-85267137D01*
X92019794Y-85106295D01*
X91742975Y-84692007D01*
X91328687Y-84415188D01*
X90840000Y-84317982D01*
X90351313Y-84415188D01*
X89937025Y-84692007D01*
X89660206Y-85106295D01*
X89570000Y-85559791D01*
X89479794Y-85106295D01*
X89202975Y-84692007D01*
X88788687Y-84415188D01*
X88300000Y-84317982D01*
X87811313Y-84415188D01*
X87397025Y-84692007D01*
X87120206Y-85106295D01*
X87030000Y-85559791D01*
X86939794Y-85106295D01*
X86662975Y-84692007D01*
X86248687Y-84415188D01*
X85760000Y-84317982D01*
X85271313Y-84415188D01*
X84857025Y-84692007D01*
X84580206Y-85106295D01*
X84490000Y-85559791D01*
X84399794Y-85106295D01*
X84122975Y-84692007D01*
X83708687Y-84415188D01*
X83220000Y-84317982D01*
X82731313Y-84415188D01*
X82317025Y-84692007D01*
X82040206Y-85106295D01*
X81965365Y-85482546D01*
X81965365Y-84770000D01*
X81935591Y-84611763D01*
X81842073Y-84466433D01*
X81699381Y-84368936D01*
X81530000Y-84334635D01*
X79830000Y-84334635D01*
X79671763Y-84364409D01*
X79526433Y-84457927D01*
X79428936Y-84600619D01*
X79394635Y-84770000D01*
X78570646Y-84770000D01*
X79857646Y-83483000D01*
X94107000Y-83483000D01*
X94318242Y-83440982D01*
X94497323Y-83321323D01*
X95965686Y-81852960D01*
X96175779Y-81853143D01*
X96479846Y-81727505D01*
X96712688Y-81495070D01*
X96838856Y-81191222D01*
X96839143Y-80862221D01*
X96713505Y-80558154D01*
X96481070Y-80325312D01*
X96177222Y-80199144D01*
X95848221Y-80198857D01*
X95544154Y-80324495D01*
X95311312Y-80556930D01*
X95185144Y-80860778D01*
X95184959Y-81072395D01*
X93878354Y-82379000D01*
X79629000Y-82379000D01*
X79417758Y-82421018D01*
X79238677Y-82540677D01*
X78791398Y-82987956D01*
X78679505Y-82717154D01*
X78530000Y-82567387D01*
X78530000Y-82397646D01*
X81127646Y-79800000D01*
X89196791Y-79800000D01*
X89214495Y-79842846D01*
X89446930Y-80075688D01*
X89750778Y-80201856D01*
X90079779Y-80202143D01*
X90383846Y-80076505D01*
X90616688Y-79844070D01*
X90742856Y-79540222D01*
X90743143Y-79211221D01*
X90617505Y-78907154D01*
X90385070Y-78674312D01*
X90081222Y-78548144D01*
X89752221Y-78547857D01*
X89448154Y-78673495D01*
X89425610Y-78696000D01*
X80772000Y-78696000D01*
X80560759Y-78738018D01*
X80381677Y-78857677D01*
X80262018Y-79036759D01*
X80245239Y-79121115D01*
X77587677Y-81778677D01*
X77468018Y-81957758D01*
X77442676Y-82085163D01*
X77426000Y-82169000D01*
X77426000Y-82567502D01*
X77277312Y-82715930D01*
X77151144Y-83019778D01*
X77150857Y-83348779D01*
X77276495Y-83652846D01*
X77508930Y-83885688D01*
X77780783Y-83998571D01*
X72817957Y-88961397D01*
X71884448Y-88573770D01*
X70123279Y-88572233D01*
X68495582Y-89244784D01*
X67249160Y-90489032D01*
X66573770Y-92115552D01*
X66572233Y-93876721D01*
X67224710Y-95455834D01*
X67025522Y-95127927D01*
X66835415Y-94733255D01*
X66683653Y-94318568D01*
X66572438Y-93885992D01*
X66504003Y-93437541D01*
X66480653Y-92974983D01*
X66503892Y-92514305D01*
X66571871Y-92067194D01*
X66682332Y-91635551D01*
X66833076Y-91221382D01*
X67021925Y-90826885D01*
X67246679Y-90454333D01*
X67505131Y-90106022D01*
X67794990Y-89784340D01*
X68113943Y-89491649D01*
X68459676Y-89230284D01*
X68829854Y-89002557D01*
X69222197Y-88810725D01*
X69634508Y-88656999D01*
X70064681Y-88543590D01*
X70510726Y-88472731D01*
X70994996Y-88445392D01*
X70995415Y-88445284D01*
X70997224Y-88445550D01*
X71252231Y-88432750D01*
X71275906Y-88426793D01*
X71300294Y-88427888D01*
X71547934Y-88390088D01*
X71570669Y-88381845D01*
X71594819Y-88380504D01*
X71833841Y-88319004D01*
X71855372Y-88308651D01*
X71878979Y-88304972D01*
X72108133Y-88221072D01*
X72128275Y-88208797D01*
X72151116Y-88202904D01*
X72369149Y-88097894D01*
X72387832Y-88083833D01*
X72409800Y-88075826D01*
X72615445Y-87950916D01*
X72632526Y-87935251D01*
X72653438Y-87925261D01*
X72845454Y-87781701D01*
X72860863Y-87764567D01*
X72880617Y-87752693D01*
X73057752Y-87591732D01*
X73071430Y-87573240D01*
X73089922Y-87559568D01*
X73250917Y-87382468D01*
X73262793Y-87362720D01*
X73279932Y-87347313D01*
X73423533Y-87155323D01*
X73433529Y-87134409D01*
X73449200Y-87117328D01*
X73574154Y-86911698D01*
X73582161Y-86889741D01*
X73596220Y-86871071D01*
X73701277Y-86653070D01*
X73707186Y-86630191D01*
X73719484Y-86610013D01*
X73803394Y-86380873D01*
X73807077Y-86357257D01*
X73817434Y-86335716D01*
X73878934Y-86096705D01*
X73880274Y-86072593D01*
X73888509Y-86049890D01*
X73926349Y-85802251D01*
X73925261Y-85777937D01*
X73931211Y-85754337D01*
X73944131Y-85499337D01*
X73940594Y-85475239D01*
X73944135Y-85451141D01*
X73931255Y-85196101D01*
X73925312Y-85172514D01*
X73926405Y-85148214D01*
X73888615Y-84900534D01*
X73880383Y-84877825D01*
X73879048Y-84853705D01*
X73817588Y-84614656D01*
X73807231Y-84593106D01*
X73803552Y-84569484D01*
X73719672Y-84340304D01*
X73707377Y-84320124D01*
X73701472Y-84297242D01*
X73596436Y-84079192D01*
X73582374Y-84060510D01*
X73574364Y-84038539D01*
X73449418Y-83832869D01*
X73433750Y-83815788D01*
X73423757Y-83794873D01*
X73280161Y-83602843D01*
X73263022Y-83587431D01*
X73251146Y-83567680D01*
X73090151Y-83390540D01*
X73071655Y-83376862D01*
X73057976Y-83358365D01*
X72880828Y-83197365D01*
X72861078Y-83185490D01*
X72845668Y-83168353D01*
X72653646Y-83024763D01*
X72632718Y-83014763D01*
X72615625Y-82999087D01*
X72409951Y-82874157D01*
X72388010Y-82866160D01*
X72369351Y-82852113D01*
X72151307Y-82747063D01*
X72128426Y-82741157D01*
X72108248Y-82728861D01*
X71879061Y-82644961D01*
X71855462Y-82641284D01*
X71833933Y-82630933D01*
X71594888Y-82569433D01*
X71570740Y-82568092D01*
X71548005Y-82559850D01*
X71300330Y-82522050D01*
X71276038Y-82523141D01*
X71252460Y-82517199D01*
X70997418Y-82504299D01*
X70995558Y-82504572D01*
X70995101Y-82504454D01*
X70510793Y-82477017D01*
X70064697Y-82406151D01*
X69634531Y-82292741D01*
X69222219Y-82139007D01*
X68829877Y-81947174D01*
X68459695Y-81719442D01*
X68113965Y-81458078D01*
X67795014Y-81165397D01*
X67505162Y-80843720D01*
X67246716Y-80495415D01*
X67021952Y-80122847D01*
X66833109Y-79728372D01*
X66682358Y-79314201D01*
X66571895Y-78882552D01*
X66540895Y-78678682D01*
X67572406Y-78678682D01*
X68093037Y-79938704D01*
X69056226Y-80903575D01*
X70315337Y-81426404D01*
X71678682Y-81427594D01*
X72938704Y-80906963D01*
X73903575Y-79943774D01*
X74426404Y-78684663D01*
X74427594Y-77321318D01*
X74136898Y-76617779D01*
X91501857Y-76617779D01*
X91627495Y-76921846D01*
X91859930Y-77154688D01*
X92163778Y-77280856D01*
X92403100Y-77281065D01*
X92498759Y-77344982D01*
X92710000Y-77387000D01*
X96545354Y-77387000D01*
X97746000Y-78587646D01*
X97746000Y-81407000D01*
X97788018Y-81618242D01*
X97907677Y-81797323D01*
X100448000Y-84337646D01*
X100448000Y-84457492D01*
X100097025Y-84692007D01*
X99820206Y-85106295D01*
X99730000Y-85559791D01*
X99639794Y-85106295D01*
X99362975Y-84692007D01*
X98948687Y-84415188D01*
X98460000Y-84317982D01*
X97971313Y-84415188D01*
X97557025Y-84692007D01*
X97280206Y-85106295D01*
X97190000Y-85559791D01*
X97099794Y-85106295D01*
X96822975Y-84692007D01*
X96408687Y-84415188D01*
X95920000Y-84317982D01*
X95431313Y-84415188D01*
X95017025Y-84692007D01*
X94740206Y-85106295D01*
X94708213Y-85267137D01*
X94482733Y-84795296D01*
X94083192Y-84436075D01*
X93719929Y-84285617D01*
X93507000Y-84381243D01*
X93507000Y-85493000D01*
X93527000Y-85493000D01*
X93527000Y-85747000D01*
X93507000Y-85747000D01*
X93507000Y-86858757D01*
X93719929Y-86954383D01*
X94083192Y-86803925D01*
X94482733Y-86444704D01*
X94708213Y-85972863D01*
X94740206Y-86133705D01*
X95017025Y-86547993D01*
X95431313Y-86824812D01*
X95920000Y-86922018D01*
X96408687Y-86824812D01*
X96822975Y-86547993D01*
X97099794Y-86133705D01*
X97190000Y-85680209D01*
X97280206Y-86133705D01*
X97557025Y-86547993D01*
X97971313Y-86824812D01*
X98460000Y-86922018D01*
X98948687Y-86824812D01*
X99362975Y-86547993D01*
X99639794Y-86133705D01*
X99730000Y-85680209D01*
X99820206Y-86133705D01*
X100097025Y-86547993D01*
X100511313Y-86824812D01*
X101000000Y-86922018D01*
X101488687Y-86824812D01*
X101902975Y-86547993D01*
X102179794Y-86133705D01*
X102270000Y-85680209D01*
X102360206Y-86133705D01*
X102637025Y-86547993D01*
X103051313Y-86824812D01*
X103540000Y-86922018D01*
X104028687Y-86824812D01*
X104442975Y-86547993D01*
X104719794Y-86133705D01*
X104810000Y-85680209D01*
X104900206Y-86133705D01*
X105177025Y-86547993D01*
X105591313Y-86824812D01*
X106080000Y-86922018D01*
X106568687Y-86824812D01*
X106982975Y-86547993D01*
X107259794Y-86133705D01*
X107350000Y-85680209D01*
X107440206Y-86133705D01*
X107717025Y-86547993D01*
X108131313Y-86824812D01*
X108620000Y-86922018D01*
X109108687Y-86824812D01*
X109522975Y-86547993D01*
X109799794Y-86133705D01*
X109890000Y-85680209D01*
X109980206Y-86133705D01*
X110257025Y-86547993D01*
X110671313Y-86824812D01*
X111160000Y-86922018D01*
X111648687Y-86824812D01*
X112062975Y-86547993D01*
X112339794Y-86133705D01*
X112430000Y-85680209D01*
X112520206Y-86133705D01*
X112797025Y-86547993D01*
X113211313Y-86824812D01*
X113700000Y-86922018D01*
X114188687Y-86824812D01*
X114602975Y-86547993D01*
X114879794Y-86133705D01*
X114970000Y-85680209D01*
X115060206Y-86133705D01*
X115337025Y-86547993D01*
X115751313Y-86824812D01*
X116240000Y-86922018D01*
X116728687Y-86824812D01*
X117142975Y-86547993D01*
X117419794Y-86133705D01*
X117510000Y-85680209D01*
X117600206Y-86133705D01*
X117877025Y-86547993D01*
X118291313Y-86824812D01*
X118780000Y-86922018D01*
X119268687Y-86824812D01*
X119682975Y-86547993D01*
X119959794Y-86133705D01*
X120050000Y-85680209D01*
X120140206Y-86133705D01*
X120417025Y-86547993D01*
X120831313Y-86824812D01*
X121320000Y-86922018D01*
X121808687Y-86824812D01*
X122222975Y-86547993D01*
X122499794Y-86133705D01*
X122597000Y-85645018D01*
X122597000Y-85594982D01*
X122499794Y-85106295D01*
X122222975Y-84692007D01*
X121808687Y-84415188D01*
X121320000Y-84317982D01*
X120831313Y-84415188D01*
X120417025Y-84692007D01*
X120140206Y-85106295D01*
X120050000Y-85559791D01*
X119959794Y-85106295D01*
X119682975Y-84692007D01*
X119268687Y-84415188D01*
X118780000Y-84317982D01*
X118291313Y-84415188D01*
X117877025Y-84692007D01*
X117600206Y-85106295D01*
X117510000Y-85559791D01*
X117419794Y-85106295D01*
X117142975Y-84692007D01*
X116728687Y-84415188D01*
X116240000Y-84317982D01*
X115751313Y-84415188D01*
X115337025Y-84692007D01*
X115060206Y-85106295D01*
X114970000Y-85559791D01*
X114879794Y-85106295D01*
X114602975Y-84692007D01*
X114188687Y-84415188D01*
X113700000Y-84317982D01*
X113211313Y-84415188D01*
X112797025Y-84692007D01*
X112520206Y-85106295D01*
X112430000Y-85559791D01*
X112339794Y-85106295D01*
X112062975Y-84692007D01*
X111648687Y-84415188D01*
X111160000Y-84317982D01*
X110671313Y-84415188D01*
X110257025Y-84692007D01*
X109980206Y-85106295D01*
X109890000Y-85559791D01*
X109799794Y-85106295D01*
X109522975Y-84692007D01*
X109108687Y-84415188D01*
X108620000Y-84317982D01*
X108131313Y-84415188D01*
X107717025Y-84692007D01*
X107440206Y-85106295D01*
X107350000Y-85559791D01*
X107259794Y-85106295D01*
X106982975Y-84692007D01*
X106568687Y-84415188D01*
X106080000Y-84317982D01*
X105591313Y-84415188D01*
X105177025Y-84692007D01*
X104900206Y-85106295D01*
X104810000Y-85559791D01*
X104719794Y-85106295D01*
X104539372Y-84836274D01*
X110696964Y-78678682D01*
X127572406Y-78678682D01*
X128093037Y-79938704D01*
X129056226Y-80903575D01*
X130315337Y-81426404D01*
X131678682Y-81427594D01*
X132938704Y-80906963D01*
X133903575Y-79943774D01*
X134426404Y-78684663D01*
X134427594Y-77321318D01*
X133906963Y-76061296D01*
X132943774Y-75096425D01*
X131684663Y-74573596D01*
X130321318Y-74572406D01*
X129061296Y-75093037D01*
X128096425Y-76056226D01*
X127573596Y-77315337D01*
X127572406Y-78678682D01*
X110696964Y-78678682D01*
X111586686Y-77788960D01*
X111796779Y-77789143D01*
X112100846Y-77663505D01*
X112333688Y-77431070D01*
X112459856Y-77127222D01*
X112460143Y-76798221D01*
X112334505Y-76494154D01*
X112102070Y-76261312D01*
X111798222Y-76135144D01*
X111469221Y-76134857D01*
X111165154Y-76260495D01*
X110932312Y-76492930D01*
X110806144Y-76796778D01*
X110805959Y-77008395D01*
X103485539Y-84328815D01*
X103051313Y-84415188D01*
X102637025Y-84692007D01*
X102360206Y-85106295D01*
X102270000Y-85559791D01*
X102179794Y-85106295D01*
X101902975Y-84692007D01*
X101552000Y-84457492D01*
X101552000Y-84109000D01*
X101524613Y-83971315D01*
X101509982Y-83897758D01*
X101390323Y-83718677D01*
X98850000Y-81178354D01*
X98850000Y-78359000D01*
X98807982Y-78147759D01*
X98688323Y-77968677D01*
X97164323Y-76444677D01*
X96985242Y-76325018D01*
X96774000Y-76283000D01*
X93153159Y-76283000D01*
X93030505Y-75986154D01*
X92798070Y-75753312D01*
X92494222Y-75627144D01*
X92165221Y-75626857D01*
X91861154Y-75752495D01*
X91628312Y-75984930D01*
X91502144Y-76288778D01*
X91501857Y-76617779D01*
X74136898Y-76617779D01*
X73906963Y-76061296D01*
X72943774Y-75096425D01*
X71684663Y-74573596D01*
X70321318Y-74572406D01*
X69061296Y-75093037D01*
X68096425Y-76056226D01*
X67573596Y-77315337D01*
X67572406Y-78678682D01*
X66540895Y-78678682D01*
X66503906Y-78435437D01*
X66480658Y-77974758D01*
X66504008Y-77512209D01*
X66572442Y-77063761D01*
X66683661Y-76631176D01*
X66835422Y-76216490D01*
X67025530Y-75821816D01*
X67251763Y-75449389D01*
X67511865Y-75101531D01*
X67803562Y-74780554D01*
X68124501Y-74488831D01*
X68472342Y-74228686D01*
X68844742Y-74002425D01*
X69239395Y-73812274D01*
X69654073Y-73660466D01*
X70086626Y-73549205D01*
X70535053Y-73480755D01*
X71006861Y-73456919D01*
X71043911Y-73457348D01*
X71091359Y-73458234D01*
X71140398Y-73460067D01*
X71140401Y-73460067D01*
X71193897Y-73462066D01*
X71193901Y-73462067D01*
X71238472Y-73463734D01*
X71278584Y-73466737D01*
X71327519Y-73471321D01*
X71327520Y-73471321D01*
X71380781Y-73476314D01*
X71380783Y-73476315D01*
X71429639Y-73480898D01*
X71478396Y-73486396D01*
X71478397Y-73486396D01*
X71527052Y-73491888D01*
X71575634Y-73498292D01*
X71575635Y-73498292D01*
X71624272Y-73504717D01*
X71668434Y-73511385D01*
X71716897Y-73519636D01*
X71716899Y-73519636D01*
X71769544Y-73528613D01*
X71814566Y-73527377D01*
X71858901Y-73535312D01*
X71906688Y-73524847D01*
X71955590Y-73523504D01*
X71996713Y-73505132D01*
X72040709Y-73495497D01*
X72080852Y-73467542D01*
X72125519Y-73447587D01*
X72156482Y-73414875D01*
X72193441Y-73389138D01*
X72219830Y-73347951D01*
X72250281Y-73315779D01*
X88834857Y-73315779D01*
X88960495Y-73619846D01*
X89192930Y-73852688D01*
X89496778Y-73978856D01*
X89708395Y-73979041D01*
X90033677Y-74304323D01*
X90212758Y-74423982D01*
X90424000Y-74466000D01*
X104580207Y-74466000D01*
X104456144Y-74764778D01*
X104455857Y-75093779D01*
X104581495Y-75397846D01*
X104731000Y-75547613D01*
X104731000Y-78376502D01*
X104582312Y-78524930D01*
X104456144Y-78828778D01*
X104455857Y-79157779D01*
X104581495Y-79461846D01*
X104813930Y-79694688D01*
X105117778Y-79820856D01*
X105446779Y-79821143D01*
X105750846Y-79695505D01*
X105983688Y-79463070D01*
X106109856Y-79159222D01*
X106110143Y-78830221D01*
X105984505Y-78526154D01*
X105835000Y-78376387D01*
X105835000Y-75547498D01*
X105983688Y-75399070D01*
X106109856Y-75095222D01*
X106110143Y-74766221D01*
X105986094Y-74466000D01*
X109474000Y-74466000D01*
X109500065Y-74460815D01*
X109562778Y-74486856D01*
X109891779Y-74487143D01*
X110195846Y-74361505D01*
X110428688Y-74129070D01*
X110554856Y-73825222D01*
X110555044Y-73609531D01*
X110832778Y-73724856D01*
X111161779Y-73725143D01*
X111465846Y-73599505D01*
X111698688Y-73367070D01*
X111824856Y-73063222D01*
X111825143Y-72734221D01*
X111699505Y-72430154D01*
X111467070Y-72197312D01*
X111163222Y-72071144D01*
X110834221Y-72070857D01*
X110530154Y-72196495D01*
X110380387Y-72346000D01*
X91549498Y-72346000D01*
X91401070Y-72197312D01*
X91097222Y-72071144D01*
X90768221Y-72070857D01*
X90464154Y-72196495D01*
X90231312Y-72428930D01*
X90195301Y-72515655D01*
X90131070Y-72451312D01*
X89827222Y-72325144D01*
X89498221Y-72324857D01*
X89194154Y-72450495D01*
X88961312Y-72682930D01*
X88835144Y-72986778D01*
X88834857Y-73315779D01*
X72250281Y-73315779D01*
X72253461Y-73312420D01*
X72269549Y-73270348D01*
X72293845Y-73232427D01*
X72720512Y-72143568D01*
X73217467Y-71120397D01*
X73666260Y-70354982D01*
X79403000Y-70354982D01*
X79403000Y-70405018D01*
X79500206Y-70893705D01*
X79777025Y-71307993D01*
X80191313Y-71584812D01*
X80680000Y-71682018D01*
X81168687Y-71584812D01*
X81582975Y-71307993D01*
X81859794Y-70893705D01*
X81950000Y-70440209D01*
X82040206Y-70893705D01*
X82317025Y-71307993D01*
X82731313Y-71584812D01*
X83220000Y-71682018D01*
X83708687Y-71584812D01*
X84122975Y-71307993D01*
X84399794Y-70893705D01*
X84490000Y-70440209D01*
X84580206Y-70893705D01*
X84857025Y-71307993D01*
X85271313Y-71584812D01*
X85760000Y-71682018D01*
X86248687Y-71584812D01*
X86662975Y-71307993D01*
X86939794Y-70893705D01*
X86971787Y-70732863D01*
X87197267Y-71204704D01*
X87596808Y-71563925D01*
X87960071Y-71714383D01*
X88173000Y-71618757D01*
X88173000Y-70507000D01*
X88153000Y-70507000D01*
X88153000Y-70253000D01*
X88173000Y-70253000D01*
X88173000Y-69141243D01*
X88427000Y-69141243D01*
X88427000Y-70253000D01*
X88447000Y-70253000D01*
X88447000Y-70507000D01*
X88427000Y-70507000D01*
X88427000Y-71618757D01*
X88639929Y-71714383D01*
X89003192Y-71563925D01*
X89402733Y-71204704D01*
X89628213Y-70732863D01*
X89660206Y-70893705D01*
X89937025Y-71307993D01*
X90351313Y-71584812D01*
X90840000Y-71682018D01*
X91328687Y-71584812D01*
X91742975Y-71307993D01*
X92019794Y-70893705D01*
X92110000Y-70440209D01*
X92200206Y-70893705D01*
X92477025Y-71307993D01*
X92891313Y-71584812D01*
X93380000Y-71682018D01*
X93868687Y-71584812D01*
X94282975Y-71307993D01*
X94559794Y-70893705D01*
X94650000Y-70440209D01*
X94740206Y-70893705D01*
X95017025Y-71307993D01*
X95431313Y-71584812D01*
X95920000Y-71682018D01*
X96408687Y-71584812D01*
X96822975Y-71307993D01*
X97099794Y-70893705D01*
X97190000Y-70440209D01*
X97280206Y-70893705D01*
X97557025Y-71307993D01*
X97971313Y-71584812D01*
X98460000Y-71682018D01*
X98948687Y-71584812D01*
X99362975Y-71307993D01*
X99639794Y-70893705D01*
X99730000Y-70440209D01*
X99820206Y-70893705D01*
X100097025Y-71307993D01*
X100511313Y-71584812D01*
X101000000Y-71682018D01*
X101488687Y-71584812D01*
X101902975Y-71307993D01*
X102179794Y-70893705D01*
X102270000Y-70440209D01*
X102360206Y-70893705D01*
X102637025Y-71307993D01*
X103051313Y-71584812D01*
X103540000Y-71682018D01*
X104028687Y-71584812D01*
X104442975Y-71307993D01*
X104719794Y-70893705D01*
X104810000Y-70440209D01*
X104900206Y-70893705D01*
X105177025Y-71307993D01*
X105591313Y-71584812D01*
X106080000Y-71682018D01*
X106568687Y-71584812D01*
X106982975Y-71307993D01*
X107259794Y-70893705D01*
X107350000Y-70440209D01*
X107440206Y-70893705D01*
X107717025Y-71307993D01*
X108131313Y-71584812D01*
X108620000Y-71682018D01*
X109108687Y-71584812D01*
X109522975Y-71307993D01*
X109799794Y-70893705D01*
X109890000Y-70440209D01*
X109980206Y-70893705D01*
X110257025Y-71307993D01*
X110671313Y-71584812D01*
X111160000Y-71682018D01*
X111648687Y-71584812D01*
X112062975Y-71307993D01*
X112339794Y-70893705D01*
X112430000Y-70440209D01*
X112520206Y-70893705D01*
X112797025Y-71307993D01*
X113211313Y-71584812D01*
X113700000Y-71682018D01*
X114188687Y-71584812D01*
X114602975Y-71307993D01*
X114879794Y-70893705D01*
X114970000Y-70440209D01*
X115060206Y-70893705D01*
X115337025Y-71307993D01*
X115751313Y-71584812D01*
X116240000Y-71682018D01*
X116728687Y-71584812D01*
X117142975Y-71307993D01*
X117419794Y-70893705D01*
X117510000Y-70440209D01*
X117600206Y-70893705D01*
X117877025Y-71307993D01*
X118291313Y-71584812D01*
X118780000Y-71682018D01*
X119268687Y-71584812D01*
X119682975Y-71307993D01*
X119959794Y-70893705D01*
X120050000Y-70440209D01*
X120140206Y-70893705D01*
X120417025Y-71307993D01*
X120831313Y-71584812D01*
X121320000Y-71682018D01*
X121808687Y-71584812D01*
X122222975Y-71307993D01*
X122499794Y-70893705D01*
X122597000Y-70405018D01*
X122597000Y-70354982D01*
X122499794Y-69866295D01*
X122222975Y-69452007D01*
X121808687Y-69175188D01*
X121320000Y-69077982D01*
X120831313Y-69175188D01*
X120417025Y-69452007D01*
X120140206Y-69866295D01*
X120050000Y-70319791D01*
X119959794Y-69866295D01*
X119682975Y-69452007D01*
X119268687Y-69175188D01*
X118780000Y-69077982D01*
X118291313Y-69175188D01*
X117877025Y-69452007D01*
X117600206Y-69866295D01*
X117510000Y-70319791D01*
X117419794Y-69866295D01*
X117142975Y-69452007D01*
X116728687Y-69175188D01*
X116240000Y-69077982D01*
X115751313Y-69175188D01*
X115337025Y-69452007D01*
X115060206Y-69866295D01*
X114970000Y-70319791D01*
X114879794Y-69866295D01*
X114602975Y-69452007D01*
X114188687Y-69175188D01*
X113700000Y-69077982D01*
X113211313Y-69175188D01*
X112797025Y-69452007D01*
X112520206Y-69866295D01*
X112430000Y-70319791D01*
X112339794Y-69866295D01*
X112062975Y-69452007D01*
X111648687Y-69175188D01*
X111160000Y-69077982D01*
X110671313Y-69175188D01*
X110257025Y-69452007D01*
X109980206Y-69866295D01*
X109890000Y-70319791D01*
X109799794Y-69866295D01*
X109522975Y-69452007D01*
X109108687Y-69175188D01*
X108620000Y-69077982D01*
X108131313Y-69175188D01*
X107717025Y-69452007D01*
X107440206Y-69866295D01*
X107350000Y-70319791D01*
X107259794Y-69866295D01*
X106982975Y-69452007D01*
X106568687Y-69175188D01*
X106080000Y-69077982D01*
X105591313Y-69175188D01*
X105177025Y-69452007D01*
X104900206Y-69866295D01*
X104810000Y-70319791D01*
X104719794Y-69866295D01*
X104442975Y-69452007D01*
X104028687Y-69175188D01*
X103540000Y-69077982D01*
X103051313Y-69175188D01*
X102637025Y-69452007D01*
X102360206Y-69866295D01*
X102270000Y-70319791D01*
X102179794Y-69866295D01*
X101902975Y-69452007D01*
X101488687Y-69175188D01*
X101000000Y-69077982D01*
X100511313Y-69175188D01*
X100097025Y-69452007D01*
X99820206Y-69866295D01*
X99730000Y-70319791D01*
X99639794Y-69866295D01*
X99362975Y-69452007D01*
X98948687Y-69175188D01*
X98460000Y-69077982D01*
X97971313Y-69175188D01*
X97557025Y-69452007D01*
X97280206Y-69866295D01*
X97190000Y-70319791D01*
X97099794Y-69866295D01*
X96822975Y-69452007D01*
X96408687Y-69175188D01*
X95920000Y-69077982D01*
X95431313Y-69175188D01*
X95017025Y-69452007D01*
X94740206Y-69866295D01*
X94650000Y-70319791D01*
X94559794Y-69866295D01*
X94282975Y-69452007D01*
X93868687Y-69175188D01*
X93380000Y-69077982D01*
X92891313Y-69175188D01*
X92477025Y-69452007D01*
X92200206Y-69866295D01*
X92110000Y-70319791D01*
X92019794Y-69866295D01*
X91742975Y-69452007D01*
X91328687Y-69175188D01*
X90840000Y-69077982D01*
X90351313Y-69175188D01*
X89937025Y-69452007D01*
X89660206Y-69866295D01*
X89628213Y-70027137D01*
X89402733Y-69555296D01*
X89003192Y-69196075D01*
X88639929Y-69045617D01*
X88427000Y-69141243D01*
X88173000Y-69141243D01*
X87960071Y-69045617D01*
X87596808Y-69196075D01*
X87197267Y-69555296D01*
X86971787Y-70027137D01*
X86939794Y-69866295D01*
X86662975Y-69452007D01*
X86248687Y-69175188D01*
X85760000Y-69077982D01*
X85271313Y-69175188D01*
X84857025Y-69452007D01*
X84580206Y-69866295D01*
X84490000Y-70319791D01*
X84399794Y-69866295D01*
X84122975Y-69452007D01*
X83708687Y-69175188D01*
X83220000Y-69077982D01*
X82731313Y-69175188D01*
X82317025Y-69452007D01*
X82040206Y-69866295D01*
X81950000Y-70319791D01*
X81859794Y-69866295D01*
X81582975Y-69452007D01*
X81168687Y-69175188D01*
X80680000Y-69077982D01*
X80191313Y-69175188D01*
X79777025Y-69452007D01*
X79500206Y-69866295D01*
X79403000Y-70354982D01*
X73666260Y-70354982D01*
X73787539Y-70148142D01*
X74426695Y-69229613D01*
X75130856Y-68367713D01*
X75895961Y-67565324D01*
X76717938Y-66825370D01*
X77592655Y-66150791D01*
X78516051Y-65544501D01*
X79483960Y-65009435D01*
X80492328Y-64548492D01*
X81537021Y-64164592D01*
X82613996Y-63860644D01*
X83719182Y-63639486D01*
X84848571Y-63504063D01*
X86001449Y-63457162D01*
X86002896Y-63457450D01*
X86005088Y-63457014D01*
X86017085Y-63456526D01*
X86061608Y-63445772D01*
X86066466Y-63444805D01*
X86129911Y-63440109D01*
X86136337Y-63436873D01*
X86144156Y-63436054D01*
X86163666Y-63425471D01*
X86185436Y-63421141D01*
X86197811Y-63412872D01*
X86197998Y-63412827D01*
X86199315Y-63411867D01*
X86240141Y-63384588D01*
X86296133Y-63356386D01*
X86300614Y-63351188D01*
X86307755Y-63347315D01*
X86321730Y-63330072D01*
X86340186Y-63317740D01*
X86377160Y-63262404D01*
X86417663Y-63215426D01*
X86419734Y-63209151D01*
X86424943Y-63202724D01*
X86430763Y-63183104D01*
X86433803Y-63179018D01*
X86434364Y-63176794D01*
X86443587Y-63162990D01*
X86456655Y-63097291D01*
X86472094Y-63050516D01*
X86462731Y-63847216D01*
X87132326Y-65519063D01*
X87192594Y-65609261D01*
X87740846Y-66079549D01*
X90344200Y-63476195D01*
X90496275Y-63476195D01*
X90496275Y-63683330D01*
X87920451Y-66259154D01*
X88390739Y-66807406D01*
X90046388Y-67516105D01*
X91847216Y-67537269D01*
X93519063Y-66867674D01*
X93609261Y-66807406D01*
X94079549Y-66259154D01*
X91450275Y-63629880D01*
X91450275Y-63476195D01*
X91655800Y-63476195D01*
X94259154Y-66079549D01*
X94807406Y-65609261D01*
X95516105Y-63953612D01*
X95525265Y-63174182D01*
X95526072Y-63178240D01*
X95536011Y-63254886D01*
X95544127Y-63269006D01*
X95547304Y-63284980D01*
X95590241Y-63349240D01*
X95628755Y-63416249D01*
X95641657Y-63426189D01*
X95650705Y-63439730D01*
X95714962Y-63482666D01*
X95776190Y-63529837D01*
X95791914Y-63534083D01*
X95805455Y-63543131D01*
X95881258Y-63558209D01*
X95955871Y-63578357D01*
X95972022Y-63576263D01*
X95987995Y-63579440D01*
X106009125Y-63579440D01*
X106020394Y-63577199D01*
X106031757Y-63578903D01*
X106111290Y-63559118D01*
X106191665Y-63543131D01*
X106201218Y-63536748D01*
X106212369Y-63533974D01*
X106278276Y-63485259D01*
X106346415Y-63439730D01*
X106352799Y-63430176D01*
X106362038Y-63423347D01*
X106404284Y-63353123D01*
X106449816Y-63284980D01*
X106452057Y-63273712D01*
X106457981Y-63263865D01*
X106470138Y-63182811D01*
X106470565Y-63180669D01*
X106462731Y-63847216D01*
X107132326Y-65519063D01*
X107192594Y-65609261D01*
X107740846Y-66079549D01*
X110344200Y-63476195D01*
X110496275Y-63476195D01*
X110496275Y-63683330D01*
X107920451Y-66259154D01*
X108390739Y-66807406D01*
X110046388Y-67516105D01*
X111847216Y-67537269D01*
X113519063Y-66867674D01*
X113609261Y-66807406D01*
X114079549Y-66259154D01*
X111450275Y-63629880D01*
X111450275Y-63476195D01*
X111655800Y-63476195D01*
X114259154Y-66079549D01*
X114807406Y-65609261D01*
X115516105Y-63953612D01*
X115526901Y-63035012D01*
X115535232Y-63068076D01*
M02*
