M48
;DRILL file {KiCad 4.0.7-e2-6376~58~ubuntu16.04.1} date Fri Oct  5 04:37:04 2018
;FORMAT={-:-/ absolute / inch / decimal}
FMAT,2
INCH,TZ
T1C0.016
T2C0.039
T3C0.126
T4C0.157
%
G90
G05
M72
T1
X3.07Y-3.275
X3.53Y-2.88
X3.54Y-3.125
X3.58Y-2.87
X3.635Y-3.01
X3.635Y-3.12
X3.78Y-3.19
X3.935Y-3.165
X4.145Y-2.95
X4.145Y-3.11
X4.32Y-2.9
X4.37Y-2.87
X4.395Y-3.03
X4.42Y-3.265
X4.485Y-2.65
X4.75Y-3.275
T2
X3.1764Y-2.7709
X3.1764Y-3.3709
X3.2764Y-2.7709
X3.2764Y-3.3709
X3.3764Y-2.7709
X3.3764Y-3.3709
X3.4764Y-2.7709
X3.4764Y-3.3709
X3.5764Y-2.7709
X3.5764Y-3.3709
X3.6764Y-2.7709
X3.6764Y-3.3709
X3.7764Y-2.7709
X3.7764Y-3.3709
X3.8764Y-2.7709
X3.8764Y-3.3709
X3.9764Y-2.7709
X3.9764Y-3.3709
X4.0764Y-2.7709
X4.0764Y-3.3709
X4.1764Y-2.7709
X4.1764Y-3.3709
X4.2764Y-2.7709
X4.2764Y-3.3709
X4.3764Y-2.7709
X4.3764Y-3.3709
X4.4764Y-2.7709
X4.4764Y-3.3709
X4.5764Y-2.7709
X4.5764Y-3.3709
X4.6764Y-2.7709
X4.6764Y-3.3709
X4.7764Y-2.7709
X4.7764Y-3.3709
T3
X2.7953Y-3.0709
X5.1575Y-3.0709
T4
X2.7953Y-3.6614
X3.5827Y-2.4803
X3.5827Y-3.6614
X4.3701Y-2.4803
X4.3701Y-3.6614
X5.1575Y-3.6614
T0
M30
